<?xml version="1.0" encoding="utf-8"?>
<!-- Generator: Adobe Illustrator 16.0.0, SVG Export Plug-In . SVG Version: 6.00 Build 0)  -->
<!DOCTYPE svg PUBLIC "-//W3C//DTD SVG 1.1//EN" "http://www.w3.org/Graphics/SVG/1.1/DTD/svg11.dtd">
<svg version="1.1" id="Layer_1" xmlns="http://www.w3.org/2000/svg" xmlns:xlink="http://www.w3.org/1999/xlink" x="0px" y="0px"
	 viewBox="0 0 500 500" enable-background="new 0 0 500 500" xml:space="preserve">
<g id="Bottom_Bun">
	<g>
		<g>
			<g>
				<g>
					<defs>
						<path id="SVGID_1_" d="M36.497,323.872c-4.124,1.601-3.148,1.739-4.291,5.512c-1.334,4.406-1.677,14.419-1.509,16.433
							c0.168,2.013,0.915,21.295,7.88,22.522c83.61,14.755,179.074,18.968,226.015,17.668c113.12-3.13,89.686-5.235,160.068-15.209
							c29.678-4.206,39.161-5.813,40.371-13.86s3.669-21.015,1.656-28.168c-2.014-7.151-0.84-10.34-8.942-10.506"/>
					</defs>
					<clipPath id="SVGID_2_">
						<use xlink:href="#SVGID_1_"  overflow="visible"/>
					</clipPath>
					<path id="Bottom_Bun_base" clip-path="url(#SVGID_2_)" fill="#FF9827" d="M30.658,373.48
						c20.662,4.693,387.518,63.715,446.537-7.041c59.019-70.756-15.851-54.473-31.097-62.707
						c-15.246-8.237-332.997-9.989-384.68,1.543c-51.683,11.533-63.754,8.852-61.071,26.959
						C3.032,350.343,30.658,373.48,30.658,373.48z"/>
				</g>
			</g>
		</g>
		<g>
			<g>
				<g>
					<defs>
						<path id="SVGID_3_" d="M36.497,323.872c-4.124,1.601-3.148,1.739-4.291,5.512c-1.334,4.406-1.677,14.419-1.509,16.433
							c0.168,2.013,0.915,21.295,7.88,22.522c83.61,14.755,179.074,18.968,226.015,17.668c113.12-3.13,89.686-5.235,160.068-15.209
							c29.678-4.206,39.161-5.813,40.371-13.86s3.669-21.015,1.656-28.168c-2.014-7.151-0.84-10.34-8.942-10.506"/>
					</defs>
					<clipPath id="SVGID_4_">
						<use xlink:href="#SVGID_3_"  overflow="visible"/>
					</clipPath>
					<path id="Bottom_Bun_Shadow_1A" clip-path="url(#SVGID_4_)" fill="#FF8429" d="M25.834,323.872
						c1.006,4.003,1.559,5.526,5.946,7.265c4.387,1.739,2.133,4.868,6.142,2.983c4.009-1.886,2.22-3.095,7.698,0.585
						s3.188,0.887,9.139,4.238c5.951,3.351,9.306,5.3,14.67,3.102c5.364-2.199,11.066-1.93,15.761,0
						c4.694,1.93,9.389,2.936,12.072,2.936c2.683,0,4.271,3.862,8.048,0c3.777-3.861,6.036-5.197,9.39-2.936
						c3.354,2.264,0.335,2.68,6.707,4.65c6.372,1.973,6.036,2.309,9.725,1.973c3.689-0.335,2.683-2.348,10.731-2.348
						c8.048,0,7.377-0.67,13.078,1.007c5.701,1.677,9.725,3.581,12.743,1.455s2.012-5.814,7.712-2.462
						c5.701,3.354,8.384,5.13,13.749,3.402c5.365-1.727,4.024-2.73,11.066-2.73s7.713,0,13.749,1.341s6.036,2.013,9.054,0
						s4.695-4.024,10.396-2.683c5.701,1.341,7.377,5.129,11.737,4.744c4.36-0.387,2.823,2.115,7.783,0.026
						c4.961-2.089,4.625-3.431,10.66-4.438c6.036-1.006,4.694-3.019,12.407,0c7.713,3.02,5.03,7.203,13.078,5.279
						c8.048-1.926,3.688-0.921,12.407-2.262c8.719-1.342,5.363-2.684,12.741,0c7.377,2.682,9.391,3.018,12.407,1.341
						c3.02-1.677-1.006-3.353,6.371-2.012s4.359,4.024,10.73,2.012c6.372-2.012,8.384-5.03,13.749-4.024
						c5.363,1.009,7.377,1.344,9.054,0.338c1.677-1.008-4.023-0.338,4.022-1.344c8.049-1.006,5.7,0.672,12.407,1.68
						c6.707,1.006,7.713,0.335,10.73-1.008c3.019-1.342-5.02-5.375,8.719-3.939s11.763,5.617,20.12,2.602
						c8.357-3.021,11.487,0.715,18.107-2.602c6.62-3.314,10.942-1.678,13.077-4.23c2.136-2.556,4.123-3.336,6.589-4.959
						c2.467-1.623,4.87-6.82,4.723-8.979c-0.148-2.158-0.563-2.521,0.007-5.608c0.57-3.089-41.497-6.483-46.191-6.483
						c-4.692,0-230.686,4.879-240.423,5.12c-9.737,0.242-122.397-3.051-127.594-1.512c-5.196,1.539-24.996,6.45-24.996,6.45"/>
				</g>
			</g>
		</g>
		<g>
			<g>
				<g>
					<defs>
						<path id="SVGID_5_" d="M36.497,323.872c-4.124,1.601-3.148,1.739-4.291,5.512c-1.334,4.406-1.677,14.419-1.509,16.433
							c0.168,2.013,0.915,21.295,7.88,22.522c83.61,14.755,179.074,18.968,226.015,17.668c113.12-3.13,89.686-5.235,160.068-15.209
							c29.678-4.206,39.161-5.813,40.371-13.86s3.669-21.015,1.656-28.168c-2.014-7.151-0.84-10.34-8.942-10.506"/>
					</defs>
					<clipPath id="SVGID_6_">
						<use xlink:href="#SVGID_5_"  overflow="visible"/>
					</clipPath>
					<path id="Bottom_Bun_Shadow_1B" clip-path="url(#SVGID_6_)" fill="#FF8429" d="M30.926,378.848
						c-0.464-11.736-8.78-25.82-2.912-28.168c5.869-2.348-15.244-20.035,0-8.72c16.264,12.072,30.391,17.856,36.719,18.444
						c8.798,0.813,48.959,8.718,68.073,9.053c19.114,0.336,3.018,0.336,35.546,0c32.527-0.335,92.216,6.707,117.703,4.359
						c25.484-2.349,116.695-14.084,126.085-14.42c9.392-0.334,20.791-3.354,28.168-6.371c7.378-3.02,17.537-6.707,20.002-8.719
						c2.468-2.014,4.813-5.365,7.831-8.72c3.02-3.354,15.428-8.048,15.092,6.371c-0.335,14.419-62.707,53.317-104.96,56.337
						s-341.372-8.043-341.037-12.066"/>
				</g>
			</g>
		</g>
		<g>
			<g>
				<g>
					<defs>
						<path id="SVGID_7_" d="M36.497,323.872c-4.124,1.601-3.148,1.739-4.291,5.512c-1.334,4.406-1.677,14.419-1.509,16.433
							c0.168,2.013,0.915,21.295,7.88,22.522c83.61,14.755,179.074,18.968,226.015,17.668c113.12-3.13,89.686-5.235,160.068-15.209
							c29.678-4.206,39.161-5.813,40.371-13.86s3.669-21.015,1.656-28.168c-2.014-7.151-0.84-10.34-8.942-10.506"/>
					</defs>
					<clipPath id="SVGID_8_">
						<use xlink:href="#SVGID_7_"  overflow="visible"/>
					</clipPath>
					<path id="Bottom_Bun_Shadow_1C" clip-path="url(#SVGID_8_)" fill="#FF8429" d="M158.626,360.068
						c33.534,0,121.392,6.371,135.14,4.021c13.749-2.347,29.847-3.018,39.234-4.021c9.389-1.006-77.798,0-83.163,0"/>
				</g>
			</g>
		</g>
		<g>
			<g>
				<g>
					<defs>
						<path id="SVGID_9_" d="M36.497,323.872c-4.124,1.601-3.148,1.739-4.291,5.512c-1.334,4.406-1.677,14.419-1.509,16.433
							c0.168,2.013,0.915,21.295,7.88,22.522c83.61,14.755,179.074,18.968,226.015,17.668c113.12-3.13,89.686-5.235,160.068-15.209
							c29.678-4.206,39.161-5.813,40.371-13.86s3.669-21.015,1.656-28.168c-2.014-7.151-0.84-10.34-8.942-10.506"/>
					</defs>
					<clipPath id="SVGID_10_">
						<use xlink:href="#SVGID_9_"  overflow="visible"/>
					</clipPath>
					<path id="Bottom_Bun_Shadow_2A" clip-path="url(#SVGID_10_)" fill="#FF6D2C" d="M38.438,322.75
						c-2.813,1.875-4.582,2.749-3.292,4.902c1.291,2.152-0.542,5.5,2.09,4.918c2.632-0.582,5.057-1.325,7.922-0.707
						c2.865,0.621,13.912,3.854,16.185,5.857c2.272,2.004,3.999,2.997,6.296,1.334c2.298-1.666,4.649-2.832,8.83-1.621
						c4.181,1.209,4.583,0.623,10.171,2.463c5.588,1.84,7.788,2.635,9.93,1.791c2.142-0.846,4.601-0.846,7.731-0.846
						c3.13,0,1.117-2.232,6.482-2.683c5.366-0.447,6.036,0.896,7.602,2.903c1.565,2.015,5.589,5.758,7.601,3.662
						c2.012-2.099,2.46-3.662,4.919-4.108c2.458-0.447,4.918-1.564,8.272-0.896c3.354,0.67,11.317,1.945,12.937,2.187
						c1.621,0.237,3.83,4.688,7.63,2.817c3.8-1.871,4.918-2.097,8.272-2.545c3.354-0.447,5.812-0.895,8.048,0.446
						c2.236,1.343,7.602,2.853,9.836,2.099c2.235-0.754,5.589-0.588,10.06,0c4.471,0.586,6.707,0.811,7.824-1.427
						c1.117-2.235-0.735-3.737,3.62-4.202c4.355-0.466,4.428-0.492,8.005,1.072c3.577,1.564,3.354,2.234,8.048,1.788
						c4.695-0.446,4.248-2.235,11.401,0c7.153,2.235,6.484,6.037,10.731,4.472c4.247-1.564,4.834-0.058,7.336-1.703
						c2.503-1.646,1.962-2.613,7.418-2.99c5.46-0.377,5.025-0.42,9.22,0.685c4.195,1.104,8.44,1.104,9.112,0.209
						c0.671-0.894,3.576-2.012,6.261,0c2.683,2.015,6.258,2.401,7.823,2.099c1.564-0.308,2.235-0.812,4.918,0
						c2.685,0.811,3.13,0.084,7.153,0s4.023-2.375,6.707,0c2.683,2.375,7.377,2.219,8.719,2.072
						c1.341-0.146-0.445-1.767,3.801-2.072c4.247-0.309,4.023-0.812,6.932,0c2.905,0.811,3.13,2.362,6.707,2.146
						c3.577-0.218,4.919,2.94,6.26,0.021s1.045-2.746,4.212-4.176c3.167-1.428,6.722-2.268,9.426-1.428s4.918,2.46,6.706,1.119
						c1.788-1.342,2.578-1.417,5.813-2.684c3.231-1.268,5.362,0.446,9.836,0c4.472-0.447,7.377-0.896,8.94,0.445
						c1.565,1.341,1.788,2.684,3.354,1.341c1.563-1.341,2.459-2.233,5.142-2.905c2.685-0.67,6.434-2.058,9.025-1.502
						c2.595,0.555,4.078,0.686,7.698,2.1c3.618,1.414,3.281,3.629,6.582,1.852c3.299-1.777,5.172-3.846,8.146-1.918
						s7.533,5.35,9.507,2.635c1.977-2.715,4.996-2.859,7.755-2.494c2.761,0.365,5.164-1.787,5.389-2.684
						c0.223-0.895-0.448-2.234,1.788-3.799c2.234-1.566,5.076-0.961,4.999-3.609c-0.079-2.648,1.549-3.801,1.776-5.771
						c0.229-1.975,2.806-2.37,0.637-4.54c-2.168-2.168-6.194-2.017-7.188-1.438c-0.993,0.58-20.375-0.125-11.25,1.438
						c6.922,1.187,5.25,10.125-16.625,11.938c-21.563,2.688-45.563,3.5-56.5,3.438c-13.188,0.375-25.586,1.346-50.625,2.688
						s-131.739-2.303-139.563-2.75c-7.824-0.447-99.003-1.61-101.686-2.061c-5.502-0.064-16.627-1.877-24.814-3.064
						c-15.288-1.936,18.313-5.188,13.875-5.813C61.038,322.507,38.438,322.75,38.438,322.75z"/>
				</g>
			</g>
		</g>
		<g>
			<g>
				<g>
					<defs>
						<path id="SVGID_11_" d="M36.497,323.872c-4.124,1.601-3.148,1.739-4.291,5.512c-1.334,4.406-1.677,14.419-1.509,16.433
							c0.168,2.013,0.915,21.295,7.88,22.522c83.61,14.755,179.074,18.968,226.015,17.668c113.12-3.13,89.686-5.235,160.068-15.209
							c29.678-4.206,39.161-5.813,40.371-13.86s3.669-21.015,1.656-28.168c-2.014-7.151-0.84-10.34-8.942-10.506"/>
					</defs>
					<clipPath id="SVGID_12_">
						<use xlink:href="#SVGID_11_"  overflow="visible"/>
					</clipPath>
					<path id="Bottom_Bun_2B" clip-path="url(#SVGID_12_)" fill="#FF6D2C" d="M28.014,356.268
						c12.967,13.414,82.325,18.557,89.702,19.002c7.377,0.447,117.143,8.049,124.745,7.604c7.601-0.448,62.82-2.46,72.88-3.131
						c10.062-0.672,55.44-3.801,61.924-6.26c6.484-2.461,43.597-6.933,51.419-9.168c7.824-2.232,26.155-4.691,29.732-7.6
						c3.577-2.906,13.636-11.624,15.425-14.084c1.79-2.46-2.012,18.33-8.048,21.908c-6.036,3.577-97.247,22.578-105.741,23.25
						c-8.495,0.67-130.557,6.035-145.312,5.589c-14.755-0.446-113.567-10.731-127.427-12.519c-13.86-1.789-47.55-4.024-52.167-9.392
						"/>
				</g>
			</g>
		</g>
	</g>
</g>
<g id="Burger_Bun_Top">
	<g>
		<g>
			<g>
				<g>
					<defs>
						<path id="SVGID_13_" d="M30.977,237.336c-1.956-72.433,90.316-109.431,90.316-109.431s2.016-0.96,12.743-3.913
							c18.89-5.198,92.269-13.2,119.657-12.941c13.228,0.125,8.354,0.227,49.798,1.54c49.407,1.565,83.316,11.349,131.897,55.666
							c33.065,30.164,31.426,66.75,27.749,71.633c-12.547,16.672-80.174,28.979-118.063,31.252
							c-37.894,2.271-17.557,1.808-134.134-1.166c-66.787-1.705-105.531-9.588-157.832-16.319
							C28.797,250.525,30.977,237.336,30.977,237.336L30.977,237.336z"/>
					</defs>
					<clipPath id="SVGID_14_">
						<use xlink:href="#SVGID_13_"  overflow="visible"/>
					</clipPath>
					<path id="Burger_Bun" clip-path="url(#SVGID_14_)" fill="#FF9827" d="M30.977,237.336
						c-1.956-72.433,90.316-109.431,90.316-109.431s2.016-0.96,12.743-3.913c18.89-5.198,92.269-13.2,119.657-12.941
						c13.228,0.125,8.354,0.227,49.798,1.54c49.407,1.565,83.316,11.349,131.897,55.666c33.065,30.164,31.426,66.75,27.749,71.633
						c-12.547,16.672-80.174,28.979-118.063,31.252c-37.894,2.271-17.557,1.808-134.134-1.166
						c-66.787-1.705-105.531-9.588-157.832-16.319C28.797,250.525,30.977,237.336,30.977,237.336L30.977,237.336z"/>
				</g>
			</g>
		</g>
		<g>
			<g>
				<g>
					<defs>
						<path id="SVGID_15_" d="M30.977,237.336c-1.956-72.433,90.316-109.431,90.316-109.431s2.016-0.96,12.743-3.913
							c18.89-5.198,92.269-13.2,119.657-12.941c13.228,0.125,8.354,0.227,49.798,1.54c49.407,1.565,83.316,11.349,131.897,55.666
							c33.065,30.164,31.426,66.75,27.749,71.633c-12.547,16.672-80.174,28.979-118.063,31.252
							c-37.894,2.271-17.557,1.808-134.134-1.166c-66.787-1.705-105.531-9.588-157.832-16.319
							C28.797,250.525,30.977,237.336,30.977,237.336L30.977,237.336z"/>
					</defs>
					<clipPath id="SVGID_16_">
						<use xlink:href="#SVGID_15_"  overflow="visible"/>
					</clipPath>
					<path id="Bun_Shadow" clip-path="url(#SVGID_16_)" fill="#FF8429" d="M47.57,140.265c-3.811,69.201-3.92,72.684,16.005,75.493
						c4.122,0.581,30.691,4.895,34.277,0.408c3.475-4.35,6.674-19.517,9.581-24.356c2.713-4.519,9.434-10,8.272-8.127
						c-12.072,19.45-10.003,32.489-7.29,34.119c9.08,5.451,15.116,10.449,60.5,4.301c49.886-6.755,68.906,19.42,102.049,13.847
						c22.063-3.71,25.817,2.418,38.53-5.979c2.047-1.352-5.498-7.053-2.648-12.25c4.269-7.781,7.21-18.108-0.838-31.521
						c-0.839-1.396,4.862,5.533,8.216,12.072c7.021,13.693-14.923,25.317,2.852,30.683c6.366,1.922,18.751-1.565,30.085-2.627
						c24.116-2.263,38.832-0.001,45.74-6.649c12.313-11.85,7.616-22.274,7.618-25.263c0-1.49,4.621,8.906,1.888,20.453
						c-0.771,3.245,13.654-4.101,26.993-8.994c33.143-12.157,3.552-85.073,4.57-80.886c4.897,20.094,51.063,88.075,51.063,88.075
						l-34.799,35.045c0,0-28.931,19.586-38.608,20.94c-108.935,15.207-68.679,22.794-195.443,10.637
						c-126.766-12.16-172.182-12.584-189.949-41.458C8.699,209.732,47.509,141.399,47.57,140.265z"/>
				</g>
			</g>
		</g>
		<g>
			<g>
				<g>
					<defs>
						<path id="SVGID_17_" d="M30.977,237.336c-1.956-72.433,90.316-109.431,90.316-109.431s2.016-0.96,12.743-3.913
							c18.89-5.198,92.269-13.2,119.657-12.941c13.228,0.125,8.354,0.227,49.798,1.54c49.407,1.565,83.316,11.349,131.897,55.666
							c33.065,30.164,31.426,66.75,27.749,71.633c-12.547,16.672-80.174,28.979-118.063,31.252
							c-37.894,2.271-17.557,1.808-134.134-1.166c-66.787-1.705-105.531-9.588-157.832-16.319
							C28.797,250.525,30.977,237.336,30.977,237.336L30.977,237.336z"/>
					</defs>
					<clipPath id="SVGID_18_">
						<use xlink:href="#SVGID_17_"  overflow="visible"/>
					</clipPath>
					<path id="Burger_Darker_Shadow_1_" clip-path="url(#SVGID_18_)" fill="#FF6D2C" d="M69.759,233.431
						c20.125-2.467,25.825,18.659,87.526,17.989c18.682-0.203,11.463-9.788,32.803-0.643c21.339,9.145,10.684,15.912,52.373,5.304
						c30.18-7.681,32.311-0.563,69.567-6.828c27.01-4.541,8.899,3.172,44.841,4.532c19.419,0.732,19.422,10.5,33.14-1.695
						c13.718-12.193,19.114-9.724,46.276-15.089c32.658-6.452,18.105-22.803,24.813-36.887c0,0,8.841,24.787,9.056,31.856
						c0.591,19.457-7.667,15.884-26.675,23.837c-40.07,16.769-50.787,24.116-130.599,25.793
						c-73.537,1.545-134.917-0.332-203.548-13.078c-23.474-4.358-76.823-5.193-82.157-25.819s3.75-31.554,3.75-31.554
						C36.9,239.013,43.942,227.276,69.759,233.431L69.759,233.431z"/>
				</g>
			</g>
		</g>
		<g>
			<g>
				<g>
					<defs>
						<path id="SVGID_19_" d="M30.977,237.336c-1.956-72.433,90.316-109.431,90.316-109.431s2.016-0.96,12.743-3.913
							c18.89-5.198,92.269-13.2,119.657-12.941c13.228,0.125,8.354,0.227,49.798,1.54c49.407,1.565,83.316,11.349,131.897,55.666
							c33.065,30.164,31.426,66.75,27.749,71.633c-12.547,16.672-80.174,28.979-118.063,31.252
							c-37.894,2.271-17.557,1.808-134.134-1.166c-66.787-1.705-105.531-9.588-157.832-16.319
							C28.797,250.525,30.977,237.336,30.977,237.336L30.977,237.336z"/>
					</defs>
					<clipPath id="SVGID_20_">
						<use xlink:href="#SVGID_19_"  overflow="visible"/>
					</clipPath>
					<path id="Bun_Highlight_2_" clip-path="url(#SVGID_20_)" fill="#FFAB57" d="M152.695,114.059
						c24.316-25.75,122.226-7.595,146.875-8.355c28.499-0.881,118.205,46.009,74.624,38.236
						c-52.403-9.346-14.813,16.571-58.273,4.533c0,0-9.749-2.833-9.362,1.417c0.658,7.328-3.835,10.883-10.722,12.185
						c-17.885,3.377-51.903-8.472-53.596-8.998c-10.587-3.293-21.696-6.479-27.078,1.771c-4.358,6.681-13.809,14.348-26.796,11.612
						c-18.657-3.93-18.97-0.318-27.564-9.771c-9.823-10.803-24.875,11.612-38.291,4.248c-3.807-2.09-22.359,13.03-15.931-1.982
						c8.936-20.873-61.699,23.048-19.565-7.932C101.27,140.541,132.609,112.81,152.695,114.059"/>
				</g>
			</g>
		</g>
		<g>
			<g>
				<g>
					<defs>
						<path id="SVGID_21_" d="M30.977,237.336c-1.956-72.433,90.316-109.431,90.316-109.431s2.016-0.96,12.743-3.913
							c18.89-5.198,92.269-13.2,119.657-12.941c13.228,0.125,8.354,0.227,49.798,1.54c49.407,1.565,83.316,11.349,131.897,55.666
							c33.065,30.164,31.426,66.75,27.749,71.633c-12.547,16.672-80.174,28.979-118.063,31.252
							c-37.894,2.271-17.557,1.808-134.134-1.166c-66.787-1.705-105.531-9.588-157.832-16.319
							C28.797,250.525,30.977,237.336,30.977,237.336L30.977,237.336z"/>
					</defs>
					<clipPath id="SVGID_22_">
						<use xlink:href="#SVGID_21_"  overflow="visible"/>
					</clipPath>
					<path id="Bun_Secondary_Highlight" clip-path="url(#SVGID_22_)" fill="#FFBA7B" d="M227.892,105.827
						c-26.942,5.027-25.158-0.86-39.56,8.723c-14.401,9.583-8.629-0.243-21.043,7.536c-19.703,12.346-4.505,13.38-11.816,16.528
						c-7.309,3.148-18.996,9.517,18.37-1.953c37.364-11.468-0.097,3.819,18.81,0.339c18.908-3.48,10.464,8.915,29.657,4.745
						c19.192-4.169,4.64-27.199,32.775-7.993c13.892,9.483,23.177-4.675,28.714-3.85c10.854,1.613,28.106,8.234,32.608,2.964
						c1.646-1.929-16.912-9.098-4.931-8.182c17.275,1.32-1.135-4.04-5.545-7.271c-5.815-4.264,16.784-0.127,2.7-7.728
						c-4.572-2.468,14.311-1.788-18.871-7.057c-18.587-2.951-21.444-5.375-36.622-1.979
						C237.96,104.045,227.892,105.827,227.892,105.827z"/>
				</g>
			</g>
		</g>
		<g>
			<g>
				<g>
					<defs>
						<path id="SVGID_23_" d="M30.977,237.336c-1.956-72.433,90.316-109.431,90.316-109.431s2.016-0.96,12.743-3.913
							c18.89-5.198,92.269-13.2,119.657-12.941c13.228,0.125,8.354,0.227,49.798,1.54c49.407,1.565,83.316,11.349,131.897,55.666
							c33.065,30.164,31.426,66.75,27.749,71.633c-12.547,16.672-80.174,28.979-118.063,31.252
							c-37.894,2.271-17.557,1.808-134.134-1.166c-66.787-1.705-105.531-9.588-157.832-16.319
							C28.797,250.525,30.977,237.336,30.977,237.336L30.977,237.336z"/>
					</defs>
					<clipPath id="SVGID_24_">
						<use xlink:href="#SVGID_23_"  overflow="visible"/>
					</clipPath>
					<path id="Top_Highlight_Bun" clip-path="url(#SVGID_24_)" fill="#FFC599" d="M190.93,115.401
						c14.082-6.53-8.042-10.025,27.462-7.714c35.506,2.31,25.445-8.06,41.094-0.714c15.646,7.348,13.039-11.026,17.511,1.224
						c4.471,12.248,15.229-0.464,20.438,9.269c5.203,9.731,0.354,10.551-17.752,4.85c-18.979-5.976-13.521,4.872-24.146,0.335
						c-27.27-11.647-19.971,4.521-34.874,7.042c-14.904,2.521-16.432-4.359-32.863-4.024
						C177.887,125.872,190.93,115.401,190.93,115.401z"/>
				</g>
			</g>
		</g>
		<g>
			<g>
				<g>
					<defs>
						<path id="SVGID_25_" d="M30.977,237.336c-1.956-72.433,90.316-109.431,90.316-109.431s2.016-0.96,12.743-3.913
							c18.89-5.198,92.269-13.2,119.657-12.941c13.228,0.125,8.354,0.227,49.798,1.54c49.407,1.565,83.316,11.349,131.897,55.666
							c33.065,30.164,31.426,66.75,27.749,71.633c-12.547,16.672-80.174,28.979-118.063,31.252
							c-37.894,2.271-17.557,1.808-134.134-1.166c-66.787-1.705-105.531-9.588-157.832-16.319
							C28.797,250.525,30.977,237.336,30.977,237.336L30.977,237.336z"/>
					</defs>
					<clipPath id="SVGID_26_">
						<use xlink:href="#SVGID_25_"  overflow="visible"/>
					</clipPath>
					<g id="Sesames_1_" opacity="0.3" clip-path="url(#SVGID_26_)">
						<path fill="#BC6E39" d="M209.542,124.292l-3.186-1.099c-1.482-0.33-2.636-0.989-4.943-0.494c0,0-2.044,0.554-0.824,2.69
							C200.811,125.775,203.293,125.986,209.542,124.292z"/>
						<path fill="#BC6E39" d="M118.251,136.113c0,0-2.044,0.554-0.824,2.691c0.22,0.385,2.703,0.596,8.951-1.099l-3.186-1.099
							C121.712,136.278,120.558,135.619,118.251,136.113z"/>
						<path fill="#BC6E39" d="M195.626,154.045c-1.482-0.33-2.636-0.989-4.943-0.494c0,0-2.044,0.554-0.823,2.691
							c0.22,0.385,2.703,0.595,8.951-1.099L195.626,154.045z"/>
						<path fill="#BC6E39" d="M173.246,175.012c0,0-2.044,0.554-0.824,2.691c0.22,0.385,2.703,0.595,8.951-1.099l-3.186-1.099
							C176.707,175.177,175.553,174.518,173.246,175.012z"/>
						<path fill="#BC6E39" d="M260.221,138.197c0,0-1.887,0.963-0.252,2.802c0.295,0.332,2.768,0.025,8.533-2.92l-3.342-0.418
							C263.639,137.645,262.375,137.238,260.221,138.197z"/>
						<path fill="#BC6E39" d="M289.137,140.557c0,0-2.119-0.048-1.553,2.348c0.102,0.432,2.424,1.337,8.896,1.482l-2.742-1.956
							C292.408,141.694,291.488,140.735,289.137,140.557z"/>
						<path fill="#BC6E39" d="M280.465,144.405c0,0-2.002,0.695-0.637,2.74c0.248,0.369,2.738,0.406,8.855-1.718l-3.254-0.875
							C283.926,144.329,282.73,143.752,280.465,144.405z"/>
						<path fill="#BC6E39" d="M250.789,172.061c0,0-1.795,1.126-0.002,2.814c0.322,0.305,2.76-0.221,8.24-3.67l-3.368-0.118
							C254.145,171.205,252.85,170.914,250.789,172.061z"/>
						<path fill="#BC6E39" d="M360.422,158.006l2.338,2.426c1.172,0.969,1.9,2.078,4.18,2.684c0,0,2.073,0.438,1.955-2.021
							C368.875,160.651,366.758,159.335,360.422,158.006z"/>
						<path fill="#BC6E39" d="M238.883,145.747c0,0-2.001,0.695-0.636,2.74c0.247,0.369,2.738,0.406,8.855-1.718l-3.254-0.875
							C242.345,145.67,241.15,145.093,238.883,145.747z"/>
						<path fill="#BC6E39" d="M254.979,165.867c0,0-2,0.695-0.635,2.74c0.246,0.369,2.737,0.406,8.855-1.718l-3.254-0.875
							C258.441,165.79,257.246,165.213,254.979,165.867z"/>
						<path fill="#BC6E39" d="M169.925,143.027c-1.521-0.016-2.785-0.422-4.939,0.536c0,0-1.887,0.963-0.252,2.802
							c0.295,0.332,2.767,0.025,8.534-2.92L169.925,143.027z"/>
						<path fill="#BC6E39" d="M146.156,172.186c0,0-1.756,1.187,0.093,2.813c0.333,0.292,2.75-0.314,8.111-3.944l-3.37-0.005
							C149.48,171.219,148.176,170.97,146.156,172.186z"/>
						<path fill="#BC6E39" d="M179.974,135.398l-3.343-0.418c-1.521-0.016-2.785-0.422-4.938,0.535c0,0-1.888,0.963-0.252,2.802
							C171.735,138.649,174.208,138.342,179.974,135.398z"/>
						<path fill="#BC6E39" d="M107.286,172.874c0,0-1.508,1.489,0.609,2.747c0.382,0.227,2.645-0.814,7.247-5.369l-3.313,0.614
							C110.375,171.311,109.047,171.307,107.286,172.874z"/>
						<path fill="#BC6E39" d="M292.016,123.959c0.938-2.487-1.166-2.854-1.166-2.854c-2.352-0.273-3.412,0.584-4.844,1.119
							l-3.021,1.576C289.407,124.928,291.848,124.407,292.016,123.959z"/>
						<path fill="#BC6E39" d="M273.41,130.494c-2.352-0.273-3.412,0.583-4.844,1.119l-3.021,1.576
							c6.426,1.128,8.863,0.607,9.031,0.16C275.516,130.863,273.41,130.494,273.41,130.494z"/>
						<path fill="#BC6E39" d="M318.842,121.276c0.938-2.487-1.166-2.854-1.166-2.854c-2.352-0.273-3.412,0.583-4.844,1.119
							l-3.021,1.576C316.234,122.245,318.674,121.725,318.842,121.276z"/>
						<path fill="#BC6E39" d="M324.381,138.542c-2.351-0.273-3.412,0.583-4.843,1.119l-3.022,1.576
							c6.427,1.128,8.863,0.608,9.031,0.16C326.485,138.911,324.381,138.542,324.381,138.542z"/>
						<path fill="#BC6E39" d="M340.998,165.698c-1.979-1.301-3.313-1.013-4.832-1.178l-3.407,0.049
							c5.231,3.896,7.646,4.527,7.996,4.203C342.712,166.971,340.998,165.698,340.998,165.698z"/>
						<path fill="#BC6E39" d="M252.701,130.483c1.574-2.141-0.354-3.063-0.354-3.063c-2.189-0.897-3.444-0.359-4.967-0.229
							l-3.334,0.702C249.932,130.713,252.42,130.87,252.701,130.483z"/>
						<path fill="#BC6E39" d="M232.996,121.276c0.938-2.487-1.166-2.854-1.166-2.854c-2.351-0.273-3.412,0.583-4.843,1.119
							l-3.022,1.576C230.388,122.245,232.828,121.725,232.996,121.276z"/>
						<path fill="#BC6E39" d="M183.366,122.618c0.938-2.487-1.166-2.854-1.166-2.854c-2.352-0.274-3.413,0.583-4.844,1.118
							l-3.022,1.576C180.759,123.586,183.199,123.066,183.366,122.618z"/>
						<path fill="#BC6E39" d="M215.733,123.788c-2.352-0.274-3.413,0.583-4.844,1.119l-3.022,1.576
							c6.425,1.128,8.864,0.607,9.031,0.159C217.837,124.156,215.733,123.788,215.733,123.788z"/>
						<path fill="#BC6E39" d="M235.853,129.153c-2.352-0.274-3.413,0.583-4.844,1.119l-3.022,1.576
							c6.425,1.128,8.864,0.607,9.031,0.16C237.958,129.521,235.853,129.153,235.853,129.153z"/>
						<path fill="#BC6E39" d="M191.415,141.396c0.938-2.487-1.166-2.854-1.166-2.854c-2.351-0.273-3.412,0.583-4.843,1.119
							l-3.022,1.576C188.807,142.365,191.247,141.845,191.415,141.396z"/>
						<path fill="#BC6E39" d="M206.343,158.662c-2.351-0.273-3.412,0.583-4.843,1.119l-3.022,1.576
							c6.425,1.128,8.863,0.608,9.031,0.16C208.448,159.031,206.343,158.662,206.343,158.662z"/>
					</g>
				</g>
			</g>
		</g>
		<g>
			<g>
				<g>
					<defs>
						<path id="SVGID_27_" d="M30.977,237.336c-1.956-72.433,90.316-109.431,90.316-109.431s2.016-0.96,12.743-3.913
							c18.89-5.198,92.269-13.2,119.657-12.941c13.228,0.125,8.354,0.227,49.798,1.54c49.407,1.565,83.316,11.349,131.897,55.666
							c33.065,30.164,31.426,66.75,27.749,71.633c-12.547,16.672-80.174,28.979-118.063,31.252
							c-37.894,2.271-17.557,1.808-134.134-1.166c-66.787-1.705-105.531-9.588-157.832-16.319
							C28.797,250.525,30.977,237.336,30.977,237.336L30.977,237.336z"/>
					</defs>
					<clipPath id="SVGID_28_">
						<use xlink:href="#SVGID_27_"  overflow="visible"/>
					</clipPath>
					<g id="Sesame_Shadow" clip-path="url(#SVGID_28_)">
						<path fill="#FFDEC7" d="M209.542,122.95l-3.186-1.098c-1.482-0.33-2.636-0.989-4.943-0.494c0,0-2.044,0.554-0.824,2.69
							C200.811,124.434,203.293,124.645,209.542,122.95z"/>
						<path fill="#FFDEC7" d="M118.251,134.771c0,0-2.044,0.554-0.824,2.691c0.22,0.385,2.703,0.596,8.951-1.099l-3.186-1.099
							C121.712,134.937,120.558,134.278,118.251,134.771z"/>
						<path fill="#FFDEC7" d="M195.626,152.704c-1.482-0.33-2.636-0.989-4.943-0.494c0,0-2.044,0.554-0.823,2.691
							c0.22,0.385,2.703,0.595,8.951-1.099L195.626,152.704z"/>
						<path fill="#FFDEC7" d="M173.246,173.67c0,0-2.044,0.554-0.824,2.691c0.22,0.385,2.703,0.595,8.951-1.099l-3.186-1.099
							C176.707,173.835,175.553,173.177,173.246,173.67z"/>
						<path fill="#FFDEC7" d="M260.221,136.856c0,0-1.887,0.963-0.252,2.802c0.295,0.331,2.768,0.025,8.533-2.92l-3.342-0.419
							C263.639,136.304,262.375,135.897,260.221,136.856z"/>
						<path fill="#FFDEC7" d="M289.137,139.215c0,0-2.119-0.048-1.553,2.348c0.102,0.432,2.424,1.337,8.896,1.482l-2.742-1.956
							C292.408,140.353,291.488,139.394,289.137,139.215z"/>
						<path fill="#FFDEC7" d="M280.465,143.064c0,0-2.002,0.695-0.637,2.74c0.248,0.369,2.738,0.406,8.855-1.718l-3.254-0.875
							C283.926,142.987,282.73,142.411,280.465,143.064z"/>
						<path fill="#FFDEC7" d="M250.789,170.72c0,0-1.795,1.126-0.002,2.814c0.322,0.304,2.76-0.221,8.24-3.67l-3.368-0.118
							C254.145,169.864,252.85,169.573,250.789,170.72z"/>
						<path fill="#FFDEC7" d="M360.422,156.665l2.338,2.426c1.172,0.969,1.9,2.078,4.18,2.684c0,0,2.073,0.438,1.955-2.021
							C368.875,159.31,366.758,157.994,360.422,156.665z"/>
						<path fill="#FFDEC7" d="M238.883,144.405c0,0-2.001,0.695-0.636,2.74c0.247,0.369,2.738,0.406,8.855-1.718l-3.254-0.875
							C242.345,144.329,241.15,143.752,238.883,144.405z"/>
						<path fill="#FFDEC7" d="M254.979,164.525c0,0-2,0.695-0.635,2.74c0.246,0.369,2.737,0.406,8.855-1.718l-3.254-0.875
							C258.441,164.449,257.246,163.872,254.979,164.525z"/>
						<path fill="#FFDEC7" d="M169.925,141.687c-1.521-0.017-2.785-0.423-4.939,0.535c0,0-1.887,0.963-0.252,2.802
							c0.295,0.332,2.767,0.025,8.534-2.92L169.925,141.687z"/>
						<path fill="#FFDEC7" d="M146.156,170.844c0,0-1.756,1.188,0.093,2.813c0.333,0.292,2.75-0.314,8.111-3.944l-3.37-0.005
							C149.48,169.877,148.176,169.629,146.156,170.844z"/>
						<path fill="#FFDEC7" d="M179.974,134.057l-3.343-0.418c-1.521-0.016-2.785-0.422-4.938,0.535c0,0-1.888,0.963-0.252,2.802
							C171.735,137.308,174.208,137.001,179.974,134.057z"/>
						<path fill="#FFDEC7" d="M107.286,171.532c0,0-1.508,1.489,0.609,2.747c0.382,0.227,2.645-0.814,7.247-5.369l-3.313,0.614
							C110.375,169.97,109.047,169.966,107.286,171.532z"/>
						<path fill="#FFDEC7" d="M292.016,122.618c0.938-2.487-1.166-2.854-1.166-2.854c-2.352-0.274-3.412,0.583-4.844,1.118
							l-3.021,1.576C289.407,123.586,291.848,123.066,292.016,122.618z"/>
						<path fill="#FFDEC7" d="M273.41,129.153c-2.352-0.274-3.412,0.583-4.844,1.119l-3.021,1.576
							c6.426,1.128,8.863,0.607,9.031,0.16C275.516,129.521,273.41,129.153,273.41,129.153z"/>
						<path fill="#FFDEC7" d="M318.842,119.935c0.938-2.487-1.166-2.854-1.166-2.854c-2.352-0.273-3.412,0.583-4.844,1.119
							l-3.021,1.576C316.234,120.903,318.674,120.383,318.842,119.935z"/>
						<path fill="#FFDEC7" d="M324.381,137.201c-2.351-0.273-3.412,0.583-4.843,1.119l-3.022,1.576
							c6.427,1.128,8.863,0.607,9.031,0.16C326.485,137.57,324.381,137.201,324.381,137.201z"/>
						<path fill="#FFDEC7" d="M340.998,164.356c-1.979-1.301-3.313-1.013-4.832-1.178l-3.407,0.049
							c5.231,3.896,7.646,4.527,7.996,4.203C342.712,165.629,340.998,164.356,340.998,164.356z"/>
						<path fill="#FFDEC7" d="M252.701,129.142c1.574-2.141-0.354-3.063-0.354-3.063c-2.189-0.897-3.444-0.36-4.967-0.229
							l-3.334,0.702C249.932,129.372,252.42,129.528,252.701,129.142z"/>
						<path fill="#FFDEC7" d="M232.996,119.935c0.938-2.487-1.166-2.854-1.166-2.854c-2.351-0.273-3.412,0.583-4.843,1.119
							l-3.022,1.576C230.388,120.903,232.828,120.383,232.996,119.935z"/>
						<path fill="#FFDEC7" d="M183.366,121.276c0.938-2.487-1.166-2.854-1.166-2.854c-2.352-0.273-3.413,0.583-4.844,1.119
							l-3.022,1.576C180.759,122.245,183.199,121.725,183.366,121.276z"/>
						<path fill="#FFDEC7" d="M215.733,122.446c-2.352-0.274-3.413,0.583-4.844,1.119l-3.022,1.576
							c6.425,1.128,8.864,0.608,9.031,0.16C217.837,122.815,215.733,122.446,215.733,122.446z"/>
						<path fill="#FFDEC7" d="M235.853,127.812c-2.352-0.273-3.413,0.583-4.844,1.119l-3.022,1.576
							c6.425,1.128,8.864,0.607,9.031,0.16C237.958,128.18,235.853,127.812,235.853,127.812z"/>
						<path fill="#FFDEC7" d="M191.415,140.055c0.938-2.487-1.166-2.854-1.166-2.854c-2.351-0.273-3.412,0.583-4.843,1.119
							l-3.022,1.576C188.807,141.023,191.247,140.503,191.415,140.055z"/>
						<path fill="#FFDEC7" d="M206.343,157.321c-2.351-0.273-3.412,0.583-4.843,1.119l-3.022,1.576
							c6.425,1.128,8.863,0.607,9.031,0.16C208.448,157.69,206.343,157.321,206.343,157.321z"/>
					</g>
				</g>
			</g>
		</g>
	</g>
	<path fill="#00AB00" d="M468.141,314.463"/>
</g>
</svg>