<?xml version="1.0" encoding="utf-8"?>
<!-- Generator: Adobe Illustrator 16.0.0, SVG Export Plug-In . SVG Version: 6.00 Build 0)  -->
<!DOCTYPE svg PUBLIC "-//W3C//DTD SVG 1.1//EN" "http://www.w3.org/Graphics/SVG/1.1/DTD/svg11.dtd">
<svg version="1.1" xmlns="http://www.w3.org/2000/svg" xmlns:xlink="http://www.w3.org/1999/xlink" x="0px" y="0px"
	 width="487.61px" height="340.71px" viewBox="50.695 325.474 487.61 340.71" enable-background="new 50.695 325.474 487.61 340.71"
	 xml:space="preserve">
<g id="Pickles">
</g>
<g id="Tomato">
</g>
<g id="Lettuce">
</g>
<g id="Tofu_Slice">
</g>
<g id="Swiss_Slice">
</g>
<g id="Cheddar_Slice">
</g>
<g id="Eggplant_Patty">
</g>
<g id="Halloumi_Patty">
</g>
<g id="Beef_Patty">
</g>
<g id="Sourdough_Bun">
</g>
<g id="Rice_Bun">
</g>
<g id="Brioche_Bun">
	<g id="Bottom_Bun">
		<g>
			<g>
				<g>
					<g>
						<g>
							<g>
								<defs>
									<path id="SVGID_15_" d="M70.244,575.18c-4.372,1.698-3.338,1.844-4.55,5.843c-1.414,4.673-1.778,15.289-1.6,17.424
										c0.178,2.136,0.97,22.578,8.354,23.878c88.646,15.645,189.86,20.111,239.629,18.732
										c119.934-3.318,95.089-5.55,169.709-16.125c31.466-4.459,41.52-6.162,42.803-14.694c1.282-8.531,3.89-22.281,1.756-29.864
										c-2.137-7.581-0.893-10.964-9.481-11.139"/>
								</defs>
								<clipPath id="SVGID_2_">
									<use xlink:href="#SVGID_15_"  overflow="visible"/>
								</clipPath>
								<path id="Bottom_Bun_base" clip-path="url(#SVGID_2_)" fill="#FF9827" d="M64.053,627.775
									c21.906,4.975,410.859,67.553,473.433-7.465s-16.808-57.755-32.971-66.484c-16.164-8.732-353.055-10.59-407.851,1.636
									c-54.796,12.228-67.594,9.386-64.75,28.583C34.763,603.245,64.053,627.775,64.053,627.775z"/>
							</g>
						</g>
					</g>
				</g>
			</g>
			<g>
				<g>
					<g>
						<g>
							<g>
								<defs>
									<path id="SVGID_17_" d="M70.244,575.18c-4.372,1.698-3.338,1.844-4.55,5.843c-1.414,4.673-1.778,15.289-1.6,17.424
										c0.178,2.136,0.97,22.578,8.354,23.878c88.646,15.645,189.86,20.111,239.629,18.732
										c119.934-3.318,95.089-5.55,169.709-16.125c31.466-4.459,41.52-6.162,42.803-14.694c1.282-8.531,3.89-22.281,1.756-29.864
										c-2.137-7.581-0.893-10.964-9.481-11.139"/>
								</defs>
								<clipPath id="SVGID_4_">
									<use xlink:href="#SVGID_17_"  overflow="visible"/>
								</clipPath>
								<path id="Bottom_Bun_Shadow_1A" clip-path="url(#SVGID_4_)" fill="#FF8429" d="M58.938,575.18
									c1.067,4.244,1.653,5.858,6.305,7.702c4.651,1.844,2.261,5.161,6.511,3.163c4.251-2,2.354-3.281,8.162,0.62
									c5.808,3.901,3.38,0.94,9.69,4.493c6.309,3.553,9.866,5.62,15.553,3.289c5.687-2.332,11.732-2.046,16.71,0
									c4.977,2.046,9.955,3.113,12.8,3.113c2.844,0,4.528,4.095,8.532,0c4.004-4.093,6.399-5.51,9.956-3.113
									c3.556,2.4,0.355,2.842,7.111,4.93c6.756,2.093,6.399,2.447,10.31,2.093c3.912-0.355,2.845-2.49,11.377-2.49
									c8.533,0,7.821-0.71,13.866,1.067c6.044,1.777,10.311,3.797,13.511,1.543c3.199-2.254,2.133-6.165,8.176-2.61
									c6.044,3.556,8.889,5.438,14.577,3.606c5.688-1.831,4.267-2.894,11.733-2.894c7.466,0,8.177,0,14.577,1.422
									c6.4,1.421,6.4,2.133,9.6,0c3.199-2.135,4.978-4.267,11.022-2.845s7.822,5.438,12.444,5.029
									c4.622-0.412,2.993,2.242,8.251,0.027c5.261-2.215,4.903-3.639,11.303-4.706c6.399-1.066,4.976-3.201,13.154,0
									c8.178,3.202,5.333,7.637,13.866,5.597c8.531-2.043,3.909-0.977,13.154-2.398c9.243-1.425,5.685-2.847,13.507,0
									c7.821,2.844,9.957,3.2,13.154,1.422c3.203-1.778-1.066-3.557,6.755-2.134c7.821,1.422,4.621,4.266,11.376,2.134
									c6.757-2.134,8.889-5.332,14.577-4.267c5.686,1.07,7.821,1.426,9.601,0.36c1.777-1.069-4.267-0.36,4.262-1.426
									c8.535-1.067,6.044,0.712,13.154,1.78c7.111,1.067,8.178,0.355,11.376-1.068c3.201-1.423-5.322-5.699,9.245-4.176
									c14.567,1.521,12.472,5.955,21.331,2.758c8.86-3.203,12.179,0.759,19.197-2.758c7.019-3.514,11.601-1.779,13.864-4.485
									c2.265-2.71,4.371-3.537,6.986-5.257c2.616-1.722,5.163-7.23,5.008-9.521c-0.156-2.288-0.597-2.672,0.008-5.944
									c0.604-3.276-43.997-6.874-48.973-6.874c-4.975,0-244.581,5.173-254.905,5.429c-10.324,0.257-129.77-3.235-135.279-1.604
									c-5.509,1.632-26.502,6.839-26.502,6.839"/>
							</g>
						</g>
					</g>
				</g>
			</g>
			<g>
				<g>
					<g>
						<g>
							<g>
								<defs>
									<path id="SVGID_19_" d="M70.244,575.18c-4.372,1.698-3.338,1.844-4.55,5.843c-1.414,4.673-1.778,15.289-1.6,17.424
										c0.178,2.136,0.97,22.578,8.354,23.878c88.646,15.645,189.86,20.111,239.629,18.732
										c119.934-3.318,95.089-5.55,169.709-16.125c31.466-4.459,41.52-6.162,42.803-14.694c1.282-8.531,3.89-22.281,1.756-29.864
										c-2.137-7.581-0.893-10.964-9.481-11.139"/>
								</defs>
								<clipPath id="SVGID_6_">
									<use xlink:href="#SVGID_19_"  overflow="visible"/>
								</clipPath>
								<path id="Bottom_Bun_Shadow_1B" clip-path="url(#SVGID_6_)" fill="#FF8429" d="M64.337,633.468
									c-0.492-12.443-9.309-27.376-3.087-29.865c6.223-2.489-16.162-21.242,0-9.246c17.244,12.799,32.221,18.933,38.931,19.555
									c9.328,0.863,51.908,9.244,72.173,9.599c20.265,0.357,3.199,0.357,37.687,0c34.486-0.354,97.771,7.111,124.792,4.621
									c27.02-2.491,123.724-14.932,133.68-15.288c9.959-0.354,22.043-3.556,29.864-6.755c7.822-3.202,18.594-7.11,21.207-9.243
									c2.618-2.137,5.103-5.688,8.303-9.247c3.203-3.555,16.358-8.532,16.002,6.755c-0.354,15.288-66.484,56.527-111.281,59.73
									c-44.799,3.203-361.935-8.527-361.58-12.792"/>
							</g>
						</g>
					</g>
				</g>
			</g>
			<g>
				<g>
					<g>
						<g>
							<g>
								<defs>
									<path id="SVGID_21_" d="M70.244,575.18c-4.372,1.698-3.338,1.844-4.55,5.843c-1.414,4.673-1.778,15.289-1.6,17.424
										c0.178,2.136,0.97,22.578,8.354,23.878c88.646,15.645,189.86,20.111,239.629,18.732
										c119.934-3.318,95.089-5.55,169.709-16.125c31.466-4.459,41.52-6.162,42.803-14.694c1.282-8.531,3.89-22.281,1.756-29.864
										c-2.137-7.581-0.893-10.964-9.481-11.139"/>
								</defs>
								<clipPath id="SVGID_8_">
									<use xlink:href="#SVGID_21_"  overflow="visible"/>
								</clipPath>
								<path id="Bottom_Bun_Shadow_1C" clip-path="url(#SVGID_8_)" fill="#FF8429" d="M199.729,613.556
									c35.554,0,128.704,6.755,143.28,4.264c14.578-2.488,31.646-3.201,41.598-4.264c9.954-1.066-82.484,0-88.173,0"/>
							</g>
						</g>
					</g>
				</g>
			</g>
			<g>
				<g>
					<g>
						<g>
							<g>
								<defs>
									<path id="SVGID_23_" d="M70.244,575.18c-4.372,1.698-3.338,1.844-4.55,5.843c-1.414,4.673-1.778,15.289-1.6,17.424
										c0.178,2.136,0.97,22.578,8.354,23.878c88.646,15.645,189.86,20.111,239.629,18.732
										c119.934-3.318,95.089-5.55,169.709-16.125c31.466-4.459,41.52-6.162,42.803-14.694c1.282-8.531,3.89-22.281,1.756-29.864
										c-2.137-7.581-0.893-10.964-9.481-11.139"/>
								</defs>
								<clipPath id="SVGID_10_">
									<use xlink:href="#SVGID_23_"  overflow="visible"/>
								</clipPath>
								<path id="Bottom_Bun_Shadow_2A" clip-path="url(#SVGID_10_)" fill="#FF6D2C" d="M72.302,573.99
									c-2.982,1.987-4.858,2.914-3.49,5.197c1.369,2.281-0.575,5.831,2.216,5.214c2.79-0.617,5.361-1.404,8.399-0.75
									c3.038,0.659,14.75,4.087,17.16,6.211c2.409,2.125,4.24,3.176,6.675,1.414c2.437-1.767,4.929-3.003,9.362-1.72
									c4.433,1.282,4.859,0.661,10.784,2.611c5.925,1.951,8.257,2.795,10.528,1.899c2.271-0.897,4.877-0.897,8.196-0.897
									c3.318,0,1.185-2.366,6.873-2.845c5.689-0.475,6.4,0.949,8.06,3.076c1.659,2.139,5.925,6.105,8.059,3.883
									c2.133-2.225,2.608-3.883,5.215-4.354c2.606-0.474,5.214-1.657,8.77-0.95c3.556,0.711,11.999,2.063,13.716,2.32
									c1.719,0.25,4.061,4.97,8.09,2.985c4.028-1.983,5.214-2.224,8.77-2.698c3.556-0.474,6.162-0.948,8.533,0.473
									c2.371,1.424,8.06,3.025,10.428,2.226c2.37-0.799,5.926-0.623,10.667,0c4.74,0.622,7.111,0.861,8.295-1.513
									c1.185-2.369-0.78-3.962,3.838-4.455c4.617-0.494,4.694-0.521,8.487,1.137s3.556,2.368,8.533,1.896
									c4.978-0.474,4.504-2.37,12.088,0c7.584,2.369,6.875,6.401,11.377,4.741c4.504-1.658,5.125-0.062,7.778-1.806
									s2.08-2.771,7.865-3.17c5.788-0.399,5.327-0.445,9.775,0.728c4.446,1.17,8.948,1.17,9.66,0.222
									c0.713-0.949,3.791-2.134,6.639,0c2.846,2.138,6.634,2.545,8.294,2.226c1.658-0.327,2.37-0.86,5.214,0
									c2.849,0.86,3.317,0.09,7.584,0c4.265-0.088,4.265-2.517,7.111,0c2.845,2.52,7.822,2.353,9.244,2.196
									c1.422-0.155-0.472-1.873,4.029-2.196c4.503-0.328,4.266-0.86,7.351,0c3.08,0.86,3.318,2.504,7.111,2.276
									c3.792-0.231,5.215,3.117,6.638,0.022c1.422-3.096,1.107-2.912,4.465-4.428c3.358-1.515,7.127-2.405,9.993-1.515
									c2.868,0.891,5.216,2.609,7.111,1.187c1.896-1.422,2.732-1.502,6.162-2.846c3.425-1.345,5.685,0.472,10.429,0
									c4.742-0.474,7.821-0.95,9.478,0.471c1.659,1.423,1.896,2.847,3.557,1.423c1.656-1.423,2.607-2.367,5.451-3.079
									c2.848-0.711,6.823-2.184,9.568-1.594c2.751,0.589,4.323,0.728,8.162,2.228c3.835,1.498,3.478,3.847,6.978,1.963
									c3.499-1.884,5.484-4.077,8.638-2.033c3.152,2.044,7.986,5.673,10.079,2.795c2.098-2.881,5.297-3.031,8.223-2.646
									c2.929,0.387,5.476-1.894,5.715-2.846c0.236-0.949-0.476-2.369,1.895-4.027c2.367-1.661,5.381-1.02,5.301-3.828
									c-0.083-2.806,1.642-4.029,1.882-6.118c0.243-2.094,2.976-2.512,0.675-4.813c-2.298-2.299-6.564-2.141-7.62-1.525
									c-1.053,0.616-21.603-0.132-11.929,1.525c7.34,1.259,5.567,10.734-17.625,12.657c-22.862,2.85-48.308,3.711-59.903,3.646
									c-13.982,0.396-27.127,1.428-53.675,2.849c-26.547,1.422-139.674-2.442-147.969-2.915
									c-8.296-0.474-104.966-1.707-107.811-2.186c-5.833-0.067-17.629-1.991-26.309-3.248
									c-16.209-2.055,19.416-5.501,14.711-6.164C96.263,573.732,72.302,573.99,72.302,573.99z"/>
							</g>
						</g>
					</g>
				</g>
			</g>
			<g>
				<g>
					<g>
						<g>
							<g>
								<defs>
									<path id="SVGID_25_" d="M70.244,575.18c-4.372,1.698-3.338,1.844-4.55,5.843c-1.414,4.673-1.778,15.289-1.6,17.424
										c0.178,2.136,0.97,22.578,8.354,23.878c88.646,15.645,189.86,20.111,239.629,18.732
										c119.934-3.318,95.089-5.55,169.709-16.125c31.466-4.459,41.52-6.162,42.803-14.694c1.282-8.531,3.89-22.281,1.756-29.864
										c-2.137-7.581-0.893-10.964-9.481-11.139"/>
								</defs>
								<clipPath id="SVGID_12_">
									<use xlink:href="#SVGID_25_"  overflow="visible"/>
								</clipPath>
								<path id="Bottom_Bun_2B" clip-path="url(#SVGID_12_)" fill="#FF6D2C" d="M61.25,609.527
									c13.748,14.222,87.284,19.675,95.105,20.146c7.821,0.473,124.199,8.533,132.258,8.063c8.06-0.477,66.604-2.609,77.271-3.321
									c10.669-0.713,58.779-4.03,65.653-6.638c6.875-2.609,46.225-7.351,54.517-9.721c8.295-2.363,27.729-4.972,31.522-8.057
									c3.792-3.081,14.457-12.325,16.354-14.933c1.898-2.608-2.133,19.435-8.532,23.228
									c-6.398,3.793-103.104,23.938-112.11,24.651c-9.006,0.71-138.42,6.397-154.063,5.925
									c-15.645-0.473-120.408-11.378-135.103-13.273c-14.695-1.897-50.415-4.267-55.31-9.959"/>
							</g>
						</g>
					</g>
				</g>
			</g>
		</g>
	</g>
	<g id="Burger_Bun_Top">
		<g>
			<g>
				<g>
					<g>
						<g>
							<g>
								<defs>
									<path id="SVGID_27_" d="M64.392,483.432c-2.074-76.797,95.756-116.022,95.756-116.022s2.137-1.018,13.511-4.149
										c20.028-5.511,97.827-13.995,126.863-13.72c14.025,0.132,8.858,0.24,52.798,1.632
										c52.384,1.66,88.333,12.033,139.841,59.019c35.057,31.98,33.319,70.771,29.42,75.948
										c-13.303,17.676-85.003,30.725-125.174,33.134c-40.178,2.407-18.615,1.917-142.213-1.236
										c-70.81-1.808-111.888-10.165-167.338-17.302C62.08,497.414,64.392,483.432,64.392,483.432L64.392,483.432z"/>
								</defs>
								<clipPath id="SVGID_14_">
									<use xlink:href="#SVGID_27_"  overflow="visible"/>
								</clipPath>
								<path id="Burger_Bun" clip-path="url(#SVGID_14_)" fill="#FF9827" d="M64.392,483.432
									c-2.074-76.797,95.756-116.022,95.756-116.022s2.137-1.018,13.511-4.149c20.028-5.511,97.827-13.995,126.863-13.72
									c14.025,0.132,8.858,0.24,52.798,1.632c52.384,1.66,88.333,12.033,139.841,59.019c35.057,31.98,33.319,70.771,29.42,75.948
									c-13.303,17.676-85.003,30.725-125.174,33.134c-40.178,2.407-18.615,1.917-142.213-1.236
									c-70.81-1.808-111.888-10.165-167.338-17.302C62.08,497.414,64.392,483.432,64.392,483.432L64.392,483.432z"/>
							</g>
						</g>
					</g>
				</g>
			</g>
			<g>
				<g>
					<g>
						<g>
							<g>
								<defs>
									<path id="SVGID_29_" d="M64.392,483.432c-2.074-76.797,95.756-116.022,95.756-116.022s2.137-1.018,13.511-4.149
										c20.028-5.511,97.827-13.995,126.863-13.72c14.025,0.132,8.858,0.24,52.798,1.632
										c52.384,1.66,88.333,12.033,139.841,59.019c35.057,31.98,33.319,70.771,29.42,75.948
										c-13.303,17.676-85.003,30.725-125.174,33.134c-40.178,2.407-18.615,1.917-142.213-1.236
										c-70.81-1.808-111.888-10.165-167.338-17.302C62.08,497.414,64.392,483.432,64.392,483.432L64.392,483.432z"/>
								</defs>
								<clipPath id="SVGID_16_">
									<use xlink:href="#SVGID_29_"  overflow="visible"/>
								</clipPath>
								<path id="Bun_Shadow" clip-path="url(#SVGID_16_)" fill="#FF8429" d="M81.984,380.514
									c-4.041,73.369-4.157,77.062,16.969,80.04c4.37,0.615,32.54,5.189,36.341,0.433c3.685-4.612,7.077-20.692,10.159-25.823
									c2.876-4.791,10.002-10.603,8.77-8.616c-12.799,20.621-10.605,34.446-7.729,36.174c9.627,5.779,16.027,11.078,64.144,4.561
									c52.891-7.162,73.057,20.588,108.195,14.681c23.393-3.934,27.373,2.563,40.851-6.339c2.172-1.435-5.828-7.479-2.807-12.988
									c4.526-8.25,7.645-19.198-0.889-33.419c-0.89-1.48,5.154,5.865,8.711,12.798c7.443,14.519-15.822,26.843,3.025,32.532
									c6.749,2.038,19.881-1.66,31.896-2.785c25.568-2.399,41.172-0.001,48.495-7.051c13.054-12.563,8.074-23.614,8.076-26.783
									c0-1.58,4.898,9.442,2.003,21.685c-0.817,3.44,14.475-4.349,28.618-9.536c35.139-12.89,3.767-90.197,4.844-85.758
									c5.192,21.305,54.14,93.38,54.14,93.38l-36.896,37.155c0,0-30.675,20.766-40.934,22.202
									c-115.497,16.123-72.815,24.166-207.215,11.277C126.352,515.439,78.2,514.989,59.363,484.377
									C40.771,454.165,81.919,381.716,81.984,380.514z"/>
							</g>
						</g>
					</g>
				</g>
			</g>
			<g>
				<g>
					<g>
						<g>
							<g>
								<defs>
									<path id="SVGID_31_" d="M64.392,483.432c-2.074-76.797,95.756-116.022,95.756-116.022s2.137-1.018,13.511-4.149
										c20.028-5.511,97.827-13.995,126.863-13.72c14.025,0.132,8.858,0.24,52.798,1.632
										c52.384,1.66,88.333,12.033,139.841,59.019c35.057,31.98,33.319,70.771,29.42,75.948
										c-13.303,17.676-85.003,30.725-125.174,33.134c-40.178,2.407-18.615,1.917-142.213-1.236
										c-70.81-1.808-111.888-10.165-167.338-17.302C62.08,497.414,64.392,483.432,64.392,483.432L64.392,483.432z"/>
								</defs>
								<clipPath id="SVGID_18_">
									<use xlink:href="#SVGID_31_"  overflow="visible"/>
								</clipPath>
								<path id="Burger_Darker_Shadow_1_" clip-path="url(#SVGID_18_)" fill="#FF6D2C" d="M105.509,479.291
									c21.337-2.615,27.38,19.783,92.798,19.072c19.807-0.215,12.154-10.378,34.779-0.681c22.625,9.694,11.328,16.87,55.527,5.622
									c31.998-8.143,34.258-0.597,73.758-7.238c28.637-4.814,9.434,3.362,47.541,4.805c20.59,0.775,20.592,11.133,35.137-1.797
									c14.544-12.928,20.265-10.31,49.063-15.998c34.625-6.841,19.194-24.177,26.308-39.109c0,0,9.375,26.28,9.603,33.775
									c0.627,20.628-8.129,16.841-28.282,25.273c-42.482,17.779-53.846,25.567-138.467,27.345
									c-77.965,1.64-143.043-0.352-215.807-13.864c-24.888-4.62-81.451-5.505-87.105-27.374
									c-5.656-21.868,3.976-33.454,3.976-33.454C70.671,485.21,78.137,472.766,105.509,479.291L105.509,479.291z"/>
							</g>
						</g>
					</g>
				</g>
			</g>
			<g>
				<g>
					<g>
						<g>
							<g>
								<defs>
									<path id="SVGID_33_" d="M64.392,483.432c-2.074-76.797,95.756-116.022,95.756-116.022s2.137-1.018,13.511-4.149
										c20.028-5.511,97.827-13.995,126.863-13.72c14.025,0.132,8.858,0.24,52.798,1.632
										c52.384,1.66,88.333,12.033,139.841,59.019c35.057,31.98,33.319,70.771,29.42,75.948
										c-13.303,17.676-85.003,30.725-125.174,33.134c-40.178,2.407-18.615,1.917-142.213-1.236
										c-70.81-1.808-111.888-10.165-167.338-17.302C62.08,497.414,64.392,483.432,64.392,483.432L64.392,483.432z"/>
								</defs>
								<clipPath id="SVGID_20_">
									<use xlink:href="#SVGID_33_"  overflow="visible"/>
								</clipPath>
								<path id="Bun_Highlight_2_" clip-path="url(#SVGID_20_)" fill="#FFAB57" d="M193.441,352.729
									c25.78-27.301,129.587-8.053,155.721-8.858c30.216-0.934,125.325,48.78,79.119,40.54
									c-55.56-9.91-15.706,17.569-61.783,4.806c0,0-10.336-3.003-9.926,1.502c0.698,7.769-4.066,11.539-11.367,12.919
									c-18.963,3.581-55.029-8.982-56.824-9.54c-11.225-3.491-23.003-6.87-28.709,1.877c-4.621,7.084-14.641,15.213-28.41,12.313
									c-19.781-4.168-20.113-0.338-29.225-10.36c-10.415-11.454-26.373,12.312-40.597,4.504
									c-4.036-2.216-23.706,13.814-16.891-2.102c9.474-22.13-65.416,24.436-20.743-8.41
									C138.918,380.806,172.145,351.405,193.441,352.729"/>
							</g>
						</g>
					</g>
				</g>
			</g>
			<g>
				<g>
					<g>
						<g>
							<g>
								<defs>
									<path id="SVGID_35_" d="M64.392,483.432c-2.074-76.797,95.756-116.022,95.756-116.022s2.137-1.018,13.511-4.149
										c20.028-5.511,97.827-13.995,126.863-13.72c14.025,0.132,8.858,0.24,52.798,1.632
										c52.384,1.66,88.333,12.033,139.841,59.019c35.057,31.98,33.319,70.771,29.42,75.948
										c-13.303,17.676-85.003,30.725-125.174,33.134c-40.178,2.407-18.615,1.917-142.213-1.236
										c-70.81-1.808-111.888-10.165-167.338-17.302C62.08,497.414,64.392,483.432,64.392,483.432L64.392,483.432z"/>
								</defs>
								<clipPath id="SVGID_22_">
									<use xlink:href="#SVGID_35_"  overflow="visible"/>
								</clipPath>
								<path id="Bun_Secondary_Highlight" clip-path="url(#SVGID_22_)" fill="#FFBA7B" d="M273.167,344.001
									c-28.564,5.33-26.673-0.912-41.943,9.249c-15.268,10.16-9.148-0.257-22.31,7.99c-20.89,13.09-4.776,14.186-12.528,17.524
									c-7.75,3.338-20.14,10.09,19.477-2.071c39.615-12.159-0.103,4.049,19.943,0.359c20.047-3.689,11.095,9.452,31.443,5.031
									c20.348-4.42,4.919-28.837,34.749-8.474c14.728,10.054,24.572-4.957,30.442-4.083c11.509,1.71,29.8,8.73,34.573,3.143
									c1.745-2.045-17.931-9.646-5.229-8.675c18.315,1.399-1.204-4.284-5.88-7.709c-6.163-4.521,17.796-0.135,2.863-8.193
									c-4.848-2.617,15.174-1.896-20.009-7.482c-19.706-3.129-22.733-5.699-38.826-2.098
									C283.842,342.112,273.167,344.001,273.167,344.001z"/>
							</g>
						</g>
					</g>
				</g>
			</g>
			<g>
				<g>
					<g>
						<g>
							<g>
								<defs>
									<path id="SVGID_37_" d="M64.392,483.432c-2.074-76.797,95.756-116.022,95.756-116.022s2.137-1.018,13.511-4.149
										c20.028-5.511,97.827-13.995,126.863-13.72c14.025,0.132,8.858,0.24,52.798,1.632
										c52.384,1.66,88.333,12.033,139.841,59.019c35.057,31.98,33.319,70.771,29.42,75.948
										c-13.303,17.676-85.003,30.725-125.174,33.134c-40.178,2.407-18.615,1.917-142.213-1.236
										c-70.81-1.808-111.888-10.165-167.338-17.302C62.08,497.414,64.392,483.432,64.392,483.432L64.392,483.432z"/>
								</defs>
								<clipPath id="SVGID_24_">
									<use xlink:href="#SVGID_37_"  overflow="visible"/>
								</clipPath>
								<path id="Top_Highlight_Bun" clip-path="url(#SVGID_24_)" fill="#FFC599" d="M233.979,354.151
									c14.93-6.923-8.527-10.628,29.115-8.178c37.645,2.45,26.978-8.545,43.569-0.757c16.589,7.791,13.824-11.69,18.566,1.297
									c4.74,12.986,16.146-0.492,21.668,9.827c5.516,10.317,0.376,11.187-18.821,5.143c-20.122-6.336-14.335,5.166-25.6,0.355
									c-28.913-12.348-21.174,4.793-36.975,7.466c-15.802,2.673-17.421-4.622-34.842-4.267
									C220.15,365.254,233.979,354.151,233.979,354.151z"/>
							</g>
						</g>
					</g>
				</g>
			</g>
			<g>
				<g>
					<g>
						<g>
							<g>
								<defs>
									<path id="SVGID_39_" d="M64.392,483.432c-2.074-76.797,95.756-116.022,95.756-116.022s2.137-1.018,13.511-4.149
										c20.028-5.511,97.827-13.995,126.863-13.72c14.025,0.132,8.858,0.24,52.798,1.632
										c52.384,1.66,88.333,12.033,139.841,59.019c35.057,31.98,33.319,70.771,29.42,75.948
										c-13.303,17.676-85.003,30.725-125.174,33.134c-40.178,2.407-18.615,1.917-142.213-1.236
										c-70.81-1.808-111.888-10.165-167.338-17.302C62.08,497.414,64.392,483.432,64.392,483.432L64.392,483.432z"/>
								</defs>
								<clipPath id="SVGID_26_">
									<use xlink:href="#SVGID_39_"  overflow="visible"/>
								</clipPath>
								<g id="Sesames_1_" opacity="0.3" clip-path="url(#SVGID_26_)">
									<path fill="#BC6E39" d="M253.712,363.578l-3.378-1.165c-1.571-0.35-2.795-1.049-5.241-0.524c0,0-2.167,0.587-0.874,2.852
										C244.455,365.15,247.086,365.374,253.712,363.578z"/>
									<path fill="#BC6E39" d="M156.922,376.111c0,0-2.167,0.587-0.873,2.854c0.233,0.407,2.866,0.631,9.489-1.166l-3.377-1.165
										C160.592,376.286,159.368,375.588,156.922,376.111z"/>
									<path fill="#BC6E39" d="M238.958,395.124c-1.571-0.35-2.795-1.049-5.241-0.524c0,0-2.167,0.587-0.873,2.853
										c0.233,0.408,2.866,0.63,9.491-1.165L238.958,395.124z"/>
									<path fill="#BC6E39" d="M215.23,417.354c0,0-2.167,0.587-0.874,2.853c0.233,0.409,2.866,0.631,9.49-1.164l-3.378-1.166
										C218.899,417.528,217.676,416.83,215.23,417.354z"/>
									<path fill="#BC6E39" d="M307.444,378.321c0,0-2.001,1.021-0.269,2.97c0.313,0.352,2.936,0.026,9.048-3.096l-3.543-0.444
										C311.067,377.736,309.728,377.304,307.444,378.321z"/>
									<path fill="#BC6E39" d="M338.101,380.823c0,0-2.246-0.051-1.646,2.489c0.107,0.458,2.569,1.417,9.431,1.571l-2.907-2.073
										C341.569,382.028,340.594,381.012,338.101,380.823z"/>
									<path fill="#BC6E39" d="M328.907,384.903c0,0-2.123,0.737-0.675,2.905c0.263,0.392,2.901,0.431,9.388-1.821l-3.45-0.928
										C332.575,384.822,331.308,384.21,328.907,384.903z"/>
									<path fill="#BC6E39" d="M297.443,414.224c0,0-1.903,1.194-0.003,2.984c0.343,0.323,2.927-0.233,8.737-3.892l-3.571-0.125
										C301.001,413.316,299.629,413.009,297.443,414.224z"/>
									<path fill="#BC6E39" d="M413.68,399.323l2.479,2.572c1.242,1.027,2.014,2.203,4.432,2.846c0,0,2.197,0.464,2.072-2.143
										C422.642,402.127,420.397,400.732,413.68,399.323z"/>
									<path fill="#BC6E39" d="M284.82,386.326c0,0-2.121,0.737-0.674,2.905c0.262,0.392,2.903,0.431,9.388-1.821l-3.45-0.928
										C288.491,386.244,287.224,385.632,284.82,386.326z"/>
									<path fill="#BC6E39" d="M301.886,407.658c0,0-2.121,0.736-0.674,2.904c0.261,0.392,2.903,0.43,9.39-1.821l-3.451-0.928
										C305.556,407.576,304.289,406.965,301.886,407.658z"/>
									<path fill="#BC6E39" d="M211.708,383.442c-1.612-0.017-2.953-0.448-5.236,0.568c0,0-2,1.021-0.267,2.971
										c0.313,0.352,2.934,0.026,9.048-3.096L211.708,383.442z"/>
									<path fill="#BC6E39" d="M186.508,414.357c0,0-1.862,1.258,0.099,2.982c0.353,0.309,2.915-0.333,8.599-4.182l-3.573-0.005
										C190.032,413.332,188.65,413.068,186.508,414.357z"/>
									<path fill="#BC6E39" d="M222.363,375.354l-3.544-0.444c-1.613-0.017-2.953-0.447-5.236,0.567c0,0-2.002,1.021-0.267,2.971
										C213.627,378.8,216.25,378.475,222.363,375.354z"/>
									<path fill="#BC6E39" d="M145.297,415.087c0,0-1.599,1.579,0.646,2.912c0.405,0.241,2.804-0.862,7.684-5.692l-3.512,0.651
										C148.572,413.43,147.164,413.426,145.297,415.087z"/>
									<path fill="#BC6E39" d="M341.152,363.226c0.996-2.637-1.235-3.026-1.235-3.026c-2.494-0.29-3.617,0.62-5.136,1.187
										l-3.203,1.671C338.388,364.253,340.975,363.7,341.152,363.226z"/>
									<path fill="#BC6E39" d="M321.427,370.154c-2.493-0.29-3.617,0.618-5.136,1.187l-3.202,1.671
										c6.813,1.196,9.396,0.644,9.573,0.17C323.659,370.545,321.427,370.154,321.427,370.154z"/>
									<path fill="#BC6E39" d="M369.596,360.38c0.993-2.636-1.236-3.026-1.236-3.026c-2.494-0.289-3.617,0.618-5.137,1.187
										l-3.203,1.67C366.83,361.408,369.417,360.856,369.596,360.38z"/>
									<path fill="#BC6E39" d="M375.468,378.687c-2.492-0.29-3.617,0.618-5.135,1.186l-3.204,1.671
										c6.816,1.196,9.397,0.645,9.575,0.169C377.698,379.078,375.468,378.687,375.468,378.687z"/>
									<path fill="#BC6E39" d="M393.086,407.479c-2.099-1.379-3.513-1.074-5.123-1.249l-3.612,0.052
										c5.546,4.131,8.106,4.799,8.478,4.457C394.903,408.828,393.086,407.479,393.086,407.479z"/>
									<path fill="#BC6E39" d="M299.471,370.142c1.669-2.27-0.376-3.247-0.376-3.247c-2.32-0.951-3.652-0.381-5.267-0.243
										l-3.535,0.745C296.534,370.386,299.172,370.553,299.471,370.142z"/>
									<path fill="#BC6E39" d="M278.579,360.38c0.994-2.636-1.237-3.026-1.237-3.026c-2.493-0.289-3.618,0.618-5.134,1.187
										l-3.205,1.67C275.813,361.408,278.4,360.856,278.579,360.38z"/>
									<path fill="#BC6E39" d="M225.959,361.804c0.994-2.637-1.236-3.026-1.236-3.026c-2.494-0.291-3.618,0.618-5.136,1.186
										l-3.203,1.671C223.195,362.83,225.783,362.279,225.959,361.804z"/>
									<path fill="#BC6E39" d="M260.276,363.044c-2.494-0.291-3.619,0.618-5.136,1.186l-3.204,1.671
										c6.812,1.196,9.398,0.644,9.575,0.168C262.506,363.435,260.276,363.044,260.276,363.044z"/>
									<path fill="#BC6E39" d="M281.607,368.732c-2.494-0.291-3.618,0.618-5.135,1.186l-3.204,1.671
										c6.812,1.196,9.398,0.644,9.575,0.169C283.839,369.123,281.607,368.732,281.607,368.732z"/>
									<path fill="#BC6E39" d="M234.494,381.712c0.994-2.636-1.237-3.025-1.237-3.025c-2.493-0.29-3.618,0.618-5.135,1.186
										l-3.204,1.671C231.728,382.74,234.315,382.189,234.494,381.712z"/>
									<path fill="#BC6E39" d="M250.32,400.019c-2.493-0.29-3.618,0.618-5.135,1.187l-3.204,1.671
										c6.812,1.196,9.397,0.645,9.575,0.169C252.552,400.41,250.32,400.019,250.32,400.019z"/>
								</g>
							</g>
						</g>
					</g>
				</g>
			</g>
			<g>
				<g>
					<g>
						<g>
							<g>
								<defs>
									<path id="SVGID_41_" d="M64.392,483.432c-2.074-76.797,95.756-116.022,95.756-116.022s2.137-1.018,13.511-4.149
										c20.028-5.511,97.827-13.995,126.863-13.72c14.025,0.132,8.858,0.24,52.798,1.632
										c52.384,1.66,88.333,12.033,139.841,59.019c35.057,31.98,33.319,70.771,29.42,75.948
										c-13.303,17.676-85.003,30.725-125.174,33.134c-40.178,2.407-18.615,1.917-142.213-1.236
										c-70.81-1.808-111.888-10.165-167.338-17.302C62.08,497.414,64.392,483.432,64.392,483.432L64.392,483.432z"/>
								</defs>
								<clipPath id="SVGID_28_">
									<use xlink:href="#SVGID_41_"  overflow="visible"/>
								</clipPath>
								<g id="Sesame_Shadow" clip-path="url(#SVGID_28_)">
									<path fill="#FFDEC7" d="M253.712,362.156l-3.378-1.165c-1.571-0.35-2.795-1.048-5.241-0.524c0,0-2.167,0.588-0.874,2.853
										C244.455,363.729,247.086,363.953,253.712,362.156z"/>
									<path fill="#FFDEC7" d="M156.922,374.688c0,0-2.167,0.587-0.873,2.853c0.233,0.408,2.866,0.632,9.489-1.165l-3.377-1.165
										C160.592,374.865,159.368,374.166,156.922,374.688z"/>
									<path fill="#FFDEC7" d="M238.958,393.701c-1.571-0.35-2.795-1.048-5.241-0.523c0,0-2.167,0.588-0.873,2.853
										c0.233,0.409,2.866,0.631,9.491-1.165L238.958,393.701z"/>
									<path fill="#FFDEC7" d="M215.23,415.93c0,0-2.167,0.588-0.874,2.854c0.233,0.408,2.866,0.631,9.49-1.164l-3.378-1.166
										C218.899,416.105,217.676,415.408,215.23,415.93z"/>
									<path fill="#FFDEC7" d="M307.444,376.899c0,0-2.001,1.021-0.269,2.971c0.313,0.351,2.936,0.026,9.048-3.096l-3.543-0.444
										C311.067,376.314,309.728,375.882,307.444,376.899z"/>
									<path fill="#FFDEC7" d="M338.101,379.4c0,0-2.246-0.051-1.646,2.489c0.107,0.458,2.569,1.417,9.431,1.571l-2.907-2.074
										C341.569,380.606,340.594,379.59,338.101,379.4z"/>
									<path fill="#FFDEC7" d="M328.907,383.481c0,0-2.123,0.737-0.675,2.905c0.263,0.391,2.901,0.43,9.388-1.822l-3.45-0.928
										C332.575,383.399,331.308,382.789,328.907,383.481z"/>
									<path fill="#FFDEC7" d="M297.443,412.803c0,0-1.903,1.193-0.003,2.983c0.343,0.323,2.927-0.234,8.737-3.891l-3.571-0.124
										C301.001,411.896,299.629,411.586,297.443,412.803z"/>
									<path fill="#FFDEC7" d="M413.68,397.901l2.479,2.572c1.242,1.028,2.014,2.204,4.432,2.846c0,0,2.197,0.464,2.072-2.143
										C422.642,400.705,420.397,399.31,413.68,397.901z"/>
									<path fill="#FFDEC7" d="M284.82,384.903c0,0-2.121,0.737-0.674,2.905c0.262,0.392,2.903,0.431,9.388-1.821l-3.45-0.928
										C288.491,384.822,287.224,384.21,284.82,384.903z"/>
									<path fill="#FFDEC7" d="M301.886,406.234c0,0-2.121,0.737-0.674,2.906c0.261,0.391,2.903,0.43,9.39-1.822l-3.451-0.928
										C305.556,406.154,304.289,405.543,301.886,406.234z"/>
									<path fill="#FFDEC7" d="M211.708,382.021c-1.612-0.019-2.953-0.448-5.236,0.567c0,0-2,1.021-0.267,2.971
										c0.313,0.352,2.934,0.027,9.048-3.096L211.708,382.021z"/>
									<path fill="#FFDEC7" d="M186.508,412.934c0,0-1.862,1.261,0.099,2.983c0.353,0.31,2.915-0.334,8.599-4.181l-3.573-0.006
										C190.032,411.91,188.65,411.646,186.508,412.934z"/>
									<path fill="#FFDEC7" d="M222.363,373.932l-3.544-0.443c-1.613-0.017-2.953-0.447-5.236,0.567c0,0-2.002,1.021-0.267,2.97
										C213.627,377.378,216.25,377.053,222.363,373.932z"/>
									<path fill="#FFDEC7" d="M145.297,413.664c0,0-1.599,1.578,0.646,2.912c0.405,0.24,2.804-0.862,7.684-5.692l-3.512,0.651
										C148.572,412.008,147.164,412.003,145.297,413.664z"/>
									<path fill="#FFDEC7" d="M341.152,361.804c0.996-2.637-1.235-3.026-1.235-3.026c-2.494-0.291-3.617,0.618-5.136,1.186
										l-3.203,1.671C338.388,362.83,340.975,362.279,341.152,361.804z"/>
									<path fill="#FFDEC7" d="M321.427,368.732c-2.493-0.291-3.617,0.618-5.136,1.186l-3.202,1.671
										c6.813,1.196,9.396,0.644,9.573,0.169C323.659,369.123,321.427,368.732,321.427,368.732z"/>
									<path fill="#FFDEC7" d="M369.596,358.959c0.993-2.637-1.236-3.026-1.236-3.026c-2.494-0.29-3.617,0.618-5.137,1.186
										l-3.203,1.671C366.83,359.985,369.417,359.434,369.596,358.959z"/>
									<path fill="#FFDEC7" d="M375.468,377.265c-2.492-0.29-3.617,0.618-5.135,1.187l-3.204,1.671
										c6.816,1.195,9.397,0.643,9.575,0.169C377.698,377.656,375.468,377.265,375.468,377.265z"/>
									<path fill="#FFDEC7" d="M393.086,406.056c-2.099-1.379-3.513-1.074-5.123-1.25l-3.612,0.052
										c5.546,4.131,8.106,4.8,8.478,4.456C394.903,407.405,393.086,406.056,393.086,406.056z"/>
									<path fill="#FFDEC7" d="M299.471,368.721c1.669-2.27-0.376-3.248-0.376-3.248c-2.32-0.951-3.652-0.381-5.267-0.243
										l-3.535,0.745C296.534,368.964,299.172,369.13,299.471,368.721z"/>
									<path fill="#FFDEC7" d="M278.579,358.959c0.994-2.637-1.237-3.026-1.237-3.026c-2.493-0.29-3.618,0.618-5.134,1.186
										l-3.205,1.671C275.813,359.985,278.4,359.434,278.579,358.959z"/>
									<path fill="#FFDEC7" d="M225.959,360.38c0.994-2.636-1.236-3.026-1.236-3.026c-2.494-0.289-3.618,0.618-5.136,1.187
										l-3.203,1.67C223.195,361.408,225.783,360.856,225.959,360.38z"/>
									<path fill="#FFDEC7" d="M260.276,361.622c-2.494-0.291-3.619,0.618-5.136,1.186l-3.204,1.671
										c6.812,1.196,9.398,0.645,9.575,0.169C262.506,362.013,260.276,361.622,260.276,361.622z"/>
									<path fill="#FFDEC7" d="M281.607,367.311c-2.494-0.29-3.618,0.618-5.135,1.186l-3.204,1.671
										c6.812,1.196,9.398,0.644,9.575,0.169C283.839,367.701,281.607,367.311,281.607,367.311z"/>
									<path fill="#FFDEC7" d="M234.494,380.291c0.994-2.637-1.237-3.025-1.237-3.025c-2.493-0.29-3.618,0.618-5.135,1.187
										l-3.204,1.671C231.728,381.317,234.315,380.766,234.494,380.291z"/>
									<path fill="#FFDEC7" d="M250.32,398.597c-2.493-0.29-3.618,0.618-5.135,1.187l-3.204,1.671
										c6.812,1.196,9.397,0.644,9.575,0.169C252.552,398.988,250.32,398.597,250.32,398.597z"/>
								</g>
							</g>
						</g>
					</g>
				</g>
			</g>
		</g>
		<path fill="#00AB00" d="M527.887,565.205"/>
	</g>
</g>
</svg>
