<?xml version="1.0" encoding="utf-8"?>
<!-- Generator: Adobe Illustrator 16.0.0, SVG Export Plug-In . SVG Version: 6.00 Build 0)  -->
<!DOCTYPE svg PUBLIC "-//W3C//DTD SVG 1.1//EN" "http://www.w3.org/Graphics/SVG/1.1/DTD/svg11.dtd">
<svg version="1.1" id="Layer_1" xmlns="http://www.w3.org/2000/svg" xmlns:xlink="http://www.w3.org/1999/xlink" x="0px" y="0px"
	 width="2480px" height="3508px" viewBox="0 0 2480 3508" enable-background="new 0 0 2480 3508" xml:space="preserve">
<g id="Rice_Bun_Bottom_1_">
	<path id="Rice_Bun_Bottom" fill="#FFC5C5" stroke="#000000" stroke-miterlimit="10" d="M150.833,2280.515
		c-7-18.666,9.333-24.333,9.333-24.333c-1.333-18.667,14.326-17.673,14.326-17.673c3.674-15.327,19.507-7.759,19.507-7.759
		c6.165-10.834,19-4.5,19-4.5c9.665-11.917,24.168-3.749,24.168-3.749c5.832-9.251,22.667-3.334,22.667-3.334
		c8.915-7.917,22.667-0.666,22.667-0.666c8.249-8.251,22.249-0.751,22.249-0.751c9.75-7.5,19.75,0.25,19.75,0.25
		c10.25-7.25,20.755-0.134,20.755-0.134C352.75,2210,365,2217.75,365,2217.75c9.25-7,21.25-0.25,21.25-0.25
		c10.082-7.917,21.25,0,21.25,0c10.75-9,22.5-0.25,22.5-0.25c11.25-8.75,20.75-0.692,20.75-0.692C458.5,2208,472,2216,472,2216
		c9-7.75,19.5-0.25,19.5-0.25c11.25-9,21.668-0.583,21.668-0.583c10.332-9.417,23.333-0.666,23.333-0.666c10.499-10.001,22,0,22,0
		c12.249-11.501,23.749,0.249,23.749,0.249c11.75-10.25,24.25-0.5,24.25-0.5c12.082-9.917,24.668-1.083,24.668-1.083
		C645.25,2200.75,659,2213,659,2213c12.082-11.501,25.5-1.25,25.5-1.25c12-10.5,26.5,0,26.5,0c12-11,24.168-0.583,24.168-0.583
		c12.832-10.917,24,0.667,24,0.667c12.332-11.834,24-0.667,24-0.667c11.332-11.334,22.667,0,22.667,0c12.999-12.001,24,0,24,0
		c10.332-12.334,21.332-0.667,21.332-0.667c10-11,20.001,0,20.001,0c10.332-10.667,23.333-0.667,23.333-0.667
		c12.999-10.667,26.333,1,26.333,1c12.999-13.667,25-0.333,25-0.333c10-11.667,23.666-1,23.666-1
		c12.667-14,24.334-0.333,24.334-0.333c14.333-15.334,28.667-0.667,28.667-0.667c14.999-16,29.333,0,29.333,0
		c12.333-14.334,25.333-0.667,25.333-0.667c15.333-16,30.667,0,30.667,0c16.666-17.333,32,0,32,0
		c14.333-17.333,29.333-0.666,29.333-0.666c13.667-14.667,27.333-1.334,27.333-1.334c13.333-15.333,25.333,0,25.333,0
		c13.333-16,28.667-0.667,28.667-0.667c14-16,28.667-0.666,28.667-0.666c17.666-16.667,31.333,0,31.333,0
		c16.667-16.667,31.333,0,31.333,0c14-15,28.667-0.667,28.667-0.667c10.667-12,24-0.667,24-0.667c12.333-13,24-0.666,24-0.666
		c13-13,26,0,26,0c11.333-12.667,26.667,0,26.667,0c12.333-13.333,25.333,0,25.333,0c14-13.333,27,0,27,0c10.999-14.334,26,0,26,0
		c15.333-13.333,27.667-0.667,27.667-0.667c12.333-13,26-0.667,26-0.667c12.333-14,25.333-0.666,25.333-0.666
		c12.333-14.334,24.667,0,24.667,0c11.666-12.667,24.666,0,24.666,0c13-12.333,25.334-0.667,25.334-0.667
		c14.333-13.333,26.666,0,26.666,0c11-13,22.667-0.667,22.667-0.667c12.333-12,23.333,0,23.333,0c12-12,26-0.666,26-0.666
		c12.334-12,27.334-0.667,27.334-0.667c13.333-12.667,27.333,0,27.333,0c12.667-13,27.333-0.667,27.333-0.667
		c13-13.666,26.665-0.666,26.665-0.666c14.002-13,25.334-0.667,25.334-0.667c12.001-13.333,24,0,24,0c13.334-14,26,0,26,0
		c11.001-13.333,22.666-0.666,22.666-0.666c11.668-13.334,24.668,0,24.668,0c13-13,25.667-0.667,25.667-0.667
		c13.333-13.667,26.999,0,26.999,0c13.668-14.333,27.334,0,27.334,0c13-14,28-0.667,28-0.667c11.334-13,25.998,0.001,25.998,0.001
		c12.002-14.334,25.334,0.667,25.334,0.667c13.335-12.334,22.335,2.999,22.335,2.999c15.669-10.668,24.998,3.668,24.998,3.668
		c15.669-9.668,24,6,24,6c15.002-7.335,20.667,7.333,20.667,7.333c14.335-4.668,16.666,10,16.666,10
		c14.336-2.001,12.667,13.33,12.667,13.33c14.002,6.336,4.666,18.667,4.666,18.667c13.336,8.01,2,20,2,20
		c12.003,10.344-0.666,23.333-0.666,23.333c8.335,11.011-3.334,20-3.334,20c6.669,15.011-4.666,22-4.666,22c7.002,15.681-8,22-8,22
		c2.669,15.681-11.665,18.014-11.665,18.014c-2.664,15.682-18.335,11.986-18.335,11.986c-4.331,17.016-22.001,10.001-22.001,10.001
		c-5.664,19.015-24.667,10.667-24.667,10.667c-8.997,16.018-28.667,10-28.667,10c-13.663,15.686-34.667,9.333-34.667,9.333
		c-11.662,15.019-29.662,7.019-29.662,7.019c-9.334,14.666-33,9-33,9c-9.334,15.334-32,6.666-32,6.666
		c-10.001,16-35.336,6.649-35.336,6.649c-11.665,14.351-32,4.668-32,4.668c-14.331,14.683-39.333,6.666-39.333,6.666
		c-14.998,16.017-33.333,6-33.333,6c-16.999,15.351-36,6.667-36,6.667c-11.998,14.016-35.334,6-35.334,6
		c-11.664,14.016-31.333,4.667-31.333,4.667c-10.998,14.349-27.333,4.666-27.333,4.666c-11.998,13.017-31.334,4-31.334,4
		c-12.331,12.017-32.666,4-32.666,4c-12.998,11.683-34,2.667-34,2.667c-17.665,12.35-32.667,1.333-32.667,1.333
		c-16.665,14.017-30.667,2-30.667,2c-16.331,12.017-34,1.334-34,1.334c-15.665,13.349-33.333,0.666-33.333,0.666
		c-14.332,14.017-32.667,2-32.667,2c-11.665,11.683-32,2-32,2c-20.665,11.683-37.333,0.667-37.333,0.667
		c-19.998,13.016-35.664,1.684-35.664,1.684c-16.664,14.353-32.339,0.987-32.339,0.987c-18.328,13.013-32.666,0.667-32.666,0.667
		c-17.329,12.346-33.334,0.667-33.334,0.667c-15.328,13.011-32,1.333-32,1.333c-14.995,13.678-30.666,0-30.666,0
		c-15.996,14.678-32.667,0-32.667,0c-19.996,16.012-38,0-38,0c-18.329,13.346-36.667,0-36.667,0
		c-17.662,11.346-34.667-0.667-34.667-0.667c-17.662,11.679-33.333,0-33.333,0c-17.995,10.345-36-1.333-36-1.333
		c-20.995,9.678-33.333-2-33.333-2c-16.662,10.012-29.332-0.672-29.332-0.672c-16.33,10.684-29.33-1.648-30-1.333
		c-17.994,8.498-31.333-2-31.333-2c-15.997,9.017-30-1.334-30-1.334c-15.997,9.685-32-2-32-2c-16.997,10.019-34.667-2-34.667-2
		c-17.33,9.685-33.333-2-33.333-2c-20.997,7.685-32-2.666-32-2.666c-15.997,10.017-30.667-1.334-30.667-1.334
		c-17.997,9.351-32.667-2.666-32.667-2.666c-19.663,9.351-36.667-4-36.667-4c-17.663,9.685-36-2.667-36-2.667
		c-17.329,9.352-34-3.333-34-3.333c-18.996,9.351-36.667-4-36.667-4c-20.329,9.017-35.333-3.334-35.333-3.334
		c-18.663,9.351-36.665-4.666-36.665-4.666c-20.664,9.685-36-4.667-36-4.667c-19.998,11.352-37.333-4-37.333-4
		c-24.665,9.018-41-6.333-41-6.333c-26.665,7.351-44-11-44-11c-21.665,6.351-40-12-40-12c-20.332,8.683-36-10-36-10
		c-24.332,6.683-40-12-40-12c-22.998,2.351-31-18-31-18c-21.331-6.317-24-27-24-27c-20.331-12.317-12-34-12-34
		c-17.665-16.649-3-35-3-35C137.5,2289.182,150.833,2280.515,150.833,2280.515z"/>
</g>
<g id="Rice_Bun_Top_1_">
	<g id="Rice_Bun_Top_Clip_Path">
		<g>
			<g>
				<defs>
					<path id="SVGID_1_" d="M2085.834,1524.501c0,0-1.333-11.333-34-8.667c0,0,0.074-8.248-28.666-9.333c0,0-9.468-8.432-32.667-8
						c0,0,1.851-10.541-33.333-8.667c0,0-2.666-9-31.334-7.333c0,0-10.666-11.333-28.666-7.333c0,0-18.003-10.667-34.75-6.253
						c0,0-19.253-10.415-35.148-6.324c0,0-19.438-8.09-35.627-6.411c0,0-21.144-9.68-35.146-6.323c0,0-22.664-10.021-36.664-6.688
						c0,0-18-10-36.627-6.242c0,0-20.04-9.092-37.705-6.426c0,0-19.668-9.333-39.001-5.333c0,0-19.334-8.666-34.667-3.333
						c0,0-23.333-9.333-41.429-4.524c0,0-20.906-7.141-37.238-4.143c0,0-20-10.667-39.333-3.333c0,0-26.667-10-44.711-1.833
						c0,0-22.622-6.834-36.621-1.502c0,0-25.335-9.332-42.668-3.332c0,0-20-8-36-2c0,0-24.667-6-38,0.604c0,0-22-6.604-40-0.604
						c0,0-30-4.667-44.667,2c0,0-28.667-4.667-43.333,1.333c0,0-22.667-7.333-40.667,1.333c0,0-20.667-7.333-32.666-0.334
						c0,0-22.001-3.666-41,4c0,0-23.001-4.333-35,3c0,0-22.668-5.333-38.668,2.667c0,0-21.664-6.664-38.998,5.336
						c0,0-19.333-8-40.333,4.667c0,0-16.5-8.167-37.5,2.583c0,0-21.5-7-40.521,5.346c0,0-21.479-8.346-40.979,5.404
						c0,0-25-7.75-39.5,8.25c0,0-23.5-9-44.5,7.75c0,0-26.5-6.5-42,9.5c0,0-22-8.75-40.75,9.75c0,0-25.75-6.5-42,10.5
						c0,0-23-7.5-41.25,11.75c0,0-25.75-3.5-40,11.5c0,0-25-5.25-39,10c0,0-23-3.75-37.5,10c0,0-19.75-5-40.75,11.75
						c0,0-24.25-3.75-37.75,12.5c0,0-21.5-5.5-35.25,12.75c0,0-25,0.25-34.75,16.75c0,0-20.25-7.25-28,15.25
						c0,0-15.667-1.335-15.667,15.665c0,0-16.667-5.667-15.667,11c0,0-17.668-6.416-15.918,16.084c0,0-16.25,1.25-6,19.5
						c-13,8,0.75,17,0.75,17s-13.75,4.25-2.499,16.751c0,0-15.501,7.249-6.001,23.249c0,0-14.25,12.5,2,23.5c0,0-13.75,15.25,4,27
						c0,0-12.083,15.08,1.667,28.58c0,0-7.001,16.329,11.667,26c0,0-1,16.001,17.333,17c0,0,2.833,14.834,18,12.001
						c0,0,3.167,14.337,20.001,11.337c0,0,7.333,13.333,21.667,4.666c0,0,6.167,10.333,21.833,4.167c0,0,9.708,14.75,25.208,2.75
						c0,0,10.125,14.875,29.375,3.125c0,0,13.125,16.375,33.875,3.375c0,0,5.5,12.75,31.625,5c0,0-3.917,15.915,37.5,4.875
						c0,0-1.625,11.75,38.625,6.625c0,0,9.25,12.75,33.75,7.125c0,0-6.125,14.25,40.375,3.625c0,0,10.875,16.5,44.25,6.375
						c0,0,3,13.875,36.625,3.75c0,0,11.625,14.25,34,4.5c0,0,4.625,13.706,39.125,3.5c0,0,13.75,11.625,39,5.5
						c0,0,20.25,11.625,36.375,3.875c0,0,11.708,11.001,30.708,2.501c0,0,14.667,7.916,26.25,2.5c0,0,15.833,12.833,28.083,2.25
						c0,0,7.917,8.25,24.083,2.5c0,0,10.917,7.916,22.083,0.916c0,0,7.75,8.334,22.5,0.834c0,0,10.333,6.167,23.167,1.167
						c0,0,3.584,8.163,24.667,2.499c0,0,10.833,6.167,23.333,1.667c0,0,3.333,8.5,24.25-0.417c0,0,7.333,6.501,20.667,0.917
						c0,0,11.333,8.667,27.75,1.833c0,0-1.833,10.001,23.417-0.416c0,0,12.167,8.75,26.167,1.75c0,0,13.917,7,29.167-1
						c0,0,2.583,9.661,27.75,1.833c0,0,12.583,9.828,32.667,0.328c0,0,15.292,9.838,36.833,1.251c0,0,15.083,8.212,33.333,0.712
						c0,0,18.75,7.625,31.75,1c0,0,15.25,6.875,29.5,0.625c0,0,17.25,7.625,29.5,0.5c0,0,12.375,10,32.625,0.75
						c0,0,14.875,10.25,31.5,0.375c0,0,16.625,11.375,35.125,2.25c0,0,17.625,7.75,29.5-0.25c0,0,19.417,10.955,28.75,2.875
						c0,0,20,7.375,27-1.25c0,0,19.375,8.375,24,0c0,0,12,6.5,22.5-1.125c0,0,11.375,7.5,18.125-0.25
						c0,0,28.708,10.584,25.708-0.291c0,0,16.667,5.667,20.667-0.333c0,0,11.875,6.916,17.25-3.459c0,0,7.416,8.123,15.75,1.456
						c0,0,10.333,6.003,17.333-1.331c0,0,12.75,5.75,15.75-1.25c0,0,15.251,10.579,21.25-0.416c0,0,12.667,8.329,15.833-0.75
						c0,0,16.168,9.079,21.5-0.917c0,0,16.668,7.996,23-2c0,0,17.668,7.329,20.667-3.333c0,0,15.667,8.662,22.667-0.667
						c0,0,21.667,6.333,25-3c0,0,17,4.416,24.25-4.334c0,0,11.833,6.663,21.083-2.335c0,0,17.667,7,20.167-4.665
						c0,0,10.5,8.331,18-3.25c0,0,19.75,1.75,20.5-4.75c0,0,20.667,4.33,20-6.75c0,0,16.667,8.413,19-2.5c0,0,25,0.751,26.833-5.749
						c0,0,17.667,5.166,25.667-7.167c0,0,18.5,3.831,26.5-4.667c0,0,20.667,3.164,26.166-8.166c0,0,15.5,6.665,17.5-6.335
						c0,0,15,6,19.334-4.165c0,0,19.666-0.668,24.666-9.667c0,0,24.334-0.5,22.334-8.333c0,0,23.333,0.667,22.666-8
						c0,0,17.834,2.831,18.334-8.169c0,0,13.666,5.666,15.167-7.998c0,0,21.166,3.826,23.833-11.837c0,0,14.5,4.5,18.333-14.163
						c0,0,13.667-4.337,8.667-17.837c0,0,15-5,3.667-18.83c0,0,12.833-10.17,1.833-20.166c0,0,13.5-7.504,4.5-20.004c0,0,12-10,1-21
						c0,0,7-12-7-18.5c0,0,11.5-9.999-1-16.5c0,0,13.5-9.5-1.5-18.5c0,0,9-11.5-4-19.5c0,0,8-5.5-3.5-16.5c0,0,4.5-12.5-10-17.5
						c0,0,7.5-12-8.5-16c0,0,2.5-12.5-13-12.5c0,0-6-13.5-16.5-7c0,0-4.5-12-21-6.5c0,0-7.5-14-24.332-5.163
						c0,0-4.667-16.332-27.667-11.332c0,0-10.834-8.667-30.667-6.667c0,0,4.168-9-31.333-8
						C2114.501,1535.834,2114,1530.834,2085.834,1524.501z"/>
				</defs>
				<clipPath id="SVGID_2_">
					<use xlink:href="#SVGID_1_"  overflow="visible"/>
				</clipPath>
				<path id="Rice_Bun_Top_Base" clip-path="url(#SVGID_2_)" fill="#D4D4D4" d="M2085.834,1524.501c0,0-1.333-11.333-34-8.667
					c0,0,0.074-8.248-28.666-9.333c0,0-9.468-8.432-32.667-8c0,0,1.851-10.541-33.333-8.667c0,0-2.666-9-31.334-7.333
					c0,0-10.666-11.333-28.666-7.333c0,0-18.003-10.667-34.75-6.253c0,0-19.253-10.415-35.148-6.324c0,0-19.438-8.09-35.627-6.411
					c0,0-21.144-9.68-35.146-6.323c0,0-22.664-10.021-36.664-6.688c0,0-18-10-36.627-6.242c0,0-20.04-9.092-37.705-6.426
					c0,0-19.668-9.333-39.001-5.333c0,0-19.334-8.666-34.667-3.333c0,0-23.333-9.333-41.429-4.524c0,0-20.906-7.141-37.238-4.143
					c0,0-20-10.667-39.333-3.333c0,0-26.667-10-44.711-1.833c0,0-22.622-6.834-36.621-1.502c0,0-25.335-9.332-42.668-3.332
					c0,0-20-8-36-2c0,0-24.667-6-38,0.604c0,0-22-6.604-40-0.604c0,0-30-4.667-44.667,2c0,0-28.667-4.667-43.333,1.333
					c0,0-22.667-7.333-40.667,1.333c0,0-20.667-7.333-32.666-0.334c0,0-22.001-3.666-41,4c0,0-23.001-4.333-35,3
					c0,0-22.668-5.333-38.668,2.667c0,0-21.664-6.664-38.998,5.336c0,0-19.333-8-40.333,4.667c0,0-16.5-8.167-37.5,2.583
					c0,0-21.5-7-40.521,5.346c0,0-21.479-8.346-40.979,5.404c0,0-25-7.75-39.5,8.25c0,0-23.5-9-44.5,7.75c0,0-26.5-6.5-42,9.5
					c0,0-22-8.75-40.75,9.75c0,0-25.75-6.5-42,10.5c0,0-23-7.5-41.25,11.75c0,0-25.75-3.5-40,11.5c0,0-25-5.25-39,10
					c0,0-23-3.75-37.5,10c0,0-19.75-5-40.75,11.75c0,0-24.25-3.75-37.75,12.5c0,0-21.5-5.5-35.25,12.75c0,0-25,0.25-34.75,16.75
					c0,0-20.25-7.25-28,15.25c0,0-15.667-1.335-15.667,15.665c0,0-16.667-5.667-15.667,11c0,0-17.668-6.416-15.918,16.084
					c0,0-16.25,1.25-6,19.5c-13,8,0.75,17,0.75,17s-13.75,4.25-2.499,16.751c0,0-15.501,7.249-6.001,23.249c0,0-14.25,12.5,2,23.5
					c0,0-13.75,15.25,4,27c0,0-12.083,15.08,1.667,28.58c0,0-7.001,16.329,11.667,26c0,0-1,16.001,17.333,17
					c0,0,2.833,14.834,18,12.001c0,0,3.167,14.337,20.001,11.337c0,0,7.333,13.333,21.667,4.666c0,0,6.167,10.333,21.833,4.167
					c0,0,9.708,14.75,25.208,2.75c0,0,10.125,14.875,29.375,3.125c0,0,13.125,16.375,33.875,3.375c0,0,5.5,12.75,31.625,5
					c0,0-3.917,15.915,37.5,4.875c0,0-1.625,11.75,38.625,6.625c0,0,9.25,12.75,33.75,7.125c0,0-6.125,14.25,40.375,3.625
					c0,0,10.875,16.5,44.25,6.375c0,0,3,13.875,36.625,3.75c0,0,11.625,14.25,34,4.5c0,0,4.625,13.706,39.125,3.5
					c0,0,13.75,11.625,39,5.5c0,0,20.25,11.625,36.375,3.875c0,0,11.708,11.001,30.708,2.501c0,0,14.667,7.916,26.25,2.5
					c0,0,15.833,12.833,28.083,2.25c0,0,7.917,8.25,24.083,2.5c0,0,10.917,7.916,22.083,0.916c0,0,7.75,8.334,22.5,0.834
					c0,0,10.333,6.167,23.167,1.167c0,0,3.584,8.163,24.667,2.499c0,0,10.833,6.167,23.333,1.667c0,0,3.333,8.5,24.25-0.417
					c0,0,7.333,6.501,20.667,0.917c0,0,11.333,8.667,27.75,1.833c0,0-1.833,10.001,23.417-0.416c0,0,12.167,8.75,26.167,1.75
					c0,0,13.917,7,29.167-1c0,0,2.583,9.661,27.75,1.833c0,0,12.583,9.828,32.667,0.328c0,0,15.292,9.838,36.833,1.251
					c0,0,15.083,8.212,33.333,0.712c0,0,18.75,7.625,31.75,1c0,0,15.25,6.875,29.5,0.625c0,0,17.25,7.625,29.5,0.5
					c0,0,12.375,10,32.625,0.75c0,0,14.875,10.25,31.5,0.375c0,0,16.625,11.375,35.125,2.25c0,0,17.625,7.75,29.5-0.25
					c0,0,19.417,10.955,28.75,2.875c0,0,20,7.375,27-1.25c0,0,19.375,8.375,24,0c0,0,12,6.5,22.5-1.125c0,0,11.375,7.5,18.125-0.25
					c0,0,28.708,10.584,25.708-0.291c0,0,16.667,5.667,20.667-0.333c0,0,11.875,6.916,17.25-3.459c0,0,7.416,8.123,15.75,1.456
					c0,0,10.333,6.003,17.333-1.331c0,0,12.75,5.75,15.75-1.25c0,0,15.251,10.579,21.25-0.416c0,0,12.667,8.329,15.833-0.75
					c0,0,16.168,9.079,21.5-0.917c0,0,16.668,7.996,23-2c0,0,17.668,7.329,20.667-3.333c0,0,15.667,8.662,22.667-0.667
					c0,0,21.667,6.333,25-3c0,0,17,4.416,24.25-4.334c0,0,11.833,6.663,21.083-2.335c0,0,17.667,7,20.167-4.665
					c0,0,10.5,8.331,18-3.25c0,0,19.75,1.75,20.5-4.75c0,0,20.667,4.33,20-6.75c0,0,16.667,8.413,19-2.5c0,0,25,0.751,26.833-5.749
					c0,0,17.667,5.166,25.667-7.167c0,0,18.5,3.831,26.5-4.667c0,0,20.667,3.164,26.166-8.166c0,0,15.5,6.665,17.5-6.335
					c0,0,15,6,19.334-4.165c0,0,19.666-0.668,24.666-9.667c0,0,24.334-0.5,22.334-8.333c0,0,23.333,0.667,22.666-8
					c0,0,17.834,2.831,18.334-8.169c0,0,13.666,5.666,15.167-7.998c0,0,21.166,3.826,23.833-11.837c0,0,14.5,4.5,18.333-14.163
					c0,0,13.667-4.337,8.667-17.837c0,0,15-5,3.667-18.83c0,0,12.833-10.17,1.833-20.166c0,0,13.5-7.504,4.5-20.004c0,0,12-10,1-21
					c0,0,7-12-7-18.5c0,0,11.5-9.999-1-16.5c0,0,13.5-9.5-1.5-18.5c0,0,9-11.5-4-19.5c0,0,8-5.5-3.5-16.5c0,0,4.5-12.5-10-17.5
					c0,0,7.5-12-8.5-16c0,0,2.5-12.5-13-12.5c0,0-6-13.5-16.5-7c0,0-4.5-12-21-6.5c0,0-7.5-14-24.332-5.163
					c0,0-4.667-16.332-27.667-11.332c0,0-10.834-8.667-30.667-6.667c0,0,4.168-9-31.333-8
					C2114.501,1535.834,2114,1530.834,2085.834,1524.501z"/>
				<path id="Bottom_Shadow_2" clip-path="url(#SVGID_2_)" fill="#BABABA" d="M2304.001,1796.333
					c5.416,12.835-8.834,17.835-8.834,17.835c-3.416,18.166-18.25,14.499-18.25,14.499c-3.583,15.334-23.833,11.667-23.833,11.667
					c-2,13.5-15.083,8-15.083,8c-2.583,12-18.333,8.25-18.333,8.25c-0.834,9-22.751,7.667-22.751,7.667
					c-0.166,8.833-22.416,8.5-22.416,8.5c-5.75,9.333-24.667,9.667-24.667,9.667c-4.75,10.166-19.25,4.25-19.25,4.25
					c-2.75,13.083-17.5,6.416-17.5,6.416c-7.333,11.5-26.25,8.25-26.25,8.25c-8.583,8.167-26.5,4.583-26.5,4.583
					c-7.166,11.334-25.75,7.5-25.75,7.5c-3.25,5.917-26.75,5.334-26.75,5.334c-1.916,10.333-18.75,2.833-18.75,2.833
					c-0.333,10.417-20.083,6.917-20.083,6.917c-3.417,5.333-18.599,5.123-20.084,4.667c-4.438-1.36-14.946-55.897-14.946-55.897
					c37.729,9.145,44.328-7.605,44.328-7.605c33.152,8.208,42.547-7.986,42.547-7.986c40.635,7.688,42.135-6.703,42.135-6.703
					c21.159,12.308,36.061-4.021,36.061-4.021c18.491,9.985,31.104-3.176,31.104-3.176c17.209,9.571,31.903-2.48,31.903-2.48
					c17.528,10.554,30.894-2.659,30.894-2.659c14.217,8.026,22.06-6.638,22.06-6.638c17.168,7.195,24-7.5,24-7.5
					c17.907,7.02,22.421-9.085,22.421-9.085c18.889-0.441,18.854-9.963,18.854-9.963c21.48-1,14.936-17.584,14.936-17.584
					c12.318-1.237,14.462-10.949,14.462-10.949C2317.167,1789.667,2304.001,1796.333,2304.001,1796.333z M1949.501,1932.001
					c-8.5,12.083-18.75,4.666-18.75,4.666c-5.167,10.417-20.084,4.25-20.084,4.25c-11.666,8.334-21.833,2.167-21.833,2.167
					c-7.75,8.583-23.916,4.25-23.916,4.25c-3.167,8.917-25.167,3.25-25.167,3.25c-8.75,8.417-22.417,0.5-22.417,0.5
					c-3.75,9.917-20.916,3.667-20.916,3.667c-8.417,9.333-22.834,1.833-22.834,1.833c-6.083,9.417-21.666,0.917-21.666,0.917
					c-4.001,8.5-15.917,0.583-15.917,0.583c-6.5,10.417-21.167,0.667-21.167,0.667c-4.333,6-15.833,1.083-15.833,1.083
					c-4.438-1.36-24.5-64-24.5-64c26,20.666,46.001-2,46.001-2c28,17.334,41.212-3.32,41.212-3.32
					c40.636,7.688,43.084-0.458,43.084-0.458c21.16,12.309,36.058-4.021,36.058-4.021c18.491,9.983,31.104-3.176,31.104-3.176
					c17.21,9.571,31.905-2.479,31.905-2.479c17.527,10.554,30.89-2.66,30.89-2.66 M1699.334,1959.417
					c-6.416,8.25-17.583,1.667-17.583,1.667c-8.75,6.25-15.917-1.416-15.917-1.416c-4.5,9.499-17,3.833-17,3.833
					c-4.001,5.166-19.668,0.666-19.668,0.666c-1.333,9.5-26.5-0.166-26.5-0.166c-8.5,6.833-18.5,0.333-18.5,0.333
					c-11.166,7.333-22,1.167-22,1.167c-6.666,7.666-24.333,0.166-24.333,0.166c-4.388-1.518-38.583-72.542-38.583-72.542
					c30.669,18,44.586,1.375,44.586,1.375c22.999,17.604,38.666,0.667,38.666,0.667c22,24,46-0.667,46-0.667
					c14.667,18.667,45.999,1.334,45.999,1.334 M1538.167,1964.001c-4.167,10.5-27.167,2.333-27.167,2.333
					c-12.167,8.334-29-2.5-29-2.5c-15.667,7.834-29.334,0.167-29.334,0.167c-18.833,8.5-35.499-2-35.499-2
					c-19,8.667-31.5-0.5-31.5-0.5c-18.667,9.666-32.5-0.668-32.5-0.668c-15.5,6.334-29.833-0.666-29.833-0.666
					c-15,6.333-29.334-1-29.334-1c-9,6.5-31.5-0.334-31.5-0.334c-17.5,6.167-31.529-0.203-33.833-1
					c-4.388-1.52,2.166-58.333,2.166-58.333c31.5,17.333,47.167-1,47.167-1c28.096,18.638,46.5,1,46.5,1
					c33.623,20.771,43.5-0.5,43.5-0.5c17,20,37,1,37,1c18.125,10.638,36-0.5,36-0.5c10,13,30.5-1.5,30.5-1.5
					c17.141,11.172,27.75-4.875,27.75-4.875"/>
				<path id="Bottom_Shadow_1" clip-path="url(#SVGID_2_)" fill="#BABABA" d="M143.875,1800.75c0,0,2.75,14.75,15.125,15.125
					c0,0-5.375,17,16.125,16.5c0,0,0.625,9.5,19.5,8.625c0,0,5.625,15.75,23,7.5c0,0,9.125,12,25.75,3.625
					c0,0,8.75,10.375,22.375,1.375c0,0,14.25,12.25,31,0.5c0,0,15.5,11,32,0.25c0,0,13.5,12.25,31.25,1c0,0,16,15.25,36.25,1.5
					c0,0,2.5,14.25,42.5,3.75c0,0,10.5,15.5,43,5c0,0,7.75,16.25,44.75,4.5c0,0,3.667,35.166-0.667,36.833s-42.667,10.334-41-3.666
					c0,0-20,6.999-32-6.334c0,0-49.667,7-40.333-7.666c0,0-44,10.666-38.667-3.667c0,0-20,12-30.333-3.667
					c0,0-19.667,10.668-33.667-4.666c0,0-18.667,11.666-30-3.667c0,0-10.333,14.333-24.667-2c0,0-16,6.667-21.333-4.333
					c0,0-12.333,8.333-22.333-4.667c0,0-14.666,2.334-20.333-11.333c0,0-13.333,3.666-18.333-12.334c0,0-14.667,1.334-17.333-17.333
					C155.5,1821.5,141.25,1815.333,143.875,1800.75z M525.75,1870.5c0,0,14.25,12.25,31,0.5c0,0,15.5,11,32,0.25
					c0,0,13.5,12.25,31.25,1c0,0,16,15.25,36.25,1.5c0,0,2.5,14.25,42.5,3.75c0,0,10.5,15.5,43,5c0,0,7.75,16.25,44.75,4.5
					c0,0-12.333,51.834-16.667,53.501s-4.583,3.749-14.333-4c0,0-25.333,4-37.333-4.334c0,0-43.667,5.667-38.667-6
					c0,0-44.333,11.333-39-3c0,0-24,11.001-34.333-4.666c0,0-23.333,7-36.333-2.667c0,0-34.667,6.667-46-8.666 M786.541,1887.582
					c0,0,16.533,14.67,36.281,0.207c0,0,3.006,14.152,42.604,2.233c0,0,11.045,15.113,43.15,3.465c0,0,8.324,15.964,44.882,2.9
					c0,0-10.379,52.686-14.649,54.506C934.537,1952.712,902,1953.75,886,1947c0,0-8.533,10.147-21-2.75c0,0-17.5,7.5-24,1.25
					c0,0-28.5,5.75-55.271-7.288c0,0-19.345,13.577-30.229-1.711 M952.729,1896.917c0,0,14.681,11.734,31-0.605
					c0,0,15.884,10.441,31.988-0.89c0,0,13.928,11.762,31.269-0.113c0,0,16.53,14.671,36.277,0.207c0,0,3.007,14.152,42.607,2.233
					c0,0,11.045,15.116,43.151,3.465c0,0,25.57,18.868,61.896-1.589c0,0,1.854,57.055-2.417,58.875
					c-22.668,7.001-36.335-1.999-36.335-1.999c-19.167,9-33-0.333-33-0.333c-24.333,7-27.833-1.334-27.833-1.334
					c-17.667,7-28.667,0.5-28.667,0.5c-13.667,6.5-26.5-1.333-26.5-1.333c-8.416,4.249-32.416,11.249-54.664-0.501
					c0,0-30.664,9.197-44,0c0,0-29.002,6.5-45.252-4.75"/>
				<path id="Shadow_1_x5F_6" clip-path="url(#SVGID_2_)" fill="#BABABA" d="M139.833,1773.083c0,0-3.25,22.5,17.333,16.75
					c0,0,5,11.25,16.667,7.5c0,0,5.917,11,19.75,5.084c0,0-15,9.833-19.417-0.917c0,0-15.333,4.999-16.833-6.584
					C157.333,1794.916,132.417,1802,139.833,1773.083z"/>
				<path id="Shadow_1_x5F_5" clip-path="url(#SVGID_2_)" fill="#BABABA" d="M134.5,1752.833c0,0,4.792,12.833,19.125,9.167
					c0,0,5.375,11.25,27.042,6.25c0,0-15.208,12.792-25.583-1.708C155.083,1766.542,136.75,1771.75,134.5,1752.833z"/>
				<path id="Shadow_1_x5F_4" clip-path="url(#SVGID_2_)" fill="#BABABA" d="M132,1728.5c0,0,7.25,10.25,24.25,5.75
					c0,0,1.5,17,27.75,7.25c0,0,10.75,16.75,34.75,5.75c0,0-20.5,16.5-32.25,2c0,0-19,9.75-29.25-7
					C157.25,1742.25,135.25,1745.25,132,1728.5z"/>
				<path id="Shadow_1_x5F_3" clip-path="url(#SVGID_2_)" fill="#BABABA" d="M134.5,1703.167c0,0,14.667,16.333,35.333,10.333
					c0,0,9.667,23,47.667,13.667c0,0-23.666,18-47.333-4.667C170.167,1722.5,127.5,1722.833,134.5,1703.167z"/>
				<path id="Shadow_1_x5F_2" clip-path="url(#SVGID_2_)" fill="#BABABA" d="M139.125,1683.875c0,0,1.375,7.75,36.75,8.125
					c0,0-23.875,4.375-32.375,0.375C141.337,1691.357,139.125,1689.5,139.125,1683.875z"/>
				<path id="Shadow_1_x5F_1" clip-path="url(#SVGID_2_)" fill="#BABABA" d="M144.625,1675c3.718,3.071,28.5,1.25,28.5,1.25
					c-25.875-1-33.625-11.25-33.625-11.25S138.875,1670.25,144.625,1675z"/>
			</g>
		</g>
	</g>
</g>
<path id="Shaodw_2_x5F_1" fill="#BABABA" d="M266.5,1845.167c0,0-6.333-7.666-1.333-11h7.333
	C272.5,1834.167,260.833,1835.834,266.5,1845.167z"/>
<path fill="#BABABA" d="M200.5,1820.5c0,0,6.667,11.667,21,9c0,0,1.667,10,20.333,6.667c0,0-16.333,10.333-20.333-1.334
	C221.5,1834.833,206.167,1837.833,200.5,1820.5z"/>
</svg>
