<?xml version="1.0" encoding="utf-8"?>
<!-- Generator: Adobe Illustrator 16.0.0, SVG Export Plug-In . SVG Version: 6.00 Build 0)  -->
<!DOCTYPE svg PUBLIC "-//W3C//DTD SVG 1.1//EN" "http://www.w3.org/Graphics/SVG/1.1/DTD/svg11.dtd">
<svg version="1.1" id="Layer_1" xmlns="http://www.w3.org/2000/svg" xmlns:xlink="http://www.w3.org/1999/xlink" x="0px" y="0px"
	 width="2198.316px" height="1139.403px" viewBox="131.719 1398.649 2198.316 1139.403"
	 enable-background="new 131.719 1398.649 2198.316 1139.403" xml:space="preserve">
<g id="Bottom_Bun_Clip_Path">
	<defs>
		<path id="Rice_Bun_Bottom_3_" d="M150.833,2280.515c-7-18.666,9.333-24.333,9.333-24.333
			c-1.333-18.667,14.326-17.673,14.326-17.673c3.674-15.327,19.507-7.759,19.507-7.759c6.165-10.834,19-4.5,19-4.5
			c9.665-11.917,24.168-3.749,24.168-3.749c5.832-9.251,22.667-3.334,22.667-3.334c8.915-7.917,22.667-0.666,22.667-0.666
			c8.249-8.251,22.249-0.751,22.249-0.751c9.75-7.5,19.75,0.25,19.75,0.25c10.25-7.25,20.755-0.134,20.755-0.134
			C352.75,2210,365,2217.75,365,2217.75c9.25-7,21.25-0.25,21.25-0.25c10.082-7.917,21.25,0,21.25,0c10.75-9,22.5-0.25,22.5-0.25
			c11.25-8.75,20.75-0.692,20.75-0.692C458.5,2208,472,2216,472,2216c9-7.75,19.5-0.25,19.5-0.25c11.25-9,21.668-0.583,21.668-0.583
			c10.332-9.417,23.333-0.666,23.333-0.666c10.499-10.001,22,0,22,0c12.249-11.501,23.749,0.249,23.749,0.249
			c11.75-10.25,24.25-0.5,24.25-0.5c12.082-9.917,24.668-1.083,24.668-1.083C645.25,2200.75,659,2213,659,2213
			c12.082-11.501,25.5-1.25,25.5-1.25c12-10.5,26.5,0,26.5,0c12-11,24.168-0.583,24.168-0.583c12.832-10.917,24,0.667,24,0.667
			c12.332-11.834,24-0.667,24-0.667c11.332-11.334,22.667,0,22.667,0c12.999-12.001,24,0,24,0
			c10.332-12.334,21.332-0.667,21.332-0.667c10-11,20.001,0,20.001,0c10.332-10.667,23.333-0.667,23.333-0.667
			c12.999-10.667,26.333,1,26.333,1c12.999-13.667,25-0.333,25-0.333c10-11.667,23.666-1,23.666-1
			c12.667-14,24.334-0.333,24.334-0.333c14.333-15.334,28.667-0.667,28.667-0.667c14.999-16,29.333,0,29.333,0
			c12.333-14.334,25.333-0.667,25.333-0.667c15.333-16,30.667,0,30.667,0c16.666-17.333,32,0,32,0
			c14.333-17.333,29.333-0.666,29.333-0.666c13.667-14.667,27.333-1.334,27.333-1.334c13.333-15.333,25.333,0,25.333,0
			c13.333-16,28.667-0.667,28.667-0.667c14-16,28.667-0.666,28.667-0.666c17.666-16.667,31.333,0,31.333,0
			c16.667-16.667,31.333,0,31.333,0c14-15,28.667-0.667,28.667-0.667c10.667-12,24-0.667,24-0.667c12.333-13,24-0.666,24-0.666
			c13-13,26,0,26,0c11.333-12.667,26.667,0,26.667,0c12.333-13.333,25.333,0,25.333,0c14-13.333,27,0,27,0c10.999-14.334,26,0,26,0
			c15.333-13.333,27.667-0.667,27.667-0.667c12.333-13,26-0.667,26-0.667c12.333-14,25.333-0.666,25.333-0.666
			c12.333-14.334,24.667,0,24.667,0c11.666-12.667,24.666,0,24.666,0c13-12.333,25.334-0.667,25.334-0.667
			c14.333-13.333,26.666,0,26.666,0c11-13,22.667-0.667,22.667-0.667c12.333-12,23.333,0,23.333,0c12-12,26-0.666,26-0.666
			c12.334-12,27.334-0.667,27.334-0.667c13.333-12.667,27.333,0,27.333,0c12.667-13,27.333-0.667,27.333-0.667
			c13-13.666,26.665-0.666,26.665-0.666c14.002-13,25.334-0.667,25.334-0.667c12.001-13.333,24,0,24,0c13.334-14,26,0,26,0
			c11.001-13.333,22.666-0.666,22.666-0.666c11.668-13.334,24.668,0,24.668,0c13-13,25.667-0.667,25.667-0.667
			c13.333-13.667,26.999,0,26.999,0c13.668-14.333,27.334,0,27.334,0c13-14,28-0.667,28-0.667c11.334-13,25.998,0.001,25.998,0.001
			c12.002-14.334,25.334,0.667,25.334,0.667c13.335-12.334,22.335,2.999,22.335,2.999c15.669-10.668,24.998,3.668,24.998,3.668
			c15.669-9.668,24,6,24,6c15.002-7.335,20.667,7.333,20.667,7.333c14.335-4.668,16.666,10,16.666,10
			c14.336-2.001,12.667,13.33,12.667,13.33c14.002,6.336,4.666,18.667,4.666,18.667c13.336,8.01,2,20,2,20
			c12.003,10.344-0.666,23.333-0.666,23.333c8.335,11.011-3.334,20-3.334,20c6.669,15.011-4.666,22-4.666,22c7.002,15.681-8,22-8,22
			c2.669,15.681-11.665,18.014-11.665,18.014c-2.664,15.682-18.335,11.986-18.335,11.986c-4.331,17.016-22.001,10.001-22.001,10.001
			c-5.664,19.015-24.667,10.667-24.667,10.667c-8.997,16.018-28.667,10-28.667,10c-13.663,15.686-34.667,9.333-34.667,9.333
			c-11.662,15.019-29.662,7.019-29.662,7.019c-9.334,14.666-33,9-33,9c-9.334,15.334-32,6.666-32,6.666
			c-10.001,16-35.336,6.649-35.336,6.649c-11.665,14.351-32,4.668-32,4.668c-14.331,14.683-39.333,6.666-39.333,6.666
			c-14.998,16.017-33.333,6-33.333,6c-16.999,15.351-36,6.667-36,6.667c-11.998,14.016-35.334,6-35.334,6
			c-11.664,14.016-31.333,4.667-31.333,4.667c-10.998,14.349-27.333,4.666-27.333,4.666c-11.998,13.017-31.334,4-31.334,4
			c-12.331,12.017-32.666,4-32.666,4c-12.998,11.683-34,2.667-34,2.667c-17.665,12.35-32.667,1.333-32.667,1.333
			c-16.665,14.017-30.667,2-30.667,2c-16.331,12.017-34,1.334-34,1.334c-15.665,13.349-33.333,0.666-33.333,0.666
			c-14.332,14.017-32.667,2-32.667,2c-11.665,11.683-32,2-32,2c-20.665,11.683-37.333,0.667-37.333,0.667
			c-19.998,13.016-35.664,1.684-35.664,1.684c-16.664,14.354-32.339,0.987-32.339,0.987c-18.328,13.013-32.666,0.667-32.666,0.667
			c-17.329,12.346-33.334,0.667-33.334,0.667c-15.328,13.011-32,1.333-32,1.333c-14.995,13.678-30.666,0-30.666,0
			c-15.996,14.678-32.667,0-32.667,0c-19.996,16.012-38,0-38,0c-18.329,13.346-36.667,0-36.667,0
			c-17.662,11.346-34.667-0.667-34.667-0.667c-17.662,11.679-33.333,0-33.333,0c-17.995,10.345-36-1.333-36-1.333
			c-20.995,9.678-33.333-2-33.333-2c-16.662,10.012-29.332-0.672-29.332-0.672c-16.33,10.684-29.33-1.648-30-1.333
			c-17.994,8.498-31.333-2-31.333-2c-15.997,9.017-30-1.334-30-1.334c-15.997,9.685-32-2-32-2c-16.997,10.019-34.667-2-34.667-2
			c-17.33,9.685-33.333-2-33.333-2c-20.997,7.685-32-2.666-32-2.666c-15.997,10.017-30.667-1.334-30.667-1.334
			c-17.997,9.351-32.667-2.666-32.667-2.666c-19.663,9.351-36.667-4-36.667-4c-17.663,9.685-36-2.667-36-2.667
			c-17.329,9.352-34-3.333-34-3.333c-18.996,9.351-36.667-4-36.667-4c-20.329,9.017-35.333-3.334-35.333-3.334
			c-18.663,9.351-36.665-4.666-36.665-4.666c-20.664,9.685-36-4.667-36-4.667c-19.998,11.352-37.333-4-37.333-4
			c-24.665,9.018-41-6.333-41-6.333c-26.665,7.351-44-11-44-11c-21.665,6.351-40-12-40-12c-20.332,8.683-36-10-36-10
			c-24.332,6.683-40-12-40-12c-22.998,2.351-31-18-31-18c-21.331-6.317-24-27-24-27c-20.331-12.317-12-34-12-34
			c-17.665-16.649-3-35-3-35C137.5,2289.182,150.833,2280.515,150.833,2280.515z"/>
	</defs>
	<clipPath id="Rice_Bun_Bottom_1_">
		<use xlink:href="#Rice_Bun_Bottom_3_"  overflow="visible"/>
	</clipPath>
	<path clip-path="url(#Rice_Bun_Bottom_1_)" fill="#EFECEE" d="M2345.033,2294.062c7.5,212.989-443.571,249.243-1122.302,262.4
		c-236.629,4.587-438.794-21.536-601.111-37.411c-294.046-28.758-459.68-69.314-479.976-164.992
		c-31.499-148.493-10.702-174.52,654.164-174.52c286.471,0,1004.191-3.347,1279.239,0.527
		C2288.036,2183.066,2341.878,2204.466,2345.033,2294.062z"/>
	<path id="Lower_Bottom_Shadow_2" clip-path="url(#Rice_Bun_Bottom_1_)" fill="#DDDBD9" d="M2324.001,2353.524
		c5.416,18.825-8.834,26.158-8.834,26.158c-3.416,26.645-18.25,21.266-18.25,21.266c-3.583,22.49-23.833,37.112-23.833,37.112
		c-2,19.8-15.083,11.733-15.083,11.733c-2.583,17.601-18.333,12.1-18.333,12.1c-0.834,13.2-32.751-28.755-32.751-28.755
		c-0.166,12.956-22.416,12.468-22.416,12.468c-5.75,13.688-24.667,14.178-24.667,14.178c-4.75,14.911-19.334-5.284-19.334-5.284
		c-2.75,19.189-17.416,0.929-17.416,0.929c-7.333,16.866-26.25,12.1-26.25,12.1c-8.583,11.979-26.5,6.722-26.5,6.722
		c-7.166,16.624-25.75,11.001-25.75,11.001c-3.25,8.678-26.75,7.823-26.75,7.823c-1.916,15.155-18.75,4.154-18.75,4.154
		c-0.333,15.279-20.083,10.146-20.083,10.146c-3.417,7.822-18.599,7.514-20.084,6.845c-4.438-1.995-14.946-60.917-14.946-60.917
		c37.729,13.415,44.328-4.151,44.328-4.151c25.201,21.35,42.547-8.714,42.547-8.714c30.654,16.063,42.135-11.629,42.135-11.629
		c21.159,18.052,36.063-4.698,36.063-4.698c18.491,14.646,31.104-4.458,31.104-4.458c17.209,14.035,31.902-12.438,31.902-12.438
		c17.528,15.482,30.896-5.767,30.896-5.767c14.217,11.772,22.06-9.735,22.06-9.735c17.168,10.553,24-11,24-11
		c17.907,10.298,24.421-12.325,24.421-12.325c18.89-0.645,18.854-23.612,18.854-23.612c21.479-1.467,15.936-26.79,15.936-26.79
		c12.318-1.815,14.462-16.06,14.462-16.06C2330.167,2314.747,2324.001,2353.524,2324.001,2353.524z M1959.501,2512.508
		c-8.5,17.722-18.75,6.844-18.75,6.844c-5.167,15.278-20.084,6.233-20.084,6.233c-11.666,12.223-21.833,3.178-21.833,3.178
		c-7.75,12.589-23.916,6.233-23.916,6.233c-3.167,13.079-25.167,4.767-25.167,4.767c-8.75,12.346-22.417,0.733-22.417,0.733
		c-3.75,14.546-20.916,5.379-20.916,5.379c-8.417,13.688-22.834,2.688-22.834,2.688c-6.083,13.812-21.666,1.345-21.666,1.345
		c-4.001,12.467-15.917,0.855-15.917,0.855c-6.5,15.278-21.167,0.978-21.167,0.978c-4.333,8.801-15.833,1.589-15.833,1.589
		c-4.438-1.995-24.5-56.935-24.5-56.935c32.999,19.104,46.001-2.933,46.001-2.933c28,25.423,41.212-4.87,41.212-4.87
		c40.636,11.276,43.084-10.672,43.084-10.672c21.16,18.056,36.058-5.897,36.058-5.897c18.491,14.643,31.104-7.591,31.104-7.591
		c17.21,14.035,31.905-3.637,31.905-3.637c17.526,15.479,30.89-8.302,30.89-8.302 M1709.334,2552.719
		c-6.416,12.1-17.583,2.444-17.583,2.444c-8.75,9.167-15.917-2.076-15.917-2.076c-4.5,13.932-17,5.621-17,5.621
		c-4.001,7.577-19.668,0.978-19.668,0.978c-1.333,13.934-26.5-0.244-26.5-0.244c-8.5,10.022-18.5,0.488-18.5,0.488
		c-11.166,10.756-22,1.712-22,1.712c-6.666,11.244-24.333,0.243-24.333,0.243c-4.388-2.226-38.583-62.462-38.583-62.462
		c30.669,26.4,44.586-3.983,44.586-3.983c22.999,25.82,38.666,0.979,38.666,0.979c27.998,24.082,46-1.979,46-1.979
		c14.667,27.379,45.999,1.956,45.999,1.956 M1548.167,2559.441c-4.167,15.4-27.167,3.422-27.167,3.422
		c-12.167,12.224-29-3.667-29-3.667c-15.667,11.49-29.334,0.245-29.334,0.245c-18.833,12.467-35.499-2.934-35.499-2.934
		c-19,12.712-31.5-0.732-31.5-0.732c-18.667,14.177-32.5-0.98-32.5-0.98c-15.5,9.29-29.833-0.977-29.833-0.977
		c-15,9.288-29.334-1.467-29.334-1.467c-9,9.533-31.5-0.49-31.5-0.49c-17.5,9.046-31.529-0.298-33.833-1.466
		c-4.388-2.229,2.166-45.956,2.166-45.956c31.5,25.422,47.167-1.467,47.167-1.467c28.096,27.336,46.5-2.533,46.5-2.533
		c33.623,30.464,43.5-0.733,43.5-0.733c17,29.334,37,1.467,37,1.467c18.125,15.602,36-0.733,36-0.733
		c10,19.066,30.5,3.667,30.5,3.667c17.141,16.385,27.75-7.15,27.75-7.15"/>
	<path id="Lower_Bottom_Shadow_1" clip-path="url(#Rice_Bun_Bottom_1_)" fill="#DDDBD9" d="M145.458,2322.88
		c0,0,2.75,18.7,15.125,19.25c0,0-5.375,24.934,16.125,24.2c0,0,0.625,16.867,19.5,15.584c0,0,5.625,23.101,23,11
		c0,0,2.125,21.601,18.75,9.317c0,0,8.75,15.217,22.375,2.017c0,0,12.25,24.967,29,7.733c0,0,15.5,20.533,32,4.767
		c0,0,13.5,22.367,31.25,5.866c0,0,16,25.301,36.25,5.134c0,0,2.5,20.9,42.5,5.5c0,0,10.5,27.134,43,11.733
		c0,0,7.75,25.301,44.75,8.067c0,0,3.667,33.977-0.667,36.422s-42.667,35.157-41,14.623c0,0-20,10.266-32-9.29
		c0,0-49.667,10.267-40.333-11.243c0,0-44,15.644-38.667-5.379c0,0-20,17.601-30.333-5.378c0,0-19.667,15.646-33.667-6.844
		c0,0-18.667,17.11-30-5.379c0,0-10.333,21.022-24.667-2.933c0,0-16,9.778-21.333-6.355c0,0-12.333,12.222-22.333-6.845
		c0,0-14.666-16.577-20.333-36.622c0,0-13.333,5.377-18.333-18.091c0,0-14.667,1.957-17.333-25.422
		C148.083,2364.313,142.833,2344.269,145.458,2322.88z M518.333,2450.849c0,0,14.25,23.833,31,6.6c0,0,15.5,20.534,32,4.767
		c0,0,13.5,22.367,31.25,5.867c0,0,16,15.301,36.25-4.866c0,0,2.5,20.9,42.5,5.5c0,0,10.5,22.733,43,7.333
		c0,0,7.75,23.834,44.75,6.601c0,0-12.333,53.757-16.667,56.202c-4.334,2.444-4.583,5.498-14.333-5.867
		c0,0-25.333,5.867-37.333-6.356c0,0-43.667,8.312-38.667-8.8c0,0-44.333,16.622-39-4.4c0,0-24,16.135-34.333-6.844
		c0,0-23.333,10.267-36.333-3.911c0,0-34.667,9.778-46-12.711 M779.124,2482.036c0,0,16.533,24.449,36.281,3.237
		c0,0,3.006,23.69,42.604,6.209c0,0,11.045,15.163,43.15-1.918c0,0,8.324,23.414,44.882,4.251c0,0-10.379,57.608-14.649,60.278
		c-4.271,2.667-36.809,4.189-52.809-5.71c0,0-8.533,14.883-21-4.034c0,0-17.5,11.001-24,1.834c0,0-28.5,8.434-55.271-10.689
		c0,0-19.345,19.913-30.229-2.51 M945.312,2491.595c0,0,14.683,20.144,31,2.045c0,0,15.886,15.314,31.988-1.305
		c0,0,13.928,17.251,31.271-0.166c0,0,16.528,21.518,36.275,0.304c0,0,3.007,30.757,42.607,13.275c0,0,11.045,12.171,43.151-4.918
		c0,0,42.901,33.613,79.229,3.609c0,0-3.062,59.391-7.333,62.061c-22.668,10.269-48.752-4.182-48.752-4.182
		c-19.167,13.2-33-0.488-33-0.488c-24.333,10.267-27.833-1.957-27.833-1.957c-17.667,10.268-28.667,0.733-28.667,0.733
		c-13.667,9.534-26.5-1.955-26.5-1.955c-8.416,6.232-32.416,16.499-54.664-0.734c0,0-30.664,13.489-44,0
		c0,0-29.002,9.533-45.252-6.967"/>
	<path id="Shadow_1_x5F_1_1_" clip-path="url(#Rice_Bun_Bottom_1_)" fill="#DDDBD9" d="M270.292,2316.001
		c3.718,3.071,28.5,1.25,28.5,1.25c-25.875-1-33.625-13.25-33.625-13.25S264.542,2311.251,270.292,2316.001z"/>
	<path id="Shadow_1_x5F_2_1_" clip-path="url(#Rice_Bun_Bottom_1_)" fill="#DDDBD9" d="M158.458,2247.542
		c0,0,1.375,9.75,36.75,10.125c0,0-23.875,4.375-32.375,0.375C160.67,2257.024,158.458,2253.167,158.458,2247.542z"/>
	<path id="Shadow_1_x5F_3_1_" clip-path="url(#Rice_Bun_Bottom_1_)" fill="#DDDBD9" d="M211.5,2336.167
		c0,0,14.667,16.333,35.333,10.333c0,0,9.667,23,47.667,13.667c0,0-23.666,18-47.333-4.667
		C247.167,2355.5,204.5,2355.833,211.5,2336.167z"/>
	<path id="Shadow_1_x5F_4_1_" clip-path="url(#Rice_Bun_Bottom_1_)" fill="#DDDBD9" d="M148,2273.833c0,0,7.25,9.25,24.25,4.75
		c0,0,1.5,17,27.75,7.25c0,0,10.75,17.75,34.75,6.75c0,0-20.5,16.5-32.25,2c0,0-19,9.75-29.25-7
		C173.25,2287.583,151.25,2290.583,148,2273.833z"/>
	<path id="Shadow_1_x5F_5_1_" clip-path="url(#Rice_Bun_Bottom_1_)" fill="#DDDBD9" d="M145.5,2299.166c0,0,5.667,8.833,20,5.167
		c0,0,5.375,11.25,27.042,6.25c0,0-16.083,16.792-26.458,2.292C166.083,2312.875,147.75,2318.083,145.5,2299.166z"/>
	<path id="Shadow_1_x5F_1_2_" clip-path="url(#Rice_Bun_Bottom_1_)" fill="#DDDBD9" d="M237.625,2279.667
		c3.718,3.071,28.5,1.25,28.5,1.25c-25.875-1-33.625-13.25-33.625-13.25S231.875,2274.917,237.625,2279.667z"/>
	<path id="Shadow_3_x5F_7_1_" clip-path="url(#Rice_Bun_Bottom_1_)" fill="#DDDBD9" d="M288.583,2284.287
		c0,0,23.089,12.271,43.577,4.101c0,0,25.047,12.784,51.514,4.639c0,0-17.241,19.094-43.493,2.021
		C340.181,2295.048,308.025,2306.25,288.583,2284.287z"/>
	<path id="Shadow_4_x5F_5_1_" clip-path="url(#Rice_Bun_Bottom_1_)" fill="#DDDBD9" d="M982.04,2342.636c0,0,21.333,16.667,47.333,2
		c0,0,20.667,18.001,50,2.667c0,0-19.333,31.333-46,7.333C1033.373,2354.636,1001.373,2376.636,982.04,2342.636z"/>
	<path id="Shadow_2_x5F_8_1_" clip-path="url(#Rice_Bun_Bottom_1_)" fill="#DDDBD9" d="M410.5,2295.5c0,0,11,17,33,6
		c0,0,13.5,13.5,33,4.5c0,0,15,16,36.5,5c0,0,15,14.5,36.5,2.5c0,0-16,23-33,4c0,0-18,14-37-4.5c0,0-24.5,12-33-5
		C446.5,2308,420.5,2323,410.5,2295.5z"/>
	<path id="Shadow_4_x5F_2_1_" clip-path="url(#Rice_Bun_Bottom_1_)" fill="#DDDBD9" d="M827.5,2334.498c0,0,20.667,15.334,42,2.667
		c0,0,19.333,17.999,43.333,1.333c0,0,21.333,17.333,41.333,2c0,0-15.334,28-36.667,6.667c0,0-26.666,19.333-43.333-2
		C874.167,2345.165,848.833,2361.164,827.5,2334.498z"/>
	<path id="Shadow_4_x5F_3_1_" clip-path="url(#Rice_Bun_Bottom_1_)" fill="#DDDBD9" d="M697.168,2325.496c0,0,24,12.001,42,0.667
		C739.168,2326.163,719.835,2352.83,697.168,2325.496z"/>
	<path id="Shadow_3_x5F_7_2_" clip-path="url(#Rice_Bun_Bottom_1_)" fill="#DDDBD9" d="M571.537,2316.477c0,0,24,14,44,1.5
		c0,0,26,14.5,52,1.5c0,0-16,26.5-43.5,6.5C624.037,2325.977,592.537,2343.477,571.537,2316.477z"/>
	<path id="Shadow_4_x5F_3_2_" clip-path="url(#Rice_Bun_Bottom_1_)" fill="#DDDBD9" d="M762.168,2331.496c0,0,24,12.001,42,0.667
		C804.168,2332.163,784.835,2358.83,762.168,2331.496z"/>
	<path id="Shadow_4_x5F_3_3_" clip-path="url(#Rice_Bun_Bottom_1_)" fill="#DDDBD9" d="M1104.168,2350.496c0,0,24,12.001,42,0.667
		C1146.168,2351.163,1126.835,2377.83,1104.168,2350.496z"/>
	<path id="Shadow_4_x5F_3_4_" clip-path="url(#Rice_Bun_Bottom_1_)" fill="#DDDBD9" d="M1178.168,2352.496c0,0,24,12.001,42,0.667
		C1220.168,2353.163,1200.835,2379.83,1178.168,2352.496z"/>
	<path id="Shadow_3_x5F_7_3_" clip-path="url(#Rice_Bun_Bottom_1_)" fill="#DDDBD9" d="M1241.605,2354.285
		c0,0,24.976,7.734,43.573-4.124c0,0,26.997,7.873,51.473-5.08c0,0-13.365,21.982-42.348,10.122
		C1294.304,2355.203,1264.813,2372.224,1241.605,2354.285z"/>
	<path id="Shadow_4_x5F_2_2_" clip-path="url(#Rice_Bun_Bottom_1_)" fill="#DDDBD9" d="M1362.79,2342.772
		c0,0,22.073,13.229,42.059-1.474c0,0,21.008,16.012,43.254-2.932c0,0,22.934,15.152,41.329-2.072c0,0-12.508,29.371-35.834,10.238
		c0,0-24.637,21.86-43.319,2.269C1410.279,2348.802,1386.64,2367.213,1362.79,2342.772z"/>
	<path id="Shadow_4_x5F_3_5_" clip-path="url(#Rice_Bun_Bottom_1_)" fill="#DDDBD9" d="M1511.766,2338.086
		c0,0,24.831,10.17,41.932-2.479C1553.697,2335.606,1536.416,2363.646,1511.766,2338.086z"/>
	<path id="Shadow_4_x5F_3_6_" clip-path="url(#Rice_Bun_Bottom_1_)" fill="#DDDBD9" d="M1574.766,2332.086
		c0,0,24.831,10.17,41.932-2.479C1616.697,2329.606,1599.416,2357.646,1574.766,2332.086z"/>
	<path id="Shadow_3_x5F_7_4_" clip-path="url(#Rice_Bun_Bottom_1_)" fill="#DDDBD9" d="M1649.605,2331.285
		c0,0,24.976,7.734,43.573-4.124c0,0,26.997,7.873,51.473-5.08c0,0-13.365,21.982-42.348,10.122
		C1702.304,2332.203,1672.813,2349.224,1649.605,2331.285z"/>
	<path id="Shadow_4_x5F_5_2_" clip-path="url(#Rice_Bun_Bottom_1_)" fill="#DDDBD9" d="M1774.01,2317.079
		c0,0,23.6,13.267,47.096-5.146c0,0,23.14,14.686,49.832-4.888c0,0-14.398,33.886-44.373,14.172
		C1826.564,2321.218,1798.239,2347.782,1774.01,2317.079z"/>
	<path id="Shadow_4_x5F_2_3_" clip-path="url(#Rice_Bun_Bottom_1_)" fill="#DDDBD9" d="M1898.666,2305.033
		c0,0,22.717,12.09,41.929-3.609c0,0,21.795,14.923,43.05-5.127c0,0,23.674,13.967,41.17-4.171c0,0-10.998,29.969-35.268,12.047
		c0,0-23.493,23.085-43.147,4.468C1946.4,2308.641,1923.727,2328.229,1898.666,2305.033z"/>
	<path id="Shadow_4_x5F_3_7_" clip-path="url(#Rice_Bun_Bottom_1_)" fill="#DDDBD9" d="M2044.485,2292.69
		c0,0,25.519,8.295,41.631-5.591C2086.116,2287.1,2070.968,2316.346,2044.485,2292.69z"/>
	<path id="Shadow_4_x5F_3_8_" clip-path="url(#Rice_Bun_Bottom_1_)" fill="#DDDBD9" d="M2109.766,2284.086
		c0,0,24.831,10.17,41.932-2.479C2151.697,2281.606,2134.416,2309.646,2109.766,2284.086z"/>
	<path id="Shadow_4_x5F_3_9_" clip-path="url(#Rice_Bun_Bottom_1_)" fill="#DDDBD9" d="M2175.766,2277.086
		c0,0,24.831,10.17,41.932-2.479C2217.697,2274.606,2200.416,2302.646,2175.766,2277.086z"/>
	<path id="Shadow_3_x5F_7_5_" clip-path="url(#Rice_Bun_Bottom_1_)" fill="#DDDBD9" d="M2237.13,2271.711
		c0,0,26.023,2.521,41.837-12.855c0,0,28.032,2.247,49.38-15.391c0,0-8.641,24.232-39.423,18.481
		C2288.924,2261.946,2263.486,2284.583,2237.13,2271.711z"/>
	<path id="Shadow_4_x5F_3_10_" clip-path="url(#Rice_Bun_Bottom_1_)" fill="#DDDBD9" d="M2296,2294.5c0,0,17,2,41.432-6.979
		C2336.298,2289.799,2327,2309,2296,2294.5z"/>
	<path id="Shadow_4_x5F_3_11_" clip-path="url(#Rice_Bun_Bottom_1_)" fill="#DDDBD9" d="M2284.5,2276.75c0,0,17,2,41.432-6.979
		C2324.798,2272.049,2315.5,2291.25,2284.5,2276.75z"/>
	<path id="Shadow_4_x5F_5_3_" clip-path="url(#Rice_Bun_Bottom_1_)" fill="#DDDBD9" d="M1508.01,2393.079
		c0,0,23.6,13.267,47.096-5.146c0,0,23.14,14.686,49.832-4.888c0,0-14.398,33.886-44.373,14.172
		C1560.564,2397.218,1532.239,2423.782,1508.01,2393.079z"/>
	<path id="Shadow_4_x5F_2_4_" clip-path="url(#Rice_Bun_Bottom_1_)" fill="#DDDBD9" d="M1632.666,2381.033
		c0,0,22.717,12.09,41.929-3.609c0,0,21.795,14.923,43.05-5.127c0,0,23.674,13.967,41.17-4.171c0,0-10.998,29.969-35.268,12.047
		c0,0-23.493,23.085-43.147,4.468C1680.4,2384.641,1657.727,2404.229,1632.666,2381.033z"/>
	<path id="Shadow_4_x5F_3_13_" clip-path="url(#Rice_Bun_Bottom_1_)" fill="#DDDBD9" d="M1723.368,2425.096
		c0,0,25.157,9.335,41.826-3.88C1765.194,2421.216,1748.859,2449.817,1723.368,2425.096z"/>
	<path id="Shadow_4_x5F_3_12_" clip-path="url(#Rice_Bun_Bottom_1_)" fill="#DDDBD9" d="M1797.15,2419.08
		c0,0,25.157,9.334,41.825-3.88C1838.976,2415.2,1822.641,2443.802,1797.15,2419.08z"/>
	<path id="Shadow_3_x5F_7_6_" clip-path="url(#Rice_Bun_Bottom_1_)" fill="#DDDBD9" d="M1860.409,2413.996
		c0,0,25.666,4.987,42.871-8.813c0,0,27.69,4.906,50.621-10.618c0,0-10.908,23.299-41.004,14.644
		C1912.897,2409.209,1885.421,2429.319,1860.409,2413.996z"/>
	<path id="Shadow_4_x5F_3_15_" clip-path="url(#Rice_Bun_Bottom_1_)" fill="#DDDBD9" d="M2036.354,2331.096
		c0,0,25.309,8.915,41.756-4.574C2078.11,2326.521,2062.253,2355.391,2036.354,2331.096z"/>
	<path id="Shadow_4_x5F_3_14_" clip-path="url(#Rice_Bun_Bottom_1_)" fill="#DDDBD9" d="M2110.026,2323.854
		c0,0,25.31,8.914,41.756-4.575C2151.782,2319.279,2135.924,2348.148,2110.026,2323.854z"/>
	<path id="Shadow_3_x5F_7_7_" clip-path="url(#Rice_Bun_Bottom_1_)" fill="#DDDBD9" d="M2173.191,2317.72
		c0,0,25.746,4.561,42.721-9.524c0,0,27.768,4.446,50.437-11.457c0,0-10.52,23.477-40.755,15.322
		C2225.594,2312.061,2198.455,2332.625,2173.191,2317.72z"/>
	<path id="Shadow_4_x5F_3_17_" clip-path="url(#Rice_Bun_Bottom_1_)" fill="#DDDBD9" d="M1949.73,2420.214
		c0,0,25.474,8.435,41.662-5.363C1991.393,2414.851,1976.084,2444.015,1949.73,2420.214z"/>
	<path id="Shadow_4_x5F_3_16_" clip-path="url(#Rice_Bun_Bottom_1_)" fill="#DDDBD9" d="M2023.253,2411.58
		c0,0,25.473,8.435,41.661-5.364C2064.914,2406.216,2049.605,2435.38,2023.253,2411.58z"/>
	<path id="Shadow_3_x5F_7_8_" clip-path="url(#Rice_Bun_Bottom_1_)" fill="#DDDBD9" d="M2086.291,2404.252
		c0,0,25.826,4.072,42.531-10.331c0,0,27.847,3.92,50.212-12.409c0,0-10.074,23.672-40.458,16.091
		C2138.576,2397.603,2111.831,2418.677,2086.291,2404.252z"/>
	<path id="Shadow_4_x5F_3_19_" clip-path="url(#Rice_Bun_Bottom_1_)" fill="#DDDBD9" d="M1183.073,2398.894c0,0,24,12.001,42,0.667
		C1225.073,2399.561,1205.74,2426.228,1183.073,2398.894z"/>
	<path id="Shadow_4_x5F_3_18_" clip-path="url(#Rice_Bun_Bottom_1_)" fill="#DDDBD9" d="M1257.073,2400.894c0,0,24,12.001,42,0.667
		C1299.073,2401.561,1279.74,2428.228,1257.073,2400.894z"/>
	<path id="Shadow_3_x5F_7_9_" clip-path="url(#Rice_Bun_Bottom_1_)" fill="#DDDBD9" d="M1320.511,2402.683
		c0,0,24.976,7.734,43.573-4.124c0,0,26.997,7.873,51.473-5.08c0,0-13.365,21.982-42.348,10.122
		C1373.209,2403.601,1343.718,2420.621,1320.511,2402.683z"/>
	<path id="Shadow_1_x5F_4_2_" clip-path="url(#Rice_Bun_Bottom_1_)" fill="#DDDBD9" d="M338.545,2321.343c0,0,7.25,9.25,24.25,4.75
		c0,0,1.5,17,27.75,7.25c0,0,10.75,17.75,34.75,6.75c0,0-20.5,16.5-32.25,2c0,0-19,9.75-29.25-7
		C363.795,2335.093,341.795,2338.093,338.545,2321.343z"/>
	<path id="Shadow_1_x5F_1_3_" clip-path="url(#Rice_Bun_Bottom_1_)" fill="#DDDBD9" d="M460.625,2354.668
		c3.718,3.071,28.5,1.25,28.5,1.25c-25.875-1-33.625-13.25-33.625-13.25S454.875,2349.918,460.625,2354.668z"/>
	<path id="Shadow_1_x5F_3_2_" clip-path="url(#Rice_Bun_Bottom_1_)" fill="#DDDBD9" d="M401.834,2374.834
		c0,0,14.667,16.333,35.333,10.333c0,0,9.667,23,47.667,13.667c0,0-23.666,18-47.333-4.667
		C437.501,2394.167,394.834,2394.5,401.834,2374.834z"/>
	<path id="Shadow_1_x5F_1_4_" clip-path="url(#Rice_Bun_Bottom_1_)" fill="#DDDBD9" d="M337.958,2378.334
		c3.718,3.071,28.5,1.25,28.5,1.25c-25.875-1-33.625-13.25-33.625-13.25S332.208,2373.584,337.958,2378.334z"/>
	<path id="Shadow_4_x5F_3_20_" clip-path="url(#Rice_Bun_Bottom_1_)" fill="#DDDBD9" d="M636.292,2421.861
		c0,0,22.911,13.968,41.796,4.182C678.088,2426.043,656.59,2450.997,636.292,2421.861z"/>
	<path id="Shadow_3_x5F_7_10_" clip-path="url(#Rice_Bun_Bottom_1_)" fill="#DDDBD9" d="M511.857,2402.353
		c0,0,22.743,15.961,43.72,5.18c0,0,24.695,16.626,51.692,5.849c0,0-18.163,25.067-43.892,2.835
		C563.377,2416.216,530.522,2431.017,511.857,2402.353z"/>
	<path id="Shadow_1_x5F_1_5_" clip-path="url(#Rice_Bun_Bottom_1_)" fill="#DDDBD9" d="M528.958,2365.333
		c3.718,3.071,28.5,1.25,28.5,1.25c-25.875-1-33.625-13.25-33.625-13.25S523.208,2360.583,528.958,2365.333z"/>
	<path id="Shadow_3_x5F_7_11_" clip-path="url(#Rice_Bun_Bottom_1_)" fill="#DDDBD9" d="M579.917,2369.953
		c0,0,23.089,12.271,43.577,4.101c0,0,25.047,12.784,51.514,4.639c0,0-17.241,19.094-43.493,2.021
		C631.514,2380.714,599.359,2391.916,579.917,2369.953z"/>
	<path id="Shadow_4_x5F_3_21_" clip-path="url(#Rice_Bun_Bottom_1_)" fill="#DDDBD9" d="M837.634,2382.372
		c0,0,22.813,14.129,41.766,4.474C879.4,2386.846,857.728,2411.649,837.634,2382.372z"/>
	<path id="Shadow_3_x5F_7_12_" clip-path="url(#Rice_Bun_Bottom_1_)" fill="#DDDBD9" d="M900.647,2389.908
		c0,0,24.171,9.968,43.768-0.155c0,0,26.172,10.289,51.721-0.391c0,0-15.304,20.68-43.091,6.239
		C953.045,2395.602,922.132,2409.877,900.647,2389.908z"/>
	<path id="Shadow_4_x5F_2_5_" clip-path="url(#Rice_Bun_Bottom_1_)" fill="#DDDBD9" d="M1022.376,2389.434
		c0,0,20.783,15.177,42.019,2.348c0,0,19.469,17.851,43.342,1.003c0,0,21.464,17.17,41.347,1.686c0,0-15.121,28.115-36.615,6.945
		c0,0-26.518,19.536-43.346-1.67C1069.124,2399.745,1043.911,2415.937,1022.376,2389.434z"/>
	<path id="Shadow_4_x5F_3_22_" clip-path="url(#Rice_Bun_Bottom_1_)" fill="#DDDBD9" d="M1331.168,2448.496c0,0,24,12.001,42,0.667
		C1373.168,2449.163,1353.835,2475.83,1331.168,2448.496z"/>
	<path id="Shadow_3_x5F_7_13_" clip-path="url(#Rice_Bun_Bottom_1_)" fill="#DDDBD9" d="M1394.605,2450.285
		c0,0,24.976,7.734,43.573-4.124c0,0,26.997,7.873,51.473-5.08c0,0-13.365,21.982-42.348,10.122
		C1447.304,2451.203,1417.813,2468.224,1394.605,2450.285z"/>
	<path id="Shadow_4_x5F_2_6_" clip-path="url(#Rice_Bun_Bottom_1_)" fill="#DDDBD9" d="M1515.79,2438.772
		c0,0,22.073,13.229,42.059-1.474c0,0,21.008,16.012,43.254-2.932c0,0,22.934,15.152,41.329-2.072c0,0-12.508,29.371-35.834,10.238
		c0,0-24.637,21.86-43.319,2.269C1563.279,2444.802,1539.64,2463.213,1515.79,2438.772z"/>
	<path id="Shadow_4_x5F_3_23_" clip-path="url(#Rice_Bun_Bottom_1_)" fill="#DDDBD9" d="M969.63,2444.415
		c0,0,22.816,14.122,41.768,4.462C1011.398,2448.877,989.732,2473.687,969.63,2444.415z"/>
	<path id="Shadow_3_x5F_7_14_" clip-path="url(#Rice_Bun_Bottom_1_)" fill="#DDDBD9" d="M1032.646,2451.933
		c0,0,24.174,9.962,43.768-0.167c0,0,26.175,10.282,51.721-0.404c0,0-15.298,20.684-43.089,6.251
		C1085.045,2457.612,1054.136,2471.896,1032.646,2451.933z"/>
	<path id="Shadow_4_x5F_2_7_" clip-path="url(#Rice_Bun_Bottom_1_)" fill="#DDDBD9" d="M1154.375,2451.426
		c0,0,20.787,15.171,42.02,2.336c0,0,19.474,17.846,43.342,0.991c0,0,21.47,17.164,41.348,1.674c0,0-15.113,28.12-36.613,6.956
		c0,0-26.513,19.543-43.347-1.658C1201.125,2461.725,1175.917,2477.923,1154.375,2451.426z"/>
	<path id="Shadow_4_x5F_3_25_" clip-path="url(#Rice_Bun_Bottom_1_)" fill="#DDDBD9" d="M763.668,2429.496c0,0,24,12.001,42,0.667
		C805.668,2430.163,786.335,2456.83,763.668,2429.496z"/>
	<path id="Shadow_4_x5F_3_24_" clip-path="url(#Rice_Bun_Bottom_1_)" fill="#DDDBD9" d="M828.668,2435.496c0,0,24,12.001,42,0.667
		C870.668,2436.163,851.335,2462.83,828.668,2435.496z"/>
	<path id="Shadow_3_x5F_7_15_" clip-path="url(#Rice_Bun_Bottom_1_)" fill="#DDDBD9" d="M709.147,2381.408
		c0,0,24.171,9.968,43.768-0.155c0,0,26.172,10.289,51.721-0.391c0,0-15.304,20.68-43.091,6.239
		C761.545,2387.102,730.632,2401.377,709.147,2381.408z"/>
	<path id="Shadow_3_x5F_7_16_" clip-path="url(#Rice_Bun_Bottom_1_)" fill="#DDDBD9" d="M1856.105,2362.285
		c0,0,24.976,7.734,43.573-4.124c0,0,26.997,7.873,51.473-5.08c0,0-13.365,21.982-42.348,10.122
		C1908.804,2363.203,1879.313,2380.224,1856.105,2362.285z"/>
	<path id="Shadow_4_x5F_3_26_" clip-path="url(#Rice_Bun_Bottom_1_)" fill="#DDDBD9" d="M2010.73,2373.214
		c0,0,25.474,8.435,41.662-5.363C2052.393,2367.851,2037.084,2397.015,2010.73,2373.214z"/>
	<path id="Shadow_3_x5F_7_17_" clip-path="url(#Rice_Bun_Bottom_1_)" fill="#DDDBD9" d="M2164.291,2358.252
		c0,0,25.826,4.072,42.531-10.331c0,0,27.847,3.92,50.212-12.409c0,0-10.074,23.672-40.458,16.091
		C2216.576,2351.603,2189.831,2372.677,2164.291,2358.252z"/>
</g>
<g id="Rice_Bun_Top_1_">
	<g id="Rice_Bun_Top_Clip_Path">
		<g id="Clipping_Path_Top">
			<defs>
				<path id="SVGID_1_" d="M2085.834,1524.501c0,0-1.333-11.333-34-8.667c0,0,0.074-8.248-28.666-9.333c0,0-9.468-8.432-32.667-8
					c0,0,1.851-10.541-33.333-8.667c0,0-2.666-9-31.334-7.333c0,0-10.666-11.333-28.666-7.333c0,0-18.003-10.667-34.75-6.253
					c0,0-19.253-10.415-35.148-6.324c0,0-19.438-8.09-35.627-6.411c0,0-21.144-9.68-35.146-6.323c0,0-22.664-10.021-36.664-6.688
					c0,0-18-10-36.627-6.242c0,0-20.04-9.092-37.705-6.426c0,0-19.668-9.333-39.001-5.333c0,0-19.334-8.666-34.667-3.333
					c0,0-23.333-9.333-41.429-4.524c0,0-20.906-7.141-37.238-4.143c0,0-20-10.667-39.333-3.333c0,0-26.667-10-44.711-1.833
					c0,0-22.622-6.834-36.621-1.502c0,0-25.335-9.332-42.668-3.332c0,0-20-8-36-2c0,0-24.667-6-38,0.604c0,0-22-6.604-40-0.604
					c0,0-30-4.667-44.667,2c0,0-28.667-4.667-43.333,1.333c0,0-22.667-7.333-40.667,1.333c0,0-20.667-7.333-32.666-0.334
					c0,0-22.001-3.666-41,4c0,0-23.001-4.333-35,3c0,0-22.668-5.333-38.668,2.667c0,0-21.664-6.664-38.998,5.336
					c0,0-19.333-8-40.333,4.667c0,0-16.5-8.167-37.5,2.583c0,0-21.5-7-40.521,5.346c0,0-21.479-8.346-40.979,5.404
					c0,0-25-7.75-39.5,8.25c0,0-23.5-9-44.5,7.75c0,0-26.5-6.5-42,9.5c0,0-22-8.75-40.75,9.75c0,0-25.75-6.5-42,10.5
					c0,0-23-7.5-41.25,11.75c0,0-25.75-3.5-40,11.5c0,0-25-5.25-39,10c0,0-23-3.75-37.5,10c0,0-19.75-5-40.75,11.75
					c0,0-24.25-3.75-37.75,12.5c0,0-21.5-5.5-35.25,12.75c0,0-25,0.25-34.75,16.75c0,0-20.25-7.25-28,15.25
					c0,0-15.667-1.335-15.667,15.665c0,0-16.667-5.667-15.667,11c0,0-17.668-6.416-15.918,16.084c0,0-16.25,1.25-6,19.5
					c-13,8,0.75,17,0.75,17s-13.75,4.25-2.499,16.751c0,0-15.501,7.249-6.001,23.249c0,0-14.25,12.5,2,23.5c0,0-13.75,15.25,4,27
					c0,0-12.083,15.08,1.667,28.58c0,0-7.001,16.329,11.667,26c0,0-1,16.001,17.333,17c0,0,2.833,14.834,18,12.001
					c0,0,3.167,14.337,20.001,11.337c0,0,7.333,13.333,21.667,4.666c0,0,6.167,10.333,21.833,4.167c0,0,9.708,14.75,25.208,2.75
					c0,0,10.125,14.875,29.375,3.125c0,0,13.125,16.375,33.875,3.375c0,0,5.5,12.75,31.625,5c0,0-3.917,15.915,37.5,4.875
					c0,0-1.625,11.75,38.625,6.625c0,0,9.25,12.75,33.75,7.125c0,0-6.125,14.25,40.375,3.625c0,0,10.875,16.5,44.25,6.375
					c0,0,3,13.875,36.625,3.75c0,0,11.625,14.25,34,4.5c0,0,4.625,13.706,39.125,3.5c0,0,13.75,11.625,39,5.5
					c0,0,20.25,11.625,36.375,3.875c0,0,11.708,11.001,30.708,2.501c0,0,14.667,7.916,26.25,2.5c0,0,15.833,12.833,28.083,2.25
					c0,0,7.917,8.25,24.083,2.5c0,0,10.917,7.916,22.083,0.916c0,0,7.75,8.334,22.5,0.834c0,0,10.333,6.167,23.167,1.167
					c0,0,3.584,8.163,24.667,2.499c0,0,10.833,6.167,23.333,1.667c0,0,3.333,8.5,24.25-0.417c0,0,7.333,6.501,20.667,0.917
					c0,0,11.333,8.667,27.75,1.833c0,0-1.833,10.001,23.417-0.416c0,0,12.167,8.75,26.167,1.75c0,0,13.917,7,29.167-1
					c0,0,2.583,9.661,27.75,1.833c0,0,12.583,9.828,32.667,0.328c0,0,15.292,9.838,36.833,1.251c0,0,15.083,8.212,33.333,0.712
					c0,0,18.75,7.625,31.75,1c0,0,15.25,6.875,29.5,0.625c0,0,17.25,7.625,29.5,0.5c0,0,12.375,10,32.625,0.75
					c0,0,14.875,10.25,31.5,0.375c0,0,16.625,11.375,35.125,2.25c0,0,17.625,7.75,29.5-0.25c0,0,19.417,10.955,28.75,2.875
					c0,0,20,7.375,27-1.25c0,0,19.375,8.375,24,0c0,0,12,6.5,22.5-1.125c0,0,11.375,7.5,18.125-0.25c0,0,28.708,10.584,25.708-0.291
					c0,0,16.667,5.667,20.667-0.333c0,0,11.875,6.916,17.25-3.459c0,0,7.416,8.123,15.75,1.456c0,0,10.333,6.003,17.333-1.331
					c0,0,12.75,5.75,15.75-1.25c0,0,15.251,10.579,21.25-0.416c0,0,12.667,8.329,15.833-0.75c0,0,16.168,9.079,21.5-0.917
					c0,0,16.668,7.996,23-2c0,0,17.668,7.329,20.667-3.333c0,0,15.667,8.662,22.667-0.667c0,0,21.667,6.333,25-3
					c0,0,17,4.416,24.25-4.334c0,0,11.833,6.663,21.083-2.335c0,0,17.667,7,20.167-4.665c0,0,10.5,8.331,18-3.25
					c0,0,19.75,1.75,20.5-4.75c0,0,20.667,4.33,20-6.75c0,0,16.667,8.413,19-2.5c0,0,25,0.751,26.833-5.749
					c0,0,17.667,5.166,25.667-7.167c0,0,18.5,3.831,26.5-4.667c0,0,20.667,3.164,26.166-8.166c0,0,15.5,6.665,17.5-6.335
					c0,0,15,6,19.334-4.165c0,0,19.666-0.668,24.666-9.667c0,0,24.334-0.5,22.334-8.333c0,0,23.333,0.667,22.666-8
					c0,0,17.834,2.831,18.334-8.169c0,0,13.666,5.666,15.167-7.998c0,0,21.166,3.826,23.833-11.837c0,0,14.5,4.5,18.333-14.163
					c0,0,13.667-4.337,8.667-17.837c0,0,15-5,3.667-18.83c0,0,12.833-10.17,1.833-20.166c0,0,13.5-7.504,4.5-20.004c0,0,12-10,1-21
					c0,0,7-12-7-18.5c0,0,11.5-9.999-1-16.5c0,0,13.5-9.5-1.5-18.5c0,0,9-11.5-4-19.5c0,0,8-5.5-3.5-16.5c0,0,4.5-12.5-10-17.5
					c0,0,7.5-12-8.5-16c0,0,2.5-12.5-13-12.5c0,0-6-13.5-16.5-7c0,0-4.5-12-21-6.5c0,0-7.5-14-24.332-5.163
					c0,0-4.667-16.332-27.667-11.332c0,0-10.834-8.667-30.667-6.667c0,0,4.168-9-31.333-8
					C2114.501,1535.834,2114,1530.834,2085.834,1524.501z"/>
			</defs>
			<clipPath id="SVGID_2_">
				<use xlink:href="#SVGID_1_"  overflow="visible"/>
			</clipPath>
			<path id="Rice_Bun_Top_Base" clip-path="url(#SVGID_2_)" fill="#EFECEE" d="M2085.834,1524.501c0,0-1.333-11.333-34-8.667
				c0,0,0.074-8.248-28.666-9.333c0,0-9.468-8.432-32.667-8c0,0,1.851-10.541-33.333-8.667c0,0-2.666-9-31.334-7.333
				c0,0-10.666-11.333-28.666-7.333c0,0-18.003-10.667-34.75-6.253c0,0-19.253-10.415-35.148-6.324c0,0-19.438-8.09-35.627-6.411
				c0,0-21.144-9.68-35.146-6.323c0,0-22.664-10.021-36.664-6.688c0,0-18-10-36.627-6.242c0,0-20.04-9.092-37.705-6.426
				c0,0-19.668-9.333-39.001-5.333c0,0-19.334-8.666-34.667-3.333c0,0-23.333-9.333-41.429-4.524c0,0-20.906-7.141-37.238-4.143
				c0,0-20-10.667-39.333-3.333c0,0-26.667-10-44.711-1.833c0,0-22.622-6.834-36.621-1.502c0,0-25.335-9.332-42.668-3.332
				c0,0-20-8-36-2c0,0-24.667-6-38,0.604c0,0-22-6.604-40-0.604c0,0-30-4.667-44.667,2c0,0-28.667-4.667-43.333,1.333
				c0,0-22.667-7.333-40.667,1.333c0,0-20.667-7.333-32.666-0.334c0,0-22.001-3.666-41,4c0,0-23.001-4.333-35,3
				c0,0-22.668-5.333-38.668,2.667c0,0-21.664-6.664-38.998,5.336c0,0-19.333-8-40.333,4.667c0,0-16.5-8.167-37.5,2.583
				c0,0-21.5-7-40.521,5.346c0,0-21.479-8.346-40.979,5.404c0,0-25-7.75-39.5,8.25c0,0-23.5-9-44.5,7.75c0,0-26.5-6.5-42,9.5
				c0,0-22-8.75-40.75,9.75c0,0-25.75-6.5-42,10.5c0,0-23-7.5-41.25,11.75c0,0-25.75-3.5-40,11.5c0,0-25-5.25-39,10
				c0,0-23-3.75-37.5,10c0,0-19.75-5-40.75,11.75c0,0-24.25-3.75-37.75,12.5c0,0-21.5-5.5-35.25,12.75c0,0-25,0.25-34.75,16.75
				c0,0-20.25-7.25-28,15.25c0,0-15.667-1.335-15.667,15.665c0,0-16.667-5.667-15.667,11c0,0-17.668-6.416-15.918,16.084
				c0,0-16.25,1.25-6,19.5c-13,8,0.75,17,0.75,17s-13.75,4.25-2.499,16.751c0,0-15.501,7.249-6.001,23.249c0,0-14.25,12.5,2,23.5
				c0,0-13.75,15.25,4,27c0,0-12.083,15.08,1.667,28.58c0,0-7.001,16.329,11.667,26c0,0-1,16.001,17.333,17
				c0,0,2.833,14.834,18,12.001c0,0,3.167,14.337,20.001,11.337c0,0,7.333,13.333,21.667,4.666c0,0,6.167,10.333,21.833,4.167
				c0,0,9.708,14.75,25.208,2.75c0,0,10.125,14.875,29.375,3.125c0,0,13.125,16.375,33.875,3.375c0,0,5.5,12.75,31.625,5
				c0,0-3.917,15.915,37.5,4.875c0,0-1.625,11.75,38.625,6.625c0,0,9.25,12.75,33.75,7.125c0,0-6.125,14.25,40.375,3.625
				c0,0,10.875,16.5,44.25,6.375c0,0,3,13.875,36.625,3.75c0,0,11.625,14.25,34,4.5c0,0,4.625,13.706,39.125,3.5
				c0,0,13.75,11.625,39,5.5c0,0,20.25,11.625,36.375,3.875c0,0,11.708,11.001,30.708,2.501c0,0,14.667,7.916,26.25,2.5
				c0,0,15.833,12.833,28.083,2.25c0,0,7.917,8.25,24.083,2.5c0,0,10.917,7.916,22.083,0.916c0,0,7.75,8.334,22.5,0.834
				c0,0,10.333,6.167,23.167,1.167c0,0,3.584,8.163,24.667,2.499c0,0,10.833,6.167,23.333,1.667c0,0,3.333,8.5,24.25-0.417
				c0,0,7.333,6.501,20.667,0.917c0,0,11.333,8.667,27.75,1.833c0,0-1.833,10.001,23.417-0.416c0,0,12.167,8.75,26.167,1.75
				c0,0,13.917,7,29.167-1c0,0,2.583,9.661,27.75,1.833c0,0,12.583,9.828,32.667,0.328c0,0,15.292,9.838,36.833,1.251
				c0,0,15.083,8.212,33.333,0.712c0,0,18.75,7.625,31.75,1c0,0,15.25,6.875,29.5,0.625c0,0,17.25,7.625,29.5,0.5
				c0,0,12.375,10,32.625,0.75c0,0,14.875,10.25,31.5,0.375c0,0,16.625,11.375,35.125,2.25c0,0,17.625,7.75,29.5-0.25
				c0,0,19.417,10.955,28.75,2.875c0,0,20,7.375,27-1.25c0,0,19.375,8.375,24,0c0,0,12,6.5,22.5-1.125c0,0,11.375,7.5,18.125-0.25
				c0,0,28.708,10.584,25.708-0.291c0,0,16.667,5.667,20.667-0.333c0,0,11.875,6.916,17.25-3.459c0,0,7.416,8.123,15.75,1.456
				c0,0,10.333,6.003,17.333-1.331c0,0,12.75,5.75,15.75-1.25c0,0,15.251,10.579,21.25-0.416c0,0,12.667,8.329,15.833-0.75
				c0,0,16.168,9.079,21.5-0.917c0,0,16.668,7.996,23-2c0,0,17.668,7.329,20.667-3.333c0,0,15.667,8.662,22.667-0.667
				c0,0,21.667,6.333,25-3c0,0,17,4.416,24.25-4.334c0,0,11.833,6.663,21.083-2.335c0,0,17.667,7,20.167-4.665
				c0,0,10.5,8.331,18-3.25c0,0,19.75,1.75,20.5-4.75c0,0,20.667,4.33,20-6.75c0,0,16.667,8.413,19-2.5c0,0,25,0.751,26.833-5.749
				c0,0,17.667,5.166,25.667-7.167c0,0,18.5,3.831,26.5-4.667c0,0,20.667,3.164,26.166-8.166c0,0,15.5,6.665,17.5-6.335
				c0,0,15,6,19.334-4.165c0,0,19.666-0.668,24.666-9.667c0,0,24.334-0.5,22.334-8.333c0,0,23.333,0.667,22.666-8
				c0,0,17.834,2.831,18.334-8.169c0,0,13.666,5.666,15.167-7.998c0,0,21.166,3.826,23.833-11.837c0,0,14.5,4.5,18.333-14.163
				c0,0,13.667-4.337,8.667-17.837c0,0,15-5,3.667-18.83c0,0,12.833-10.17,1.833-20.166c0,0,13.5-7.504,4.5-20.004c0,0,12-10,1-21
				c0,0,7-12-7-18.5c0,0,11.5-9.999-1-16.5c0,0,13.5-9.5-1.5-18.5c0,0,9-11.5-4-19.5c0,0,8-5.5-3.5-16.5c0,0,4.5-12.5-10-17.5
				c0,0,7.5-12-8.5-16c0,0,2.5-12.5-13-12.5c0,0-6-13.5-16.5-7c0,0-4.5-12-21-6.5c0,0-7.5-14-24.332-5.163
				c0,0-4.667-16.332-27.667-11.332c0,0-10.834-8.667-30.667-6.667c0,0,4.168-9-31.333-8
				C2114.501,1535.834,2114,1530.834,2085.834,1524.501z"/>
			<path id="Bottom_Shadow_2" clip-path="url(#SVGID_2_)" fill="#DDDBD9" d="M2304.001,1796.333
				c5.416,12.835-8.834,17.835-8.834,17.835c-3.416,18.166-18.25,14.499-18.25,14.499c-3.583,15.334-23.833,11.667-23.833,11.667
				c-2,13.5-15.083,8-15.083,8c-2.583,12-18.333,8.25-18.333,8.25c-0.834,9-22.751,7.667-22.751,7.667
				c-0.166,8.833-22.416,8.5-22.416,8.5c-5.75,9.333-24.667,9.667-24.667,9.667c-4.75,10.166-19.25,4.25-19.25,4.25
				c-2.75,13.083-17.5,6.416-17.5,6.416c-7.333,11.5-26.25,8.25-26.25,8.25c-8.583,8.167-26.5,4.583-26.5,4.583
				c-7.166,11.334-25.75,7.5-25.75,7.5c-3.25,5.917-26.75,5.334-26.75,5.334c-1.916,10.333-18.75,2.833-18.75,2.833
				c-0.333,10.417-20.083,6.917-20.083,6.917c-3.417,5.333-18.599,5.123-20.084,4.667c-4.438-1.36-14.946-27.897-14.946-27.897
				c37.729,9.146,44.328-7.604,44.328-7.604c33.152,8.208,42.547-7.986,42.547-7.986c40.635,7.688,42.135-12.701,42.135-12.701
				c21.159,12.308,36.063-10.021,36.063-10.021c18.491,9.985,31.104-9.176,31.104-9.176c17.209,9.569,31.902-8.48,31.902-8.48
				c17.528,10.556,30.896-6.659,30.896-6.659c14.217,8.026,22.06-6.638,22.06-6.638c17.168,7.195,24-7.5,24-7.5
				c17.907,7.021,22.421-9.085,22.421-9.085c18.89-0.439,18.854-9.963,18.854-9.963c21.479-1,14.936-17.584,14.936-17.584
				c12.318-1.237,14.462-10.949,14.462-10.949C2317.167,1789.667,2304.001,1796.333,2304.001,1796.333z M1949.501,1932.001
				c-8.5,12.083-18.75,4.666-18.75,4.666c-5.167,10.417-20.084,4.25-20.084,4.25c-11.666,8.334-21.833,2.167-21.833,2.167
				c-7.75,8.583-23.916,4.25-23.916,4.25c-3.167,8.917-25.167,3.25-25.167,3.25c-8.75,8.417-22.417,0.5-22.417,0.5
				c-3.75,9.917-20.916,3.667-20.916,3.667c-8.417,9.333-22.834,1.833-22.834,1.833c-6.083,9.417-21.666,0.917-21.666,0.917
				c-4.001,8.5-15.917,0.583-15.917,0.583c-6.5,10.417-21.167,0.667-21.167,0.667c-4.333,6-15.833,1.083-15.833,1.083
				c-4.438-1.36-24.5-31-24.5-31c26,20.666,46.001-3,46.001-3c28,17.334,41.212-3.32,41.212-3.32
				c40.636,7.688,43.084-0.458,43.084-0.458c21.16,12.311,36.058-4.021,36.058-4.021c18.491,9.983,31.104-5.176,31.104-5.176
				c17.21,9.569,31.905-2.479,31.905-2.479c17.526,10.554,30.89-5.66,30.89-5.66 M1699.334,1959.417
				c-6.416,8.25-17.583,1.667-17.583,1.667c-8.75,6.25-15.917-1.416-15.917-1.416c-4.5,9.499-17,3.833-17,3.833
				c-4.001,5.166-19.668,0.666-19.668,0.666c-1.333,9.5-26.5-0.166-26.5-0.166c-8.5,6.833-18.5,0.333-18.5,0.333
				c-11.166,7.333-22,1.167-22,1.167c-6.666,7.666-24.333,0.166-24.333,0.166c-4.388-1.518-38.583-40.542-38.583-40.542
				c30.669,18,44.586,1.375,44.586,1.375c22.999,17.604,38.666,0.667,38.666,0.667c22,24,46-0.667,46-0.667
				c14.667,18.667,45.999,1.334,45.999,1.334 M1538.167,1964.001c-4.167,10.5-27.167,2.333-27.167,2.333
				c-12.167,8.334-29-2.5-29-2.5c-15.667,7.834-29.334,0.167-29.334,0.167c-18.833,8.5-35.499-2-35.499-2
				c-19,8.667-31.5-0.5-31.5-0.5c-18.667,9.666-32.5-0.668-32.5-0.668c-15.5,6.334-29.833-0.666-29.833-0.666
				c-15,6.333-29.334-1-29.334-1c-9,6.5-31.5-0.334-31.5-0.334c-17.5,6.167-31.529-0.203-33.833-1
				c-4.388-1.52,2.166-31.333,2.166-31.333c31.5,17.333,47.167-1,47.167-1c28.096,18.638,46.5,1,46.5,1
				c33.623,20.771,43.5-0.5,43.5-0.5c17,20,37,1,37,1c18.125,10.638,36-0.5,36-0.5c10,13,30.5,2.5,30.5,2.5
				c17.141,11.172,27.75-4.875,27.75-4.875"/>
			<path id="Bottom_Shadow_1" clip-path="url(#SVGID_2_)" fill="#DDDBD9" d="M143.875,1800.75c0,0,2.75,12.75,15.125,13.125
				c0,0-5.375,17,16.125,16.5c0,0,0.625,11.5,19.5,10.625c0,0,5.625,15.75,23,7.5c0,0,9.125,12,25.75,3.625
				c0,0,8.75,10.375,22.375,1.375c0,0,14.25,12.25,31,0.5c0,0,15.5,14,32,3.25c0,0,13.5,15.25,31.25,4c0,0,16,17.25,36.25,3.5
				c0,0,2.5,14.25,42.5,3.75c0,0,10.5,18.5,43,8c0,0,7.75,17.25,44.75,5.5c0,0,3.667,23.166-0.667,24.833s-42.667,10.334-41-3.666
				c0,0-20,6.999-32-6.334c0,0-49.667,7-40.333-7.666c0,0-44,10.666-38.667-3.667c0,0-20,12-30.333-3.667
				c0,0-19.667,10.668-33.667-4.666c0,0-18.667,11.666-30-3.667c0,0-10.333,14.333-24.667-2c0,0-16,6.667-21.333-4.333
				c0,0-12.333,8.333-22.333-4.667c0,0-14.666,2.334-20.333-11.333c0,0-13.333,3.666-18.333-12.334c0,0-14.667,1.334-17.333-17.333
				C155.5,1821.5,141.25,1815.333,143.875,1800.75z M525.75,1880.5c0,0,14.25,16.25,31,4.5c0,0,15.5,14,32,3.25
				c0,0,13.5,15.25,31.25,4c0,0,16,17.25,36.25,3.5c0,0,2.5,14.25,42.5,3.75c0,0,10.5,15.5,43,5c0,0,7.75,16.25,44.75,4.5
				c0,0-12.333,29.834-16.667,31.501s-4.583,3.749-14.333-4c0,0-25.333,4-37.333-4.334c0,0-43.667,5.667-38.667-6
				c0,0-44.333,11.333-39-3c0,0-24,11.001-34.333-4.666c0,0-23.333,7-36.333-2.667c0,0-34.667,6.667-46-8.666 M786.541,1908.582
				c0,0,16.533,16.67,36.281,2.207c0,0,3.006,16.152,42.604,4.233c0,0,11.045,15.111,43.15,3.465c0,0,8.324,15.964,44.882,2.898
				c0,0-10.379,27.688-14.649,29.508C934.537,1952.712,902,1953.75,886,1947c0,0-8.533,10.147-21-2.75c0,0-17.5,7.5-24,1.25
				c0,0-28.5,5.75-55.271-7.288c0,0-19.345,13.577-30.229-1.711 M952.729,1921.917c0,0,14.683,13.734,31,1.395
				c0,0,15.886,10.441,31.988-0.89c0,0,13.928,11.762,31.271-0.113c0,0,16.528,14.671,36.275,0.207c0,0,3.007,14.152,42.607,2.233
				c0,0,11.045,15.116,43.151,3.465c0,0,25.568,18.868,61.896-1.589c0,0,1.854,30.055-2.417,31.875
				c-22.668,7.001-36.335-1.999-36.335-1.999c-19.167,9-33-0.333-33-0.333c-24.333,7-27.833-1.334-27.833-1.334
				c-17.667,7-28.667,0.5-28.667,0.5c-13.667,6.5-26.5-1.333-26.5-1.333c-8.416,4.249-32.416,11.249-54.664-0.501
				c0,0-30.664,9.197-44,0c0,0-29.002,6.5-45.252-4.75"/>
			<path id="Shadow_1_x5F_1" clip-path="url(#SVGID_2_)" fill="#DDDBD9" d="M144.625,1675c3.718,3.071,28.5,1.25,28.5,1.25
				c-25.875-1-33.625-13.25-33.625-13.25S138.875,1670.25,144.625,1675z"/>
			<path id="Shadow_1_x5F_2" clip-path="url(#SVGID_2_)" fill="#DDDBD9" d="M139.125,1681.875c0,0,1.375,9.75,36.75,10.125
				c0,0-23.875,4.375-32.375,0.375C141.337,1691.357,139.125,1687.5,139.125,1681.875z"/>
			<path id="Shadow_1_x5F_3" clip-path="url(#SVGID_2_)" fill="#DDDBD9" d="M134.5,1703.167c0,0,14.667,16.333,35.333,10.333
				c0,0,9.667,23,47.667,13.667c0,0-23.666,18-47.333-4.667C170.167,1722.5,127.5,1722.833,134.5,1703.167z"/>
			<path id="Shadow_1_x5F_4" clip-path="url(#SVGID_2_)" fill="#DDDBD9" d="M132,1728.5c0,0,7.25,9.25,24.25,4.75
				c0,0,1.5,17,27.75,7.25c0,0,10.75,17.75,34.75,6.75c0,0-20.5,16.5-32.25,2c0,0-19,9.75-29.25-7
				C157.25,1742.25,135.25,1745.25,132,1728.5z"/>
			<path id="Shadow_1_x5F_5" clip-path="url(#SVGID_2_)" fill="#DDDBD9" d="M134.5,1752.833c0,0,5.667,8.833,20,5.167
				c0,0,5.375,11.25,27.042,6.25c0,0-16.083,16.792-26.458,2.292C155.083,1766.542,136.75,1771.75,134.5,1752.833z"/>
			<path id="Shadow_1_x5F_6" clip-path="url(#SVGID_2_)" fill="#DDDBD9" d="M139.833,1773.083c0,0-3.25,20.5,17.333,14.75
				c0,0,5,11.25,16.667,7.5c0,0,5.917,10,19.75,4.084c0,0-15,12.833-19.417,2.083c0,0-15.333,4.999-16.833-6.584
				C157.333,1794.916,132.417,1802,139.833,1773.083z"/>
			<path id="Shadow_2_x5F_1" clip-path="url(#SVGID_2_)" fill="#DDDBD9" d="M271.167,1829.167c0,0,19,8,34.667-0.667
				C305.833,1828.5,285.833,1850.834,271.167,1829.167z"/>
			<path id="Shadow_2_x5F_2" clip-path="url(#SVGID_2_)" fill="#DDDBD9" d="M200.5,1818.5c0,0,6,15,21,9c0,0,7.5,11.5,26,4.5
				c0,0-16,15-26,2.833C221.5,1834.833,206,1839,200.5,1818.5z"/>
			<path id="Shadow_2_x5F_3" clip-path="url(#SVGID_2_)" fill="#DDDBD9" d="M209.5,1783.5c0,0,13.5,15,31.5,6c0,0,12,14,29.5,4.5
				c0,0,14,14.5,34,2c0,0,16.5,12.5,33,1.5c0,0-17,19-29.5,4.5c0,0-23,16.5-33.5-1.5c0,0-20,12-30.5-1.5
				C244,1799,227.5,1810.5,209.5,1783.5z"/>
			<path id="Shadow_2_x5F_4" clip-path="url(#SVGID_2_)" fill="#DDDBD9" d="M254.999,1729.495c0,0,14,16.333,38,5
				c0,0,26.667,15.667,46,1c0,0,27.001,16.005,48.335,3.339c0,0-24.333,20.167-42,4c0,0-24.833,18.667-47.001-1.672
				C298.332,1741.161,279.333,1761.167,254.999,1729.495z"/>
			<path id="Shadow_2_x5F_5" clip-path="url(#SVGID_2_)" fill="#DDDBD9" d="M315.5,1768.5c0,0,20,15,42,2c0,0,22,18,49,3
				c0,0-17,29.5-43,4C363.5,1777.5,346,1796,315.5,1768.5z"/>
			<path id="Shadow_2_x5F_6" clip-path="url(#SVGID_2_)" fill="#DDDBD9" d="M328.502,1834.165c0,0,20.666,10.668,41.333-0.666
				c0,0,15,12.667,35.667,4c0,0-12.669,19.335-33.002,3.001C372.5,1840.5,353.167,1854.834,328.502,1834.165z"/>
			<path id="Shadow_2_x5F_7" clip-path="url(#SVGID_2_)" fill="#DDDBD9" d="M236.5,1759c0,0,16,14.5,36,3.5
				C272.5,1762.5,250,1789,236.5,1759z"/>
			<path id="Shadow_2_x5F_8" clip-path="url(#SVGID_2_)" fill="#DDDBD9" d="M209,1685c0,0,11,17,33,6c0,0,13.5,13.5,33,4.5
				c0,0,15,16,36.5,5c0,0,15,14.5,36.5,2.5c0,0-16,23-33,4c0,0-18,14-37-4.5c0,0-24.5,12-33-5C245,1697.5,219,1712.5,209,1685z"/>
			<path id="Shadow_3_x5F_1" clip-path="url(#SVGID_2_)" fill="#DDDBD9" d="M437,1842.5c0,0,33.5,13.5,51.5,3.5
				c0,0,30,13.5,50.5,4.5c0,0,29.5,13,48,3c0,0,26,16.5,50.5,5.5c0,0-26.5,22.5-45.5,2.5c0,0-27.5,14.5-46-3c0,0-30,13-52.5-6.5
				C493.5,1852,464.5,1870,437,1842.5z"/>
			<path id="Shadow_3_x5F_2" clip-path="url(#SVGID_2_)" fill="#DDDBD9" d="M378.167,1802.169c0,0,24.333,15,51,2.333
				C429.167,1804.502,405.167,1835.835,378.167,1802.169z"/>
			<path id="Shadow_3_x5F_3" clip-path="url(#SVGID_2_)" fill="#DDDBD9" d="M471.166,1805.836c0,0,19.333,17.332,44.667,2.666
				c0,0,19.334,15.334,42.667,1.334c0,0-18,23.999-37.333,6.666C521.166,1816.502,490.5,1836.503,471.166,1805.836z"/>
			<path id="Shadow_3_x5F_4" clip-path="url(#SVGID_2_)" fill="#DDDBD9" d="M435.166,1775.502c0,0,24.667,15.334,48,2.667
				C483.166,1778.169,459.166,1808.835,435.166,1775.502z"/>
			<path id="Shadow_3_x5F_5" clip-path="url(#SVGID_2_)" fill="#DDDBD9" d="M410,1740.5c0,0,22,15.5,45.5,1.5c0,0,27.5,16,48,2.5
				c0,0,24.5,14.5,49.5,3c0,0-18,25.5-44,4.5c0,0-27,20.5-48-3C461,1749,429.5,1772,410,1740.5z"/>
			<path id="Shadow_3_x5F_6" clip-path="url(#SVGID_2_)" fill="#DDDBD9" d="M383,1704.5c0,0,22.5,16.5,48,2
				C431,1706.5,407,1738.5,383,1704.5z"/>
			<path id="Shadow_3_x5F_7" clip-path="url(#SVGID_2_)" fill="#DDDBD9" d="M473.5,1709.5c0,0,24,14,44,1.5c0,0,26,14.5,52,1.5
				c0,0-16,26.5-43.5,6.5C526,1719,494.5,1736.5,473.5,1709.5z"/>
			<path id="Shadow_4_x5F_1" clip-path="url(#SVGID_2_)" fill="#DDDBD9" d="M678.5,1863.165c0,0,26.667,15.334,45.333,2.667
				c0,0,21.333,13.999,45.333,2.666c0,0-15.333,27.334-39.333,7.334C729.834,1875.832,699.833,1893.165,678.5,1863.165z"/>
			<path id="Shadow_4_x5F_2" clip-path="url(#SVGID_2_)" fill="#DDDBD9" d="M596.5,1810.498c0,0,20.667,15.334,42,2.667
				c0,0,19.333,17.999,43.333,1.333c0,0,21.333,17.333,41.333,2c0,0-15.334,28-36.667,6.667c0,0-26.666,19.333-43.333-2
				C643.167,1821.165,617.833,1837.164,596.5,1810.498z"/>
			<path id="Shadow_4_x5F_3" clip-path="url(#SVGID_2_)" fill="#DDDBD9" d="M553.168,1778.496c0,0,24,12.001,42,0.667
				C595.168,1779.163,575.835,1805.83,553.168,1778.496z"/>
			<path id="Shadow_4_x5F_4" clip-path="url(#SVGID_2_)" fill="#DDDBD9" d="M605.169,1714.492c0,0,24,12.667,44,0
				c0,0,24,13.334,44.667,0.667c0,0,20.667,12,43.333,1.333c0,0-16.667,28-38,4.667c0,0-23.333,22.667-44,0
				C655.169,1721.159,624.503,1741.159,605.169,1714.492z"/>
			<path id="Shadow_4_x5F_5" clip-path="url(#SVGID_2_)" fill="#DDDBD9" d="M624.503,1757.159c0,0,21.333,16.667,47.333,2
				c0,0,20.667,18.001,50,2.667c0,0-19.333,31.333-46,7.333C675.836,1769.159,643.836,1791.159,624.503,1757.159z"/>
			<path id="Shadow_5_x5F_1" clip-path="url(#SVGID_2_)" fill="#DDDBD9" d="M811.836,1871.153c0,0,19.333,14.666,41.333,1.333
				C853.169,1872.486,833.169,1905.153,811.836,1871.153z"/>
			<path id="Shadow_5_x5F_2" clip-path="url(#SVGID_2_)" fill="#DDDBD9" d="M759.17,1818.486c0,0,20,16.001,41.333,2.667
				c0,0,18.667,16,43.333,2c0,0,26.667,15.332,47.333,0.666c0,0-16.667,27.334-41.333,6.667c0,0-25.333,22-46-2
				C803.836,1828.486,777.17,1851.153,759.17,1818.486z"/>
			<path id="Shadow_5_x5F_3" clip-path="url(#SVGID_2_)" fill="#DDDBD9" d="M749.5,1764.5c0,0,19,13,40-1
				C789.5,1763.5,767.5,1794.5,749.5,1764.5z"/>
			<path id="Shadow_5_x5F_4" clip-path="url(#SVGID_2_)" fill="#DDDBD9" d="M770.5,1718.5c0,0,21,14,38,2c0,0,25,13,43,3
				c0,0,30,11,46,0c0,0-17,24-39,7c0,0-24,19-46-1C812.5,1729.5,793.5,1745.5,770.5,1718.5z"/>
			<path id="Shadow_5_x5F_5" clip-path="url(#SVGID_2_)" fill="#DDDBD9" d="M818.5,1765.5c0,0,21,13,37,1c0,0,21,10,36,1
				c0,0-13,22-30,6C861.5,1773.5,839.5,1792.5,818.5,1765.5z"/>
			<path id="Shadow_5_x5F_6" clip-path="url(#SVGID_2_)" fill="#DDDBD9" d="M888.5,1872.5c0,0,23,18,45,1c0,0,25,18,49,4
				c0,0,27,15,48,1c0,0-25,23-44,10c0,0-24,18-47-5C939.5,1883.5,910.5,1903.5,888.5,1872.5z"/>
			<path id="Shadow_5_x5F_7" clip-path="url(#SVGID_2_)" fill="#DDDBD9" d="M919.5,1826.5c0,0,23,10,40,2
				C959.5,1828.5,938.5,1855.5,919.5,1826.5z"/>
			<path id="Shadow_5_x5F_8" clip-path="url(#SVGID_2_)" fill="#DDDBD9" d="M927.5,1725.5c0,0,24,8,43,1
				C970.5,1726.5,951.5,1752.5,927.5,1725.5z"/>
			<path id="Shadow_5_x5F_9" clip-path="url(#SVGID_2_)" fill="#DDDBD9" d="M926.5,1770.5c0,0,21,13,42,3c0,0,22,10,44-1
				c0,0,29,13,46,3c0,0-15,24-39,6c0,0-30,20-44,0C975.5,1781.5,947.5,1799.5,926.5,1770.5z"/>
			<path id="Shadow_5_x5F_10" clip-path="url(#SVGID_2_)" fill="#DDDBD9" d="M990.5,1829.5c0,0,24,11,43,0c0,0,30,12,48,0
				c0,0-19,28-43,8C1038.5,1837.5,1013.5,1856.5,990.5,1829.5z"/>
			<path id="Shadow_5_x5F_11" clip-path="url(#SVGID_2_)" fill="#DDDBD9" d="M1068.5,1879.5c0,0,27,11,46-1
				C1114.5,1878.5,1092.5,1913.5,1068.5,1879.5z"/>
			<path id="Shadow_5_x5F_12" clip-path="url(#SVGID_2_)" fill="#DDDBD9" d="M1007.5,1726.5c0,0,21,13,48,1c0,0,30,13,54,0
				c0,0-22,29-44,8C1065.5,1735.5,1032.5,1756.5,1007.5,1726.5z"/>
			<path id="Shadow_5_x5F_13" clip-path="url(#SVGID_2_)" fill="#DDDBD9" d="M1093.5,1776.5c0,0,30,11,45-2c0,0,24,12,44,1
				c0,0,34,11,52-1c0,0-19,27-45,9c0,0-30,17-49,1C1140.5,1784.5,1110.5,1801.5,1093.5,1776.5z"/>
			<path id="Shadow_5_x5F_14" clip-path="url(#SVGID_2_)" fill="#DDDBD9" d="M1112.5,1829.5c0,0,29,12,46-1
				C1158.5,1828.5,1133.5,1861.5,1112.5,1829.5z"/>
			<path id="Shadow_5_x5F_15" clip-path="url(#SVGID_2_)" fill="#DDDBD9" d="M1137.5,1729.5c0,0,27,9,43,0
				C1180.5,1729.5,1157.5,1759.5,1137.5,1729.5z"/>
			<path id="Shadow_5_x5F_16" clip-path="url(#SVGID_2_)" fill="#DDDBD9" d="M1146.5,1878.5c0,0,27,16,54,0c0,0,21,18,50-1
				c0,0,30,17,53,0c0,0,27,17,53,1c0,0-21,39-53,4c0,0-26,30-53,2c0,0-28,31-50,1C1200.5,1885.5,1173.5,1915.5,1146.5,1878.5z"/>
			<path id="Shadow_5_x5F_17" clip-path="url(#SVGID_2_)" fill="#DDDBD9" d="M1185.5,1828.5c0,0,30,11,47-1c0,0,27,13,49,0
				c0,0-14,31-48,8C1233.5,1835.5,1211.5,1858.5,1185.5,1828.5z"/>
			<path id="Shadow_6_x5F_1" clip-path="url(#SVGID_2_)" fill="#DDDBD9" d="M1387.5,1879.5c0,0,27,9,43,1
				C1430.5,1880.5,1409.5,1911.5,1387.5,1879.5z"/>
			<path id="Shadow_6_x5F_2" clip-path="url(#SVGID_2_)" fill="#DDDBD9" d="M1214.5,1731.5c0,0,20,12,43,2c0,0,26,13,45-1
				c0,0-17,28-43,8C1259.5,1740.5,1235.5,1760.5,1214.5,1731.5z"/>
			<path id="Shadow_6_x5F_3" clip-path="url(#SVGID_2_)" fill="#DDDBD9" d="M1265.5,1774.5c0,0,31,11,49-2
				C1314.5,1772.5,1290.5,1806.5,1265.5,1774.5z"/>
			<path id="Shadow_6_x5F_4" clip-path="url(#SVGID_2_)" fill="#DDDBD9" d="M1335.5,1734.5c0,0,22,14,41-1c0,0,29,12,47-1
				c0,0,30,14,54,0c0,0,20,10,43-1c0,0-19,32-43,8c0,0-29,25-53,0c0,0-25,24-48,0C1376.5,1739.5,1358.5,1763.5,1335.5,1734.5z"/>
			<path id="Shadow_6_x5F_5" clip-path="url(#SVGID_2_)" fill="#DDDBD9" d="M1345.5,1772.5c0,0,25,13,42-1c0,0,27,11,42,0
				c0,0-15,26-40,9C1389.5,1780.5,1363.5,1801.5,1345.5,1772.5z"/>
			<path id="Shadow_6_x5F_6" clip-path="url(#SVGID_2_)" fill="#DDDBD9" d="M1313.5,1828.5c0,0,25,13,47-2
				C1360.5,1826.5,1337.5,1865.5,1313.5,1828.5z"/>
			<path id="Shadow_6_x5F_7" clip-path="url(#SVGID_2_)" fill="#DDDBD9" d="M1390.5,1826.5c0,0,26,15,46-3c0,0,27,18,48,0
				c0,0,29,19,49-1c0,0-27,36-52,9c0,0-24,25-52,2C1429.5,1833.5,1411.5,1856.5,1390.5,1826.5z"/>
			<path id="Shadow_6_x5F_8" clip-path="url(#SVGID_2_)" fill="#DDDBD9" d="M1461.5,1772.5c0,0,27,17,47,1
				C1508.5,1773.5,1482.5,1809.5,1461.5,1772.5z"/>
			<path id="Shadow_6_x5F_9" clip-path="url(#SVGID_2_)" fill="#DDDBD9" d="M1458.5,1880.5c0,0,31,12,50-1
				C1508.5,1879.5,1487.5,1919.5,1458.5,1880.5z"/>
			<path id="Shadow_6_x5F_9_3_" clip-path="url(#SVGID_2_)" fill="#DDDBD9" d="M2274.046,1659.439c0,0,25.315,4.005,37.694-8.615
				C2311.74,1650.824,2302.008,1683.756,2274.046,1659.439z"/>
			<path id="Shadow_6_x5F_8_1_" clip-path="url(#SVGID_2_)" fill="#DDDBD9" d="M1658.833,1734.5c0,0,27,17,47,1
				C1705.833,1735.5,1679.833,1771.5,1658.833,1734.5z"/>
			<path id="Shadow_6_x5F_7_1_" clip-path="url(#SVGID_2_)" fill="#DDDBD9" d="M1733.836,1732.243c0,0,26.457,14.178,45.883-4.439
				c0,0,27.551,17.145,47.977-1.504c0,0,29.581,18.082,48.945-2.535c0,0-25.859,36.828-51.693,10.625
				c0,0-23.204,25.739-51.911,3.628C1773.036,1738.018,1755.766,1761.57,1733.836,1732.243z"/>
			<path id="Shadow_6_x5F_9_1_" clip-path="url(#SVGID_2_)" fill="#DDDBD9" d="M1752.5,1825.5c0,0,31,12,50-1
				C1802.5,1824.5,1781.5,1864.5,1752.5,1825.5z"/>
			<path id="Shadow_6_x5F_9_2_" clip-path="url(#SVGID_2_)" fill="#DDDBD9" d="M1902.871,1727.813c0,0,31.965,9.124,49.7-5.555
				C1952.571,1722.258,1935.307,1764.006,1902.871,1727.813z"/>
			<path id="Shadow_7_x5F_1" clip-path="url(#SVGID_2_)" fill="#DDDBD9" d="M1536.5,1881.5c0,0,30,17,47-1c0,0,20,19,45,0
				c0,0,31,19,50-2c0,0,34,12,55-6c0,0-28,42-58,15c0,0-29,27-50,3c0,0-24,24-48-1C1577.5,1889.5,1560.5,1914.5,1536.5,1881.5z"/>
			<path id="Shadow_7_x5F_2" clip-path="url(#SVGID_2_)" fill="#DDDBD9" d="M1559.5,1824.5c0,0,26,12,44,0
				C1603.5,1824.5,1585.5,1858.5,1559.5,1824.5z"/>
			<path id="Shadow_7_x5F_3" clip-path="url(#SVGID_2_)" fill="#DDDBD9" d="M1531.5,1773.5c0,0,23,17,40,0c0,0,27,14,44-2
				c0,0,28,16,44,1c0,0,25,14,42-2c0,0-21,33-45,11c0,0-29,21-49,2c0,0-27,19-39-3C1568.5,1780.5,1548.5,1806.5,1531.5,1773.5z"/>
			<path id="Shadow_7_x5F_4" clip-path="url(#SVGID_2_)" fill="#DDDBD9" d="M1627.5,1826.5c0,0,28,15,45,2c0,0,32,18,53-2
				c0,0-31,36-57,10C1668.5,1836.5,1650.5,1859.5,1627.5,1826.5z"/>
			<path clip-path="url(#SVGID_2_)" fill="#DDDBD9" d="M1554.501,1733.834c0,0,22.001,10,37.334-0.667c0,0,20.667,10,34,1.333
				c0,0-18,20.667-36.667,6C1589.168,1740.5,1567.834,1753.167,1554.501,1733.834z"/>
			<path clip-path="url(#SVGID_2_)" fill="#DDDBD9" d="M1732.138,1771.55c0,0,28.601,13.82,45.044,0.124
				c0,0,32.723,16.65,52.871-4.207c0,0-29.474,37.261-56.534,12.366C1773.519,1779.833,1756.492,1803.563,1732.138,1771.55z"/>
			<path id="Shadow_7_x5F_3_1_" clip-path="url(#SVGID_2_)" fill="#DDDBD9" d="M1969.172,1718.473c0,0,24.602,14.587,39.795-4.045
				c0,0,28.278,11.199,43.573-6.438c0,0,29.475,13.087,43.875-3.455c0,0,26.288,11.4,41.583-6.236c0,0-17.556,34.955-43.657,15.494
				c0,0-26.728,23.825-48.547,6.945c0,0-24.94,21.632-39.103,0.959C2006.691,1721.696,1989.423,1749.585,1969.172,1718.473z"/>
			<path id="Shadow_7_x5F_2_1_" clip-path="url(#SVGID_2_)" fill="#DDDBD9" d="M1853.167,1767.166c0,0,26,12,44,0
				C1897.167,1767.166,1879.167,1801.166,1853.167,1767.166z"/>
			<path id="Shadow_7_x5F_2_2_" clip-path="url(#SVGID_2_)" fill="#DDDBD9" d="M1879.464,1864.495c0,0,27.81,6.829,43.194-8.38
				C1922.658,1856.115,1911.463,1892.921,1879.464,1864.495z"/>
			<path id="Shadow_7_x5F_2_3_" clip-path="url(#SVGID_2_)" fill="#DDDBD9" d="M2280.979,1755.627c0,0,25.031,1.191,37.158-12.934
				C2318.137,1742.693,2311.647,1773.013,2280.979,1755.627z"/>
			<path id="Shadow_5_x5F_17_1_" clip-path="url(#SVGID_2_)" fill="#DDDBD9" d="M1912.957,1765.008c0,0,31.339,6.229,46.28-8.254
				c0,0,28.685,8.67,48.411-7.575c0,0-9.04,32.792-46.187,15.324C1961.462,1764.503,1943.282,1790.627,1912.957,1765.008z"/>
			<path id="Shadow_5_x5F_17_2_" clip-path="url(#SVGID_2_)" fill="#DDDBD9" d="M2181.578,1794.063c0,0,28.01,3.21,40.167-10.504
				c0,0,25.841,5.528,42.09-10.063c0,0-5.711,29.283-39.602,16.673C2224.233,1790.169,2210.021,1814.28,2181.578,1794.063z"/>
			<path id="Shadow_5_x5F_17_3_" clip-path="url(#SVGID_2_)" fill="#DDDBD9" d="M1759.829,1873.937c0,0,30.582,9.259,46.864-3.698
				c0,0,27.703,11.427,48.92-2.815c0,0-12.196,31.753-47.461,10.744C1808.152,1878.167,1787.51,1902.394,1759.829,1873.937z"/>
			<path id="Shadow_5_x5F_17_4_" clip-path="url(#SVGID_2_)" fill="#DDDBD9" d="M1832.645,1823.32c0,0,31.104,7.315,46.539-6.641
				c0,0,28.366,9.662,48.645-5.888c0,0-10.174,32.458-46.69,13.71C1881.138,1824.502,1862.061,1849.979,1832.645,1823.32z"/>
			<path id="Shadow_6_x5F_9_4_" clip-path="url(#SVGID_2_)" fill="#DDDBD9" d="M2117.799,1814.66c0,0,29.844,3.619,44.501-10.654
				C2162.3,1804.007,2150.673,1840.547,2117.799,1814.66z"/>
			<path id="Shadow_6_x5F_9_5_" clip-path="url(#SVGID_2_)" fill="#DDDBD9" d="M1947.466,1807.66c0,0,29.844,3.619,44.501-10.654
				C1991.967,1797.006,1980.342,1833.548,1947.466,1807.66z"/>
			<path id="Shadow_5_x5F_17_5_" clip-path="url(#SVGID_2_)" fill="#DDDBD9" d="M1936.647,1854.27c0,0,31.49,5.413,46.05-9.454
				c0,0,28.9,7.921,48.197-8.831c0,0-8.184,33.016-45.772,16.52C1985.122,1852.504,1967.628,1879.092,1936.647,1854.27z"/>
			<path id="Shadow_6_x5F_7_2_" clip-path="url(#SVGID_2_)" fill="#DDDBD9" d="M2011.391,1790.529c0,0,25.35,7.555,39.547-11.157
				c0,0,26.76,9.856,41.829-9.044c0,0,28.683,10.31,42.521-10.063c0,0-17.067,34.975-43.7,17.27c0,0-16.426,25.276-44.955,11.457
				C2046.633,1788.992,2035.076,1811.479,2011.391,1790.529z"/>
			<path id="Shadow_5_x5F_17_6_" clip-path="url(#SVGID_2_)" fill="#DDDBD9" d="M2159.469,1689.573c0,0,31.738,3.692,45.468-11.945
				c0,0,29.288,6.337,47.646-11.439c0,0-6.375,33.412-44.807,18.985C2207.775,1685.173,2191.754,1712.673,2159.469,1689.573z"/>
			<path id="Shadow_6_x5F_9_6_" clip-path="url(#SVGID_2_)" fill="#DDDBD9" d="M2271.132,1695.327c0,0,29.844,3.619,44.501-10.654
				C2315.633,1684.673,2304.008,1721.215,2271.132,1695.327z"/>
			<path id="Shadow_5_x5F_17_7_" clip-path="url(#SVGID_2_)" fill="#DDDBD9" d="M2235.912,1726.73c0,0,28.01,3.21,40.167-10.504
				c0,0,25.841,5.528,42.09-10.063c0,0-5.711,29.283-39.602,16.673C2278.567,1722.835,2264.355,1746.947,2235.912,1726.73z"/>
			<path id="Shadow_6_x5F_9_7_" clip-path="url(#SVGID_2_)" fill="#DDDBD9" d="M2163.413,1752.059c0,0,30.005,1.86,43.799-13.249
				C2207.212,1738.81,2197.753,1775.972,2163.413,1752.059z"/>
			<path id="Shadow_6_x5F_9_8_" clip-path="url(#SVGID_2_)" fill="#DDDBD9" d="M2281.366,1779.208c0,0,25.678-5.434,35.217-20.056
				C2316.583,1759.152,2313.846,1789.532,2281.366,1779.208z"/>
			<path id="Shadow_6_x5F_9_9_" clip-path="url(#SVGID_2_)" fill="#DDDBD9" d="M2302.126,1731.723c0,0,30.052,1.225,45.674-10.717
				C2347.8,1721.006,2334.055,1750.187,2302.126,1731.723z"/>
			<path id="Shadow_6_x5F_9_10_" clip-path="url(#SVGID_2_)" fill="#DDDBD9" d="M2290.751,1675.098c0,0,17.499,5.277,29.499-10.098
				C2320.25,1665,2322.68,1693.562,2290.751,1675.098z"/>
			<path id="Shadow_6_x5F_9_11_" clip-path="url(#SVGID_2_)" fill="#DDDBD9" d="M2051.413,1837.393c0,0,30.005,1.86,43.799-13.249
				C2095.212,1824.144,2085.753,1861.305,2051.413,1837.393z"/>
			<path id="Shadow_6_x5F_9_12_" clip-path="url(#SVGID_2_)" fill="#DDDBD9" d="M2060.19,1746.939c0,0,29.721,4.523,44.805-9.299
				C2104.995,1737.64,2092.267,1773.813,2060.19,1746.939z"/>
			<path id="Shadow_6_x5F_9_13_" clip-path="url(#SVGID_2_)" fill="#DDDBD9" d="M2142.746,1728.392c0,0,30.005,1.86,43.799-13.249
				C2186.545,1715.143,2177.086,1752.305,2142.746,1728.392z"/>
		</g>
	</g>
</g>
</svg>
