<?xml version="1.0" encoding="utf-8"?>
<!-- Generator: Adobe Illustrator 16.0.0, SVG Export Plug-In . SVG Version: 6.00 Build 0)  -->
<!DOCTYPE svg PUBLIC "-//W3C//DTD SVG 1.1//EN" "http://www.w3.org/Graphics/SVG/1.1/DTD/svg11.dtd">
<svg version="1.1" xmlns="http://www.w3.org/2000/svg" xmlns:xlink="http://www.w3.org/1999/xlink" x="0px" y="0px"
	 width="487.609px" height="340.71px" viewBox="679.358 327.163 487.609 340.71"
	 enable-background="new 679.358 327.163 487.609 340.71" xml:space="preserve">
<g id="Pickles">
</g>
<g id="Tomato">
</g>
<g id="Lettuce">
</g>
<g id="Tofu_Slice">
</g>
<g id="Swiss_Slice">
</g>
<g id="Cheddar_Slice">
</g>
<g id="Eggplant_Patty">
</g>
<g id="Halloumi_Patty">
</g>
<g id="Beef_Patty">
</g>
<g id="Sourdough_Bun">
</g>
<g id="Rice_Bun">
	<g id="Bottom_Bun_Clip_Path">
		<defs>
			<path id="Rice_Bun_Bottom_3_" d="M695.856,561.977c-1.484-3.957,1.979-5.157,1.979-5.157c-0.283-3.958,3.036-3.746,3.036-3.746
				c0.779-3.25,4.137-1.646,4.137-1.646c1.308-2.298,4.026-0.955,4.026-0.955c2.048-2.524,5.124-0.794,5.124-0.794
				c1.237-1.961,4.805-0.705,4.805-0.705c1.89-1.681,4.805-0.143,4.805-0.143c1.751-1.749,4.716-0.159,4.716-0.159
				c2.068-1.59,4.188,0.053,4.188,0.053c2.173-1.536,4.4-0.027,4.4-0.027c1.588-1.668,4.186-0.025,4.186-0.025
				c1.96-1.483,4.504-0.053,4.504-0.053c2.137-1.678,4.506,0,4.506,0c2.278-1.909,4.769-0.054,4.769-0.054
				c2.385-1.855,4.399-0.146,4.399-0.146c1.643-1.814,4.506-0.117,4.506-0.117c1.906-1.645,4.131-0.054,4.131-0.054
				c2.386-1.908,4.595-0.123,4.595-0.123c2.19-1.998,4.946-0.142,4.946-0.142c2.226-2.12,4.663,0,4.663,0
				c2.597-2.438,5.035,0.054,5.035,0.054c2.49-2.174,5.141-0.106,5.141-0.106c2.562-2.103,5.229-0.229,5.229-0.229
				c2.986-2.633,5.9-0.036,5.9-0.036c2.561-2.438,5.404-0.266,5.404-0.266c2.545-2.225,5.618,0,5.618,0
				c2.544-2.331,5.123-0.122,5.123-0.122c2.721-2.315,5.088,0.141,5.088,0.141c2.614-2.509,5.089-0.141,5.089-0.141
				c2.401-2.403,4.804,0,4.804,0c2.755-2.544,5.089,0,5.089,0c2.188-2.615,4.521-0.143,4.521-0.143c2.119-2.332,4.239,0,4.239,0
				c2.19-2.261,4.947-0.141,4.947-0.141c2.754-2.261,5.581,0.212,5.581,0.212c2.756-2.897,5.3-0.071,5.3-0.071
				c2.12-2.473,5.017-0.212,5.017-0.212c2.685-2.968,5.159-0.07,5.159-0.07c3.038-3.25,6.076-0.143,6.076-0.143
				c3.18-3.391,6.219,0,6.219,0c2.613-3.037,5.37-0.141,5.37-0.141c3.249-3.391,6.5,0,6.5,0c3.533-3.674,6.784,0,6.784,0
				c3.038-3.674,6.218-0.141,6.218-0.141c2.896-3.109,5.794-0.283,5.794-0.283c2.826-3.25,5.371,0,5.371,0
				c2.826-3.392,6.076-0.142,6.076-0.142c2.969-3.393,6.076-0.141,6.076-0.141c3.745-3.534,6.643,0,6.643,0
				c3.533-3.534,6.642,0,6.642,0c2.97-3.181,6.078-0.142,6.078-0.142c2.262-2.543,5.087-0.141,5.087-0.141
				c2.615-2.757,5.087-0.141,5.087-0.141c2.757-2.758,5.512,0,5.512,0c2.403-2.687,5.653,0,5.653,0c2.614-2.828,5.371,0,5.371,0
				c2.967-2.828,5.723,0,5.723,0c2.333-3.04,5.513,0,5.513,0c3.25-2.828,5.864-0.143,5.864-0.143
				c2.613-2.757,5.512-0.142,5.512-0.142c2.614-2.969,5.369-0.141,5.369-0.141c2.615-3.039,5.23,0,5.23,0
				c2.473-2.687,5.229,0,5.229,0c2.756-2.615,5.37-0.142,5.37-0.142c3.039-2.827,5.653,0,5.653,0
				c2.332-2.757,4.805-0.141,4.805-0.141c2.613-2.546,4.946,0,4.946,0c2.544-2.546,5.511-0.143,5.511-0.143
				c2.614-2.544,5.794-0.14,5.794-0.14c2.826-2.686,5.795,0,5.795,0c2.686-2.757,5.794-0.143,5.794-0.143
				c2.755-2.896,5.654-0.141,5.654-0.141c2.968-2.756,5.369-0.141,5.369-0.141c2.543-2.828,5.086,0,5.086,0
				c2.827-2.969,5.514,0,5.514,0c2.331-2.828,4.803-0.144,4.803-0.144c2.476-2.825,5.23,0,5.23,0
				c2.755-2.755,5.441-0.141,5.441-0.141c2.826-2.897,5.724,0,5.724,0c2.897-3.038,5.794,0,5.794,0
				c2.756-2.968,5.937-0.141,5.937-0.141c2.401-2.757,5.511,0,5.511,0c2.544-3.038,5.37,0.142,5.37,0.142
				c2.826-2.615,4.733,0.635,4.733,0.635c3.322-2.262,5.3,0.777,5.3,0.777c3.322-2.05,5.087,1.272,5.087,1.272
				c3.18-1.555,4.382,1.555,4.382,1.555c3.038-0.989,3.533,2.119,3.533,2.119c3.039-0.424,2.685,2.825,2.685,2.825
				c2.97,1.344,0.988,3.958,0.988,3.958c2.828,1.697,0.425,4.239,0.425,4.239c2.545,2.194-0.141,4.947-0.141,4.947
				c1.767,2.333-0.707,4.238-0.707,4.238c1.413,3.183-0.988,4.664-0.988,4.664c1.483,3.324-1.697,4.664-1.697,4.664
				c0.568,3.323-2.472,3.818-2.472,3.818c-0.564,3.325-3.888,2.542-3.888,2.542c-0.918,3.606-4.663,2.119-4.663,2.119
				c-1.202,4.03-5.229,2.261-5.229,2.261c-1.907,3.396-6.076,2.121-6.076,2.121c-2.896,3.325-7.35,1.978-7.35,1.978
				c-2.472,3.184-6.287,1.488-6.287,1.488c-1.979,3.109-6.996,1.907-6.996,1.907c-1.979,3.25-6.783,1.414-6.783,1.414
				c-2.12,3.392-7.491,1.409-7.491,1.409c-2.473,3.042-6.783,0.988-6.783,0.988c-3.037,3.114-8.338,1.413-8.338,1.413
				c-3.179,3.396-7.066,1.272-7.066,1.272c-3.603,3.255-7.631,1.413-7.631,1.413c-2.543,2.972-7.489,1.272-7.489,1.272
				c-2.475,2.972-6.644,0.99-6.644,0.99c-2.331,3.042-5.793,0.988-5.793,0.988c-2.545,2.759-6.644,0.849-6.644,0.849
				c-2.614,2.548-6.924,0.847-6.924,0.847c-2.756,2.476-7.208,0.566-7.208,0.566c-3.744,2.617-6.925,0.281-6.925,0.281
				c-3.532,2.972-6.501,0.425-6.501,0.425c-3.461,2.547-7.207,0.283-7.207,0.283c-3.321,2.829-7.065,0.14-7.065,0.14
				c-3.039,2.973-6.926,0.425-6.926,0.425c-2.473,2.478-6.783,0.425-6.783,0.425c-4.38,2.477-7.913,0.141-7.913,0.141
				c-4.24,2.76-7.563,0.356-7.563,0.356c-3.531,3.044-6.854,0.21-6.854,0.21c-3.886,2.759-6.926,0.142-6.926,0.142
				c-3.673,2.617-7.067,0.141-7.067,0.141c-3.247,2.759-6.781,0.283-6.781,0.283c-3.179,2.899-6.501,0-6.501,0
				c-3.391,3.111-6.925,0-6.925,0c-4.239,3.394-8.055,0-8.055,0c-3.887,2.828-7.772,0-7.772,0c-3.746,2.406-7.351-0.141-7.351-0.141
				c-3.744,2.474-7.065,0-7.065,0c-3.815,2.193-7.632-0.283-7.632-0.283c-4.45,2.052-7.066-0.425-7.066-0.425
				c-3.53,2.123-6.218-0.141-6.218-0.141c-3.461,2.264-6.217-0.351-6.359-0.283c-3.814,1.802-6.643-0.425-6.643-0.425
				c-3.391,1.912-6.359-0.283-6.359-0.283c-3.39,2.054-6.783-0.423-6.783-0.423c-3.604,2.123-7.349-0.426-7.349-0.426
				c-3.673,2.054-7.064-0.423-7.064-0.423c-4.452,1.63-6.783-0.565-6.783-0.565c-3.393,2.125-6.502-0.282-6.502-0.282
				c-3.814,1.983-6.925-0.564-6.925-0.564c-4.17,1.981-7.773-0.849-7.773-0.849c-3.744,2.054-7.631-0.566-7.631-0.566
				c-3.675,1.984-7.209-0.705-7.209-0.705c-4.024,1.982-7.771-0.849-7.771-0.849c-4.311,1.912-7.49-0.707-7.49-0.707
				c-3.957,1.982-7.772-0.989-7.772-0.989c-4.382,2.053-7.632-0.988-7.632-0.988c-4.238,2.406-7.915-0.848-7.915-0.848
				c-5.227,1.911-8.69-1.344-8.69-1.344c-5.653,1.559-9.327-2.331-9.327-2.331c-4.593,1.346-8.48-2.544-8.48-2.544
				c-4.31,1.841-7.631-2.12-7.631-2.12c-5.157,1.417-8.478-2.543-8.478-2.543c-4.877,0.499-6.573-3.817-6.573-3.817
				c-4.521-1.338-5.087-5.723-5.087-5.723c-4.311-2.611-2.544-7.207-2.544-7.207c-3.744-3.529-0.636-7.42-0.636-7.42
				C693.03,563.814,695.856,561.977,695.856,561.977z"/>
		</defs>
		<clipPath id="Rice_Bun_Bottom_1_">
			<use xlink:href="#Rice_Bun_Bottom_3_"  overflow="visible"/>
		</clipPath>
		<path id="Rice_Bun_Bottom" clip-path="url(#Rice_Bun_Bottom_1_)" fill="#FFC5C5" stroke="#000000" stroke-miterlimit="10" d="
			M695.856,561.977c-1.484-3.957,1.979-5.157,1.979-5.157c-0.283-3.958,3.036-3.746,3.036-3.746c0.779-3.25,4.137-1.646,4.137-1.646
			c1.308-2.298,4.026-0.955,4.026-0.955c2.048-2.524,5.124-0.794,5.124-0.794c1.237-1.961,4.805-0.705,4.805-0.705
			c1.89-1.681,4.805-0.143,4.805-0.143c1.751-1.749,4.716-0.159,4.716-0.159c2.068-1.59,4.188,0.053,4.188,0.053
			c2.173-1.536,4.4-0.027,4.4-0.027c1.588-1.668,4.186-0.025,4.186-0.025c1.96-1.483,4.504-0.053,4.504-0.053
			c2.137-1.678,4.506,0,4.506,0c2.278-1.909,4.769-0.054,4.769-0.054c2.385-1.855,4.399-0.146,4.399-0.146
			c1.643-1.814,4.506-0.117,4.506-0.117c1.906-1.645,4.131-0.054,4.131-0.054c2.386-1.908,4.595-0.123,4.595-0.123
			c2.19-1.998,4.946-0.142,4.946-0.142c2.226-2.12,4.663,0,4.663,0c2.597-2.438,5.035,0.054,5.035,0.054
			c2.49-2.174,5.141-0.106,5.141-0.106c2.562-2.103,5.229-0.229,5.229-0.229c2.986-2.633,5.9-0.036,5.9-0.036
			c2.561-2.438,5.404-0.266,5.404-0.266c2.545-2.225,5.618,0,5.618,0c2.544-2.331,5.123-0.122,5.123-0.122
			c2.721-2.315,5.088,0.141,5.088,0.141c2.614-2.509,5.089-0.141,5.089-0.141c2.401-2.403,4.804,0,4.804,0
			c2.755-2.544,5.089,0,5.089,0c2.188-2.615,4.521-0.143,4.521-0.143c2.119-2.332,4.239,0,4.239,0
			c2.19-2.261,4.947-0.141,4.947-0.141c2.754-2.261,5.581,0.212,5.581,0.212c2.756-2.897,5.3-0.071,5.3-0.071
			c2.12-2.473,5.017-0.212,5.017-0.212c2.685-2.968,5.159-0.07,5.159-0.07c3.038-3.25,6.076-0.143,6.076-0.143
			c3.18-3.391,6.219,0,6.219,0c2.613-3.037,5.37-0.141,5.37-0.141c3.249-3.391,6.5,0,6.5,0c3.533-3.674,6.784,0,6.784,0
			c3.038-3.674,6.218-0.141,6.218-0.141c2.896-3.109,5.794-0.283,5.794-0.283c2.826-3.25,5.371,0,5.371,0
			c2.826-3.392,6.076-0.142,6.076-0.142c2.969-3.393,6.076-0.141,6.076-0.141c3.745-3.534,6.643,0,6.643,0
			c3.533-3.534,6.642,0,6.642,0c2.97-3.181,6.078-0.142,6.078-0.142c2.262-2.543,5.087-0.141,5.087-0.141
			c2.615-2.757,5.087-0.141,5.087-0.141c2.757-2.758,5.512,0,5.512,0c2.403-2.687,5.653,0,5.653,0c2.614-2.828,5.371,0,5.371,0
			c2.967-2.828,5.723,0,5.723,0c2.333-3.04,5.513,0,5.513,0c3.25-2.828,5.864-0.143,5.864-0.143
			c2.613-2.757,5.512-0.142,5.512-0.142c2.614-2.969,5.369-0.141,5.369-0.141c2.615-3.039,5.23,0,5.23,0
			c2.473-2.687,5.229,0,5.229,0c2.756-2.615,5.37-0.142,5.37-0.142c3.039-2.827,5.653,0,5.653,0
			c2.332-2.757,4.805-0.141,4.805-0.141c2.613-2.546,4.946,0,4.946,0c2.544-2.546,5.511-0.143,5.511-0.143
			c2.614-2.544,5.794-0.14,5.794-0.14c2.826-2.686,5.795,0,5.795,0c2.686-2.757,5.794-0.143,5.794-0.143
			c2.755-2.896,5.654-0.141,5.654-0.141c2.968-2.756,5.369-0.141,5.369-0.141c2.543-2.828,5.086,0,5.086,0
			c2.827-2.969,5.514,0,5.514,0c2.331-2.828,4.803-0.144,4.803-0.144c2.476-2.825,5.23,0,5.23,0
			c2.755-2.755,5.441-0.141,5.441-0.141c2.826-2.897,5.724,0,5.724,0c2.897-3.038,5.794,0,5.794,0
			c2.756-2.968,5.937-0.141,5.937-0.141c2.401-2.757,5.511,0,5.511,0c2.544-3.038,5.37,0.142,5.37,0.142
			c2.826-2.615,4.733,0.635,4.733,0.635c3.322-2.262,5.3,0.777,5.3,0.777c3.322-2.05,5.087,1.272,5.087,1.272
			c3.18-1.555,4.382,1.555,4.382,1.555c3.038-0.989,3.533,2.119,3.533,2.119c3.039-0.424,2.685,2.825,2.685,2.825
			c2.97,1.344,0.988,3.958,0.988,3.958c2.828,1.697,0.425,4.239,0.425,4.239c2.545,2.194-0.141,4.947-0.141,4.947
			c1.767,2.333-0.707,4.238-0.707,4.238c1.413,3.183-0.988,4.664-0.988,4.664c1.483,3.324-1.697,4.664-1.697,4.664
			c0.568,3.323-2.472,3.818-2.472,3.818c-0.564,3.325-3.888,2.542-3.888,2.542c-0.918,3.606-4.663,2.119-4.663,2.119
			c-1.202,4.03-5.229,2.261-5.229,2.261c-1.907,3.396-6.076,2.121-6.076,2.121c-2.896,3.325-7.35,1.978-7.35,1.978
			c-2.472,3.184-6.287,1.488-6.287,1.488c-1.979,3.109-6.996,1.907-6.996,1.907c-1.979,3.25-6.783,1.414-6.783,1.414
			c-2.12,3.392-7.491,1.409-7.491,1.409c-2.473,3.042-6.783,0.988-6.783,0.988c-3.037,3.114-8.338,1.413-8.338,1.413
			c-3.179,3.396-7.066,1.272-7.066,1.272c-3.603,3.255-7.631,1.413-7.631,1.413c-2.543,2.972-7.489,1.272-7.489,1.272
			c-2.475,2.972-6.644,0.99-6.644,0.99c-2.331,3.042-5.793,0.988-5.793,0.988c-2.545,2.759-6.644,0.849-6.644,0.849
			c-2.614,2.548-6.924,0.847-6.924,0.847c-2.756,2.476-7.208,0.566-7.208,0.566c-3.744,2.617-6.925,0.281-6.925,0.281
			c-3.532,2.972-6.501,0.425-6.501,0.425c-3.461,2.547-7.207,0.283-7.207,0.283c-3.321,2.829-7.065,0.14-7.065,0.14
			c-3.039,2.973-6.926,0.425-6.926,0.425c-2.473,2.478-6.783,0.425-6.783,0.425c-4.38,2.477-7.913,0.141-7.913,0.141
			c-4.24,2.76-7.563,0.356-7.563,0.356c-3.531,3.044-6.854,0.21-6.854,0.21c-3.886,2.759-6.926,0.142-6.926,0.142
			c-3.673,2.617-7.067,0.141-7.067,0.141c-3.247,2.759-6.781,0.283-6.781,0.283c-3.179,2.899-6.501,0-6.501,0
			c-3.391,3.111-6.925,0-6.925,0c-4.239,3.394-8.055,0-8.055,0c-3.887,2.828-7.772,0-7.772,0c-3.746,2.406-7.351-0.141-7.351-0.141
			c-3.744,2.474-7.065,0-7.065,0c-3.815,2.193-7.632-0.283-7.632-0.283c-4.45,2.052-7.066-0.425-7.066-0.425
			c-3.53,2.123-6.218-0.141-6.218-0.141c-3.461,2.264-6.217-0.351-6.359-0.283c-3.814,1.802-6.643-0.425-6.643-0.425
			c-3.391,1.912-6.359-0.283-6.359-0.283c-3.39,2.054-6.783-0.423-6.783-0.423c-3.604,2.123-7.349-0.426-7.349-0.426
			c-3.673,2.054-7.064-0.423-7.064-0.423c-4.452,1.63-6.783-0.565-6.783-0.565c-3.393,2.125-6.502-0.282-6.502-0.282
			c-3.814,1.983-6.925-0.564-6.925-0.564c-4.17,1.981-7.773-0.849-7.773-0.849c-3.744,2.054-7.631-0.566-7.631-0.566
			c-3.675,1.984-7.209-0.705-7.209-0.705c-4.024,1.982-7.771-0.849-7.771-0.849c-4.311,1.912-7.49-0.707-7.49-0.707
			c-3.957,1.982-7.772-0.989-7.772-0.989c-4.382,2.053-7.632-0.988-7.632-0.988c-4.238,2.406-7.915-0.848-7.915-0.848
			c-5.227,1.911-8.69-1.344-8.69-1.344c-5.653,1.559-9.327-2.331-9.327-2.331c-4.593,1.346-8.48-2.544-8.48-2.544
			c-4.31,1.841-7.631-2.12-7.631-2.12c-5.157,1.417-8.478-2.543-8.478-2.543c-4.877,0.499-6.573-3.817-6.573-3.817
			c-4.521-1.338-5.087-5.723-5.087-5.723c-4.311-2.611-2.544-7.207-2.544-7.207c-3.744-3.529-0.636-7.42-0.636-7.42
			C693.03,563.814,695.856,561.977,695.856,561.977z"/>
		<path clip-path="url(#Rice_Bun_Bottom_1_)" fill="#EFECEE" d="M1160.99,564.743c1.591,45.15-94.029,52.835-237.909,55.625
			c-50.161,0.972-93.018-4.567-127.425-7.932c-62.333-6.096-97.445-14.693-101.747-34.976c-6.678-31.478-2.27-36.995,138.671-36.995
			c60.727,0,212.873-0.71,271.178,0.111C1148.908,541.214,1160.321,545.75,1160.99,564.743z"/>
		<path id="Lower_Bottom_Shadow_2" clip-path="url(#Rice_Bun_Bottom_1_)" fill="#DDDBD9" d="M1156.531,577.454
			c1.149,3.99-1.872,5.545-1.872,5.545c-0.724,5.648-3.868,4.508-3.868,4.508c-0.76,4.768-5.052,7.867-5.052,7.867
			c-0.425,4.197-3.199,2.487-3.199,2.487c-0.546,3.73-3.885,2.565-3.885,2.565c-0.177,2.798-6.944-6.097-6.944-6.097
			c-0.034,2.747-4.751,2.644-4.751,2.644c-1.219,2.901-5.229,3.006-5.229,3.006c-1.006,3.161-4.097-1.121-4.097-1.121
			c-0.585,4.069-3.693,0.198-3.693,0.198c-1.555,3.575-5.565,2.564-5.565,2.564c-1.819,2.539-5.617,1.425-5.617,1.425
			c-1.52,3.523-5.459,2.331-5.459,2.331c-0.689,1.841-5.669,1.658-5.669,1.658c-0.407,3.214-3.976,0.883-3.976,0.883
			c-0.071,3.237-4.259,2.148-4.259,2.148c-0.722,1.658-3.941,1.594-4.256,1.451c-0.94-0.422-3.168-12.913-3.168-12.913
			c7.997,2.844,9.396-0.88,9.396-0.88c5.342,4.526,9.02-1.847,9.02-1.847c6.496,3.404,8.932-2.466,8.932-2.466
			c4.484,3.828,7.645-0.995,7.645-0.995c3.92,3.104,6.594-0.944,6.594-0.944c3.647,2.975,6.762-2.638,6.762-2.638
			c3.716,3.281,6.55-1.223,6.55-1.223c3.014,2.496,4.677-2.063,4.677-2.063c3.64,2.237,5.087-2.332,5.087-2.332
			c3.795,2.184,5.176-2.613,5.176-2.613c4.005-0.137,3.998-5.005,3.998-5.005c4.553-0.311,3.378-5.679,3.378-5.679
			c2.612-0.385,3.065-3.405,3.065-3.405C1157.84,569.234,1156.531,577.454,1156.531,577.454z M1079.266,611.155
			c-1.804,3.757-3.976,1.45-3.976,1.45c-1.096,3.239-4.258,1.322-4.258,1.322c-2.474,2.592-4.628,0.675-4.628,0.675
			c-1.643,2.667-5.069,1.319-5.069,1.319c-0.672,2.773-5.336,1.011-5.336,1.011c-1.855,2.618-4.753,0.156-4.753,0.156
			c-0.794,3.083-4.433,1.14-4.433,1.14c-1.785,2.902-4.84,0.571-4.84,0.571c-1.29,2.927-4.594,0.283-4.594,0.283
			c-0.848,2.644-3.374,0.183-3.374,0.183c-1.378,3.238-4.487,0.208-4.487,0.208c-0.919,1.864-3.355,0.336-3.355,0.336
			c-0.942-0.424-5.195-12.069-5.195-12.069c6.997,4.05,9.753-0.622,9.753-0.622c5.936,5.389,8.736-1.032,8.736-1.032
			c8.613,2.391,9.133-2.263,9.133-2.263c4.485,3.828,7.644-1.25,7.644-1.25c3.92,3.104,6.594-1.608,6.594-1.608
			c3.647,2.976,6.764-0.771,6.764-0.771c3.714,3.282,6.548-1.76,6.548-1.76 M1026.232,619.68c-1.36,2.565-3.727,0.519-3.727,0.519
			c-1.855,1.942-3.374-0.44-3.374-0.44c-0.955,2.954-3.604,1.19-3.604,1.19c-0.848,1.606-4.169,0.208-4.169,0.208
			c-0.283,2.954-5.617-0.052-5.617-0.052c-1.803,2.124-3.921,0.104-3.921,0.104c-2.367,2.28-4.665,0.362-4.665,0.362
			c-1.414,2.385-5.158,0.053-5.158,0.053c-0.93-0.472-8.178-13.24-8.178-13.24c6.5,5.595,9.451-0.846,9.451-0.846
			c4.876,5.473,8.196,0.208,8.196,0.208c5.935,5.104,9.751-0.42,9.751-0.42c3.109,5.803,9.75,0.415,9.75,0.415 M992.068,621.104
			c-0.883,3.266-5.759,0.727-5.759,0.727c-2.579,2.591-6.148-0.777-6.148-0.777c-3.32,2.436-6.217,0.051-6.217,0.051
			c-3.993,2.644-7.526-0.622-7.526-0.622c-4.027,2.695-6.677-0.155-6.677-0.155c-3.957,3.006-6.891-0.208-6.891-0.208
			c-3.285,1.971-6.323-0.207-6.323-0.207c-3.18,1.97-6.219-0.311-6.219-0.311c-1.907,2.021-6.677-0.104-6.677-0.104
			c-3.709,1.919-6.685-0.062-7.174-0.311c-0.929-0.472,0.461-9.741,0.461-9.741c6.677,5.39,9.997-0.312,9.997-0.312
			c5.959,5.796,9.859-0.536,9.859-0.536c7.127,6.457,9.221-0.155,9.221-0.155c3.604,6.217,7.843,0.312,7.843,0.312
			c3.842,3.307,7.631-0.156,7.631-0.156c2.121,4.042,6.467,0.777,6.467,0.777c3.633,3.473,5.883-1.516,5.883-1.516"/>
		<path id="Lower_Bottom_Shadow_1" clip-path="url(#Rice_Bun_Bottom_1_)" fill="#DDDBD9" d="M694.718,570.958
			c0,0,0.582,3.964,3.205,4.082c0,0-1.14,5.284,3.419,5.128c0,0,0.132,3.576,4.134,3.304c0,0,1.192,4.897,4.875,2.332
			c0,0,0.451,4.579,3.976,1.976c0,0,1.854,3.224,4.742,0.427c0,0,2.596,5.292,6.148,1.64c0,0,3.286,4.353,6.782,1.011
			c0,0,2.863,4.741,6.625,1.242c0,0,3.392,5.364,7.685,1.09c0,0,0.529,4.43,9.01,1.165c0,0,2.226,5.752,9.114,2.488
			c0,0,1.644,5.362,9.487,1.709c0,0,0.776,7.202-0.143,7.721c-0.918,0.521-9.044,7.454-8.69,3.1c0,0-4.24,2.177-6.784-1.968
			c0,0-10.528,2.176-8.549-2.385c0,0-9.328,3.317-8.197-1.141c0,0-4.239,3.731-6.43-1.139c0,0-4.17,3.316-7.139-1.451
			c0,0-3.956,3.627-6.357-1.14c0,0-2.191,4.456-5.229-0.622c0,0-3.392,2.073-4.521-1.348c0,0-2.616,2.592-4.734-1.451
			c0,0-3.108-3.514-4.312-7.763c0,0-2.825,1.14-3.885-3.835c0,0-3.109,0.415-3.676-5.389
			C695.273,579.741,694.161,575.49,694.718,570.958z M773.761,598.086c0,0,3.02,5.05,6.571,1.397c0,0,3.287,4.353,6.783,1.011
			c0,0,2.862,4.741,6.625,1.244c0,0,3.393,3.242,7.685-1.032c0,0,0.529,4.432,9.009,1.166c0,0,2.225,4.819,9.115,1.556
			c0,0,1.644,5.052,9.486,1.399c0,0-2.614,11.396-3.532,11.913c-0.92,0.52-0.972,1.165-3.04-1.244c0,0-5.368,1.244-7.913-1.348
			c0,0-9.258,1.763-8.196-1.864c0,0-9.398,3.521-8.27-0.934c0,0-5.086,3.42-7.275-1.451c0,0-4.947,2.177-7.703-0.829
			c0,0-7.349,2.073-9.752-2.692 M829.044,604.696c0,0,3.505,5.183,7.692,0.687c0,0,0.636,5.021,9.029,1.315
			c0,0,2.341,3.215,9.147-0.406c0,0,1.764,4.964,9.514,0.9c0,0-2.199,12.213-3.105,12.778c-0.905,0.566-7.802,0.888-11.194-1.209
			c0,0-1.809,3.154-4.45-0.856c0,0-3.711,2.332-5.089,0.39c0,0-6.042,1.787-11.716-2.267c0,0-4.101,4.222-6.409-0.532
			 M864.273,606.722c0,0,3.113,4.271,6.57,0.434c0,0,3.368,3.247,6.782-0.276c0,0,2.951,3.658,6.629-0.035
			c0,0,3.503,4.562,7.688,0.064c0,0,0.639,6.521,9.032,2.813c0,0,2.342,2.581,9.148-1.042c0,0,9.094,7.126,16.795,0.766
			c0,0-0.649,12.589-1.556,13.156c-4.804,2.176-10.335-0.887-10.335-0.887c-4.062,2.798-6.994-0.103-6.994-0.103
			c-5.158,2.177-5.9-0.417-5.9-0.417c-3.745,2.177-6.077,0.157-6.077,0.157c-2.897,2.02-5.617-0.416-5.617-0.416
			c-1.785,1.321-6.872,3.498-11.587-0.155c0,0-6.501,2.86-9.328,0c0,0-6.147,2.021-9.592-1.477"/>
		<path id="Shadow_1_x5F_1_1_" clip-path="url(#Rice_Bun_Bottom_1_)" fill="#DDDBD9" d="M721.18,569.499
			c0.789,0.65,6.04,0.266,6.04,0.266c-5.482-0.212-7.127-2.809-7.127-2.809S719.961,568.493,721.18,569.499z"/>
		<path id="Shadow_1_x5F_2_1_" clip-path="url(#Rice_Bun_Bottom_1_)" fill="#DDDBD9" d="M697.474,554.987
			c0,0,0.291,2.067,7.79,2.146c0,0-5.061,0.928-6.863,0.081C697.94,556.997,697.474,556.179,697.474,554.987z"/>
		<path id="Shadow_1_x5F_3_1_" clip-path="url(#Rice_Bun_Bottom_1_)" fill="#DDDBD9" d="M708.717,573.773
			c0,0,3.11,3.462,7.491,2.191c0,0,2.049,4.875,10.104,2.897c0,0-5.016,3.815-10.033-0.989
			C716.278,577.873,707.233,577.943,708.717,573.773z"/>
		<path id="Shadow_1_x5F_4_1_" clip-path="url(#Rice_Bun_Bottom_1_)" fill="#DDDBD9" d="M695.257,560.561
			c0,0,1.536,1.961,5.14,1.007c0,0,0.318,3.604,5.883,1.537c0,0,2.278,3.763,7.366,1.431c0,0-4.346,3.498-6.836,0.425
			c0,0-4.027,2.065-6.2-1.485C700.609,563.475,695.945,564.111,695.257,560.561z"/>
		<path id="Shadow_1_x5F_5_1_" clip-path="url(#Rice_Bun_Bottom_1_)" fill="#DDDBD9" d="M694.726,565.931
			c0,0,1.201,1.873,4.239,1.095c0,0,1.142,2.387,5.733,1.325c0,0-3.41,3.56-5.608,0.485
			C699.089,568.836,695.203,569.94,694.726,565.931z"/>
		<path id="Shadow_1_x5F_1_2_" clip-path="url(#Rice_Bun_Bottom_1_)" fill="#DDDBD9" d="M714.255,561.797
			c0.789,0.651,6.042,0.266,6.042,0.266c-5.485-0.212-7.128-2.809-7.128-2.809S713.035,560.79,714.255,561.797z"/>
		<path id="Shadow_3_x5F_7_1_" clip-path="url(#Rice_Bun_Bottom_1_)" fill="#DDDBD9" d="M725.058,562.776
			c0,0,4.896,2.602,9.236,0.869c0,0,5.311,2.711,10.922,0.983c0,0-3.655,4.048-9.221,0.43
			C735.995,565.059,729.18,567.433,725.058,562.776z"/>
		<path id="Shadow_4_x5F_5_1_" clip-path="url(#Rice_Bun_Bottom_1_)" fill="#DDDBD9" d="M872.059,575.146
			c0,0,4.521,3.533,10.034,0.424c0,0,4.381,3.816,10.599,0.566c0,0-4.098,6.641-9.75,1.554
			C882.941,577.689,876.156,582.353,872.059,575.146z"/>
		<path id="Shadow_2_x5F_8_1_" clip-path="url(#Rice_Bun_Bottom_1_)" fill="#DDDBD9" d="M750.901,565.153
			c0,0,2.333,3.604,6.996,1.272c0,0,2.861,2.861,6.994,0.954c0,0,3.18,3.391,7.739,1.059c0,0,3.179,3.074,7.737,0.531
			c0,0-3.394,4.875-6.997,0.847c0,0-3.814,2.969-7.842-0.953c0,0-5.195,2.544-6.996-1.06
			C758.533,567.804,753.021,570.983,750.901,565.153z"/>
		<path id="Shadow_4_x5F_2_1_" clip-path="url(#Rice_Bun_Bottom_1_)" fill="#DDDBD9" d="M839.299,573.421
			c0,0,4.381,3.25,8.903,0.565c0,0,4.098,3.814,9.187,0.281c0,0,4.521,3.675,8.762,0.424c0,0-3.251,5.937-7.773,1.415
			c0,0-5.652,4.097-9.186-0.424C849.191,575.683,843.82,579.073,839.299,573.421z"/>
		<path id="Shadow_4_x5F_3_1_" clip-path="url(#Rice_Bun_Bottom_1_)" fill="#DDDBD9" d="M811.671,571.512
			c0,0,5.088,2.544,8.903,0.143C820.574,571.654,816.476,577.307,811.671,571.512z"/>
		<path id="Shadow_3_x5F_7_2_" clip-path="url(#Rice_Bun_Bottom_1_)" fill="#DDDBD9" d="M785.038,569.601
			c0,0,5.088,2.967,9.329,0.318c0,0,5.51,3.073,11.022,0.317c0,0-3.393,5.618-9.222,1.378
			C796.168,571.614,789.49,575.323,785.038,569.601z"/>
		<path id="Shadow_4_x5F_3_2_" clip-path="url(#Rice_Bun_Bottom_1_)" fill="#DDDBD9" d="M825.45,572.783
			c0,0,5.087,2.545,8.902,0.142C834.353,572.925,830.253,578.579,825.45,572.783z"/>
		<path id="Shadow_4_x5F_3_3_" clip-path="url(#Rice_Bun_Bottom_1_)" fill="#DDDBD9" d="M897.947,576.812
			c0,0,5.088,2.545,8.903,0.141C906.851,576.952,902.752,582.606,897.947,576.812z"/>
		<path id="Shadow_4_x5F_3_4_" clip-path="url(#Rice_Bun_Bottom_1_)" fill="#DDDBD9" d="M913.634,577.235
			c0,0,5.089,2.545,8.904,0.142C922.538,577.377,918.439,583.031,913.634,577.235z"/>
		<path id="Shadow_3_x5F_7_3_" clip-path="url(#Rice_Bun_Bottom_1_)" fill="#DDDBD9" d="M927.082,577.616
			c0,0,5.296,1.639,9.237-0.875c0,0,5.722,1.669,10.911-1.077c0,0-2.833,4.66-8.977,2.146
			C938.254,577.811,932.003,581.418,927.082,577.616z"/>
		<path id="Shadow_4_x5F_2_2_" clip-path="url(#Rice_Bun_Bottom_1_)" fill="#DDDBD9" d="M952.771,575.175
			c0,0,4.679,2.804,8.917-0.313c0,0,4.453,3.394,9.17-0.622c0,0,4.859,3.213,8.76-0.439c0,0-2.651,6.227-7.596,2.171
			c0,0-5.223,4.635-9.184,0.48C962.838,576.452,957.827,580.355,952.771,575.175z"/>
		<path id="Shadow_4_x5F_3_5_" clip-path="url(#Rice_Bun_Bottom_1_)" fill="#DDDBD9" d="M984.353,574.181
			c0,0,5.263,2.156,8.888-0.526C993.24,573.654,989.578,579.601,984.353,574.181z"/>
		<path id="Shadow_4_x5F_3_6_" clip-path="url(#Rice_Bun_Bottom_1_)" fill="#DDDBD9" d="M997.707,572.909
			c0,0,5.263,2.155,8.888-0.524C1006.595,572.385,1002.933,578.328,997.707,572.909z"/>
		<path id="Shadow_3_x5F_7_4_" clip-path="url(#Rice_Bun_Bottom_1_)" fill="#DDDBD9" d="M1013.57,572.74c0,0,5.295,1.64,9.236-0.874
			c0,0,5.724,1.668,10.913-1.077c0,0-2.833,4.659-8.977,2.145C1024.743,572.934,1018.49,576.542,1013.57,572.74z"/>
		<path id="Shadow_4_x5F_5_2_" clip-path="url(#Rice_Bun_Bottom_1_)" fill="#DDDBD9" d="M1039.943,569.729
			c0,0,5.003,2.812,9.983-1.092c0,0,4.906,3.113,10.564-1.036c0,0-3.054,7.185-9.407,3.006
			C1051.084,570.606,1045.079,576.236,1039.943,569.729z"/>
		<path id="Shadow_4_x5F_2_3_" clip-path="url(#Rice_Bun_Bottom_1_)" fill="#DDDBD9" d="M1066.367,567.175
			c0,0,4.817,2.563,8.89-0.765c0,0,4.621,3.163,9.126-1.086c0,0,5.018,2.958,8.728-0.886c0,0-2.332,6.353-7.477,2.555
			c0,0-4.98,4.892-9.147,0.947C1076.486,567.94,1071.681,572.092,1066.367,567.175z"/>
		<path id="Shadow_4_x5F_3_7_" clip-path="url(#Rice_Bun_Bottom_1_)" fill="#DDDBD9" d="M1097.279,564.559
			c0,0,5.41,1.758,8.825-1.186C1106.104,563.373,1102.894,569.573,1097.279,564.559z"/>
		<path id="Shadow_4_x5F_3_8_" clip-path="url(#Rice_Bun_Bottom_1_)" fill="#DDDBD9" d="M1111.118,562.734
			c0,0,5.263,2.156,8.889-0.525C1120.007,562.209,1116.343,568.152,1111.118,562.734z"/>
		<path id="Shadow_4_x5F_3_9_" clip-path="url(#Rice_Bun_Bottom_1_)" fill="#DDDBD9" d="M1125.109,561.25
			c0,0,5.264,2.154,8.889-0.525C1133.998,560.725,1130.335,566.669,1125.109,561.25z"/>
		<path id="Shadow_3_x5F_7_5_" clip-path="url(#Rice_Bun_Bottom_1_)" fill="#DDDBD9" d="M1138.116,560.111
			c0,0,5.518,0.534,8.869-2.726c0,0,5.942,0.477,10.467-3.263c0,0-1.83,5.137-8.356,3.918
			C1149.096,558.041,1143.703,562.84,1138.116,560.111z"/>
		<path id="Shadow_4_x5F_3_10_" clip-path="url(#Rice_Bun_Bottom_1_)" fill="#DDDBD9" d="M1150.596,564.941
			c0,0,3.604,0.425,8.784-1.479C1159.138,563.945,1157.168,568.015,1150.596,564.941z"/>
		<path id="Shadow_4_x5F_3_11_" clip-path="url(#Rice_Bun_Bottom_1_)" fill="#DDDBD9" d="M1148.159,561.179
			c0,0,3.604,0.425,8.783-1.479C1156.702,560.183,1154.73,564.253,1148.159,561.179z"/>
		<path id="Shadow_4_x5F_5_3_" clip-path="url(#Rice_Bun_Bottom_1_)" fill="#DDDBD9" d="M983.555,585.839
			c0,0,5.003,2.812,9.985-1.091c0,0,4.903,3.113,10.563-1.036c0,0-3.052,7.183-9.406,3.004
			C994.696,586.716,988.691,592.348,983.555,585.839z"/>
		<path id="Shadow_4_x5F_2_4_" clip-path="url(#Rice_Bun_Bottom_1_)" fill="#DDDBD9" d="M1009.98,583.286
			c0,0,4.816,2.562,8.89-0.767c0,0,4.62,3.164,9.124-1.086c0,0,5.02,2.96,8.729-0.884c0,0-2.331,6.353-7.478,2.553
			c0,0-4.979,4.894-9.146,0.948C1020.1,584.051,1015.293,588.202,1009.98,583.286z"/>
		<path id="Shadow_4_x5F_3_13_" clip-path="url(#Rice_Bun_Bottom_1_)" fill="#DDDBD9" d="M1029.209,592.626
			c0,0,5.332,1.979,8.865-0.823C1038.074,591.803,1034.611,597.865,1029.209,592.626z"/>
		<path id="Shadow_4_x5F_3_12_" clip-path="url(#Rice_Bun_Bottom_1_)" fill="#DDDBD9" d="M1044.849,591.351
			c0,0,5.333,1.979,8.866-0.823C1053.715,590.527,1050.252,596.591,1044.849,591.351z"/>
		<path id="Shadow_3_x5F_7_6_" clip-path="url(#Rice_Bun_Bottom_1_)" fill="#DDDBD9" d="M1058.258,590.272
			c0,0,5.441,1.059,9.088-1.868c0,0,5.871,1.041,10.731-2.251c0,0-2.313,4.938-8.691,3.104
			C1069.386,589.258,1063.56,593.521,1058.258,590.272z"/>
		<path id="Shadow_4_x5F_3_15_" clip-path="url(#Rice_Bun_Bottom_1_)" fill="#DDDBD9" d="M1095.556,572.7
			c0,0,5.365,1.89,8.852-0.971C1104.407,571.729,1101.046,577.849,1095.556,572.7z"/>
		<path id="Shadow_4_x5F_3_14_" clip-path="url(#Rice_Bun_Bottom_1_)" fill="#DDDBD9" d="M1111.173,571.164
			c0,0,5.366,1.891,8.852-0.97C1120.024,570.194,1116.662,576.314,1111.173,571.164z"/>
		<path id="Shadow_3_x5F_7_7_" clip-path="url(#Rice_Bun_Bottom_1_)" fill="#DDDBD9" d="M1124.562,569.863
			c0,0,5.46,0.967,9.058-2.019c0,0,5.887,0.942,10.69-2.429c0,0-2.229,4.977-8.639,3.248
			C1135.671,568.664,1129.918,573.022,1124.562,569.863z"/>
		<path id="Shadow_4_x5F_3_17_" clip-path="url(#Rice_Bun_Bottom_1_)" fill="#DDDBD9" d="M1077.193,591.591
			c0,0,5.4,1.788,8.831-1.138C1086.024,590.453,1082.781,596.636,1077.193,591.591z"/>
		<path id="Shadow_4_x5F_3_16_" clip-path="url(#Rice_Bun_Bottom_1_)" fill="#DDDBD9" d="M1092.778,589.761
			c0,0,5.4,1.788,8.832-1.138C1101.61,588.623,1098.365,594.806,1092.778,589.761z"/>
		<path id="Shadow_3_x5F_7_8_" clip-path="url(#Rice_Bun_Bottom_1_)" fill="#DDDBD9" d="M1106.142,588.207
			c0,0,5.476,0.864,9.016-2.19c0,0,5.902,0.832,10.645-2.63c0,0-2.137,5.018-8.577,3.41
			C1117.225,586.797,1111.555,591.266,1106.142,588.207z"/>
		<path id="Shadow_4_x5F_3_19_" clip-path="url(#Rice_Bun_Bottom_1_)" fill="#DDDBD9" d="M914.675,587.071
			c0,0,5.088,2.544,8.902,0.141C923.577,587.212,919.479,592.866,914.675,587.071z"/>
		<path id="Shadow_4_x5F_3_18_" clip-path="url(#Rice_Bun_Bottom_1_)" fill="#DDDBD9" d="M930.361,587.496
			c0,0,5.088,2.543,8.902,0.142C939.264,587.638,935.166,593.29,930.361,587.496z"/>
		<path id="Shadow_3_x5F_7_9_" clip-path="url(#Rice_Bun_Bottom_1_)" fill="#DDDBD9" d="M943.809,587.875
			c0,0,5.295,1.64,9.238-0.875c0,0,5.722,1.668,10.91-1.076c0,0-2.833,4.66-8.977,2.146
			C954.98,588.069,948.729,591.678,943.809,587.875z"/>
		<path id="Shadow_1_x5F_4_2_" clip-path="url(#Rice_Bun_Bottom_1_)" fill="#DDDBD9" d="M735.647,570.632
			c0,0,1.537,1.961,5.142,1.007c0,0,0.319,3.604,5.883,1.537c0,0,2.278,3.763,7.366,1.432c0,0-4.346,3.496-6.836,0.423
			c0,0-4.028,2.067-6.2-1.483C741.002,573.547,736.337,574.184,735.647,570.632z"/>
		<path id="Shadow_1_x5F_1_3_" clip-path="url(#Rice_Bun_Bottom_1_)" fill="#DDDBD9" d="M761.527,577.696
			c0.788,0.652,6.042,0.266,6.042,0.266c-5.485-0.213-7.13-2.81-7.13-2.81S760.309,576.688,761.527,577.696z"/>
		<path id="Shadow_1_x5F_3_2_" clip-path="url(#Rice_Bun_Bottom_1_)" fill="#DDDBD9" d="M749.064,581.972
			c0,0,3.109,3.462,7.49,2.188c0,0,2.05,4.877,10.104,2.899c0,0-5.018,3.813-10.033-0.989
			C756.626,586.07,747.58,586.141,749.064,581.972z"/>
		<path id="Shadow_1_x5F_1_4_" clip-path="url(#Rice_Bun_Bottom_1_)" fill="#DDDBD9" d="M735.524,582.714
			c0.789,0.65,6.041,0.265,6.041,0.265c-5.485-0.212-7.128-2.81-7.128-2.81S734.307,581.706,735.524,582.714z"/>
		<path id="Shadow_4_x5F_3_20_" clip-path="url(#Rice_Bun_Bottom_1_)" fill="#DDDBD9" d="M798.766,591.939
			c0,0,4.856,2.962,8.86,0.887C807.626,592.826,803.069,598.116,798.766,591.939z"/>
		<path id="Shadow_3_x5F_7_10_" clip-path="url(#Rice_Bun_Bottom_1_)" fill="#DDDBD9" d="M772.389,587.806
			c0,0,4.82,3.383,9.267,1.098c0,0,5.234,3.524,10.958,1.238c0,0-3.851,5.314-9.305,0.602
			C783.309,590.743,776.343,593.881,772.389,587.806z"/>
		<path id="Shadow_1_x5F_1_5_" clip-path="url(#Rice_Bun_Bottom_1_)" fill="#DDDBD9" d="M776.013,579.958
			c0.789,0.65,6.042,0.264,6.042,0.264c-5.484-0.212-7.128-2.809-7.128-2.809S774.794,578.95,776.013,579.958z"/>
		<path id="Shadow_3_x5F_7_11_" clip-path="url(#Rice_Bun_Bottom_1_)" fill="#DDDBD9" d="M786.815,580.936
			c0,0,4.895,2.602,9.237,0.87c0,0,5.31,2.709,10.92,0.982c0,0-3.654,4.049-9.22,0.43
			C797.753,583.218,790.936,585.592,786.815,580.936z"/>
		<path id="Shadow_4_x5F_3_21_" clip-path="url(#Rice_Bun_Bottom_1_)" fill="#DDDBD9" d="M841.446,583.568
			c0,0,4.838,2.996,8.855,0.95C850.302,584.519,845.706,589.775,841.446,583.568z"/>
		<path id="Shadow_3_x5F_7_12_" clip-path="url(#Rice_Bun_Bottom_1_)" fill="#DDDBD9" d="M854.805,585.167
			c0,0,5.124,2.112,9.279-0.033c0,0,5.546,2.181,10.963-0.084c0,0-3.245,4.386-9.134,1.324
			C865.913,586.374,859.359,589.398,854.805,585.167z"/>
		<path id="Shadow_4_x5F_2_5_" clip-path="url(#Rice_Bun_Bottom_1_)" fill="#DDDBD9" d="M880.608,585.066
			c0,0,4.406,3.217,8.909,0.496c0,0,4.127,3.786,9.187,0.214c0,0,4.551,3.64,8.765,0.357c0,0-3.205,5.96-7.761,1.472
			c0,0-5.622,4.142-9.188-0.353C890.52,587.253,885.175,590.684,880.608,585.066z"/>
		<path id="Shadow_4_x5F_3_22_" clip-path="url(#Rice_Bun_Bottom_1_)" fill="#DDDBD9" d="M946.068,597.586
			c0,0,5.087,2.545,8.902,0.141C954.971,597.727,950.873,603.381,946.068,597.586z"/>
		<path id="Shadow_3_x5F_7_13_" clip-path="url(#Rice_Bun_Bottom_1_)" fill="#DDDBD9" d="M959.516,597.966
			c0,0,5.294,1.64,9.237-0.875c0,0,5.722,1.669,10.911-1.076c0,0-2.834,4.66-8.977,2.146
			C970.688,598.16,964.435,601.769,959.516,597.966z"/>
		<path id="Shadow_4_x5F_2_6_" clip-path="url(#Rice_Bun_Bottom_1_)" fill="#DDDBD9" d="M985.205,595.524
			c0,0,4.679,2.805,8.916-0.312c0,0,4.453,3.395,9.169-0.621c0,0,4.861,3.211,8.76-0.44c0,0-2.65,6.227-7.596,2.17
			c0,0-5.223,4.636-9.185,0.482C995.272,596.804,990.261,600.706,985.205,595.524z"/>
		<path id="Shadow_4_x5F_3_23_" clip-path="url(#Rice_Bun_Bottom_1_)" fill="#DDDBD9" d="M869.428,596.722
			c0,0,4.837,2.993,8.855,0.945C878.283,597.667,873.69,602.927,869.428,596.722z"/>
		<path id="Shadow_3_x5F_7_14_" clip-path="url(#Rice_Bun_Bottom_1_)" fill="#DDDBD9" d="M882.786,598.314
			c0,0,5.125,2.112,9.278-0.035c0,0,5.547,2.18,10.964-0.086c0,0-3.242,4.386-9.134,1.325
			C893.895,599.519,887.342,602.547,882.786,598.314z"/>
		<path id="Shadow_4_x5F_2_7_" clip-path="url(#Rice_Bun_Bottom_1_)" fill="#DDDBD9" d="M908.59,598.208
			c0,0,4.408,3.216,8.907,0.495c0,0,4.13,3.782,9.188,0.21c0,0,4.552,3.638,8.766,0.354c0,0-3.204,5.962-7.762,1.476
			c0,0-5.62,4.143-9.188-0.352C918.501,600.391,913.158,603.824,908.59,598.208z"/>
		<path id="Shadow_4_x5F_3_25_" clip-path="url(#Rice_Bun_Bottom_1_)" fill="#DDDBD9" d="M825.768,593.559
			c0,0,5.087,2.544,8.903,0.143C834.671,593.701,830.571,599.353,825.768,593.559z"/>
		<path id="Shadow_4_x5F_3_24_" clip-path="url(#Rice_Bun_Bottom_1_)" fill="#DDDBD9" d="M839.546,594.83
			c0,0,5.089,2.545,8.903,0.142C848.449,594.972,844.352,600.625,839.546,594.83z"/>
		<path id="Shadow_3_x5F_7_15_" clip-path="url(#Rice_Bun_Bottom_1_)" fill="#DDDBD9" d="M814.21,583.364
			c0,0,5.124,2.114,9.278-0.031c0,0,5.549,2.18,10.965-0.084c0,0-3.244,4.384-9.137,1.322
			C825.316,584.571,818.764,587.597,814.21,583.364z"/>
		<path id="Shadow_3_x5F_7_16_" clip-path="url(#Rice_Bun_Bottom_1_)" fill="#DDDBD9" d="M1057.345,579.311
			c0,0,5.296,1.64,9.237-0.873c0,0,5.724,1.669,10.911-1.077c0,0-2.832,4.66-8.977,2.146
			C1068.517,579.506,1062.266,583.113,1057.345,579.311z"/>
		<path id="Shadow_4_x5F_3_26_" clip-path="url(#Rice_Bun_Bottom_1_)" fill="#DDDBD9" d="M1090.124,581.628
			c0,0,5.399,1.788,8.832-1.137C1098.956,580.491,1095.71,586.674,1090.124,581.628z"/>
		<path id="Shadow_3_x5F_7_17_" clip-path="url(#Rice_Bun_Bottom_1_)" fill="#DDDBD9" d="M1122.676,578.456
			c0,0,5.475,0.863,9.017-2.189c0,0,5.903,0.83,10.645-2.631c0,0-2.136,5.018-8.576,3.41
			C1133.761,577.046,1128.091,581.513,1122.676,578.456z"/>
	</g>
	<g id="Rice_Bun_Top_1_">
		<g id="Rice_Bun_Top_Clip_Path">
			<g id="Clipping_Path_Top">
				<defs>
					<path id="SVGID_13_" d="M1106.045,401.715c0,0-0.282-2.403-7.207-1.837c0,0,0.017-1.749-6.078-1.979
						c0,0-2.007-1.787-6.924-1.696c0,0,0.392-2.234-7.065-1.838c0,0-0.566-1.907-6.643-1.554c0,0-2.261-2.403-6.077-1.555
						c0,0-3.815-2.261-7.367-1.325c0,0-4.081-2.208-7.451-1.341c0,0-4.119-1.715-7.551-1.359c0,0-4.482-2.052-7.451-1.34
						c0,0-4.805-2.124-7.771-1.419c0,0-3.816-2.119-7.765-1.322c0,0-4.249-1.928-7.992-1.362c0,0-4.169-1.979-8.268-1.13
						c0,0-4.1-1.837-7.35-0.708c0,0-4.946-1.978-8.782-0.959c0,0-4.432-1.512-7.894-0.877c0,0-4.24-2.261-8.339-0.707
						c0,0-5.652-2.119-9.477-0.388c0,0-4.796-1.449-7.763-0.319c0,0-5.371-1.979-9.047-0.707c0,0-4.239-1.695-7.63-0.423
						c0,0-5.23-1.272-8.056,0.127c0,0-4.664-1.399-8.479-0.127c0,0-6.359-0.99-9.468,0.423c0,0-6.079-0.989-9.187,0.282
						c0,0-4.806-1.555-8.62,0.283c0,0-4.382-1.554-6.926-0.071c0,0-4.664-0.777-8.691,0.848c0,0-4.876-0.918-7.419,0.636
						c0,0-4.805-1.13-8.197,0.565c0,0-4.592-1.413-8.268,1.13c0,0-4.098-1.695-8.549,0.991c0,0-3.498-1.731-7.949,0.548
						c0,0-4.559-1.485-8.59,1.132c0,0-4.554-1.77-8.687,1.146c0,0-5.301-1.643-8.375,1.749c0,0-4.98-1.908-9.434,1.643
						c0,0-5.616-1.377-8.901,2.014c0,0-4.665-1.855-8.64,2.067c0,0-5.458-1.378-8.903,2.226c0,0-4.876-1.59-8.745,2.491
						c0,0-5.457-0.743-8.478,2.437c0,0-5.301-1.112-8.269,2.121c0,0-4.874-0.794-7.949,2.12c0,0-4.187-1.061-8.638,2.49
						c0,0-5.142-0.795-8.002,2.65c0,0-4.558-1.167-7.474,2.702c0,0-5.299,0.053-7.365,3.552c0,0-4.293-1.537-5.937,3.232
						c0,0-3.319-0.283-3.319,3.32c0,0-3.534-1.201-3.323,2.331c0,0-3.744-1.359-3.374,3.409c0,0-3.445,0.266-1.272,4.134
						c-2.755,1.697,0.16,3.604,0.16,3.604s-2.915,0.901-0.531,3.551c0,0-3.284,1.537-1.271,4.929c0,0-3.021,2.65,0.425,4.981
						c0,0-2.916,3.232,0.846,5.723c0,0-2.56,3.197,0.354,6.06c0,0-1.484,3.461,2.473,5.511c0,0-0.211,3.394,3.675,3.604
						c0,0,0.601,3.146,3.816,2.544c0,0,0.671,3.039,4.239,2.403c0,0,1.555,2.827,4.593,0.988c0,0,1.308,2.191,4.629,0.884
						c0,0,2.058,3.127,5.344,0.584c0,0,2.146,3.151,6.227,0.662c0,0,2.783,3.472,7.182,0.714c0,0,1.167,2.704,6.703,1.061
						c0,0-0.83,3.375,7.95,1.033c0,0-0.344,2.491,8.188,1.405c0,0,1.96,2.704,7.154,1.51c0,0-1.298,3.022,8.558,0.77
						c0,0,2.307,3.498,9.382,1.351c0,0,0.636,2.94,7.762,0.796c0,0,2.467,3.021,7.209,0.953c0,0,0.98,2.905,8.295,0.742
						c0,0,2.914,2.464,8.267,1.166c0,0,4.292,2.464,7.711,0.821c0,0,2.48,2.331,6.509,0.53c0,0,3.109,1.678,5.564,0.529
						c0,0,3.357,2.722,5.954,0.478c0,0,1.678,1.749,5.104,0.529c0,0,2.314,1.678,4.682,0.194c0,0,1.643,1.767,4.77,0.177
						c0,0,2.191,1.307,4.911,0.247c0,0,0.759,1.731,5.229,0.531c0,0,2.297,1.307,4.945,0.353c0,0,0.706,1.803,5.142-0.089
						c0,0,1.554,1.379,4.381,0.195c0,0,2.402,1.837,5.883,0.389c0,0-0.389,2.119,4.963-0.089c0,0,2.58,1.854,5.548,0.37
						c0,0,2.951,1.484,6.183-0.211c0,0,0.548,2.048,5.883,0.389c0,0,2.668,2.083,6.924,0.07c0,0,3.241,2.084,7.809,0.264
						c0,0,3.198,1.741,7.065,0.151c0,0,3.976,1.617,6.73,0.212c0,0,3.233,1.457,6.255,0.133c0,0,3.657,1.617,6.253,0.106
						c0,0,2.624,2.12,6.915,0.159c0,0,3.154,2.173,6.679,0.079c0,0,3.524,2.411,7.445,0.477c0,0,3.736,1.643,6.254-0.053
						c0,0,4.115,2.321,6.094,0.609c0,0,4.24,1.563,5.724-0.265c0,0,4.106,1.774,5.088,0c0,0,2.544,1.378,4.771-0.239
						c0,0,2.41,1.59,3.841-0.053c0,0,6.085,2.244,5.45-0.063c0,0,3.532,1.202,4.38-0.07c0,0,2.518,1.466,3.656-0.732
						c0,0,1.573,1.722,3.34,0.309c0,0,2.191,1.272,3.674-0.282c0,0,2.704,1.219,3.339-0.265c0,0,3.234,2.242,4.504-0.088
						c0,0,2.687,1.765,3.356-0.16c0,0,3.428,1.925,4.559-0.193c0,0,3.533,1.693,4.875-0.425c0,0,3.745,1.554,4.381-0.707
						c0,0,3.321,1.836,4.806-0.141c0,0,4.593,1.343,5.3-0.636c0,0,3.604,0.936,5.141-0.918c0,0,2.508,1.412,4.469-0.496
						c0,0,3.746,1.484,4.274-0.988c0,0,2.226,1.765,3.817-0.69c0,0,4.187,0.372,4.346-1.007c0,0,4.381,0.918,4.237-1.43
						c0,0,3.535,1.783,4.028-0.53c0,0,5.3,0.158,5.688-1.22c0,0,3.745,1.096,5.44-1.518c0,0,3.924,0.812,5.618-0.99
						c0,0,4.382,0.671,5.547-1.73c0,0,3.286,1.412,3.71-1.343c0,0,3.181,1.272,4.099-0.883c0,0,4.169-0.144,5.228-2.05
						c0,0,5.16-0.106,4.735-1.768c0,0,4.946,0.143,4.804-1.695c0,0,3.781,0.601,3.888-1.731c0,0,2.897,1.202,3.216-1.695
						c0,0,4.486,0.811,5.051-2.509c0,0,3.074,0.954,3.887-3.003c0,0,2.898-0.92,1.838-3.781c0,0,3.18-1.059,0.776-3.991
						c0,0,2.722-2.157,0.39-4.274c0,0,2.861-1.591,0.954-4.241c0,0,2.544-2.119,0.212-4.452c0,0,1.482-2.544-1.484-3.921
						c0,0,2.438-2.119-0.21-3.498c0,0,2.86-2.014-0.319-3.921c0,0,1.908-2.438-0.848-4.134c0,0,1.695-1.166-0.743-3.499
						c0,0,0.954-2.648-2.119-3.709c0,0,1.59-2.545-1.802-3.392c0,0,0.529-2.65-2.756-2.65c0,0-1.272-2.86-3.498-1.483
						c0,0-0.954-2.543-4.451-1.377c0,0-1.591-2.969-5.157-1.096c0,0-0.991-3.462-5.867-2.402c0,0-2.296-1.837-6.5-1.412
						c0,0,0.884-1.908-6.643-1.696C1112.121,404.117,1112.015,403.057,1106.045,401.715z"/>
				</defs>
				<clipPath id="SVGID_2_">
					<use xlink:href="#SVGID_13_"  overflow="visible"/>
				</clipPath>
				<path id="Rice_Bun_Top_Base" clip-path="url(#SVGID_2_)" fill="#EFECEE" d="M1106.045,401.715c0,0-0.282-2.403-7.207-1.837
					c0,0,0.017-1.749-6.078-1.979c0,0-2.007-1.787-6.924-1.696c0,0,0.392-2.234-7.065-1.838c0,0-0.566-1.907-6.643-1.554
					c0,0-2.261-2.403-6.077-1.555c0,0-3.815-2.261-7.367-1.325c0,0-4.081-2.208-7.451-1.341c0,0-4.119-1.715-7.551-1.359
					c0,0-4.482-2.052-7.451-1.34c0,0-4.805-2.124-7.771-1.419c0,0-3.816-2.119-7.765-1.322c0,0-4.249-1.928-7.992-1.362
					c0,0-4.169-1.979-8.268-1.13c0,0-4.1-1.837-7.35-0.708c0,0-4.946-1.978-8.782-0.959c0,0-4.432-1.512-7.894-0.877
					c0,0-4.24-2.261-8.339-0.707c0,0-5.652-2.119-9.477-0.388c0,0-4.796-1.449-7.763-0.319c0,0-5.371-1.979-9.047-0.707
					c0,0-4.239-1.695-7.63-0.423c0,0-5.23-1.272-8.056,0.127c0,0-4.664-1.399-8.479-0.127c0,0-6.359-0.99-9.468,0.423
					c0,0-6.079-0.989-9.187,0.282c0,0-4.806-1.555-8.62,0.283c0,0-4.382-1.554-6.926-0.071c0,0-4.664-0.777-8.691,0.848
					c0,0-4.876-0.918-7.419,0.636c0,0-4.805-1.13-8.197,0.565c0,0-4.592-1.413-8.268,1.13c0,0-4.098-1.695-8.549,0.991
					c0,0-3.498-1.731-7.949,0.548c0,0-4.559-1.485-8.59,1.132c0,0-4.554-1.77-8.687,1.146c0,0-5.301-1.643-8.375,1.749
					c0,0-4.98-1.908-9.434,1.643c0,0-5.616-1.377-8.901,2.014c0,0-4.665-1.855-8.64,2.067c0,0-5.458-1.378-8.903,2.226
					c0,0-4.876-1.59-8.745,2.491c0,0-5.457-0.743-8.478,2.437c0,0-5.301-1.112-8.269,2.121c0,0-4.874-0.794-7.949,2.12
					c0,0-4.187-1.061-8.638,2.49c0,0-5.142-0.795-8.002,2.65c0,0-4.558-1.167-7.474,2.702c0,0-5.299,0.053-7.365,3.552
					c0,0-4.293-1.537-5.937,3.232c0,0-3.319-0.283-3.319,3.32c0,0-3.534-1.201-3.323,2.331c0,0-3.744-1.359-3.374,3.409
					c0,0-3.445,0.266-1.272,4.134c-2.755,1.697,0.16,3.604,0.16,3.604s-2.915,0.901-0.531,3.551c0,0-3.284,1.537-1.271,4.929
					c0,0-3.021,2.65,0.425,4.981c0,0-2.916,3.232,0.846,5.723c0,0-2.56,3.197,0.354,6.06c0,0-1.484,3.461,2.473,5.511
					c0,0-0.211,3.394,3.675,3.604c0,0,0.601,3.146,3.816,2.544c0,0,0.671,3.039,4.239,2.403c0,0,1.555,2.827,4.593,0.988
					c0,0,1.308,2.191,4.629,0.884c0,0,2.058,3.127,5.344,0.584c0,0,2.146,3.151,6.227,0.662c0,0,2.783,3.472,7.182,0.714
					c0,0,1.167,2.704,6.703,1.061c0,0-0.83,3.375,7.95,1.033c0,0-0.344,2.491,8.188,1.405c0,0,1.96,2.704,7.154,1.51
					c0,0-1.298,3.022,8.558,0.77c0,0,2.307,3.498,9.382,1.351c0,0,0.636,2.94,7.762,0.796c0,0,2.467,3.021,7.209,0.953
					c0,0,0.98,2.905,8.295,0.742c0,0,2.914,2.464,8.267,1.166c0,0,4.292,2.464,7.711,0.821c0,0,2.48,2.331,6.509,0.53
					c0,0,3.109,1.678,5.564,0.529c0,0,3.357,2.722,5.954,0.478c0,0,1.678,1.749,5.104,0.529c0,0,2.314,1.678,4.682,0.194
					c0,0,1.643,1.767,4.77,0.177c0,0,2.191,1.307,4.911,0.247c0,0,0.759,1.731,5.229,0.531c0,0,2.297,1.307,4.945,0.353
					c0,0,0.706,1.803,5.142-0.089c0,0,1.554,1.379,4.381,0.195c0,0,2.402,1.837,5.883,0.389c0,0-0.389,2.119,4.963-0.089
					c0,0,2.58,1.854,5.548,0.37c0,0,2.951,1.484,6.183-0.211c0,0,0.548,2.048,5.883,0.389c0,0,2.668,2.083,6.924,0.07
					c0,0,3.241,2.084,7.809,0.264c0,0,3.198,1.741,7.065,0.151c0,0,3.976,1.617,6.73,0.212c0,0,3.233,1.457,6.255,0.133
					c0,0,3.657,1.617,6.253,0.106c0,0,2.624,2.12,6.915,0.159c0,0,3.154,2.173,6.679,0.079c0,0,3.524,2.411,7.445,0.477
					c0,0,3.736,1.643,6.254-0.053c0,0,4.115,2.321,6.094,0.609c0,0,4.24,1.563,5.724-0.265c0,0,4.106,1.774,5.088,0
					c0,0,2.544,1.378,4.771-0.239c0,0,2.41,1.59,3.841-0.053c0,0,6.085,2.244,5.45-0.063c0,0,3.532,1.202,4.38-0.07
					c0,0,2.518,1.466,3.656-0.732c0,0,1.573,1.722,3.34,0.309c0,0,2.191,1.272,3.674-0.282c0,0,2.704,1.219,3.339-0.265
					c0,0,3.234,2.242,4.504-0.088c0,0,2.687,1.765,3.356-0.16c0,0,3.428,1.925,4.559-0.193c0,0,3.533,1.693,4.875-0.425
					c0,0,3.745,1.554,4.381-0.707c0,0,3.321,1.836,4.806-0.141c0,0,4.593,1.343,5.3-0.636c0,0,3.604,0.936,5.141-0.918
					c0,0,2.508,1.412,4.469-0.496c0,0,3.746,1.484,4.274-0.988c0,0,2.226,1.765,3.817-0.69c0,0,4.187,0.372,4.346-1.007
					c0,0,4.381,0.918,4.237-1.43c0,0,3.535,1.783,4.028-0.53c0,0,5.3,0.158,5.688-1.22c0,0,3.745,1.096,5.44-1.518
					c0,0,3.924,0.812,5.618-0.99c0,0,4.382,0.671,5.547-1.73c0,0,3.286,1.412,3.71-1.343c0,0,3.181,1.272,4.099-0.883
					c0,0,4.169-0.144,5.228-2.05c0,0,5.16-0.106,4.735-1.768c0,0,4.946,0.143,4.804-1.695c0,0,3.781,0.601,3.888-1.731
					c0,0,2.897,1.202,3.216-1.695c0,0,4.486,0.811,5.051-2.509c0,0,3.074,0.954,3.887-3.003c0,0,2.898-0.92,1.838-3.781
					c0,0,3.18-1.059,0.776-3.991c0,0,2.722-2.157,0.39-4.274c0,0,2.861-1.591,0.954-4.241c0,0,2.544-2.119,0.212-4.452
					c0,0,1.482-2.544-1.484-3.921c0,0,2.438-2.119-0.21-3.498c0,0,2.86-2.014-0.319-3.921c0,0,1.908-2.438-0.848-4.134
					c0,0,1.695-1.166-0.743-3.499c0,0,0.954-2.648-2.119-3.709c0,0,1.59-2.545-1.802-3.392c0,0,0.529-2.65-2.756-2.65
					c0,0-1.272-2.86-3.498-1.483c0,0-0.954-2.543-4.451-1.377c0,0-1.591-2.969-5.157-1.096c0,0-0.991-3.462-5.867-2.402
					c0,0-2.296-1.837-6.5-1.412c0,0,0.884-1.908-6.643-1.696C1112.121,404.117,1112.015,403.057,1106.045,401.715z"/>
				<path id="Bottom_Shadow_2" clip-path="url(#SVGID_2_)" fill="#DDDBD9" d="M1152.293,459.338c1.147,2.722-1.873,3.78-1.873,3.78
					c-0.725,3.852-3.869,3.074-3.869,3.074c-0.758,3.251-5.052,2.474-5.052,2.474c-0.424,2.862-3.197,1.696-3.197,1.696
					c-0.547,2.542-3.888,1.749-3.888,1.749c-0.176,1.907-4.821,1.624-4.821,1.624c-0.035,1.872-4.752,1.804-4.752,1.804
					c-1.219,1.977-5.229,2.047-5.229,2.047c-1.007,2.156-4.08,0.902-4.08,0.902c-0.583,2.773-3.71,1.359-3.71,1.359
					c-1.555,2.438-5.564,1.749-5.564,1.749c-1.82,1.731-5.618,0.973-5.618,0.973c-1.518,2.401-5.458,1.589-5.458,1.589
					c-0.689,1.255-5.672,1.13-5.672,1.13c-0.404,2.19-3.973,0.602-3.973,0.602c-0.072,2.208-4.259,1.466-4.259,1.466
					c-0.725,1.131-3.941,1.086-4.257,0.99c-0.941-0.288-3.168-5.913-3.168-5.913c7.997,1.938,9.396-1.613,9.396-1.613
					c7.029,1.74,9.021-1.693,9.021-1.693c8.613,1.63,8.932-2.69,8.932-2.69c4.486,2.607,7.644-2.124,7.644-2.124
					c3.921,2.114,6.594-1.946,6.594-1.946c3.649,2.028,6.763-1.799,6.763-1.799c3.717,2.237,6.551-1.41,6.551-1.41
					c3.014,1.701,4.676-1.408,4.676-1.408c3.64,1.526,5.087-1.591,5.087-1.591c3.796,1.49,4.753-1.925,4.753-1.925
					c4.004-0.094,3.998-2.111,3.998-2.111c4.553-0.214,3.165-3.729,3.165-3.729c2.611-0.262,3.066-2.321,3.066-2.321
					C1155.084,457.926,1152.293,459.338,1152.293,459.338z M1077.145,488.098c-1.802,2.561-3.976,0.989-3.976,0.989
					c-1.095,2.209-4.257,0.902-4.257,0.902c-2.474,1.766-4.629,0.457-4.629,0.457c-1.643,1.82-5.069,0.902-5.069,0.902
					c-0.671,1.891-5.334,0.688-5.334,0.688c-1.855,1.785-4.753,0.106-4.753,0.106c-0.795,2.102-4.433,0.776-4.433,0.776
					c-1.785,1.979-4.841,0.39-4.841,0.39c-1.29,1.996-4.594,0.195-4.594,0.195c-0.847,1.801-3.374,0.121-3.374,0.121
					c-1.377,2.209-4.486,0.143-4.486,0.143c-0.92,1.271-3.357,0.229-3.357,0.229c-0.94-0.289-5.193-6.572-5.193-6.572
					c5.511,4.382,9.752-0.634,9.752-0.634c5.936,3.673,8.736-0.705,8.736-0.705c8.613,1.629,9.134-0.098,9.134-0.098
					c4.483,2.61,7.642-0.853,7.642-0.853c3.921,2.118,6.594-1.097,6.594-1.097c3.648,2.029,6.765-0.525,6.765-0.525
					c3.715,2.236,6.548-1.2,6.548-1.2 M1024.113,493.909c-1.359,1.75-3.728,0.354-3.728,0.354c-1.855,1.325-3.375-0.301-3.375-0.301
					c-0.953,2.016-3.604,0.813-3.604,0.813c-0.846,1.096-4.169,0.142-4.169,0.142c-0.28,2.015-5.616-0.036-5.616-0.036
					c-1.801,1.449-3.921,0.07-3.921,0.07c-2.368,1.556-4.664,0.248-4.664,0.248c-1.413,1.626-5.159,0.035-5.159,0.035
					c-0.931-0.322-8.178-8.595-8.178-8.595c6.501,3.816,9.451,0.292,9.451,0.292c4.876,3.732,8.196,0.141,8.196,0.141
					c4.664,5.089,9.751-0.141,9.751-0.141c3.109,3.957,9.751,0.283,9.751,0.283 M989.947,494.881
					c-0.881,2.226-5.758,0.495-5.758,0.495c-2.579,1.766-6.146-0.531-6.146-0.531c-3.323,1.662-6.219,0.036-6.219,0.036
					c-3.994,1.804-7.525-0.424-7.525-0.424c-4.028,1.838-6.678-0.106-6.678-0.106c-3.956,2.05-6.89-0.141-6.89-0.141
					c-3.284,1.343-6.324-0.142-6.324-0.142c-3.18,1.344-6.219-0.213-6.219-0.213c-1.907,1.379-6.677-0.07-6.677-0.07
					c-3.71,1.309-6.684-0.042-7.173-0.21c-0.93-0.322,0.46-6.644,0.46-6.644c6.677,3.674,9.998-0.213,9.998-0.213
					c5.957,3.952,9.857,0.213,9.857,0.213c7.129,4.403,9.222-0.106,9.222-0.106c3.604,4.241,7.843,0.212,7.843,0.212
					c3.843,2.256,7.632-0.105,7.632-0.105c2.119,2.756,6.465,0.528,6.465,0.528c3.634,2.371,5.884-1.032,5.884-1.032"/>
				<path id="Bottom_Shadow_1_1_" clip-path="url(#SVGID_2_)" fill="#DDDBD9" d="M694.382,460.274c0,0,0.583,2.703,3.206,2.783
					c0,0-1.139,3.604,3.419,3.497c0,0,0.132,2.438,4.133,2.253c0,0,1.192,3.338,4.875,1.589c0,0,1.936,2.544,5.459,0.769
					c0,0,1.854,2.2,4.744,0.292c0,0,3.021,2.597,6.57,0.105c0,0,3.286,2.969,6.783,0.688c0,0,2.863,3.234,6.624,0.849
					c0,0,3.394,3.656,7.685,0.742c0,0,0.53,3.02,9.011,0.796c0,0,2.225,3.921,9.115,1.694c0,0,1.642,3.656,9.485,1.167
					c0,0,0.778,4.91-0.141,5.264c-0.918,0.354-9.047,2.189-8.692-0.777c0,0-4.239,1.483-6.784-1.343c0,0-10.527,1.484-8.549-1.625
					c0,0-9.326,2.261-8.197-0.777c0,0-4.239,2.544-6.429-0.777c0,0-4.169,2.261-7.138-0.989c0,0-3.957,2.474-6.358-0.776
					c0,0-2.191,3.038-5.229-0.425c0,0-3.392,1.413-4.522-0.918c0,0-2.613,1.766-4.734-0.989c0,0-3.109,0.494-4.311-2.403
					c0,0-2.826,0.777-3.886-2.614c0,0-3.109,0.282-3.674-3.674C696.845,464.674,693.825,463.366,694.382,460.274z M775.333,477.18
					c0,0,3.021,3.445,6.571,0.954c0,0,3.286,2.968,6.783,0.69c0,0,2.86,3.232,6.624,0.846c0,0,3.392,3.658,7.686,0.744
					c0,0,0.529,3.021,9.008,0.794c0,0,2.228,3.286,9.116,1.061c0,0,1.644,3.443,9.486,0.953c0,0-2.615,6.325-3.534,6.679
					c-0.917,0.353-0.97,0.794-3.037-0.848c0,0-5.369,0.848-7.915-0.919c0,0-9.255,1.2-8.195-1.273c0,0-9.397,2.403-8.269-0.636
					c0,0-5.087,2.333-7.278-0.989c0,0-4.945,1.484-7.701-0.564c0,0-7.349,1.414-9.751-1.837 M830.617,483.134
					c0,0,3.504,3.533,7.69,0.468c0,0,0.636,3.423,9.031,0.896c0,0,2.342,3.204,9.147,0.735c0,0,1.764,3.384,9.514,0.614
					c0,0-2.2,5.87-3.106,6.256c-0.904,0.384-7.802,0.604-11.195-0.826c0,0-1.809,2.151-4.451-0.583c0,0-3.709,1.59-5.086,0.266
					c0,0-6.042,1.218-11.719-1.546c0,0-4.1,2.878-6.406-0.361 M865.845,485.961c0,0,3.113,2.91,6.572,0.296
					c0,0,3.367,2.213,6.782-0.189c0,0,2.95,2.494,6.628-0.023c0,0,3.504,3.109,7.689,0.043c0,0,0.636,3,9.031,0.473
					c0,0,2.343,3.206,9.147,0.736c0,0,5.421,3.999,13.121-0.337c0,0,0.395,6.37-0.513,6.756c-4.806,1.484-7.702-0.423-7.702-0.423
					c-4.063,1.907-6.996-0.07-6.996-0.07c-5.157,1.483-5.899-0.283-5.899-0.283c-3.746,1.484-6.077,0.105-6.077,0.105
					c-2.897,1.379-5.617-0.282-5.617-0.282c-1.784,0.9-6.873,2.385-11.587-0.106c0,0-6.501,1.949-9.328,0
					c0,0-6.148,1.378-9.593-1.007"/>
				<path id="Shadow_1_x5F_1" clip-path="url(#SVGID_2_)" fill="#DDDBD9" d="M694.541,433.619c0.788,0.65,6.041,0.265,6.041,0.265
					c-5.483-0.212-7.127-2.809-7.127-2.809S693.321,432.611,694.541,433.619z"/>
				<path id="Shadow_1_x5F_2" clip-path="url(#SVGID_2_)" fill="#DDDBD9" d="M693.374,435.075c0,0,0.291,2.066,7.791,2.146
					c0,0-5.062,0.928-6.864,0.08C693.843,437.085,693.374,436.269,693.374,435.075z"/>
				<path id="Shadow_1_x5F_3" clip-path="url(#SVGID_2_)" fill="#DDDBD9" d="M692.395,439.589c0,0,3.109,3.463,7.49,2.19
					c0,0,2.049,4.876,10.104,2.897c0,0-5.017,3.816-10.033-0.989C699.956,443.688,690.91,443.758,692.395,439.589z"/>
				<path id="Shadow_1_x5F_4" clip-path="url(#SVGID_2_)" fill="#DDDBD9" d="M691.864,444.96c0,0,1.537,1.961,5.142,1.006
					c0,0,0.316,3.604,5.883,1.536c0,0,2.277,3.765,7.366,1.431c0,0-4.347,3.499-6.837,0.425c0,0-4.028,2.067-6.2-1.482
					C697.218,447.875,692.554,448.511,691.864,444.96z"/>
				<path id="Shadow_1_x5F_5" clip-path="url(#SVGID_2_)" fill="#DDDBD9" d="M692.395,450.117c0,0,1.201,1.872,4.239,1.096
					c0,0,1.139,2.385,5.73,1.324c0,0-3.407,3.56-5.605,0.486C696.759,453.023,692.871,454.127,692.395,450.117z"/>
				<path id="Shadow_1_x5F_6" clip-path="url(#SVGID_2_)" fill="#DDDBD9" d="M693.525,454.411c0,0-0.69,4.344,3.673,3.126
					c0,0,1.061,2.384,3.533,1.59c0,0,1.254,2.119,4.188,0.864c0,0-3.18,2.721-4.116,0.442c0,0-3.251,1.06-3.568-1.396
					C697.234,459.038,691.953,460.54,693.525,454.411z"/>
				<path id="Shadow_2_x5F_1" clip-path="url(#SVGID_2_)" fill="#DDDBD9" d="M721.365,466.299c0,0,4.027,1.696,7.348-0.142
					C728.713,466.157,724.476,470.892,721.365,466.299z"/>
				<path id="Shadow_2_x5F_2" clip-path="url(#SVGID_2_)" fill="#DDDBD9" d="M706.386,464.037c0,0,1.271,3.181,4.452,1.908
					c0,0,1.589,2.438,5.51,0.954c0,0-3.392,3.18-5.51,0.601C710.838,467.5,707.551,468.383,706.386,464.037z"/>
				<path id="Shadow_2_x5F_3" clip-path="url(#SVGID_2_)" fill="#DDDBD9" d="M708.294,456.618c0,0,2.861,3.18,6.677,1.272
					c0,0,2.544,2.967,6.254,0.953c0,0,2.967,3.073,7.208,0.424c0,0,3.496,2.649,6.995,0.318c0,0-3.605,4.026-6.254,0.954
					c0,0-4.876,3.497-7.101-0.318c0,0-4.24,2.543-6.467-0.318C715.606,459.903,712.11,462.341,708.294,456.618z"/>
				<path id="Shadow_2_x5F_4" clip-path="url(#SVGID_2_)" fill="#DDDBD9" d="M717.938,445.17c0,0,2.967,3.462,8.056,1.061
					c0,0,5.652,3.321,9.75,0.211c0,0,5.724,3.394,10.247,0.709c0,0-5.158,4.274-8.904,0.848c0,0-5.263,3.955-9.963-0.354
					C727.124,447.643,723.097,451.885,717.938,445.17z"/>
				<path id="Shadow_2_x5F_5" clip-path="url(#SVGID_2_)" fill="#DDDBD9" d="M730.764,453.438c0,0,4.239,3.18,8.903,0.425
					c0,0,4.663,3.814,10.388,0.635c0,0-3.604,6.253-9.116,0.848C740.938,455.346,737.229,459.268,730.764,453.438z"/>
				<path id="Shadow_2_x5F_6" clip-path="url(#SVGID_2_)" fill="#DDDBD9" d="M733.52,467.357c0,0,4.381,2.263,8.762-0.14
					c0,0,3.18,2.685,7.561,0.848c0,0-2.686,4.099-6.995,0.637C742.847,468.702,738.749,471.739,733.52,467.357z"/>
				<path id="Shadow_2_x5F_7" clip-path="url(#SVGID_2_)" fill="#DDDBD9" d="M714.018,451.425c0,0,3.391,3.073,7.631,0.741
					C721.648,452.166,716.878,457.784,714.018,451.425z"/>
				<path id="Shadow_2_x5F_8" clip-path="url(#SVGID_2_)" fill="#DDDBD9" d="M708.188,435.737c0,0,2.331,3.604,6.996,1.272
					c0,0,2.862,2.86,6.995,0.953c0,0,3.178,3.393,7.736,1.061c0,0,3.181,3.074,7.738,0.53c0,0-3.393,4.875-6.996,0.848
					c0,0-3.817,2.968-7.844-0.953c0,0-5.192,2.543-6.995-1.061C715.818,438.388,710.307,441.567,708.188,435.737z"/>
				<path id="Shadow_3_x5F_1" clip-path="url(#SVGID_2_)" fill="#DDDBD9" d="M756.52,469.125c0,0,7.103,2.861,10.917,0.742
					c0,0,6.358,2.863,10.704,0.953c0,0,6.255,2.756,10.177,0.637c0,0,5.511,3.498,10.704,1.167c0,0-5.617,4.769-9.645,0.528
					c0,0-5.829,3.074-9.751-0.637c0,0-6.359,2.757-11.13-1.377C768.496,471.139,762.35,474.955,756.52,469.125z"/>
				<path id="Shadow_3_x5F_2" clip-path="url(#SVGID_2_)" fill="#DDDBD9" d="M744.048,460.576c0,0,5.159,3.18,10.812,0.495
					C754.859,461.071,749.771,467.712,744.048,460.576z"/>
				<path id="Shadow_3_x5F_3" clip-path="url(#SVGID_2_)" fill="#DDDBD9" d="M763.762,461.353c0,0,4.099,3.675,9.468,0.566
					c0,0,4.1,3.25,9.046,0.281c0,0-3.815,5.088-7.913,1.413C774.362,463.613,767.86,467.854,763.762,461.353z"/>
				<path id="Shadow_3_x5F_4" clip-path="url(#SVGID_2_)" fill="#DDDBD9" d="M756.131,454.923c0,0,5.229,3.25,10.173,0.565
					C766.304,455.488,761.218,461.989,756.131,454.923z"/>
				<path id="Shadow_3_x5F_5" clip-path="url(#SVGID_2_)" fill="#DDDBD9" d="M750.796,447.502c0,0,4.663,3.287,9.644,0.319
					c0,0,5.831,3.392,10.176,0.529c0,0,5.194,3.074,10.494,0.637c0,0-3.815,5.404-9.327,0.953c0,0-5.725,4.347-10.176-0.636
					C761.606,449.305,754.929,454.181,750.796,447.502z"/>
				<path id="Shadow_3_x5F_6" clip-path="url(#SVGID_2_)" fill="#DDDBD9" d="M745.072,439.87c0,0,4.77,3.499,10.176,0.426
					C755.248,440.296,750.16,447.079,745.072,439.87z"/>
				<path id="Shadow_3_x5F_7" clip-path="url(#SVGID_2_)" fill="#DDDBD9" d="M764.257,440.933c0,0,5.087,2.968,9.327,0.316
					c0,0,5.512,3.073,11.023,0.318c0,0-3.392,5.617-9.223,1.378C775.385,442.945,768.708,446.655,764.257,440.933z"/>
				<path id="Shadow_4_x5F_1" clip-path="url(#SVGID_2_)" fill="#DDDBD9" d="M807.714,473.505c0,0,5.652,3.251,9.609,0.565
					c0,0,4.522,2.969,9.609,0.566c0,0-3.25,5.793-8.338,1.554C818.595,476.19,812.234,479.865,807.714,473.505z"/>
				<path id="Shadow_4_x5F_2" clip-path="url(#SVGID_2_)" fill="#DDDBD9" d="M790.331,462.341c0,0,4.379,3.25,8.902,0.566
					c0,0,4.1,3.815,9.186,0.282c0,0,4.522,3.674,8.762,0.423c0,0-3.25,5.936-7.771,1.414c0,0-5.654,4.098-9.186-0.424
					C800.224,464.603,794.854,467.994,790.331,462.341z"/>
				<path id="Shadow_4_x5F_3" clip-path="url(#SVGID_2_)" fill="#DDDBD9" d="M781.146,455.557c0,0,5.087,2.545,8.903,0.143
					C790.049,455.699,785.949,461.352,781.146,455.557z"/>
				<path id="Shadow_4_x5F_4" clip-path="url(#SVGID_2_)" fill="#DDDBD9" d="M792.169,441.988c0,0,5.088,2.686,9.327,0
					c0,0,5.087,2.828,9.468,0.143c0,0,4.382,2.543,9.186,0.282c0,0-3.533,5.936-8.054,0.989c0,0-4.947,4.806-9.329,0
					C802.767,443.402,796.267,447.643,792.169,441.988z"/>
				<path id="Shadow_4_x5F_5" clip-path="url(#SVGID_2_)" fill="#DDDBD9" d="M796.267,451.035c0,0,4.522,3.531,10.035,0.423
					c0,0,4.38,3.816,10.599,0.565c0,0-4.099,6.643-9.752,1.556C807.148,453.579,800.364,458.241,796.267,451.035z"/>
				<path id="Shadow_5_x5F_1" clip-path="url(#SVGID_2_)" fill="#DDDBD9" d="M835.979,475.2c0,0,4.099,3.107,8.763,0.281
					C844.741,475.481,840.501,482.407,835.979,475.2z"/>
				<path id="Shadow_5_x5F_2" clip-path="url(#SVGID_2_)" fill="#DDDBD9" d="M824.813,464.034c0,0,4.24,3.392,8.763,0.565
					c0,0,3.957,3.393,9.186,0.424c0,0,5.653,3.251,10.033,0.141c0,0-3.531,5.795-8.762,1.415c0,0-5.37,4.663-9.752-0.426
					C834.281,466.153,828.63,470.959,824.813,464.034z"/>
				<path id="Shadow_5_x5F_3" clip-path="url(#SVGID_2_)" fill="#DDDBD9" d="M822.765,452.591c0,0,4.027,2.755,8.479-0.213
					C831.243,452.378,826.58,458.949,822.765,452.591z"/>
				<path id="Shadow_5_x5F_4" clip-path="url(#SVGID_2_)" fill="#DDDBD9" d="M827.216,442.839c0,0,4.45,2.968,8.055,0.425
					c0,0,5.3,2.755,9.115,0.637c0,0,6.36,2.331,9.752,0c0,0-3.604,5.087-8.268,1.483c0,0-5.087,4.027-9.751-0.213
					C836.119,445.171,832.091,448.563,827.216,442.839z"/>
				<path id="Shadow_5_x5F_5" clip-path="url(#SVGID_2_)" fill="#DDDBD9" d="M837.391,452.803c0,0,4.452,2.755,7.843,0.212
					c0,0,4.451,2.118,7.633,0.211c0,0-2.757,4.665-6.361,1.272C846.505,454.498,841.843,458.526,837.391,452.803z"/>
				<path id="Shadow_5_x5F_6" clip-path="url(#SVGID_2_)" fill="#DDDBD9" d="M852.23,475.485c0,0,4.875,3.815,9.538,0.212
					c0,0,5.301,3.814,10.387,0.847c0,0,5.725,3.18,10.177,0.212c0,0-5.301,4.876-9.328,2.12c0,0-5.087,3.816-9.963-1.06
					C863.041,477.816,856.893,482.057,852.23,475.485z"/>
				<path id="Shadow_5_x5F_7" clip-path="url(#SVGID_2_)" fill="#DDDBD9" d="M858.802,465.734c0,0,4.875,2.119,8.479,0.423
					C867.28,466.157,862.83,471.882,858.802,465.734z"/>
				<path id="Shadow_5_x5F_8" clip-path="url(#SVGID_2_)" fill="#DDDBD9" d="M860.496,444.322c0,0,5.089,1.696,9.116,0.213
					C869.612,444.535,865.585,450.046,860.496,444.322z"/>
				<path id="Shadow_5_x5F_9" clip-path="url(#SVGID_2_)" fill="#DDDBD9" d="M860.285,453.863c0,0,4.451,2.755,8.903,0.635
					c0,0,4.663,2.12,9.326-0.211c0,0,6.149,2.755,9.752,0.636c0,0-3.18,5.087-8.267,1.271c0,0-6.359,4.24-9.327,0
					C870.673,456.193,864.736,460.01,860.285,453.863z"/>
				<path id="Shadow_5_x5F_10" clip-path="url(#SVGID_2_)" fill="#DDDBD9" d="M873.852,466.368c0,0,5.088,2.334,9.115,0
					c0,0,6.359,2.545,10.176,0c0,0-4.028,5.936-9.114,1.697C884.028,468.065,878.728,472.093,873.852,466.368z"/>
				<path id="Shadow_5_x5F_11" clip-path="url(#SVGID_2_)" fill="#DDDBD9" d="M890.387,476.968c0,0,5.723,2.333,9.751-0.212
					C900.138,476.756,895.474,484.176,890.387,476.968z"/>
				<path id="Shadow_5_x5F_12" clip-path="url(#SVGID_2_)" fill="#DDDBD9" d="M877.457,444.535c0,0,4.451,2.755,10.175,0.212
					c0,0,6.359,2.755,11.446,0c0,0-4.663,6.148-9.327,1.696C889.751,446.443,882.756,450.896,877.457,444.535z"/>
				<path id="Shadow_5_x5F_13" clip-path="url(#SVGID_2_)" fill="#DDDBD9" d="M895.686,455.133c0,0,6.36,2.333,9.541-0.423
					c0,0,5.087,2.544,9.327,0.213c0,0,7.206,2.331,11.022-0.213c0,0-4.028,5.724-9.539,1.908c0,0-6.358,3.604-10.387,0.212
					C905.65,456.83,899.29,460.434,895.686,455.133z"/>
				<path id="Shadow_5_x5F_14" clip-path="url(#SVGID_2_)" fill="#DDDBD9" d="M899.714,466.368c0,0,6.148,2.545,9.752-0.211
					C909.466,466.157,904.165,473.152,899.714,466.368z"/>
				<path id="Shadow_5_x5F_15" clip-path="url(#SVGID_2_)" fill="#DDDBD9" d="M905.014,445.171c0,0,5.724,1.908,9.115,0
					C914.129,445.171,909.253,451.53,905.014,445.171z"/>
				<path id="Shadow_5_x5F_16" clip-path="url(#SVGID_2_)" fill="#DDDBD9" d="M906.921,476.756c0,0,5.726,3.392,11.448,0
					c0,0,4.452,3.816,10.599-0.212c0,0,6.359,3.604,11.234,0c0,0,5.725,3.604,11.235,0.212c0,0-4.451,8.269-11.235,0.849
					c0,0-5.512,6.358-11.234,0.424c0,0-5.935,6.571-10.599,0.212C918.369,478.24,912.646,484.6,906.921,476.756z"/>
				<path id="Shadow_5_x5F_17" clip-path="url(#SVGID_2_)" fill="#DDDBD9" d="M915.189,466.157c0,0,6.358,2.332,9.963-0.212
					c0,0,5.723,2.757,10.387,0c0,0-2.968,6.57-10.176,1.695C925.363,467.641,920.7,472.516,915.189,466.157z"/>
				<path id="Shadow_6_x5F_1" clip-path="url(#SVGID_2_)" fill="#DDDBD9" d="M958.011,476.968c0,0,5.722,1.908,9.115,0.212
					C967.126,477.18,962.673,483.752,958.011,476.968z"/>
				<path id="Shadow_6_x5F_2" clip-path="url(#SVGID_2_)" fill="#DDDBD9" d="M921.335,445.595c0,0,4.241,2.545,9.117,0.424
					c0,0,5.511,2.756,9.539-0.212c0,0-3.604,5.937-9.116,1.695C930.875,447.502,925.788,451.743,921.335,445.595z"/>
				<path id="Shadow_6_x5F_3" clip-path="url(#SVGID_2_)" fill="#DDDBD9" d="M932.147,454.71c0,0,6.571,2.332,10.387-0.423
					C942.534,454.287,937.446,461.493,932.147,454.71z"/>
				<path id="Shadow_6_x5F_4" clip-path="url(#SVGID_2_)" fill="#DDDBD9" d="M946.986,446.231c0,0,4.663,2.968,8.692-0.213
					c0,0,6.146,2.545,9.961-0.212c0,0,6.361,2.968,11.448,0c0,0,4.239,2.12,9.116-0.212c0,0-4.028,6.783-9.116,1.695
					c0,0-6.147,5.301-11.235,0c0,0-5.3,5.088-10.174,0C955.679,447.29,951.862,452.378,946.986,446.231z"/>
				<path id="Shadow_6_x5F_5" clip-path="url(#SVGID_2_)" fill="#DDDBD9" d="M949.106,454.287c0,0,5.3,2.755,8.904-0.213
					c0,0,5.722,2.331,8.902,0c0,0-3.181,5.512-8.478,1.907C958.436,455.981,952.922,460.434,949.106,454.287z"/>
				<path id="Shadow_6_x5F_6" clip-path="url(#SVGID_2_)" fill="#DDDBD9" d="M942.323,466.157c0,0,5.3,2.756,9.963-0.423
					C952.286,465.734,947.41,474,942.323,466.157z"/>
				<path id="Shadow_6_x5F_7" clip-path="url(#SVGID_2_)" fill="#DDDBD9" d="M958.646,465.734c0,0,5.512,3.179,9.751-0.638
					c0,0,5.724,3.816,10.175,0c0,0,6.148,4.028,10.389-0.212c0,0-5.725,7.631-11.023,1.908c0,0-5.088,5.3-11.023,0.425
					C966.913,467.218,963.098,472.093,958.646,465.734z"/>
				<path id="Shadow_6_x5F_8" clip-path="url(#SVGID_2_)" fill="#DDDBD9" d="M973.696,454.287c0,0,5.724,3.604,9.963,0.211
					C983.659,454.498,978.147,462.129,973.696,454.287z"/>
				<path id="Shadow_6_x5F_9" clip-path="url(#SVGID_2_)" fill="#DDDBD9" d="M973.061,477.18c0,0,6.571,2.544,10.599-0.212
					C983.659,476.968,979.208,485.448,973.061,477.18z"/>
				<path id="Shadow_6_x5F_9_3_" clip-path="url(#SVGID_2_)" fill="#DDDBD9" d="M1145.942,430.319c0,0,5.366,0.85,7.991-1.827
					C1153.934,428.492,1151.87,435.474,1145.942,430.319z"/>
				<path id="Shadow_6_x5F_8_1_" clip-path="url(#SVGID_2_)" fill="#DDDBD9" d="M1015.527,446.231c0,0,5.725,3.604,9.964,0.212
					C1025.491,446.443,1019.979,454.074,1015.527,446.231z"/>
				<path id="Shadow_6_x5F_7_1_" clip-path="url(#SVGID_2_)" fill="#DDDBD9" d="M1031.427,445.753c0,0,5.609,3.006,9.728-0.941
					c0,0,5.839,3.635,10.17-0.318c0,0,6.271,3.833,10.376-0.537c0,0-5.483,7.807-10.959,2.251c0,0-4.92,5.457-11.005,0.77
					C1039.736,446.977,1036.076,451.969,1031.427,445.753z"/>
				<path id="Shadow_6_x5F_9_1_" clip-path="url(#SVGID_2_)" fill="#DDDBD9" d="M1035.384,465.522c0,0,6.571,2.543,10.6-0.213
					C1045.983,465.31,1041.53,473.789,1035.384,465.522z"/>
				<path id="Shadow_6_x5F_9_2_" clip-path="url(#SVGID_2_)" fill="#DDDBD9" d="M1067.26,444.813c0,0,6.775,1.934,10.536-1.178
					C1077.796,443.636,1074.135,452.486,1067.26,444.813z"/>
				<path id="Shadow_7_x5F_1" clip-path="url(#SVGID_2_)" fill="#DDDBD9" d="M989.596,477.393c0,0,6.358,3.604,9.964-0.213
					c0,0,4.238,4.028,9.537,0c0,0,6.571,4.028,10.6-0.424c0,0,7.207,2.545,11.658-1.271c0,0-5.935,8.902-12.293,3.18
					c0,0-6.146,5.723-10.6,0.636c0,0-5.088,5.087-10.175-0.212C998.287,479.089,994.683,484.388,989.596,477.393z"/>
				<path id="Shadow_7_x5F_2" clip-path="url(#SVGID_2_)" fill="#DDDBD9" d="M994.47,465.31c0,0,5.513,2.544,9.328,0
					C1003.798,465.31,999.982,472.516,994.47,465.31z"/>
				<path id="Shadow_7_x5F_3" clip-path="url(#SVGID_2_)" fill="#DDDBD9" d="M988.535,454.498c0,0,4.875,3.604,8.479,0
					c0,0,5.725,2.968,9.327-0.424c0,0,5.936,3.392,9.326,0.213c0,0,5.3,2.967,8.903-0.424c0,0-4.451,6.994-9.538,2.33
					c0,0-6.147,4.452-10.387,0.425c0,0-5.725,4.027-8.269-0.637C996.378,455.981,992.139,461.493,988.535,454.498z"/>
				<path id="Shadow_7_x5F_4" clip-path="url(#SVGID_2_)" fill="#DDDBD9" d="M1008.886,465.734c0,0,5.936,3.179,9.539,0.423
					c0,0,6.783,3.815,11.234-0.423c0,0-6.57,7.631-12.081,2.119C1017.578,467.854,1013.761,472.73,1008.886,465.734z"/>
				<path clip-path="url(#SVGID_2_)" fill="#DDDBD9" d="M993.41,446.089c0,0,4.666,2.121,7.915-0.141c0,0,4.381,2.12,7.208,0.283
					c0,0-3.815,4.381-7.774,1.271C1000.759,447.502,996.236,450.188,993.41,446.089z"/>
				<path clip-path="url(#SVGID_2_)" fill="#DDDBD9" d="M1031.066,454.085c0,0,6.063,2.93,9.55,0.026c0,0,6.937,3.528,11.207-0.893
					c0,0-6.248,7.898-11.985,2.622C1039.838,455.841,1036.229,460.872,1031.066,454.085z"/>
				<path id="Shadow_7_x5F_3_1_" clip-path="url(#SVGID_2_)" fill="#DDDBD9" d="M1081.314,442.834c0,0,5.214,3.092,8.435-0.857
					c0,0,5.997,2.374,9.238-1.364c0,0,6.248,2.774,9.301-0.733c0,0,5.572,2.416,8.813-1.322c0,0-3.721,7.41-9.255,3.284
					c0,0-5.664,5.052-10.29,1.473c0,0-5.287,4.586-8.288,0.203C1089.269,443.517,1085.607,449.429,1081.314,442.834z"/>
				<path id="Shadow_7_x5F_2_1_" clip-path="url(#SVGID_2_)" fill="#DDDBD9" d="M1056.725,453.155c0,0,5.511,2.544,9.326,0
					C1066.051,453.155,1062.235,460.362,1056.725,453.155z"/>
				<path id="Shadow_7_x5F_2_2_" clip-path="url(#SVGID_2_)" fill="#DDDBD9" d="M1062.298,473.788c0,0,5.895,1.446,9.155-1.776
					C1071.453,472.012,1069.08,479.813,1062.298,473.788z"/>
				<path id="Shadow_7_x5F_2_3_" clip-path="url(#SVGID_2_)" fill="#DDDBD9" d="M1147.412,450.709c0,0,5.306,0.253,7.878-2.74
					C1155.29,447.969,1153.913,454.396,1147.412,450.709z"/>
				<path id="Shadow_5_x5F_17_1_" clip-path="url(#SVGID_2_)" fill="#DDDBD9" d="M1069.397,452.697c0,0,6.644,1.321,9.812-1.749
					c0,0,6.08,1.838,10.262-1.604c0,0-1.916,6.95-9.79,3.247C1079.681,452.591,1075.826,458.129,1069.397,452.697z"/>
				<path id="Shadow_5_x5F_17_2_" clip-path="url(#SVGID_2_)" fill="#DDDBD9" d="M1126.341,458.858c0,0,5.938,0.679,8.515-2.229
					c0,0,5.479,1.173,8.923-2.132c0,0-1.211,6.207-8.396,3.534C1135.383,458.032,1132.37,463.144,1126.341,458.858z"/>
				<path id="Shadow_5_x5F_17_3_" clip-path="url(#SVGID_2_)" fill="#DDDBD9" d="M1036.936,475.788c0,0,6.484,1.963,9.937-0.783
					c0,0,5.873,2.423,10.369-0.596c0,0-2.586,6.729-10.061,2.276C1047.181,476.686,1042.805,481.821,1036.936,475.788z"/>
				<path id="Shadow_5_x5F_17_4_" clip-path="url(#SVGID_2_)" fill="#DDDBD9" d="M1052.373,465.06c0,0,6.594,1.551,9.865-1.407
					c0,0,6.014,2.048,10.311-1.248c0,0-2.155,6.879-9.896,2.905C1062.652,465.31,1058.608,470.71,1052.373,465.06z"/>
				<path id="Shadow_6_x5F_9_4_" clip-path="url(#SVGID_2_)" fill="#DDDBD9" d="M1112.821,463.224c0,0,6.325,0.767,9.434-2.258
					C1122.255,460.966,1119.789,468.712,1112.821,463.224z"/>
				<path id="Shadow_6_x5F_9_5_" clip-path="url(#SVGID_2_)" fill="#DDDBD9" d="M1076.713,461.739c0,0,6.326,0.767,9.433-2.258
					C1086.146,459.481,1083.683,467.228,1076.713,461.739z"/>
				<path id="Shadow_5_x5F_17_5_" clip-path="url(#SVGID_2_)" fill="#DDDBD9" d="M1074.42,471.62c0,0,6.676,1.147,9.761-2.004
					c0,0,6.128,1.679,10.217-1.873c0,0-1.734,6.999-9.7,3.503C1084.697,471.246,1080.986,476.881,1074.42,471.62z"/>
				<path id="Shadow_6_x5F_7_2_" clip-path="url(#SVGID_2_)" fill="#DDDBD9" d="M1090.263,458.109c0,0,5.375,1.6,8.383-2.366
					c0,0,5.675,2.09,8.869-1.917c0,0,6.08,2.185,9.014-2.133c0,0-3.618,7.414-9.265,3.66c0,0-3.481,5.358-9.529,2.429
					C1097.734,457.782,1095.285,462.549,1090.263,458.109z"/>
				<path id="Shadow_5_x5F_17_6_" clip-path="url(#SVGID_2_)" fill="#DDDBD9" d="M1121.654,436.706c0,0,6.728,0.784,9.638-2.531
					c0,0,6.209,1.344,10.101-2.425c0,0-1.352,7.082-9.498,4.024C1131.895,435.774,1128.497,441.604,1121.654,436.706z"/>
				<path id="Shadow_6_x5F_9_6_" clip-path="url(#SVGID_2_)" fill="#DDDBD9" d="M1145.324,437.928c0,0,6.327,0.766,9.435-2.26
					C1154.759,435.668,1152.295,443.414,1145.324,437.928z"/>
				<path id="Shadow_5_x5F_17_7_" clip-path="url(#SVGID_2_)" fill="#DDDBD9" d="M1137.859,444.584c0,0,5.937,0.681,8.515-2.228
					c0,0,5.478,1.173,8.922-2.133c0,0-1.212,6.208-8.395,3.534C1146.901,443.758,1143.888,448.87,1137.859,444.584z"/>
				<path id="Shadow_6_x5F_9_7_" clip-path="url(#SVGID_2_)" fill="#DDDBD9" d="M1122.489,449.953c0,0,6.361,0.396,9.286-2.809
					C1131.775,447.145,1129.77,455.022,1122.489,449.953z"/>
				<path id="Shadow_6_x5F_9_8_" clip-path="url(#SVGID_2_)" fill="#DDDBD9" d="M1147.494,455.707c0,0,5.444-1.15,7.466-4.25
					C1154.96,451.457,1154.379,457.896,1147.494,455.707z"/>
				<path id="Shadow_6_x5F_9_9_" clip-path="url(#SVGID_2_)" fill="#DDDBD9" d="M1151.894,445.643c0,0,6.371,0.259,9.684-2.271
					C1161.577,443.371,1158.663,449.558,1151.894,445.643z"/>
				<path id="Shadow_6_x5F_9_10_" clip-path="url(#SVGID_2_)" fill="#DDDBD9" d="M1149.482,433.638c0,0,3.711,1.12,6.256-2.139
					C1155.738,431.499,1156.252,437.554,1149.482,433.638z"/>
				<path id="Shadow_6_x5F_9_11_" clip-path="url(#SVGID_2_)" fill="#DDDBD9" d="M1098.748,468.043c0,0,6.36,0.395,9.284-2.81
					C1108.032,465.233,1106.027,473.111,1098.748,468.043z"/>
				<path id="Shadow_6_x5F_9_12_" clip-path="url(#SVGID_2_)" fill="#DDDBD9" d="M1100.608,448.867c0,0,6.303,0.96,9.497-1.972
					C1110.105,446.896,1107.408,454.564,1100.608,448.867z"/>
				<path id="Shadow_6_x5F_9_13_" clip-path="url(#SVGID_2_)" fill="#DDDBD9" d="M1118.108,444.937c0,0,6.36,0.394,9.284-2.81
					C1127.393,442.127,1125.389,450.006,1118.108,444.937z"/>
			</g>
		</g>
	</g>
</g>
<g id="Brioche_Bun">
</g>
</svg>
