<?xml version="1.0" encoding="utf-8"?>
<!-- Generator: Adobe Illustrator 16.0.0, SVG Export Plug-In . SVG Version: 6.00 Build 0)  -->
<!DOCTYPE svg PUBLIC "-//W3C//DTD SVG 1.1//EN" "http://www.w3.org/Graphics/SVG/1.1/DTD/svg11.dtd">
<svg version="1.1" id="Layer_1" xmlns="http://www.w3.org/2000/svg" xmlns:xlink="http://www.w3.org/1999/xlink" x="0px" y="0px"
	 width="2480px" height="3508px" viewBox="0 0 2480 3508" enable-background="new 0 0 2480 3508" xml:space="preserve">
<g id="Layer_1_2_">
	<g id="Layer_1_1_">
		<g id="Brioche_Bun">
			<g id="Bottom_Bun" opacity="0.5">
				<g>
					<g>
						<g>
							<g>
								<g>
									<g>
										<g>
											<g>
												<g>
													<g>
														<g>
															<g>
																<defs>
																	<path id="SVGID_1_" d="M181.201,2219.743c-20.474,7.945-15.628,8.634-21.303,27.363
																		c-6.623,21.873-8.326,71.584-7.492,81.582c0.834,10,4.543,105.725,39.121,111.813
																		c415.091,73.253,889.032,94.169,1122.077,87.715c561.601-15.539,445.266-25.986,794.679-75.507
																		c147.34-20.881,194.42-28.854,200.427-68.812c6.007-39.949,18.216-104.332,8.222-139.847
																		c-10.004-35.496-4.176-51.334-44.394-52.155"/>
																</defs>
																<clipPath id="SVGID_2_">
																	<use xlink:href="#SVGID_1_"  overflow="visible"/>
																</clipPath>
																<path id="Bottom_Bun_base" clip-path="url(#SVGID_2_)" fill="#FF9827" d="M152.213,2466.027
																	c102.579,23.294,1923.875,316.315,2216.881-34.956c293.006-351.275-78.699-270.441-154.39-311.315
																	c-75.69-40.894-1653.199-49.592-1909.785,7.66c-256.585,57.257-316.513,43.947-303.193,133.841
																	C15.061,2351.161,152.213,2466.027,152.213,2466.027z"/>
															</g>
														</g>
													</g>
												</g>
											</g>
										</g>
									</g>
								</g>
							</g>
						</g>
					</g>
					<g>
						<g>
							<g>
								<g>
									<g>
										<g>
											<g>
												<g>
													<g>
														<g>
															<g>
																<defs>
																	<path id="SVGID_3_" d="M181.201,2219.743c-20.474,7.945-15.628,8.634-21.303,27.363
																		c-6.623,21.873-8.326,71.584-7.492,81.582c0.834,10,4.543,105.725,39.121,111.813
																		c415.091,73.253,889.032,94.169,1122.077,87.715c561.601-15.539,445.266-25.986,794.679-75.507
																		c147.34-20.881,194.42-28.854,200.427-68.812c6.007-39.949,18.216-104.332,8.222-139.847
																		c-10.004-35.496-4.176-51.334-44.394-52.155"/>
																</defs>
																<clipPath id="SVGID_4_">
																	<use xlink:href="#SVGID_3_"  overflow="visible"/>
																</clipPath>
																<path id="Bottom_Bun_Shadow_1A" clip-path="url(#SVGID_4_)" fill="#FF8429" d="M128.264,2219.743
																	c4.994,19.873,7.74,27.435,29.52,36.063c21.78,8.637,10.589,24.168,30.493,14.813
																	c19.903-9.363,11.021-15.365,38.217,2.903c27.196,18.271,15.827,4.399,45.372,21.039
																	c29.544,16.639,46.201,26.313,72.831,15.396c26.631-10.917,54.938-9.582,78.248,0
																	c23.304,9.582,46.606,14.576,59.932,14.576s21.204,19.173,39.956,0c18.751-19.163,29.966-25.796,46.617-14.576
																	c16.647,11.24,1.663,13.306,33.298,23.085c31.635,9.796,29.967,11.464,48.281,9.796
																	c18.312-1.663,13.313-11.657,53.271-11.657s36.624-3.321,64.931,4.999c28.306,8.326,48.277,17.778,63.267,7.229
																	c14.979-10.556,9.989-28.864,38.287-12.227c28.304,16.649,41.623,25.472,68.259,16.894
																	c26.635-8.579,19.979-13.555,54.938-13.555c34.961,0,38.293,0,68.264,6.653c29.966,6.657,29.966,9.993,44.945,0
																	c14.981-9.989,23.313-19.979,51.61-13.315c28.304,6.654,36.624,25.463,58.271,23.553
																	c21.646-1.928,14.02,10.495,38.644,0.124c24.63-10.371,22.962-17.039,52.923-22.033
																	c29.969-4.993,23.309-14.991,61.598,0c38.293,14.993,24.977,35.761,64.932,26.203
																	c39.955-9.563,18.309-4.572,61.596-11.229c43.285-6.666,26.619-13.33,63.249,0
																	c36.624,13.32,46.628,14.988,61.597,6.657c14.998-8.325-4.996-16.647,31.629-9.987
																	c36.623,6.656,21.645,19.976,53.271,9.987c31.636-9.987,41.623-24.967,68.26-19.973
																	c26.62,5.01,36.624,6.673,44.949,1.679c8.324-5.005-19.975-1.679,19.963-6.673
																	c39.965-4.994,28.298,3.336,61.596,8.341c33.299,4.994,38.293,1.663,53.271-5.005
																	c14.988-6.662-24.928-26.687,43.285-19.555c68.216,7.129,58.396,27.886,99.89,12.918
																	c41.481-14.998,57.028,3.549,89.89-12.918c32.866-16.453,54.323-8.331,64.922-21.001
																	c10.604-12.689,20.474-16.563,32.713-24.619c12.252-8.059,24.181-33.854,23.452-44.576
																	c-0.735-10.715-2.795-12.517,0.032-27.838c2.83-15.341-206.018-32.186-229.316-32.186
																	c-23.289,0-1145.268,24.223-1193.604,25.419c-48.341,1.2-607.652-15.146-633.454-7.509
																	c-25.796,7.643-124.095,32.019-124.095,32.019"/>
															</g>
														</g>
													</g>
												</g>
											</g>
										</g>
									</g>
								</g>
							</g>
						</g>
					</g>
					<g>
						<g>
							<g>
								<g>
									<g>
										<g>
											<g>
												<g>
													<g>
														<g>
															<g>
																<defs>
																	<path id="SVGID_5_" d="M181.201,2219.743c-20.474,7.945-15.628,8.634-21.303,27.363
																		c-6.623,21.873-8.326,71.584-7.492,81.582c0.834,10,4.543,105.725,39.121,111.813
																		c415.091,73.253,889.032,94.169,1122.077,87.715c561.601-15.539,445.266-25.986,794.679-75.507
																		c147.34-20.881,194.42-28.854,200.427-68.812c6.007-39.949,18.216-104.332,8.222-139.847
																		c-10.004-35.496-4.176-51.334-44.394-52.155"/>
																</defs>
																<clipPath id="SVGID_6_">
																	<use xlink:href="#SVGID_5_"  overflow="visible"/>
																</clipPath>
																<path id="Bottom_Bun_Shadow_1B" clip-path="url(#SVGID_6_)" fill="#FF8429" d="M153.543,2492.677
																	c-2.304-58.264-43.589-128.186-14.457-139.843c29.137-11.657-75.681-99.466,0-43.291
																	c80.745,59.935,150.879,88.646,182.295,91.565c43.68,4.032,243.063,43.277,337.956,44.94
																	c94.894,1.668,14.982,1.668,176.472,0c161.483-1.663,457.816,33.3,584.354,21.646
																	c126.521-11.668,579.346-69.926,625.963-71.594c46.633-1.654,103.219-16.646,139.844-31.629
																	c36.628-14.998,87.063-33.299,99.302-43.287c12.262-10.002,23.896-26.636,38.879-43.295
																	c14.998-16.647,76.604-39.955,74.934,31.629c-1.662,71.584-311.313,264.691-521.084,279.689
																	c-209.773,14.998-1694.782-39.932-1693.123-59.896"/>
															</g>
														</g>
													</g>
												</g>
											</g>
										</g>
									</g>
								</g>
							</g>
						</g>
					</g>
					<g>
						<g>
							<g>
								<g>
									<g>
										<g>
											<g>
												<g>
													<g>
														<g>
															<g>
																<defs>
																	<path id="SVGID_7_" d="M181.201,2219.743c-20.474,7.945-15.628,8.634-21.303,27.363
																		c-6.623,21.873-8.326,71.584-7.492,81.582c0.834,10,4.543,105.725,39.121,111.813
																		c415.091,73.253,889.032,94.169,1122.077,87.715c561.601-15.539,445.266-25.986,794.679-75.507
																		c147.34-20.881,194.42-28.854,200.427-68.812c6.007-39.949,18.216-104.332,8.222-139.847
																		c-10.004-35.496-4.176-51.334-44.394-52.155"/>
																</defs>
																<clipPath id="SVGID_8_">
																	<use xlink:href="#SVGID_7_"  overflow="visible"/>
																</clipPath>
																<path id="Bottom_Bun_Shadow_1C" clip-path="url(#SVGID_8_)" fill="#FF8429" d="M787.523,2399.44
																	c166.479,0,602.664,31.629,670.916,19.961c68.26-11.648,148.185-14.985,194.777-19.961
																	c46.612-4.996-386.232,0-412.872,0"/>
															</g>
														</g>
													</g>
												</g>
											</g>
										</g>
									</g>
								</g>
							</g>
						</g>
					</g>
					<g>
						<g>
							<g>
								<g>
									<g>
										<g>
											<g>
												<g>
													<g>
														<g>
															<g>
																<defs>
																	<path id="SVGID_9_" d="M181.201,2219.743c-20.474,7.945-15.628,8.634-21.303,27.363
																		c-6.623,21.873-8.326,71.584-7.492,81.582c0.834,10,4.543,105.725,39.121,111.813
																		c415.091,73.253,889.032,94.169,1122.077,87.715c561.601-15.539,445.266-25.986,794.679-75.507
																		c147.34-20.881,194.42-28.854,200.427-68.812c6.007-39.949,18.216-104.332,8.222-139.847
																		c-10.004-35.496-4.176-51.334-44.394-52.155"/>
																</defs>
																<clipPath id="SVGID_10_">
																	<use xlink:href="#SVGID_9_"  overflow="visible"/>
																</clipPath>
																<path id="Bottom_Bun_Shadow_2A" clip-path="url(#SVGID_10_)" fill="#FF6D2C" d="M190.837,2214.173
																	c-13.965,9.313-22.748,13.647-16.343,24.336c6.409,10.688-2.691,27.311,10.376,24.416
																	c13.067-2.889,25.106-6.576,39.33-3.51c14.224,3.083,69.068,19.134,80.352,29.078
																	c11.279,9.947,19.854,14.874,31.257,6.623c11.409-8.271,23.081-14.063,43.84-8.051
																	c20.761,6.002,22.757,3.096,50.493,12.229c27.742,9.135,38.664,13.082,49.305,8.895
																	c10.634-4.205,22.842-4.205,38.381-4.205s5.546-11.073,32.181-13.317c26.646-2.222,29.967,4.444,37.741,14.403
																	c7.771,10.013,27.747,28.588,37.729,18.185c9.989-10.421,12.219-18.185,24.428-20.394
																	c12.197-2.221,24.415-7.767,41.063-4.445c16.651,3.324,56.188,9.654,64.229,10.859
																	c8.048,1.176,19.015,23.272,37.88,13.979c18.865-9.289,24.416-10.41,41.063-12.635
																	c16.65-2.222,28.854-4.443,39.955,2.214c11.104,6.668,37.74,14.164,48.831,10.421
																	c11.102-3.743,27.747-2.919,49.943,0c22.196,2.908,33.298,4.031,38.844-7.084
																	c5.545-11.096-3.646-18.553,17.978-20.861c21.617-2.312,21.979-2.439,39.735,5.322
																	c17.763,7.764,16.651,11.091,39.956,8.876c23.313-2.214,21.092-11.097,56.604,0
																	c35.513,11.096,32.188,29.972,53.271,22.202c21.084-7.771,23.998-0.289,36.422-8.455
																	c12.428-8.175,9.738-12.978,36.826-14.847c27.105-1.873,24.946-2.086,45.771,3.402
																	c20.826,5.481,41.899,5.481,45.235,1.038c3.332-4.438,17.755-9.987,31.084,0
																	c13.323,10.011,31.067,11.915,38.839,10.429c7.767-1.532,11.098-4.034,24.416,0c13.336,4.023,15.538,0.416,35.514,0
																	c19.973-0.418,19.973-11.791,33.298,0c13.317,11.791,36.624,11.019,43.286,10.278
																	c6.656-0.725-2.209-8.771,18.869-10.278c21.084-1.539,19.975-4.034,34.421,0
																	c14.416,4.023,15.538,11.724,33.298,10.65c17.758-1.082,24.421,14.6,31.077,0.104
																	c6.657-14.483,5.188-13.635,20.911-20.729c15.725-7.089,33.371-11.26,46.796-7.089
																	c13.426,4.17,24.416,12.213,33.293,5.555c8.877-6.662,12.8-7.032,28.858-13.323c16.033-6.302,26.613,2.209,48.832,0
																	c22.199-2.221,36.623-4.444,44.379,2.205c7.771,6.655,8.877,13.33,16.648,6.655
																	c7.762-6.655,12.209-11.081,25.526-14.417c13.334-3.324,31.944-10.222,44.808-7.457
																	c12.885,2.758,20.244,3.406,38.217,10.428c17.957,7.021,16.283,18.021,32.68,9.192
																	c16.379-8.821,25.68-19.096,40.438-9.521c14.77,9.57,37.396,26.563,47.199,13.082
																	c9.818-13.479,24.803-14.188,38.5-12.385c13.713,1.813,25.638-8.863,26.76-13.322
																	c1.105-4.439-2.227-11.092,8.877-18.857c11.086-7.774,25.195-4.771,24.814-17.918
																	c-0.395-13.146,7.688-18.869,8.813-28.649c1.138-9.812,13.938-11.767,3.162-22.539
																	c-10.763-10.764-30.745-10.021-35.688-7.14c-4.932,2.88-101.15-0.62-55.854,7.14
																	c34.364,5.897,26.063,50.271-82.536,59.271c-107.053,13.345-226.202,17.375-280.5,17.063
																	c-65.475,1.861-127.021,6.688-251.334,13.348c-124.309,6.656-654.028-11.438-692.875-13.651
																	c-38.844-2.22-491.512-7.992-504.832-10.236c-27.312-0.313-82.545-9.314-123.188-15.205
																	c-75.899-9.614,90.917-25.758,68.884-28.855C303.037,2212.966,190.837,2214.173,190.837,2214.173z"/>
															</g>
														</g>
													</g>
												</g>
											</g>
										</g>
									</g>
								</g>
							</g>
						</g>
					</g>
					<g>
						<g>
							<g>
								<g>
									<g>
										<g>
											<g>
												<g>
													<g>
														<g>
															<g>
																<defs>
																	<path id="SVGID_11_" d="M181.201,2219.743c-20.474,7.945-15.628,8.634-21.303,27.363
																		c-6.623,21.873-8.326,71.584-7.492,81.582c0.834,10,4.543,105.725,39.121,111.813
																		c415.091,73.253,889.032,94.169,1122.077,87.715c561.601-15.539,445.266-25.986,794.679-75.507
																		c147.34-20.881,194.42-28.854,200.427-68.812c6.007-39.949,18.216-104.332,8.222-139.847
																		c-10.004-35.496-4.176-51.334-44.394-52.155"/>
																</defs>
																<clipPath id="SVGID_12_">
																	<use xlink:href="#SVGID_11_"  overflow="visible"/>
																</clipPath>
																<path id="Bottom_Bun_2B" clip-path="url(#SVGID_12_)" fill="#FF6D2C" d="M139.086,2380.576
																	c64.376,66.596,408.711,92.134,445.335,94.338c36.624,2.219,581.568,39.96,619.31,37.751
																	c37.736-2.229,311.877-12.213,361.821-15.545c49.958-3.344,275.237-18.875,307.429-31.083
																	c32.189-12.22,216.446-34.42,255.274-45.521c38.843-11.071,129.851-23.28,147.606-37.729
																	c17.759-14.431,67.692-57.709,76.58-69.925c8.887-12.213-9.989,91.002-39.955,108.768
																	c-29.972,17.758-482.797,112.091-524.967,115.427c-42.176,3.326-648.16,29.962-721.419,27.747
																	c-73.252-2.214-563.812-53.271-632.625-62.146c-68.81-8.886-236.066-19.979-258.988-46.636"/>
															</g>
														</g>
													</g>
												</g>
											</g>
										</g>
									</g>
								</g>
							</g>
						</g>
					</g>
				</g>
			</g>
			<g id="Burger_Bun_Top" opacity="0.5">
				<g>
					<g>
						<g>
							<g>
								<g>
									<g>
										<g>
											<g>
												<g>
													<g>
														<g>
															<g>
																<defs>
																	<path id="SVGID_13_" d="M153.797,1790.126c-9.711-359.604,448.383-543.282,448.383-543.282
																		s10.014-4.766,63.271-19.427c93.776-25.806,458.075-65.532,594.05-64.247c65.672,0.621,41.477,1.127,247.229,7.646
																		c245.283,7.77,413.627,56.344,654.813,276.354c164.154,149.752,156.022,331.393,137.764,355.63
																		c-62.291,82.771-398.032,143.869-586.137,155.153c-188.134,11.273-87.169,8.979-665.923-5.788
																		c-331.571-8.465-523.92-47.603-783.574-81.018C142.974,1855.604,153.797,1790.126,153.797,1790.126
																		L153.797,1790.126z"/>
																</defs>
																<clipPath id="SVGID_14_">
																	<use xlink:href="#SVGID_13_"  overflow="visible"/>
																</clipPath>
																<path id="Burger_Bun" clip-path="url(#SVGID_14_)" fill="#FF9827" d="M153.797,1790.126
																	c-9.711-359.604,448.383-543.282,448.383-543.282s10.014-4.766,63.271-19.427
																	c93.776-25.806,458.075-65.532,594.05-64.247c65.672,0.621,41.477,1.127,247.229,7.646
																	c245.283,7.77,413.627,56.344,654.813,276.354c164.154,149.752,156.022,331.393,137.764,355.63
																	c-62.291,82.771-398.032,143.869-586.137,155.153c-188.134,11.273-87.169,8.979-665.923-5.788
																	c-331.571-8.465-523.92-47.603-783.574-81.018C142.974,1855.604,153.797,1790.126,153.797,1790.126
																	L153.797,1790.126z"/>
															</g>
														</g>
													</g>
												</g>
											</g>
										</g>
									</g>
								</g>
							</g>
						</g>
					</g>
					<g>
						<g>
							<g>
								<g>
									<g>
										<g>
											<g>
												<g>
													<g>
														<g>
															<g>
																<defs>
																	<path id="SVGID_15_" d="M153.797,1790.126c-9.711-359.604,448.383-543.282,448.383-543.282
																		s10.014-4.766,63.271-19.427c93.776-25.806,458.075-65.532,594.05-64.247c65.672,0.621,41.477,1.127,247.229,7.646
																		c245.283,7.77,413.627,56.344,654.813,276.354c164.154,149.752,156.022,331.393,137.764,355.63
																		c-62.291,82.771-398.032,143.869-586.137,155.153c-188.134,11.273-87.169,8.979-665.923-5.788
																		c-331.571-8.465-523.92-47.603-783.574-81.018C142.974,1855.604,153.797,1790.126,153.797,1790.126
																		L153.797,1790.126z"/>
																</defs>
																<clipPath id="SVGID_16_">
																	<use xlink:href="#SVGID_15_"  overflow="visible"/>
																</clipPath>
																<path id="Bun_Shadow" clip-path="url(#SVGID_16_)" fill="#FF8429" d="M236.174,1308.206
																	c-18.92,343.556-19.461,360.848,79.458,374.793c20.464,2.885,152.369,24.302,170.172,2.026
																	c17.252-21.603,33.134-96.896,47.566-120.918c13.469-22.438,46.836-49.646,41.063-40.354
																	c-59.934,96.563-49.655,161.295-36.188,169.394c45.078,27.062,75.045,51.875,300.358,21.353
																	c247.664-33.536,342.091,96.412,506.634,68.745c109.532-18.419,128.171,12.004,191.286-29.684
																	c10.162-6.717-27.297-35.021-13.146-60.816c21.198-38.63,35.795-89.899-4.161-156.489
																	c-4.163-6.931,24.142,27.472,40.79,59.938c34.856,67.979-74.087,125.688,14.164,152.327
																	c31.604,9.541,93.091-7.771,149.36-13.043c119.727-11.231,192.784-0.006,227.079-33.012
																	c61.131-58.831,37.808-110.582,37.813-125.421c0-7.396,22.941,44.215,9.38,101.541
																	c-3.827,16.11,67.78-20.358,134.013-44.649c164.541-60.354,17.635-422.354,22.684-401.563
																	c24.313,99.759,253.508,437.258,253.508,437.258l-172.764,173.984c0,0-143.635,97.233-191.673,103.959
																	c-540.819,75.495-340.964,113.161-970.298,52.809c-629.346-60.37-854.816-62.475-943.022-205.821
																	C43.195,1653.083,235.872,1313.836,236.174,1308.206z"/>
															</g>
														</g>
													</g>
												</g>
											</g>
										</g>
									</g>
								</g>
							</g>
						</g>
					</g>
					<g>
						<g>
							<g>
								<g>
									<g>
										<g>
											<g>
												<g>
													<g>
														<g>
															<g>
																<defs>
																	<path id="SVGID_17_" d="M153.797,1790.126c-9.711-359.604,448.383-543.282,448.383-543.282
																		s10.014-4.766,63.271-19.427c93.776-25.806,458.075-65.532,594.05-64.247c65.672,0.621,41.477,1.127,247.229,7.646
																		c245.283,7.77,413.627,56.344,654.813,276.354c164.154,149.752,156.022,331.393,137.764,355.63
																		c-62.291,82.771-398.032,143.869-586.137,155.153c-188.134,11.273-87.169,8.979-665.923-5.788
																		c-331.571-8.465-523.92-47.603-783.574-81.018C142.974,1855.604,153.797,1790.126,153.797,1790.126
																		L153.797,1790.126z"/>
																</defs>
																<clipPath id="SVGID_18_">
																	<use xlink:href="#SVGID_17_"  overflow="visible"/>
																</clipPath>
																<path id="Burger_Darker_Shadow_1_" clip-path="url(#SVGID_18_)" fill="#FF6D2C" d="M346.334,1770.739
																	c99.913-12.248,128.211,92.635,434.532,89.308c92.749-1.008,56.909-48.593,162.854-3.188
																	c105.939,45.398,53.041,78.994,260.011,26.334c149.832-38.139,160.412-2.799,345.373-33.897
																	c134.101-22.544,44.181,15.747,222.619,22.499c96.406,3.635,96.422,52.129,164.526-8.415
																	c68.104-60.533,94.894-48.274,229.742-74.91c162.134-32.03,89.879-113.208,123.187-183.13
																	c0,0,43.897,123.059,44.965,158.152c2.938,96.597-38.062,78.854-132.431,118.342
																	c-198.933,83.256-252.139,119.729-648.379,128.052c-365.082,7.671-669.81-1.646-1010.535-64.927
																	c-116.539-21.631-381.396-25.776-407.877-128.177c-26.479-102.399,18.617-156.653,18.617-156.653
																	C183.202,1798.451,218.163,1740.182,346.334,1770.739L346.334,1770.739z"/>
															</g>
														</g>
													</g>
												</g>
											</g>
										</g>
									</g>
								</g>
							</g>
						</g>
					</g>
					<g>
						<g>
							<g>
								<g>
									<g>
										<g>
											<g>
												<g>
													<g>
														<g>
															<g>
																<defs>
																	<path id="SVGID_19_" d="M153.797,1790.126c-9.711-359.604,448.383-543.282,448.383-543.282
																		s10.014-4.766,63.271-19.427c93.776-25.806,458.075-65.532,594.05-64.247c65.672,0.621,41.477,1.127,247.229,7.646
																		c245.283,7.77,413.627,56.344,654.813,276.354c164.154,149.752,156.022,331.393,137.764,355.63
																		c-62.291,82.771-398.032,143.869-586.137,155.153c-188.134,11.273-87.169,8.979-665.923-5.788
																		c-331.571-8.465-523.92-47.603-783.574-81.018C142.974,1855.604,153.797,1790.126,153.797,1790.126
																		L153.797,1790.126z"/>
																</defs>
																<clipPath id="SVGID_20_">
																	<use xlink:href="#SVGID_19_"  overflow="visible"/>
																</clipPath>
																<path id="Bun_Highlight_2_" clip-path="url(#SVGID_20_)" fill="#FFAB57" d="M758.078,1178.104
																	c120.72-127.844,606.805-37.707,729.178-41.479c141.486-4.373,586.841,228.417,370.479,189.827
																	c-260.155-46.399-73.541,82.269-289.303,22.505c0,0-48.396-14.062-46.479,7.035
																	c3.267,36.38-19.039,54.029-53.229,60.493c-88.793,16.766-257.681-42.063-266.084-44.672
																	c-52.563-16.354-107.715-32.165-134.435,8.793c-21.635,33.168-68.556,71.229-133.031,57.646
																	c-92.625-19.511-94.179-1.578-136.844-48.509c-48.771-53.633-123.495,57.646-190.104,21.09
																	c-18.896-10.376-111.002,64.688-79.093-9.84c44.363-103.627-306.312,114.424-97.133-39.38
																	C502.773,1309.576,658.359,1171.903,758.078,1178.104"/>
															</g>
														</g>
													</g>
												</g>
											</g>
										</g>
									</g>
								</g>
							</g>
						</g>
					</g>
					<g>
						<g>
							<g>
								<g>
									<g>
										<g>
											<g>
												<g>
													<g>
														<g>
															<g>
																<defs>
																	<path id="SVGID_21_" d="M153.797,1790.126c-9.711-359.604,448.383-543.282,448.383-543.282
																		s10.014-4.766,63.271-19.427c93.776-25.806,458.075-65.532,594.05-64.247c65.672,0.621,41.477,1.127,247.229,7.646
																		c245.283,7.77,413.627,56.344,654.813,276.354c164.154,149.752,156.022,331.393,137.764,355.63
																		c-62.291,82.771-398.032,143.869-586.137,155.153c-188.134,11.273-87.169,8.979-665.923-5.788
																		c-331.571-8.465-523.92-47.603-783.574-81.018C142.974,1855.604,153.797,1790.126,153.797,1790.126
																		L153.797,1790.126z"/>
																</defs>
																<clipPath id="SVGID_22_">
																	<use xlink:href="#SVGID_21_"  overflow="visible"/>
																</clipPath>
																<path id="Bun_Secondary_Highlight" clip-path="url(#SVGID_22_)" fill="#FFBA7B" d="M1131.402,1137.235
																	c-133.762,24.957-124.899-4.271-196.4,43.307c-71.495,47.575-42.839-1.207-104.47,37.413
																	c-97.817,61.293-22.366,66.426-58.662,82.055c-36.286,15.629-94.308,47.248,91.2-9.692
																	c185.497-56.938-0.481,18.962,93.384,1.686c93.871-17.275,51.95,44.26,147.235,23.559
																	c95.275-20.693,23.031-135.029,162.715-39.684c68.969,47.079,115.062-23.21,142.555-19.114
																	c53.885,8.012,139.535,40.882,161.885,14.718c8.172-9.575-83.961-45.168-24.482-40.62
																	c85.768,6.557-5.637-20.06-27.525-36.101c-28.864-21.169,83.326-0.63,13.4-38.363
																	c-22.694-12.256,71.058-8.877-93.688-35.034c-92.273-14.648-106.455-26.688-181.809-9.823
																	C1181.386,1128.388,1131.402,1137.235,1131.402,1137.235z"/>
															</g>
														</g>
													</g>
												</g>
											</g>
										</g>
									</g>
								</g>
							</g>
						</g>
					</g>
					<g>
						<g>
							<g>
								<g>
									<g>
										<g>
											<g>
												<g>
													<g>
														<g>
															<g>
																<defs>
																	<path id="SVGID_23_" d="M153.797,1790.126c-9.711-359.604,448.383-543.282,448.383-543.282
																		s10.014-4.766,63.271-19.427c93.776-25.806,458.075-65.532,594.05-64.247c65.672,0.621,41.477,1.127,247.229,7.646
																		c245.283,7.77,413.627,56.344,654.813,276.354c164.154,149.752,156.022,331.393,137.764,355.63
																		c-62.291,82.771-398.032,143.869-586.137,155.153c-188.134,11.273-87.169,8.979-665.923-5.788
																		c-331.571-8.465-523.92-47.603-783.574-81.018C142.974,1855.604,153.797,1790.126,153.797,1790.126
																		L153.797,1790.126z"/>
																</defs>
																<clipPath id="SVGID_24_">
																	<use xlink:href="#SVGID_23_"  overflow="visible"/>
																</clipPath>
																<path id="Top_Highlight_Bun" clip-path="url(#SVGID_24_)" fill="#FFC599" d="M947.9,1184.767
																	c69.912-32.419-39.932-49.771,136.338-38.297c176.271,11.471,126.324-40.016,204.016-3.545
																	c77.676,36.479,64.733-54.74,86.938,6.076c22.195,60.807,75.604-2.303,101.471,46.018
																	c25.822,48.313,1.757,52.385-88.137,24.078c-94.225-29.669-67.125,24.188-119.875,1.663
																	c-135.387-57.823-99.146,22.445-173.138,34.961c-73.987,12.521-81.577-21.641-163.146-19.978
																	C883.146,1236.751,947.9,1184.767,947.9,1184.767z"/>
															</g>
														</g>
													</g>
												</g>
											</g>
										</g>
									</g>
								</g>
							</g>
						</g>
					</g>
					<g>
						<g>
							<g>
								<g>
									<g>
										<g>
											<g>
												<g>
													<g>
														<g>
															<g>
																<defs>
																	<path id="SVGID_25_" d="M153.797,1790.126c-9.711-359.604,448.383-543.282,448.383-543.282
																		s10.014-4.766,63.271-19.427c93.776-25.806,458.075-65.532,594.05-64.247c65.672,0.621,41.477,1.127,247.229,7.646
																		c245.283,7.77,413.627,56.344,654.813,276.354c164.154,149.752,156.022,331.393,137.764,355.63
																		c-62.291,82.771-398.032,143.869-586.137,155.153c-188.134,11.273-87.169,8.979-665.923-5.788
																		c-331.571-8.465-523.92-47.603-783.574-81.018C142.974,1855.604,153.797,1790.126,153.797,1790.126
																		L153.797,1790.126z"/>
																</defs>
																<clipPath id="SVGID_26_">
																	<use xlink:href="#SVGID_25_"  overflow="visible"/>
																</clipPath>
																<g id="Sesames_1_" opacity="0.3" clip-path="url(#SVGID_26_)">
																	<path fill="#BC6E39" d="M1040.302,1228.906l-15.813-5.456c-7.357-1.644-13.088-4.909-24.54-2.452
																		c0,0-10.147,2.75-4.094,13.354C996.956,1236.271,1009.277,1237.316,1040.302,1228.906z"/>
																	<path fill="#BC6E39" d="M587.078,1287.594c0,0-10.148,2.75-4.092,13.359c1.093,1.911,13.42,2.959,44.438-5.456
																		l-15.813-5.456C604.26,1288.412,598.531,1285.141,587.078,1287.594z"/>
																	<path fill="#BC6E39" d="M971.214,1376.618c-7.354-1.638-13.087-4.909-24.54-2.452c0,0-10.146,2.751-4.086,13.359
																		c1.093,1.909,13.42,2.952,44.438-5.456L971.214,1376.618z"/>
																	<path fill="#BC6E39" d="M860.105,1480.712c0,0-10.146,2.75-4.096,13.359c1.098,1.911,13.419,2.954,44.438-5.456
																		l-15.816-5.456C877.289,1481.53,871.561,1478.259,860.105,1480.712z"/>
																	<path fill="#BC6E39" d="M1291.902,1297.938c0,0-9.367,4.777-1.25,13.907c1.464,1.648,13.74,0.124,42.356-14.494
																		l-16.592-2.072C1308.872,1295.199,1302.598,1293.179,1291.902,1297.938z"/>
																	<path fill="#BC6E39" d="M1435.459,1309.656c0,0-10.52-0.238-7.709,11.655c0.506,2.146,12.033,6.639,44.164,7.354
																		l-13.612-9.711C1451.699,1315.301,1447.131,1310.54,1435.459,1309.656z"/>
																	<path fill="#BC6E39" d="M1392.406,1328.76c0,0-9.939,3.45-3.162,13.604c1.229,1.831,13.593,2.016,43.961-8.529
																		l-16.154-4.345C1409.589,1328.383,1403.65,1325.518,1392.406,1328.76z"/>
																	<path fill="#BC6E39" d="M1245.076,1466.062c0,0-8.91,5.595-0.01,13.975c1.6,1.515,13.703-1.102,40.906-18.225
																		l-16.725-0.587C1261.738,1461.812,1255.309,1460.366,1245.076,1466.062z"/>
																	<path fill="#BC6E39" d="M1789.361,1396.283l11.604,12.044c5.818,4.811,9.436,10.313,20.76,13.322
																		c0,0,10.284,2.178,9.698-10.03C1831.327,1409.415,1820.816,1402.882,1789.361,1396.283z"/>
																	<path fill="#BC6E39" d="M1185.969,1335.422c0,0-9.935,3.451-3.158,13.604c1.229,1.832,13.6,2.016,43.965-8.529
																		l-16.152-4.344C1203.156,1335.04,1197.223,1332.176,1185.969,1335.422z"/>
																	<path fill="#BC6E39" d="M1265.879,1435.312c0,0-9.93,3.448-3.152,13.604c1.227,1.832,13.59,2.016,43.961-8.529
																		l-16.148-4.344C1283.066,1434.928,1277.133,1432.062,1265.879,1435.312z"/>
																	<path fill="#BC6E39" d="M843.619,1321.919c-7.552-0.08-13.827-2.096-24.521,2.66c0,0-9.363,4.781-1.251,13.911
																		c1.47,1.646,13.737,0.124,42.368-14.496L843.619,1321.919z"/>
																	<path fill="#BC6E39" d="M725.615,1466.682c0,0-8.719,5.896,0.462,13.97c1.653,1.445,13.647-1.563,40.268-19.579
																		l-16.729-0.024C742.117,1461.881,735.645,1460.646,725.615,1466.682z"/>
																	<path fill="#BC6E39" d="M893.508,1284.044l-16.597-2.075c-7.551-0.08-13.826-2.096-24.515,2.655
																		c0,0-9.373,4.781-1.256,13.911C852.604,1300.184,864.882,1298.659,893.508,1284.044z"/>
																	<path fill="#BC6E39" d="M532.641,1470.097c0,0-7.48,7.396,3.023,13.645c1.896,1.127,13.132-4.042,35.979-26.655
																		l-16.441,3.048C547.977,1462.338,541.384,1462.317,532.641,1470.097z"/>
																	<path fill="#BC6E39" d="M1449.753,1227.254c4.656-12.348-5.789-14.17-5.789-14.17
																		c-11.677-1.354-16.938,2.899-24.048,5.556l-14.998,7.824C1436.8,1232.062,1448.918,1229.479,1449.753,1227.254z"/>
																	<path fill="#BC6E39" d="M1357.381,1259.697c-11.676-1.355-16.938,2.895-24.049,5.556l-14.998,7.824
																		c31.902,5.6,44.002,3.014,44.836,0.794C1367.837,1261.529,1357.381,1259.697,1357.381,1259.697z"/>
																	<path fill="#BC6E39" d="M1582.934,1213.934c4.656-12.347-5.789-14.169-5.789-14.169
																		c-11.677-1.354-16.938,2.896-24.049,5.561l-14.998,7.821C1569.984,1218.744,1582.1,1216.162,1582.934,1213.934z"/>
																	<path fill="#BC6E39" d="M1610.432,1299.652c-11.672-1.355-16.938,2.895-24.043,5.556l-15.003,7.824
																		c31.913,5.6,44.001,3.019,44.835,0.794C1620.878,1301.484,1610.432,1299.652,1610.432,1299.652z"/>
																	<path fill="#BC6E39" d="M1692.929,1434.472c-9.825-6.459-16.446-5.023-23.989-5.849l-16.912,0.243
																		c25.974,19.342,37.959,22.475,39.695,20.866C1701.438,1440.791,1692.929,1434.472,1692.929,1434.472z"/>
																	<path fill="#BC6E39" d="M1254.568,1259.643c7.812-10.629-1.76-15.207-1.76-15.207
																		c-10.865-4.448-17.104-1.776-24.662-1.137l-16.557,3.485C1240.822,1260.784,1253.174,1261.562,1254.568,1259.643z"
																		/>
																	<path fill="#BC6E39" d="M1156.742,1213.934c4.656-12.347-5.789-14.169-5.789-14.169
																		c-11.672-1.354-16.939,2.896-24.044,5.561l-15.003,7.821C1143.794,1218.744,1155.907,1216.162,1156.742,1213.934z"
																		/>
																	<path fill="#BC6E39" d="M910.348,1220.596c4.657-12.347-5.787-14.169-5.787-14.169
																		c-11.678-1.354-16.939,2.896-24.05,5.553l-15.003,7.822C897.405,1225.401,909.52,1222.82,910.348,1220.596z"/>
																	<path fill="#BC6E39" d="M1071.037,1226.404c-11.677-1.36-16.943,2.895-24.048,5.556l-15.003,7.824
																		c31.896,5.6,44.006,3.014,44.835,0.789C1081.483,1228.229,1071.037,1226.404,1071.037,1226.404z"/>
																	<path fill="#BC6E39" d="M1170.926,1253.04c-11.678-1.36-16.941,2.896-24.049,5.555l-15.003,7.824
																		c31.897,5.604,44.006,3.016,44.835,0.795C1181.376,1254.866,1170.926,1253.04,1170.926,1253.04z"/>
																	<path fill="#BC6E39" d="M950.309,1313.821c4.656-12.353-5.789-14.169-5.789-14.169
																		c-11.672-1.355-16.938,2.895-24.043,5.556l-15.004,7.824C937.36,1318.632,949.475,1316.051,950.309,1313.821z"/>
																	<path fill="#BC6E39" d="M1024.42,1399.54c-11.672-1.354-16.938,2.896-24.044,5.556l-15.003,7.824
																		c31.896,5.604,44.002,3.021,44.836,0.794C1034.87,1401.372,1024.42,1399.54,1024.42,1399.54z"/>
																</g>
															</g>
														</g>
													</g>
												</g>
											</g>
										</g>
									</g>
								</g>
							</g>
						</g>
					</g>
					<g>
						<g>
							<g>
								<g>
									<g>
										<g>
											<g>
												<g>
													<g>
														<g>
															<g>
																<defs>
																	<path id="SVGID_27_" d="M153.797,1790.126c-9.711-359.604,448.383-543.282,448.383-543.282
																		s10.014-4.766,63.271-19.427c93.776-25.806,458.075-65.532,594.05-64.247c65.672,0.621,41.477,1.127,247.229,7.646
																		c245.283,7.77,413.627,56.344,654.813,276.354c164.154,149.752,156.022,331.393,137.764,355.63
																		c-62.291,82.771-398.032,143.869-586.137,155.153c-188.134,11.273-87.169,8.979-665.923-5.788
																		c-331.571-8.465-523.92-47.603-783.574-81.018C142.974,1855.604,153.797,1790.126,153.797,1790.126
																		L153.797,1790.126z"/>
																</defs>
																<clipPath id="SVGID_28_">
																	<use xlink:href="#SVGID_27_"  overflow="visible"/>
																</clipPath>
																<g id="Sesame_Shadow" clip-path="url(#SVGID_28_)">
																	<path fill="#FFDEC7" d="M1040.302,1222.244l-15.813-5.451c-7.357-1.639-13.088-4.91-24.54-2.452
																		c0,0-10.147,2.75-4.094,13.354C996.956,1229.611,1009.277,1230.659,1040.302,1222.244z"/>
																	<path fill="#FFDEC7" d="M587.078,1280.931c0,0-10.148,2.75-4.092,13.359c1.093,1.912,13.42,2.959,44.438-5.456
																		l-15.813-5.456C604.26,1281.755,598.531,1278.483,587.078,1280.931z"/>
																	<path fill="#FFDEC7" d="M971.214,1369.961c-7.354-1.638-13.087-4.91-24.54-2.452c0,0-10.146,2.75-4.086,13.359
																		c1.093,1.911,13.42,2.954,44.438-5.456L971.214,1369.961z"/>
																	<path fill="#FFDEC7" d="M860.105,1474.049c0,0-10.146,2.751-4.096,13.36c1.098,1.911,13.419,2.953,44.438-5.457
																		l-15.816-5.455C877.289,1474.868,871.561,1471.604,860.105,1474.049z"/>
																	<path fill="#FFDEC7" d="M1291.902,1291.282c0,0-9.367,4.775-1.25,13.91c1.464,1.644,13.74,0.125,42.356-14.496
																		l-16.592-2.08C1308.872,1288.542,1302.598,1286.521,1291.902,1291.282z"/>
																	<path fill="#FFDEC7" d="M1435.459,1302.993c0,0-10.52-0.238-7.709,11.657c0.506,2.145,12.033,6.638,44.164,7.354
																		l-13.612-9.711C1451.699,1308.646,1447.131,1303.882,1435.459,1302.993z"/>
																	<path fill="#FFDEC7" d="M1392.406,1322.104c0,0-9.939,3.446-3.162,13.604c1.229,1.832,13.593,2.016,43.961-8.529
																		l-16.154-4.344C1409.589,1321.72,1403.65,1318.86,1392.406,1322.104z"/>
																	<path fill="#FFDEC7" d="M1245.076,1459.403c0,0-8.91,5.59-0.01,13.971c1.6,1.509,13.703-1.1,40.906-18.221
																		l-16.725-0.585C1261.738,1455.153,1255.309,1453.709,1245.076,1459.403z"/>
																	<path fill="#FFDEC7" d="M1789.361,1389.626l11.604,12.044c5.818,4.812,9.436,10.316,20.76,13.325
																		c0,0,10.284,2.175,9.698-10.033C1831.327,1402.757,1820.816,1396.224,1789.361,1389.626z"/>
																	<path fill="#FFDEC7" d="M1185.969,1328.76c0,0-9.935,3.45-3.158,13.604c1.229,1.831,13.6,2.016,43.965-8.529
																		l-16.152-4.345C1203.156,1328.383,1197.223,1325.518,1185.969,1328.76z"/>
																	<path fill="#FFDEC7" d="M1265.879,1428.646c0,0-9.93,3.449-3.152,13.604c1.227,1.832,13.59,2.016,43.961-8.529
																		l-16.148-4.344C1283.066,1428.271,1277.133,1425.405,1265.879,1428.646z"/>
																	<path fill="#FFDEC7" d="M843.619,1315.266c-7.552-0.084-13.827-2.1-24.521,2.656c0,0-9.363,4.781-1.251,13.911
																		c1.47,1.646,13.737,0.124,42.368-14.497L843.619,1315.266z"/>
																	<path fill="#FFDEC7" d="M725.615,1460.021c0,0-8.719,5.896,0.462,13.97c1.653,1.446,13.647-1.563,40.268-19.58
																		l-16.729-0.025C742.117,1455.218,735.645,1453.987,725.615,1460.021z"/>
																	<path fill="#FFDEC7" d="M893.508,1277.386l-16.597-2.072c-7.551-0.076-13.826-2.098-24.515,2.653
																		c0,0-9.373,4.781-1.256,13.911C852.604,1293.526,864.882,1292.002,893.508,1277.386z"/>
																	<path fill="#FFDEC7" d="M532.641,1463.437c0,0-7.48,7.396,3.023,13.642c1.896,1.127,13.132-4.041,35.979-26.655
																		l-16.441,3.049C547.977,1455.68,541.384,1455.66,532.641,1463.437z"/>
																	<path fill="#FFDEC7" d="M1449.753,1220.596c4.656-12.347-5.789-14.169-5.789-14.169
																		c-11.677-1.354-16.938,2.896-24.048,5.553l-14.998,7.822C1436.8,1225.401,1448.918,1222.82,1449.753,1220.596z"/>
																	<path fill="#FFDEC7" d="M1357.381,1253.04c-11.676-1.36-16.938,2.896-24.049,5.555l-14.998,7.824
																		c31.902,5.604,44.002,3.016,44.836,0.795C1367.837,1254.866,1357.381,1253.04,1357.381,1253.04z"/>
																	<path fill="#FFDEC7" d="M1582.934,1207.276c4.656-12.354-5.789-14.172-5.789-14.172
																		c-11.677-1.354-16.938,2.896-24.049,5.558l-14.998,7.824C1569.984,1212.082,1582.1,1209.5,1582.934,1207.276z"/>
																	<path fill="#FFDEC7" d="M1610.432,1292.995c-11.672-1.355-16.938,2.895-24.043,5.555l-15.003,7.824
																		c31.913,5.601,44.001,3.014,44.835,0.795C1620.878,1294.827,1610.432,1292.995,1610.432,1292.995z"/>
																	<path fill="#FFDEC7" d="M1692.929,1427.809c-9.825-6.459-16.446-5.023-23.989-5.849l-16.912,0.244
																		c25.974,19.342,37.959,22.475,39.695,20.866C1701.438,1434.129,1692.929,1427.809,1692.929,1427.809z"/>
																	<path fill="#FFDEC7" d="M1254.568,1252.985c7.812-10.635-1.76-15.207-1.76-15.207
																		c-10.865-4.453-17.104-1.787-24.662-1.143l-16.557,3.485C1240.822,1254.127,1253.174,1254.901,1254.568,1252.985z"
																		/>
																	<path fill="#FFDEC7" d="M1156.742,1207.276c4.656-12.354-5.789-14.172-5.789-14.172
																		c-11.672-1.354-16.939,2.896-24.044,5.558l-15.003,7.824C1143.794,1212.082,1155.907,1209.5,1156.742,1207.276z"/>
																	<path fill="#FFDEC7" d="M910.348,1213.934c4.657-12.347-5.787-14.169-5.787-14.169
																		c-11.678-1.354-16.939,2.896-24.05,5.561l-15.003,7.821C897.405,1218.744,909.52,1216.162,910.348,1213.934z"/>
																	<path fill="#FFDEC7" d="M1071.037,1219.742c-11.677-1.36-16.943,2.895-24.048,5.556l-15.003,7.824
																		c31.896,5.6,44.006,3.018,44.835,0.794C1081.483,1221.574,1071.037,1219.742,1071.037,1219.742z"/>
																	<path fill="#FFDEC7" d="M1170.926,1246.382c-11.678-1.354-16.941,2.896-24.049,5.559l-15.003,7.821
																		c31.897,5.604,44.006,3.02,44.835,0.794C1181.376,1248.209,1170.926,1246.382,1170.926,1246.382z"/>
																	<path fill="#FFDEC7" d="M950.309,1307.164c4.656-12.351-5.789-14.169-5.789-14.169
																		c-11.672-1.355-16.938,2.894-24.043,5.555l-15.004,7.824C937.36,1311.97,949.475,1309.388,950.309,1307.164z"/>
																	<path fill="#FFDEC7" d="M1024.42,1392.883c-11.672-1.354-16.938,2.896-24.044,5.562l-15.003,7.818
																		c31.896,5.604,44.002,3.019,44.836,0.794C1034.87,1394.715,1024.42,1392.883,1024.42,1392.883z"/>
																</g>
															</g>
														</g>
													</g>
												</g>
											</g>
										</g>
									</g>
								</g>
							</g>
						</g>
					</g>
				</g>
				<path fill="#00AB00" d="M2324.145,2173.031"/>
			</g>
		</g>
		<g id="Rice_Bun">
		</g>
	</g>
	<g id="Rice_Bun_1_">
		<path fill="#FFC5C5" stroke="#000000" stroke-miterlimit="10" d="M2084.5,1530.5c0,0,11-36-85-23l-87-22l-96-23l-50-10l-62-12
			l-59-10l-57-8l-35-3l-58-6l-61-4l-62-3l-52-3l-41-2h-44l-73,3h-40l-68,1l-41,4l-35,3l-54,4l-30,5l-39,5l-53,5l-61,7l-36,8l-48,8
			l-51,14l-56,11l-50,15l-49,13l-35,9l-40,10l-48,14l-37,14l-35,12l-48,25l-17,21l-16,13l-25,5l-5,19l1,21l-3,22l-9,23l6,25l4,22
			l-3,36l13,21l22,21c2.5,5.833,4.833,12.833,20,10c0,0-1.167,13.667,15.667,10.667c0,0,7.333,13.333,21.667,4.666
			c0,0,6.167,10.333,21.833,4.167c0,0,9.708,14.75,25.208,2.75c0,0,10.125,14.875,29.375,3.125c0,0,13.125,16.375,33.875,3.375
			c0,0,5.5,12.75,31.625,5c0,0-10.875,16.625,37.5,4.875c0,0-1.625,11.75,38.625,6.625c0,0,9.25,12.75,33.75,7.125
			c0,0-6.125,14.25,40.375,3.625c0,0,10.875,16.5,44.25,6.375c0,0,3,13.875,36.625,3.75c0,0,11.625,14.25,34,4.5
			c0,0-7.375,17.375,39.125,3.5c0,0,13.75,11.625,39,5.5c0,0,20.25,11.625,36.375,3.875c0,0,11.708,11.001,30.708,2.501
			c0,0,14.667,7.916,26.25,2.5c0,0,15.833,12.833,28.083,2.25c0,0,7.917,8.25,24.083,2.5c0,0,10.917,7.916,22.083,0.916
			c0,0,7.75,8.334,22.5,0.834c0,0,10.333,6.167,23.167,1.167c0,0-6.917,8.666,24.667,2.499c0,0,10.833,6.167,23.333,1.667
			c0,0,3.333,8.5,24.25-0.417c0,0,7.333,6.501,20.667,0.917c0,0,11.333,8.667,27.75,1.833c0,0-1.833,10.001,23.417-0.416
			c0,0,12.167,8.75,26.167,1.75c0,0,13.917,7,29.167-1c0,0,2.583,9.661,27.75,1.833c0,0,12.583,9.828,32.667,0.328
			c0,0,15.292,9.838,36.833,1.251c0,0,15.083,8.212,33.333,0.712c0,0,18.75,7.625,31.75,1c0,0,15.25,6.875,29.5,0.625
			c0,0,17.25,7.625,29.5,0.5c0,0,12.375,10,32.625,0.75c0,0,14.875,10.25,31.5,0.375c0,0,16.625,11.375,35.125,2.25
			c0,0,17.625,7.75,29.5-0.25c0,0,25.375,14.625,28.75,2.875c0,0,20,7.375,27-1.25c0,0,19.375,8.375,24,0c0,0,12,6.5,22.5-1.125
			c0,0,11.375,7.5,18.125-0.25c0,0,28.708,10.584,25.708-0.291c0,0,16.667,5.667,20.667-0.333c0,0,11.875,6.916,17.25-3.459
			c0,0,3.333,14.875,10.083,1.125c0,0,16,6.334,23-1c0,0,12.75,5.75,15.75-1.25c0,0,25.917,10.251,21.25-0.416
			c0,0,10.583,6.5,15.833-0.75c0,0,22.25,6.833,21.5-0.917c0,0,22.25,5.75,23-2c0,0,22.667,3.667,20.667-3.333
			c0,0,21.417,8.333,22.667-0.667c0,0,21.667,6.333,25-3c0,0,17,4.416,24.25-4.334c0,0,24.5,1.25,25-4c0,0,18.25,8.334,16.25-3
			c0,0,4.25,10.25,18-3.25c0,0,19.75,1.75,20.5-4.75c0,0,26.25,2.5,20-6.75c0,0,22.917,4.999,19-2.5l19.25-4.5
			c0,0,2.417,14.751,7.75-3.249s-0.667-10-0.667-10s11.333,21.334,22,6.667s2-8,2-8l20.667,3.333c0,0,11.332,10.667,14.666-1.333
			s-5.333-8-5.333-8s38.666,14.666,41.333,2.666s-2.666-9.333-2.666-9.333s17.332,11.333,18.666,1.333s-2-10-2-10l25.334-4.666
			c0,0,11.332,0.667,12.666-8s12.667,0,12.667,0s14.667,6,14-2.667c0,0,18.167,0.499,18.667-10.501s20.5,9.5,26-8.5s2.5-8,2.5-8
			s22,9.5,25.5-12s18.5,12,20-19.5s2.5-25,2.5-25s11-4.5,4-14.5s-4.5-6-4.5-6s18.898-15.5,6.199-25s-4.949-9.5-4.949-9.5
			s19.5-16.5,0-33.5s-4.583-10.667-4.583-10.667s15.333-3.333,1.333-24.833s-5.5-10-5.5-10s19.02-8.033,1.01-20.017
			c-18.01-11.984-5.51-4.983-5.51-4.983s20.5-14-4-21s-7.5,0-7.5,0s2.241-13.447-13.408-16.646
			c-5.257-1.074-12.533-0.992-22.592,1.146c0,0-29.5-34-46.5-21s-11,7-11,7s3-24-20-19s-23,9-23,9s14-25-22-27
			S2084.5,1530.5,2084.5,1530.5"/>
	</g>
	<path id="Reference" fill="none" stroke="#FF0000" stroke-miterlimit="10" d="M2262.5,1602.5c0,0-942-439.36-2086,0"/>
</g>
</svg>
