<?xml version="1.0" encoding="utf-8"?>
<!-- Generator: Adobe Illustrator 16.0.0, SVG Export Plug-In . SVG Version: 6.00 Build 0)  -->
<!DOCTYPE svg PUBLIC "-//W3C//DTD SVG 1.1//EN" "http://www.w3.org/Graphics/SVG/1.1/DTD/svg11.dtd">
<svg version="1.1" xmlns="http://www.w3.org/2000/svg" xmlns:xlink="http://www.w3.org/1999/xlink" x="0px" y="0px" width="2480px"
	 height="3508px" viewBox="0 0 2480 3508" enable-background="new 0 0 2480 3508" xml:space="preserve">
<g id="Layer_1">
	<g id="Layer_1_2_">
		<g id="Layer_1_1_">
			<g id="Brioche_Bun">
				<g id="Bottom_Bun" opacity="0.5">
					<g>
						<g>
							<g>
								<g>
									<g>
										<g>
											<g>
												<g>
													<g>
														<g>
															<g>
																<g>
																	<g>
																		<g>
																			<g>
																				<g>
																					<defs>
																						<path id="SVGID_1_" d="M181.201,2219.743c-20.474,7.945-15.628,8.634-21.303,27.363
																							c-6.623,21.873-8.326,71.584-7.492,81.582c0.834,10,4.543,105.725,39.121,111.813
																							c415.091,73.253,889.032,94.169,1122.077,87.715c561.604-15.539,445.27-25.986,794.683-75.507
																							c147.34-20.881,194.42-28.854,200.427-68.812c6.008-39.949,18.217-104.332,8.223-139.851
																							c-10.004-35.496-4.177-51.334-44.395-52.153"/>
																					</defs>
																					<clipPath id="SVGID_2_">
																						<use xlink:href="#SVGID_1_"  overflow="visible"/>
																					</clipPath>
																					<path id="Bottom_Bun_base" clip-path="url(#SVGID_2_)" fill="#FF9827" d="M152.213,2466.027
																						c102.579,23.294,1923.875,316.313,2216.881-34.956c293.006-351.275-78.699-270.441-154.39-311.315
																						c-75.69-40.894-1653.199-49.592-1909.785,7.66c-256.585,57.257-316.513,43.947-303.193,133.841
																						C15.061,2351.161,152.213,2466.027,152.213,2466.027z"/>
																				</g>
																			</g>
																		</g>
																	</g>
																</g>
															</g>
														</g>
													</g>
												</g>
											</g>
										</g>
									</g>
								</g>
							</g>
						</g>
						<g>
							<g>
								<g>
									<g>
										<g>
											<g>
												<g>
													<g>
														<g>
															<g>
																<g>
																	<g>
																		<g>
																			<g>
																				<g>
																					<defs>
																						<path id="SVGID_3_" d="M181.201,2219.743c-20.474,7.945-15.628,8.634-21.303,27.363
																							c-6.623,21.873-8.326,71.584-7.492,81.582c0.834,10,4.543,105.725,39.121,111.813
																							c415.091,73.253,889.032,94.169,1122.077,87.715c561.604-15.539,445.27-25.986,794.683-75.507
																							c147.34-20.881,194.42-28.854,200.427-68.812c6.008-39.949,18.217-104.332,8.223-139.851
																							c-10.004-35.496-4.177-51.334-44.395-52.153"/>
																					</defs>
																					<clipPath id="SVGID_4_">
																						<use xlink:href="#SVGID_3_"  overflow="visible"/>
																					</clipPath>
																					<path id="Bottom_Bun_Shadow_1A" clip-path="url(#SVGID_4_)" fill="#FF8429" d="M128.264,2219.743
																						c4.994,19.873,7.74,27.435,29.52,36.063c21.78,8.637,10.589,24.168,30.493,14.813
																						c19.903-9.363,11.021-15.365,38.217,2.903c27.196,18.271,15.827,4.396,45.372,21.039
																						c29.544,16.639,46.201,26.313,72.831,15.396c26.631-10.917,54.938-9.582,78.248,0
																						c23.304,9.582,46.604,14.576,59.932,14.576s21.204,19.173,39.956,0c18.751-19.163,29.966-25.796,46.617-14.576
																						c16.646,11.24,1.663,13.306,33.298,23.085c31.635,9.796,29.967,11.464,48.281,9.796
																						c18.312-1.663,13.313-11.657,53.271-11.657s36.624-3.32,64.931,4.999c28.31,8.326,48.277,17.778,63.271,7.229
																						c14.979-10.557,9.989-28.864,38.287-12.229c28.304,16.649,41.623,25.475,68.259,16.896
																						c26.635-8.579,19.979-13.556,54.938-13.556c34.961,0,38.293,0,68.265,6.65c29.966,6.657,29.966,9.993,44.943,0
																						c14.979-9.987,23.313-19.979,51.608-13.313c28.306,6.652,36.624,25.463,58.271,23.553
																						c21.646-1.928,14.021,10.495,38.645,0.124c24.63-10.371,22.962-17.039,52.923-22.033
																						c29.971-4.992,23.311-14.99,61.6,0c38.293,14.993,24.979,35.762,64.934,26.203
																						c39.955-9.563,18.311-4.572,61.596-11.229c43.285-6.666,26.619-13.33,63.25,0
																						c36.623,13.317,46.629,14.985,61.599,6.654c14.998-8.322-4.995-16.646,31.63-9.984
																						c36.623,6.653,21.645,19.977,53.271,9.984c31.637-9.984,41.623-24.967,68.262-19.973
																						c26.619,5.01,36.623,6.673,44.947,1.679c8.323-5.005-19.976-1.679,19.965-6.673
																						c39.965-4.994,28.297,3.336,61.596,8.341c33.3,4.994,38.293,1.663,53.271-5.005
																						c14.988-6.662-24.928-26.688,43.285-19.555c68.216,7.129,58.396,27.886,99.89,12.918
																						c41.481-14.998,57.028,3.549,89.894-12.918c32.865-16.453,54.322-8.331,64.922-21.001
																						c10.604-12.688,20.476-16.563,32.713-24.619c12.252-8.06,24.181-33.854,23.451-44.573
																						c-0.734-10.718-2.795-12.52,0.03-27.838c2.83-15.344-206.02-32.188-229.313-32.188
																						c-23.289,0-1145.271,24.223-1193.604,25.419c-48.343,1.2-607.651-15.146-633.456-7.509
																						c-25.796,7.643-124.095,32.019-124.095,32.019"/>
																				</g>
																			</g>
																		</g>
																	</g>
																</g>
															</g>
														</g>
													</g>
												</g>
											</g>
										</g>
									</g>
								</g>
							</g>
						</g>
						<g>
							<g>
								<g>
									<g>
										<g>
											<g>
												<g>
													<g>
														<g>
															<g>
																<g>
																	<g>
																		<g>
																			<g>
																				<g>
																					<defs>
																						<path id="SVGID_5_" d="M181.201,2219.743c-20.474,7.945-15.628,8.634-21.303,27.363
																							c-6.623,21.873-8.326,71.584-7.492,81.582c0.834,10,4.543,105.725,39.121,111.813
																							c415.091,73.253,889.032,94.169,1122.077,87.715c561.604-15.539,445.27-25.986,794.683-75.507
																							c147.34-20.881,194.42-28.854,200.427-68.812c6.008-39.949,18.217-104.332,8.223-139.851
																							c-10.004-35.496-4.177-51.334-44.395-52.153"/>
																					</defs>
																					<clipPath id="SVGID_6_">
																						<use xlink:href="#SVGID_5_"  overflow="visible"/>
																					</clipPath>
																					<path id="Bottom_Bun_Shadow_1B" clip-path="url(#SVGID_6_)" fill="#FF8429" d="M153.543,2492.677
																						c-2.304-58.264-43.589-128.186-14.457-139.843c29.137-11.657-75.681-99.466,0-43.291
																						c80.745,59.935,150.879,88.646,182.295,91.565c43.68,4.028,243.063,43.273,337.956,44.938
																						c94.894,1.668,14.982,1.668,176.472,0c161.483-1.663,457.816,33.3,584.354,21.646
																						c126.521-11.668,579.346-69.929,625.963-71.597c46.633-1.651,103.219-16.646,139.844-31.629
																						c36.628-14.998,87.063-33.299,99.302-43.287c12.266-10.002,23.896-26.636,38.879-43.295
																						c14.998-16.646,76.604-39.955,74.938,31.629c-1.662,71.584-311.313,264.691-521.084,279.689
																						s-1694.783-39.933-1693.124-59.896"/>
																				</g>
																			</g>
																		</g>
																	</g>
																</g>
															</g>
														</g>
													</g>
												</g>
											</g>
										</g>
									</g>
								</g>
							</g>
						</g>
						<g>
							<g>
								<g>
									<g>
										<g>
											<g>
												<g>
													<g>
														<g>
															<g>
																<g>
																	<g>
																		<g>
																			<g>
																				<g>
																					<defs>
																						<path id="SVGID_7_" d="M181.201,2219.743c-20.474,7.945-15.628,8.634-21.303,27.363
																							c-6.623,21.873-8.326,71.584-7.492,81.582c0.834,10,4.543,105.725,39.121,111.813
																							c415.091,73.253,889.032,94.169,1122.077,87.715c561.604-15.539,445.27-25.986,794.683-75.507
																							c147.34-20.881,194.42-28.854,200.427-68.812c6.008-39.949,18.217-104.332,8.223-139.851
																							c-10.004-35.496-4.177-51.334-44.395-52.153"/>
																					</defs>
																					<clipPath id="SVGID_8_">
																						<use xlink:href="#SVGID_7_"  overflow="visible"/>
																					</clipPath>
																					<path id="Bottom_Bun_Shadow_1C" clip-path="url(#SVGID_8_)" fill="#FF8429" d="M787.523,2399.44
																						c166.479,0,602.664,31.629,670.916,19.961c68.26-11.648,148.185-14.985,194.773-19.961
																						c46.612-4.996-386.229,0-412.872,0"/>
																				</g>
																			</g>
																		</g>
																	</g>
																</g>
															</g>
														</g>
													</g>
												</g>
											</g>
										</g>
									</g>
								</g>
							</g>
						</g>
						<g>
							<g>
								<g>
									<g>
										<g>
											<g>
												<g>
													<g>
														<g>
															<g>
																<g>
																	<g>
																		<g>
																			<g>
																				<g>
																					<defs>
																						<path id="SVGID_9_" d="M181.201,2219.743c-20.474,7.945-15.628,8.634-21.303,27.363
																							c-6.623,21.873-8.326,71.584-7.492,81.582c0.834,10,4.543,105.725,39.121,111.813
																							c415.091,73.253,889.032,94.169,1122.077,87.715c561.604-15.539,445.27-25.986,794.683-75.507
																							c147.34-20.881,194.42-28.854,200.427-68.812c6.008-39.949,18.217-104.332,8.223-139.851
																							c-10.004-35.496-4.177-51.334-44.395-52.153"/>
																					</defs>
																					<clipPath id="SVGID_10_">
																						<use xlink:href="#SVGID_9_"  overflow="visible"/>
																					</clipPath>
																					<path id="Bottom_Bun_Shadow_2A" clip-path="url(#SVGID_10_)" fill="#FF6D2C" d="M190.837,2214.173
																						c-13.965,9.313-22.748,13.647-16.343,24.336c6.409,10.688-2.691,27.313,10.376,24.416
																						c13.067-2.889,25.106-6.576,39.33-3.51c14.224,3.083,69.068,19.134,80.352,29.078
																						c11.279,9.947,19.854,14.874,31.257,6.623c11.409-8.271,23.081-14.063,43.84-8.051
																						c20.765,6.002,22.761,3.096,50.493,12.229c27.742,9.135,38.664,13.082,49.309,8.895
																						c10.634-4.205,22.842-4.205,38.381-4.205s5.546-11.069,32.181-13.313c26.646-2.222,29.971,4.444,37.741,14.403
																						c7.771,10.013,27.747,28.588,37.729,18.185c9.987-10.421,12.221-18.185,24.43-20.394
																						c12.195-2.225,24.415-7.771,41.063-4.445c16.651,3.324,56.188,9.654,64.229,10.855
																						c8.048,1.18,19.015,23.272,37.88,13.979c18.865-9.289,24.416-10.41,41.063-12.635
																						c16.648-2.222,28.854-4.443,39.953,2.214c11.104,6.668,37.74,14.164,48.831,10.421
																						c11.104-3.743,27.747-2.919,49.943,0c22.196,2.908,33.298,4.031,38.844-7.084
																						c5.545-11.096-3.646-18.553,17.979-20.861c21.613-2.312,21.979-2.438,39.731,5.322
																						c17.767,7.764,16.651,11.091,39.956,8.876c23.313-2.214,21.096-11.097,56.604,0
																						c35.513,11.096,32.188,29.972,53.271,22.202c21.084-7.771,23.998-0.289,36.426-8.455
																						c12.428-8.175,9.734-12.979,36.822-14.847c27.104-1.873,24.946-2.086,45.771,3.398
																						c20.824,5.479,41.897,5.479,45.234,1.038c3.332-4.438,17.754-9.986,31.084,0
																						c13.321,10.012,31.065,11.915,38.838,10.43c7.77-1.53,11.101-4.032,24.416,0
																						c13.336,4.022,15.539,0.416,35.517,0c19.973-0.418,19.973-11.791,33.298,0
																						c13.314,11.791,36.624,11.021,43.286,10.277c6.653-0.728-2.209-8.771,18.868-10.277
																						c21.084-1.539,19.976-4.032,34.422,0c14.416,4.022,15.537,11.727,33.298,10.649
																						c17.758-1.082,24.421,14.601,31.077,0.104c6.654-14.48,5.188-13.636,20.91-20.729
																						c15.726-7.092,33.369-11.262,46.797-7.092c13.426,4.17,24.416,12.213,33.293,5.558
																						c8.877-6.662,12.8-7.032,28.855-13.323c16.032-6.302,26.612,2.209,48.832,0
																						c22.198-2.221,36.623-4.444,44.379,2.205c7.771,6.655,8.877,13.33,16.647,6.655
																						c7.762-6.655,12.209-11.081,25.524-14.417c13.334-3.324,31.943-10.225,44.81-7.457
																						c12.885,2.758,20.244,3.404,38.217,10.428c17.957,7.021,16.283,18.021,32.681,9.189
																						c16.379-8.818,25.682-19.096,40.438-9.521c14.771,9.57,37.396,26.563,47.198,13.082
																						c9.815-13.479,24.804-14.188,38.5-12.385c13.713,1.813,25.639-8.863,26.761-13.322
																						c1.104-4.438-2.229-11.092,8.877-18.856c11.086-7.771,25.194-4.771,24.813-17.918
																						c-0.396-13.146,7.688-18.866,8.813-28.646c1.138-9.813,13.938-11.77,3.162-22.539
																						c-10.764-10.764-30.745-10.021-35.688-7.14c-4.933,2.88-101.147-0.62-55.854,7.14
																						c34.364,5.896,26.063,50.271-82.536,59.271c-107.053,13.346-226.2,17.375-280.5,17.063
																						c-65.475,1.861-127.021,6.688-251.334,13.348c-124.309,6.656-654.026-11.438-692.875-13.647
																						c-38.844-2.22-491.512-7.992-504.832-10.236c-27.313-0.313-82.545-9.313-123.188-15.205
																						c-75.899-9.613,90.917-25.758,68.884-28.854C303.037,2212.966,190.837,2214.173,190.837,2214.173z"/>
																				</g>
																			</g>
																		</g>
																	</g>
																</g>
															</g>
														</g>
													</g>
												</g>
											</g>
										</g>
									</g>
								</g>
							</g>
						</g>
						<g>
							<g>
								<g>
									<g>
										<g>
											<g>
												<g>
													<g>
														<g>
															<g>
																<g>
																	<g>
																		<g>
																			<g>
																				<g>
																					<defs>
																						<path id="SVGID_11_" d="M181.201,2219.743c-20.474,7.945-15.628,8.634-21.303,27.363
																							c-6.623,21.873-8.326,71.584-7.492,81.582c0.834,10,4.543,105.725,39.121,111.813
																							c415.091,73.253,889.032,94.169,1122.077,87.715c561.604-15.539,445.27-25.986,794.683-75.507
																							c147.34-20.881,194.42-28.854,200.427-68.812c6.008-39.949,18.217-104.332,8.223-139.851
																							c-10.004-35.496-4.177-51.334-44.395-52.153"/>
																					</defs>
																					<clipPath id="SVGID_12_">
																						<use xlink:href="#SVGID_11_"  overflow="visible"/>
																					</clipPath>
																					<path id="Bottom_Bun_2B" clip-path="url(#SVGID_12_)" fill="#FF6D2C" d="M139.086,2380.576
																						c64.376,66.596,408.711,92.134,445.335,94.338c36.624,2.219,581.568,39.96,619.31,37.751
																						c37.736-2.229,311.877-12.213,361.821-15.545c49.958-3.344,275.237-18.875,307.429-31.083
																						c32.189-12.22,216.446-34.42,255.274-45.521c38.843-11.071,129.851-23.28,147.606-37.729
																						c17.759-14.431,67.688-57.709,76.58-69.925c8.887-12.213-9.989,91.002-39.955,108.768
																						c-29.976,17.758-482.797,112.091-524.971,115.427c-42.176,3.326-648.156,29.962-721.419,27.747
																						c-73.252-2.214-563.812-53.271-632.625-62.146c-68.81-8.886-236.066-19.979-258.988-46.636"/>
																				</g>
																			</g>
																		</g>
																	</g>
																</g>
															</g>
														</g>
													</g>
												</g>
											</g>
										</g>
									</g>
								</g>
							</g>
						</g>
					</g>
				</g>
				<g id="Burger_Bun_Top" opacity="0.5">
					<g>
						<g>
							<g>
								<g>
									<g>
										<g>
											<g>
												<g>
													<g>
														<g>
															<g>
																<g>
																	<g>
																		<g>
																			<g>
																				<g>
																					<defs>
																						<path id="SVGID_13_" d="M153.797,1790.126c-9.711-359.604,448.383-543.282,448.383-543.282
																							s10.018-4.766,63.271-19.427c93.775-25.806,458.074-65.532,594.05-64.247
																							c65.672,0.621,41.478,1.127,247.229,7.646c245.279,7.77,413.627,56.344,654.813,276.354
																							c164.154,149.752,156.021,331.396,137.764,355.63c-62.291,82.771-398.031,143.869-586.137,155.153
																							c-188.134,11.271-87.169,8.979-665.923-5.788c-331.571-8.465-523.92-47.604-783.574-81.018
																							C142.974,1855.604,153.797,1790.126,153.797,1790.126L153.797,1790.126z"/>
																					</defs>
																					<clipPath id="SVGID_14_">
																						<use xlink:href="#SVGID_13_"  overflow="visible"/>
																					</clipPath>
																					<path id="Burger_Bun" clip-path="url(#SVGID_14_)" fill="#FF9827" d="M153.797,1790.126
																						c-9.711-359.604,448.383-543.282,448.383-543.282s10.018-4.766,63.271-19.427
																						c93.775-25.806,458.074-65.532,594.05-64.247c65.672,0.621,41.478,1.127,247.229,7.646
																						c245.279,7.77,413.627,56.344,654.813,276.354c164.154,149.752,156.021,331.396,137.764,355.63
																						c-62.291,82.771-398.031,143.869-586.137,155.153c-188.134,11.271-87.169,8.979-665.923-5.788
																						c-331.571-8.465-523.92-47.604-783.574-81.018C142.974,1855.604,153.797,1790.126,153.797,1790.126
																						L153.797,1790.126z"/>
																				</g>
																			</g>
																		</g>
																	</g>
																</g>
															</g>
														</g>
													</g>
												</g>
											</g>
										</g>
									</g>
								</g>
							</g>
						</g>
						<g>
							<g>
								<g>
									<g>
										<g>
											<g>
												<g>
													<g>
														<g>
															<g>
																<g>
																	<g>
																		<g>
																			<g>
																				<g>
																					<defs>
																						<path id="SVGID_15_" d="M153.797,1790.126c-9.711-359.604,448.383-543.282,448.383-543.282
																							s10.018-4.766,63.271-19.427c93.775-25.806,458.074-65.532,594.05-64.247
																							c65.672,0.621,41.478,1.127,247.229,7.646c245.279,7.77,413.627,56.344,654.813,276.354
																							c164.154,149.752,156.021,331.396,137.764,355.63c-62.291,82.771-398.031,143.869-586.137,155.153
																							c-188.134,11.271-87.169,8.979-665.923-5.788c-331.571-8.465-523.92-47.604-783.574-81.018
																							C142.974,1855.604,153.797,1790.126,153.797,1790.126L153.797,1790.126z"/>
																					</defs>
																					<clipPath id="SVGID_16_">
																						<use xlink:href="#SVGID_15_"  overflow="visible"/>
																					</clipPath>
																					<path id="Bun_Shadow" clip-path="url(#SVGID_16_)" fill="#FF8429" d="M236.174,1308.206
																						c-18.92,343.556-19.461,360.848,79.458,374.793c20.464,2.885,152.369,24.302,170.172,2.026
																						c17.252-21.604,33.134-96.896,47.566-120.918c13.469-22.438,46.836-49.646,41.063-40.354
																						c-59.934,96.563-49.651,161.295-36.188,169.396c45.078,27.062,75.045,51.875,300.358,21.353
																						c247.664-33.536,342.091,96.412,506.634,68.745c109.532-18.419,128.171,12.004,191.286-29.684
																						c10.162-6.721-27.297-35.021-13.146-60.816c21.198-38.63,35.795-89.899-4.161-156.489
																						c-4.163-6.931,24.142,27.476,40.79,59.938c34.856,67.979-74.087,125.688,14.164,152.327
																						c31.604,9.541,93.091-7.771,149.36-13.043c119.727-11.231,192.784-0.01,227.079-33.016
																						c61.131-58.831,37.808-110.582,37.813-125.421c0-7.396,22.941,44.215,9.38,101.541
																						c-3.827,16.11,67.78-20.354,134.013-44.646c164.541-60.354,17.639-422.354,22.688-401.563
																						c24.313,99.759,253.508,437.258,253.508,437.258l-172.764,173.984c0,0-143.635,97.229-191.673,103.959
																						c-540.819,75.495-340.964,113.161-970.298,52.809c-629.35-60.37-854.816-62.475-943.022-205.817
																						C43.195,1653.083,235.872,1313.836,236.174,1308.206z"/>
																				</g>
																			</g>
																		</g>
																	</g>
																</g>
															</g>
														</g>
													</g>
												</g>
											</g>
										</g>
									</g>
								</g>
							</g>
						</g>
						<g>
							<g>
								<g>
									<g>
										<g>
											<g>
												<g>
													<g>
														<g>
															<g>
																<g>
																	<g>
																		<g>
																			<g>
																				<g>
																					<defs>
																						<path id="SVGID_17_" d="M153.797,1790.126c-9.711-359.604,448.383-543.282,448.383-543.282
																							s10.018-4.766,63.271-19.427c93.775-25.806,458.074-65.532,594.05-64.247
																							c65.672,0.621,41.478,1.127,247.229,7.646c245.279,7.77,413.627,56.344,654.813,276.354
																							c164.154,149.752,156.021,331.396,137.764,355.63c-62.291,82.771-398.031,143.869-586.137,155.153
																							c-188.134,11.271-87.169,8.979-665.923-5.788c-331.571-8.465-523.92-47.604-783.574-81.018
																							C142.974,1855.604,153.797,1790.126,153.797,1790.126L153.797,1790.126z"/>
																					</defs>
																					<clipPath id="SVGID_18_">
																						<use xlink:href="#SVGID_17_"  overflow="visible"/>
																					</clipPath>
																					<path id="Burger_Darker_Shadow_1_" clip-path="url(#SVGID_18_)" fill="#FF6D2C" d="M346.334,1770.739
																						c99.913-12.248,128.211,92.635,434.532,89.308c92.749-1.008,56.909-48.593,162.854-3.188
																						c105.939,45.396,53.041,78.993,260.011,26.334c149.832-38.143,160.412-2.803,345.373-33.897
																						c134.104-22.544,44.185,15.747,222.619,22.499c96.406,3.635,96.422,52.129,164.526-8.415
																						c68.104-60.533,94.894-48.271,229.742-74.91c162.134-32.029,89.879-113.208,123.187-183.13
																						c0,0,43.897,123.06,44.965,158.152c2.938,96.597-38.062,78.854-132.431,118.342
																						c-198.933,83.256-252.139,119.729-648.379,128.052c-365.082,7.671-669.81-1.646-1010.535-64.927
																						c-116.539-21.631-381.396-25.776-407.877-128.177c-26.479-102.399,18.617-156.653,18.617-156.653
																						C183.202,1798.451,218.163,1740.182,346.334,1770.739L346.334,1770.739z"/>
																				</g>
																			</g>
																		</g>
																	</g>
																</g>
															</g>
														</g>
													</g>
												</g>
											</g>
										</g>
									</g>
								</g>
							</g>
						</g>
						<g>
							<g>
								<g>
									<g>
										<g>
											<g>
												<g>
													<g>
														<g>
															<g>
																<g>
																	<g>
																		<g>
																			<g>
																				<g>
																					<defs>
																						<path id="SVGID_19_" d="M153.797,1790.126c-9.711-359.604,448.383-543.282,448.383-543.282
																							s10.018-4.766,63.271-19.427c93.775-25.806,458.074-65.532,594.05-64.247
																							c65.672,0.621,41.478,1.127,247.229,7.646c245.279,7.77,413.627,56.344,654.813,276.354
																							c164.154,149.752,156.021,331.396,137.764,355.63c-62.291,82.771-398.031,143.869-586.137,155.153
																							c-188.134,11.271-87.169,8.979-665.923-5.788c-331.571-8.465-523.92-47.604-783.574-81.018
																							C142.974,1855.604,153.797,1790.126,153.797,1790.126L153.797,1790.126z"/>
																					</defs>
																					<clipPath id="SVGID_20_">
																						<use xlink:href="#SVGID_19_"  overflow="visible"/>
																					</clipPath>
																					<path id="Bun_Highlight_2_" clip-path="url(#SVGID_20_)" fill="#FFAB57" d="M758.078,1178.104
																						c120.72-127.848,606.805-37.707,729.178-41.479c141.486-4.373,586.841,228.417,370.479,189.827
																						c-260.151-46.399-73.541,82.269-289.303,22.505c0,0-48.396-14.062-46.479,7.035
																						c3.267,36.38-19.039,54.029-53.229,60.493c-88.793,16.766-257.685-42.063-266.084-44.672
																						c-52.563-16.354-107.719-32.165-134.438,8.793c-21.635,33.168-68.558,71.229-133.031,57.646
																						c-92.625-19.511-94.179-1.578-136.844-48.509c-48.771-53.633-123.495,57.646-190.104,21.09
																						c-18.896-10.376-111.002,64.688-79.094-9.84c44.363-103.627-306.312,114.424-97.133-39.38
																						C502.773,1309.576,658.359,1171.903,758.078,1178.104"/>
																				</g>
																			</g>
																		</g>
																	</g>
																</g>
															</g>
														</g>
													</g>
												</g>
											</g>
										</g>
									</g>
								</g>
							</g>
						</g>
						<g>
							<g>
								<g>
									<g>
										<g>
											<g>
												<g>
													<g>
														<g>
															<g>
																<g>
																	<g>
																		<g>
																			<g>
																				<g>
																					<defs>
																						<path id="SVGID_21_" d="M153.797,1790.126c-9.711-359.604,448.383-543.282,448.383-543.282
																							s10.018-4.766,63.271-19.427c93.775-25.806,458.074-65.532,594.05-64.247
																							c65.672,0.621,41.478,1.127,247.229,7.646c245.279,7.77,413.627,56.344,654.813,276.354
																							c164.154,149.752,156.021,331.396,137.764,355.63c-62.291,82.771-398.031,143.869-586.137,155.153
																							c-188.134,11.271-87.169,8.979-665.923-5.788c-331.571-8.465-523.92-47.604-783.574-81.018
																							C142.974,1855.604,153.797,1790.126,153.797,1790.126L153.797,1790.126z"/>
																					</defs>
																					<clipPath id="SVGID_22_">
																						<use xlink:href="#SVGID_21_"  overflow="visible"/>
																					</clipPath>
																					<path id="Bun_Secondary_Highlight" clip-path="url(#SVGID_22_)" fill="#FFBA7B" d="M1131.402,1137.235
																						c-133.766,24.957-124.899-4.271-196.4,43.307c-71.495,47.575-42.839-1.207-104.47,37.413
																						c-97.817,61.293-22.366,66.426-58.662,82.055c-36.286,15.629-94.308,47.248,91.2-9.688
																						c185.497-56.938-0.481,18.962,93.384,1.686c93.871-17.271,51.95,44.262,147.235,23.563
																						c95.271-20.693,23.027-135.029,162.715-39.688c68.969,47.079,115.062-23.21,142.555-19.113
																						c53.885,8.015,139.535,40.885,161.885,14.721c8.172-9.575-83.961-45.168-24.482-40.62
																						c85.771,6.557-5.637-20.063-27.521-36.104c-28.863-21.169,83.326-0.63,13.396-38.359
																						c-22.69-12.257,71.062-8.877-93.688-35.034c-92.273-14.648-106.455-26.688-181.809-9.823
																						C1181.386,1128.388,1131.402,1137.235,1131.402,1137.235z"/>
																				</g>
																			</g>
																		</g>
																	</g>
																</g>
															</g>
														</g>
													</g>
												</g>
											</g>
										</g>
									</g>
								</g>
							</g>
						</g>
						<g>
							<g>
								<g>
									<g>
										<g>
											<g>
												<g>
													<g>
														<g>
															<g>
																<g>
																	<g>
																		<g>
																			<g>
																				<g>
																					<defs>
																						<path id="SVGID_23_" d="M153.797,1790.126c-9.711-359.604,448.383-543.282,448.383-543.282
																							s10.018-4.766,63.271-19.427c93.775-25.806,458.074-65.532,594.05-64.247
																							c65.672,0.621,41.478,1.127,247.229,7.646c245.279,7.77,413.627,56.344,654.813,276.354
																							c164.154,149.752,156.021,331.396,137.764,355.63c-62.291,82.771-398.031,143.869-586.137,155.153
																							c-188.134,11.271-87.169,8.979-665.923-5.788c-331.571-8.465-523.92-47.604-783.574-81.018
																							C142.974,1855.604,153.797,1790.126,153.797,1790.126L153.797,1790.126z"/>
																					</defs>
																					<clipPath id="SVGID_24_">
																						<use xlink:href="#SVGID_23_"  overflow="visible"/>
																					</clipPath>
																					<path id="Top_Highlight_Bun" clip-path="url(#SVGID_24_)" fill="#FFC599" d="M947.9,1184.767
																						c69.912-32.419-39.936-49.771,136.338-38.297c176.271,11.471,126.324-40.016,204.016-3.545
																						c77.676,36.479,64.733-54.74,86.938,6.076c22.195,60.807,75.604-2.303,101.475,46.018
																						c25.821,48.313,1.757,52.389-88.138,24.078c-94.228-29.669-67.125,24.188-119.875,1.663
																						c-135.39-57.823-99.146,22.445-173.14,34.961c-73.985,12.521-81.576-21.641-163.146-19.978
																						C883.146,1236.751,947.9,1184.767,947.9,1184.767z"/>
																				</g>
																			</g>
																		</g>
																	</g>
																</g>
															</g>
														</g>
													</g>
												</g>
											</g>
										</g>
									</g>
								</g>
							</g>
						</g>
						<g>
							<g>
								<g>
									<g>
										<g>
											<g>
												<g>
													<g>
														<g>
															<g>
																<g>
																	<g>
																		<g>
																			<g>
																				<g>
																					<defs>
																						<path id="SVGID_25_" d="M153.797,1790.126c-9.711-359.604,448.383-543.282,448.383-543.282
																							s10.018-4.766,63.271-19.427c93.775-25.806,458.074-65.532,594.05-64.247
																							c65.672,0.621,41.478,1.127,247.229,7.646c245.279,7.77,413.627,56.344,654.813,276.354
																							c164.154,149.752,156.021,331.396,137.764,355.63c-62.291,82.771-398.031,143.869-586.137,155.153
																							c-188.134,11.271-87.169,8.979-665.923-5.788c-331.571-8.465-523.92-47.604-783.574-81.018
																							C142.974,1855.604,153.797,1790.126,153.797,1790.126L153.797,1790.126z"/>
																					</defs>
																					<clipPath id="SVGID_26_">
																						<use xlink:href="#SVGID_25_"  overflow="visible"/>
																					</clipPath>
																					<g id="Sesames_1_" opacity="0.3" clip-path="url(#SVGID_26_)">
																						<path fill="#BC6E39" d="M1040.302,1228.906l-15.813-5.456c-7.357-1.646-13.088-4.909-24.54-2.452
																							c0,0-10.147,2.75-4.094,13.354C996.956,1236.271,1009.277,1237.316,1040.302,1228.906z"/>
																						<path fill="#BC6E39" d="M587.078,1287.594c0,0-10.148,2.75-4.092,13.359
																							c1.093,1.911,13.42,2.959,44.438-5.456l-15.813-5.456C604.26,1288.412,598.531,1285.141,587.078,1287.594z"/>
																						<path fill="#BC6E39" d="M971.214,1376.618c-7.354-1.638-13.087-4.909-24.54-2.452
																							c0,0-10.146,2.751-4.086,13.359c1.093,1.909,13.42,2.952,44.438-5.456L971.214,1376.618z"/>
																						<path fill="#BC6E39" d="M860.105,1480.712c0,0-10.146,2.75-4.1,13.359c1.102,1.911,13.419,2.954,44.438-5.456
																							l-15.816-5.456C877.289,1481.53,871.561,1478.259,860.105,1480.712z"/>
																						<path fill="#BC6E39" d="M1291.902,1297.938c0,0-9.367,4.773-1.25,13.903
																							c1.464,1.648,13.74,0.124,42.354-14.494l-16.592-2.068
																							C1308.872,1295.199,1302.598,1293.179,1291.902,1297.938z"/>
																						<path fill="#BC6E39" d="M1435.459,1309.656c0,0-10.52-0.238-7.709,11.655
																							c0.506,2.146,12.033,6.639,44.164,7.354l-13.612-9.711C1451.699,1315.301,1447.131,1310.54,1435.459,1309.656
																							z"/>
																						<path fill="#BC6E39" d="M1392.406,1328.76c0,0-9.939,3.45-3.162,13.604
																							c1.229,1.831,13.593,2.016,43.961-8.529l-16.154-4.345C1409.589,1328.383,1403.65,1325.518,1392.406,1328.76z
																							"/>
																						<path fill="#BC6E39" d="M1245.076,1466.062c0,0-8.91,5.599-0.01,13.979c1.6,1.515,13.703-1.104,40.906-18.229
																							l-16.729-0.587C1261.738,1461.812,1255.309,1460.366,1245.076,1466.062z"/>
																						<path fill="#BC6E39" d="M1789.361,1396.283l11.604,12.044c5.818,4.811,9.436,10.313,20.76,13.322
																							c0,0,10.284,2.178,9.698-10.03C1831.327,1409.415,1820.816,1402.882,1789.361,1396.283z"/>
																						<path fill="#BC6E39" d="M1185.969,1335.422c0,0-9.935,3.451-3.158,13.604
																							c1.229,1.832,13.604,2.016,43.965-8.529l-16.148-4.344C1203.156,1335.04,1197.223,1332.176,1185.969,1335.422
																							z"/>
																						<path fill="#BC6E39" d="M1265.879,1435.312c0,0-9.93,3.448-3.152,13.604
																							c1.229,1.832,13.59,2.016,43.961-8.529l-16.146-4.344C1283.066,1434.928,1277.133,1432.062,1265.879,1435.312
																							z"/>
																						<path fill="#BC6E39" d="M843.619,1321.919c-7.552-0.08-13.827-2.096-24.521,2.66
																							c0,0-9.359,4.781-1.251,13.911c1.474,1.646,13.737,0.124,42.368-14.496L843.619,1321.919z"/>
																						<path fill="#BC6E39" d="M725.615,1466.682c0,0-8.719,5.896,0.462,13.974
																							c1.653,1.441,13.646-1.563,40.268-19.579l-16.729-0.024C742.117,1461.881,735.645,1460.646,725.615,1466.682z
																							"/>
																						<path fill="#BC6E39" d="M893.508,1284.044l-16.597-2.075c-7.551-0.08-13.826-2.096-24.515,2.655
																							c0,0-9.373,4.781-1.26,13.911C852.604,1300.184,864.882,1298.659,893.508,1284.044z"/>
																						<path fill="#BC6E39" d="M532.641,1470.097c0,0-7.479,7.396,3.023,13.646
																							c1.896,1.127,13.132-4.042,35.979-26.655l-16.438,3.048C547.977,1462.338,541.384,1462.317,532.641,1470.097z
																							"/>
																						<path fill="#BC6E39" d="M1449.753,1227.254c4.656-12.348-5.789-14.17-5.789-14.17
																							c-11.677-1.354-16.938,2.899-24.048,5.556l-14.998,7.824
																							C1436.8,1232.062,1448.918,1229.479,1449.753,1227.254z"/>
																						<path fill="#BC6E39" d="M1357.381,1259.697c-11.676-1.355-16.938,2.895-24.049,5.556l-14.998,7.824
																							c31.902,5.6,44.002,3.014,44.836,0.794C1367.837,1261.529,1357.381,1259.697,1357.381,1259.697z"/>
																						<path fill="#BC6E39" d="M1582.934,1213.934c4.656-12.347-5.789-14.169-5.789-14.169
																							c-11.677-1.354-16.938,2.896-24.049,5.563l-14.998,7.821
																							C1569.984,1218.744,1582.1,1216.162,1582.934,1213.934z"/>
																						<path fill="#BC6E39" d="M1610.432,1299.652c-11.672-1.355-16.938,2.895-24.043,5.556l-15.003,7.824
																							c31.913,5.6,44.001,3.019,44.835,0.794C1620.878,1301.484,1610.432,1299.652,1610.432,1299.652z"/>
																						<path fill="#BC6E39" d="M1692.929,1434.472c-9.825-6.459-16.446-5.021-23.989-5.849l-16.912,0.243
																							c25.978,19.342,37.959,22.475,39.695,20.866C1701.438,1440.791,1692.929,1434.472,1692.929,1434.472z"/>
																						<path fill="#BC6E39" d="M1254.568,1259.643c7.812-10.629-1.76-15.207-1.76-15.207
																							c-10.865-4.444-17.104-1.772-24.662-1.137l-16.561,3.485
																							C1240.822,1260.784,1253.174,1261.562,1254.568,1259.643z"/>
																						<path fill="#BC6E39" d="M1156.742,1213.934c4.656-12.347-5.789-14.169-5.789-14.169
																							c-11.672-1.354-16.939,2.896-24.044,5.563l-15.003,7.821
																							C1143.794,1218.744,1155.907,1216.162,1156.742,1213.934z"/>
																						<path fill="#BC6E39" d="M910.348,1220.596c4.657-12.347-5.787-14.169-5.787-14.169
																							c-11.678-1.354-16.938,2.896-24.05,5.553l-15.003,7.822C897.405,1225.401,909.52,1222.82,910.348,1220.596z"
																							/>
																						<path fill="#BC6E39" d="M1071.037,1226.404c-11.677-1.36-16.943,2.895-24.048,5.556l-15.003,7.824
																							c31.896,5.6,44.006,3.014,44.835,0.789C1081.483,1228.229,1071.037,1226.404,1071.037,1226.404z"/>
																						<path fill="#BC6E39" d="M1170.926,1253.04c-11.678-1.36-16.941,2.896-24.049,5.555l-15.003,7.824
																							c31.897,5.604,44.006,3.016,44.835,0.795C1181.376,1254.866,1170.926,1253.04,1170.926,1253.04z"/>
																						<path fill="#BC6E39" d="M950.309,1313.821c4.656-12.354-5.789-14.169-5.789-14.169
																							c-11.672-1.355-16.938,2.895-24.043,5.556l-15.004,7.824C937.36,1318.632,949.475,1316.051,950.309,1313.821z
																							"/>
																						<path fill="#BC6E39" d="M1024.42,1399.54c-11.672-1.354-16.938,2.896-24.044,5.556l-15.003,7.824
																							c31.896,5.604,44.002,3.021,44.836,0.794C1034.87,1401.372,1024.42,1399.54,1024.42,1399.54z"/>
																					</g>
																				</g>
																			</g>
																		</g>
																	</g>
																</g>
															</g>
														</g>
													</g>
												</g>
											</g>
										</g>
									</g>
								</g>
							</g>
						</g>
						<g>
							<g>
								<g>
									<g>
										<g>
											<g>
												<g>
													<g>
														<g>
															<g>
																<g>
																	<g>
																		<g>
																			<g>
																				<g>
																					<defs>
																						<path id="SVGID_27_" d="M153.797,1790.126c-9.711-359.604,448.383-543.282,448.383-543.282
																							s10.018-4.766,63.271-19.427c93.775-25.806,458.074-65.532,594.05-64.247
																							c65.672,0.621,41.478,1.127,247.229,7.646c245.279,7.77,413.627,56.344,654.813,276.354
																							c164.154,149.752,156.021,331.396,137.764,355.63c-62.291,82.771-398.031,143.869-586.137,155.153
																							c-188.134,11.271-87.169,8.979-665.923-5.788c-331.571-8.465-523.92-47.604-783.574-81.018
																							C142.974,1855.604,153.797,1790.126,153.797,1790.126L153.797,1790.126z"/>
																					</defs>
																					<clipPath id="SVGID_28_">
																						<use xlink:href="#SVGID_27_"  overflow="visible"/>
																					</clipPath>
																					<g id="Sesame_Shadow" clip-path="url(#SVGID_28_)">
																						<path fill="#FFDEC7" d="M1040.302,1222.244l-15.813-5.451c-7.357-1.639-13.088-4.91-24.54-2.452
																							c0,0-10.147,2.75-4.094,13.354C996.956,1229.611,1009.277,1230.659,1040.302,1222.244z"/>
																						<path fill="#FFDEC7" d="M587.078,1280.931c0,0-10.148,2.75-4.092,13.359
																							c1.093,1.912,13.42,2.959,44.438-5.456l-15.813-5.456C604.26,1281.755,598.531,1278.483,587.078,1280.931z"/>
																						<path fill="#FFDEC7" d="M971.214,1369.961c-7.354-1.638-13.087-4.91-24.54-2.452
																							c0,0-10.146,2.75-4.086,13.359c1.093,1.911,13.42,2.954,44.438-5.456L971.214,1369.961z"/>
																						<path fill="#FFDEC7" d="M860.105,1474.049c0,0-10.146,2.751-4.1,13.36c1.102,1.911,13.419,2.953,44.438-5.457
																							l-15.816-5.455C877.289,1474.868,871.561,1471.604,860.105,1474.049z"/>
																						<path fill="#FFDEC7" d="M1291.902,1291.282c0,0-9.367,4.771-1.25,13.91
																							c1.464,1.644,13.74,0.125,42.354-14.496l-16.592-2.08C1308.872,1288.542,1302.598,1286.521,1291.902,1291.282
																							z"/>
																						<path fill="#FFDEC7" d="M1435.459,1302.993c0,0-10.52-0.238-7.709,11.657
																							c0.506,2.145,12.033,6.638,44.164,7.354l-13.612-9.711
																							C1451.699,1308.646,1447.131,1303.882,1435.459,1302.993z"/>
																						<path fill="#FFDEC7" d="M1392.406,1322.104c0,0-9.939,3.442-3.162,13.604
																							c1.229,1.832,13.593,2.016,43.961-8.529l-16.154-4.344C1409.589,1321.72,1403.65,1318.86,1392.406,1322.104z"
																							/>
																						<path fill="#FFDEC7" d="M1245.076,1459.403c0,0-8.91,5.59-0.01,13.971c1.6,1.509,13.703-1.1,40.906-18.221
																							l-16.729-0.585C1261.738,1455.153,1255.309,1453.709,1245.076,1459.403z"/>
																						<path fill="#FFDEC7" d="M1789.361,1389.626l11.604,12.044c5.818,4.812,9.436,10.316,20.76,13.325
																							c0,0,10.284,2.175,9.698-10.033C1831.327,1402.757,1820.816,1396.224,1789.361,1389.626z"/>
																						<path fill="#FFDEC7" d="M1185.969,1328.76c0,0-9.935,3.45-3.158,13.604
																							c1.229,1.831,13.604,2.016,43.965-8.529l-16.148-4.345C1203.156,1328.383,1197.223,1325.518,1185.969,1328.76
																							z"/>
																						<path fill="#FFDEC7" d="M1265.879,1428.646c0,0-9.93,3.449-3.152,13.604
																							c1.229,1.832,13.59,2.016,43.961-8.529l-16.146-4.344C1283.066,1428.271,1277.133,1425.405,1265.879,1428.646
																							z"/>
																						<path fill="#FFDEC7" d="M843.619,1315.266c-7.552-0.084-13.827-2.1-24.521,2.656
																							c0,0-9.359,4.781-1.251,13.911c1.474,1.646,13.737,0.124,42.368-14.497L843.619,1315.266z"/>
																						<path fill="#FFDEC7" d="M725.615,1460.021c0,0-8.719,5.896,0.462,13.974
																							c1.653,1.442,13.646-1.563,40.268-19.58l-16.729-0.025C742.117,1455.218,735.645,1453.987,725.615,1460.021z"
																							/>
																						<path fill="#FFDEC7" d="M893.508,1277.386l-16.597-2.072c-7.551-0.072-13.826-2.098-24.515,2.653
																							c0,0-9.373,4.781-1.26,13.911C852.604,1293.526,864.882,1292.002,893.508,1277.386z"/>
																						<path fill="#FFDEC7" d="M532.641,1463.437c0,0-7.479,7.396,3.023,13.646
																							c1.896,1.127,13.132-4.041,35.979-26.655l-16.438,3.049C547.977,1455.68,541.384,1455.66,532.641,1463.437z"
																							/>
																						<path fill="#FFDEC7" d="M1449.753,1220.596c4.656-12.347-5.789-14.169-5.789-14.169
																							c-11.677-1.354-16.938,2.896-24.048,5.553l-14.998,7.822C1436.8,1225.401,1448.918,1222.82,1449.753,1220.596
																							z"/>
																						<path fill="#FFDEC7" d="M1357.381,1253.04c-11.676-1.36-16.938,2.896-24.049,5.555l-14.998,7.824
																							c31.902,5.604,44.002,3.016,44.836,0.795C1367.837,1254.866,1357.381,1253.04,1357.381,1253.04z"/>
																						<path fill="#FFDEC7" d="M1582.934,1207.276c4.656-12.354-5.789-14.172-5.789-14.172
																							c-11.677-1.354-16.938,2.896-24.049,5.558l-14.998,7.824C1569.984,1212.082,1582.1,1209.5,1582.934,1207.276z
																							"/>
																						<path fill="#FFDEC7" d="M1610.432,1292.995c-11.672-1.355-16.938,2.895-24.043,5.555l-15.003,7.824
																							c31.913,5.601,44.001,3.014,44.835,0.795C1620.878,1294.827,1610.432,1292.995,1610.432,1292.995z"/>
																						<path fill="#FFDEC7" d="M1692.929,1427.809c-9.825-6.459-16.446-5.021-23.989-5.849l-16.912,0.244
																							c25.978,19.342,37.959,22.475,39.695,20.866C1701.438,1434.129,1692.929,1427.809,1692.929,1427.809z"/>
																						<path fill="#FFDEC7" d="M1254.568,1252.985c7.812-10.639-1.76-15.207-1.76-15.207
																							c-10.865-4.453-17.104-1.787-24.662-1.146l-16.561,3.485
																							C1240.822,1254.127,1253.174,1254.901,1254.568,1252.985z"/>
																						<path fill="#FFDEC7" d="M1156.742,1207.276c4.656-12.354-5.789-14.172-5.789-14.172
																							c-11.672-1.354-16.939,2.896-24.044,5.558l-15.003,7.824
																							C1143.794,1212.082,1155.907,1209.5,1156.742,1207.276z"/>
																						<path fill="#FFDEC7" d="M910.348,1213.934c4.657-12.347-5.787-14.169-5.787-14.169
																							c-11.678-1.354-16.938,2.896-24.05,5.563l-15.003,7.821C897.405,1218.744,909.52,1216.162,910.348,1213.934z"
																							/>
																						<path fill="#FFDEC7" d="M1071.037,1219.742c-11.677-1.36-16.943,2.895-24.048,5.556l-15.003,7.824
																							c31.896,5.6,44.006,3.018,44.835,0.794C1081.483,1221.574,1071.037,1219.742,1071.037,1219.742z"/>
																						<path fill="#FFDEC7" d="M1170.926,1246.382c-11.678-1.354-16.941,2.896-24.049,5.559l-15.003,7.821
																							c31.897,5.604,44.006,3.021,44.835,0.794C1181.376,1248.209,1170.926,1246.382,1170.926,1246.382z"/>
																						<path fill="#FFDEC7" d="M950.309,1307.164c4.656-12.351-5.789-14.169-5.789-14.169
																							c-11.672-1.355-16.938,2.894-24.043,5.555l-15.004,7.824C937.36,1311.97,949.475,1309.388,950.309,1307.164z"
																							/>
																						<path fill="#FFDEC7" d="M1024.42,1392.883c-11.672-1.354-16.938,2.896-24.044,5.563l-15.003,7.814
																							c31.896,5.604,44.002,3.021,44.836,0.794C1034.87,1394.715,1024.42,1392.883,1024.42,1392.883z"/>
																					</g>
																				</g>
																			</g>
																		</g>
																	</g>
																</g>
															</g>
														</g>
													</g>
												</g>
											</g>
										</g>
									</g>
								</g>
							</g>
						</g>
					</g>
					<path fill="#00AB00" d="M2324.145,2173.031"/>
				</g>
			</g>
			<g id="Rice_Bun">
			</g>
		</g>
		<path id="Reference" fill="none" stroke="#FF0000" stroke-miterlimit="10" d="M2262.5,1602.5c0,0-942-439.36-2086,0"/>
	</g>
</g>
<g id="Rice_Bun_1_">
	<path id="Rice_Bun_Bottom" fill="#FFC5C5" stroke="#000000" stroke-miterlimit="10" d="M154.501,2271.167l7.333-18.666
		l12.659-13.992C177.5,2227.25,194,2230.75,194,2230.75c6.165-10.834,19-4.5,19-4.5c9.665-11.917,24.168-3.749,24.168-3.749
		c5.832-9.251,22.667-3.334,22.667-3.334c8.915-7.917,22.667-0.666,22.667-0.666c8.249-8.251,22.249-0.751,22.249-0.751
		c9.75-7.5,19.75,0.25,19.75,0.25c10.25-7.25,20.755-0.134,20.755-0.134C352.75,2210,365,2217.75,365,2217.75
		c9.25-7,21.25-0.25,21.25-0.25c10.082-7.917,21.25,0,21.25,0c10.75-9,22.5-0.25,22.5-0.25c11.25-8.75,20.75-0.692,20.75-0.692
		C458.5,2208,472,2216,472,2216c9-7.75,19.5-0.25,19.5-0.25c11.25-9,21.668-0.583,21.668-0.583
		c10.332-9.417,23.333-0.666,23.333-0.666c10.499-10.001,22,0,22,0c12.249-11.501,23.749,0.249,23.749,0.249
		c11.75-10.25,24.25-0.5,24.25-0.5c12.082-9.917,24.668-1.083,24.668-1.083C645.25,2200.75,659,2213,659,2213
		c12.082-11.501,25.5-1.25,25.5-1.25c12-10.5,26.5,0,26.5,0c12-11,24.168-0.583,24.168-0.583c12.832-10.917,24,0.667,24,0.667
		c12.332-11.834,24-0.667,24-0.667h22.667h24l20-0.667h21.333l23.333-0.667h26l25.333,0.667l21.333-0.667l26.667-0.666l28.667-0.667
		h29.333l25.333-0.667h30.667h32l29.333-0.666l27.333-1.334h25.333l28.667-0.667l28.667-0.666h31.333h31.333l28.667-0.667l24-0.667
		l24-0.666h26h26.667h25.333h28.667l23.333-0.667h28.667l26-0.667l25.333-0.666h24.667h24.666l25.334-0.667h26.666l22.667-0.667
		h23.333l26-0.666l27.334-0.667h27.333l27.333-0.667l26.665-0.666l25.334-0.667h24h26l22.666-0.666h24.668l26,0.666l26.666-1.333
		h27.334l28-0.667l25.998,0.001l25.334,0.667l20.666,2.667l26.667,4l24,6l20.667,7.333l16.666,10l12.667,13.33l4.666,18.667l2,20
		l-0.666,23.333l-3.334,20l-4.666,22l-8,22l-14.667,19.333l-15.333,10.667l-22.001,10.001l-24.667,10.667l-28.667,10l-34.667,9.333
		l-31.998,9.336l-33.333,6.667l-30,6.665l-34.667,6.666l-32,4.668l-39.333,6.666l-33.333,6l-36,6.667l-35.334,6l-31.333,4.667
		l-27.333,4.666l-31.334,4l-32.666,4l-34,2.667l-32.667,1.333l-30.667,2l-34,1.334l-33.333,0.666l-32.667,2l-32,2l-37.333,0.667
		l-36.667,2l-31.336,0.671l-32.666,0.667l-33.334,0.667l-32,1.333h-30.666h-32.667h-38h-36.667l-34.667-0.667h-33.333l-36-1.333
		l-33.333-2l-29.332-0.672l-30-1.333l-31.333-2l-30-1.334l-32-2l-34.667-2l-33.333-2l-32-2.666l-30.667-1.334l-32.667-2.666
		l-36.667-4l-36-2.667l-34-3.333l-36.667-4l-35.333-3.334l-36.665-4.666l-36-4.667l-37.333-4l-41-6.333l-44-11l-40-12l-36-10l-40-12
		l-31-18l-24-27l-12-34l-3-35L154.501,2271.167z"/>
	<path id="Rice_Bun_Top" fill="#FFC5C5" stroke="#000000" stroke-miterlimit="10" d="M2085.834,1524.501c0,0-1.333-11.333-34-8.667
		c0,0,0.074-8.248-28.666-9.333c0,0-9.468-8.432-32.667-8c0,0,1.851-10.541-33.333-8.667c0,0-2.666-9-31.334-7.333
		c0,0-10.666-11.333-28.666-7.333c0,0-18.003-10.667-34.75-6.253c0,0-19.253-10.415-35.148-6.324c0,0-19.438-8.09-35.627-6.411
		c0,0-21.144-9.68-35.146-6.323c0,0-22.664-10.021-36.664-6.688c0,0-18-10-36.627-6.242c0,0-20.04-9.092-37.705-6.426
		c0,0-19.668-9.333-39.001-5.333c0,0-19.334-8.666-34.667-3.333c0,0-23.333-9.333-41.429-4.524c0,0-20.906-7.141-37.238-4.143
		c0,0-20-10.667-39.333-3.333c0,0-26.667-10-44.711-1.833c0,0-22.622-6.834-36.621-1.502c0,0-25.335-9.332-42.668-3.332
		c0,0-20-8-36-2c0,0-24.667-6-38,0.604c0,0-22-6.604-40-0.604c0,0-30-4.667-44.667,2c0,0-28.667-4.667-43.333,1.333
		c0,0-22.667-7.333-40.667,1.333c0,0-20.667-7.333-32.666-0.334c0,0-22.001-3.666-41,4c0,0-23.001-4.333-35,3
		c0,0-22.668-5.333-38.668,2.667c0,0-21.664-6.664-38.998,5.336c0,0-19.333-8-40.333,4.667c0,0-16.5-8.167-37.5,2.583
		c0,0-21.5-7-40.521,5.346c0,0-21.479-8.346-40.979,5.404c0,0-25-7.75-39.5,8.25c0,0-23.5-9-44.5,7.75c0,0-26.5-6.5-42,9.5
		c0,0-22-8.75-40.75,9.75c0,0-25.75-6.5-42,10.5c0,0-23-7.5-41.25,11.75c0,0-25.75-3.5-40,11.5c0,0-25-5.25-39,10
		c0,0-23-3.75-37.5,10c0,0-19.75-5-40.75,11.75c0,0-24.25-3.75-37.75,12.5c0,0-21.5-5.5-35.25,12.75c0,0-25,0.25-34.75,16.75
		c0,0-20.25-7.25-28,15.25c0,0-15.667-1.335-15.667,15.665c0,0-16.667-5.667-15.667,11c0,0-17.668-6.416-15.918,16.084
		c0,0-16.25,1.25-6,19.5c-13,8,0.75,17,0.75,17s-13.75,4.25-2.499,16.751c0,0-15.501,7.249-6.001,23.249c0,0-14.25,12.5,2,23.5
		c0,0-13.75,15.25,4,27c0,0-12.083,15.08,1.667,28.58c0,0-7.001,16.329,11.667,26c0,0-1,16.001,17.333,17
		c0,0,2.833,14.834,18,12.001c0,0,3.167,14.337,20.001,11.337c0,0,7.333,13.333,21.667,4.666c0,0,6.167,10.333,21.833,4.167
		c0,0,9.708,14.75,25.208,2.75c0,0,10.125,14.875,29.375,3.125c0,0,13.125,16.375,33.875,3.375c0,0,5.5,12.75,31.625,5
		c0,0-3.917,15.915,37.5,4.875c0,0-1.625,11.75,38.625,6.625c0,0,9.25,12.75,33.75,7.125c0,0-6.125,14.25,40.375,3.625
		c0,0,10.875,16.5,44.25,6.375c0,0,3,13.875,36.625,3.75c0,0,11.625,14.25,34,4.5c0,0,4.625,13.706,39.125,3.5
		c0,0,13.75,11.625,39,5.5c0,0,20.25,11.625,36.375,3.875c0,0,11.708,11.001,30.708,2.501c0,0,14.667,7.916,26.25,2.5
		c0,0,15.833,12.833,28.083,2.25c0,0,7.917,8.25,24.083,2.5c0,0,10.917,7.916,22.083,0.916c0,0,7.75,8.334,22.5,0.834
		c0,0,10.333,6.167,23.167,1.167c0,0,3.584,8.163,24.667,2.499c0,0,10.833,6.167,23.333,1.667c0,0,3.333,8.5,24.25-0.417
		c0,0,7.333,6.501,20.667,0.917c0,0,11.333,8.667,27.75,1.833c0,0-1.833,10.001,23.417-0.416c0,0,12.167,8.75,26.167,1.75
		c0,0,13.917,7,29.167-1c0,0,2.583,9.661,27.75,1.833c0,0,12.583,9.828,32.667,0.328c0,0,15.292,9.838,36.833,1.251
		c0,0,15.083,8.212,33.333,0.712c0,0,18.75,7.625,31.75,1c0,0,15.25,6.875,29.5,0.625c0,0,17.25,7.625,29.5,0.5
		c0,0,12.375,10,32.625,0.75c0,0,14.875,10.25,31.5,0.375c0,0,16.625,11.375,35.125,2.25c0,0,17.625,7.75,29.5-0.25
		c0,0,19.417,10.955,28.75,2.875c0,0,20,7.375,27-1.25c0,0,19.375,8.375,24,0c0,0,12,6.5,22.5-1.125c0,0,11.375,7.5,18.125-0.25
		c0,0,28.708,10.584,25.708-0.291c0,0,16.667,5.667,20.667-0.333c0,0,11.875,6.916,17.25-3.459c0,0,7.416,8.123,15.75,1.456
		c0,0,10.333,6.003,17.333-1.331c0,0,12.75,5.75,15.75-1.25c0,0,15.251,10.579,21.25-0.416c0,0,12.667,8.329,15.833-0.75
		c0,0,16.168,9.079,21.5-0.917c0,0,16.668,7.996,23-2c0,0,17.668,7.329,20.667-3.333c0,0,15.667,8.662,22.667-0.667
		c0,0,21.667,6.333,25-3c0,0,17,4.416,24.25-4.334c0,0,11.833,6.663,21.083-2.335c0,0,17.667,7,20.167-4.665c0,0,10.5,8.331,18-3.25
		c0,0,19.75,1.75,20.5-4.75c0,0,20.667,4.33,20-6.75c0,0,16.667,8.413,19-2.5c0,0,25,0.751,26.833-5.749
		c0,0,17.667,5.166,25.667-7.167c0,0,18.5,3.831,26.5-4.667c0,0,20.667,3.164,26.166-8.166c0,0,15.5,6.665,17.5-6.335
		c0,0,15,6,19.334-4.165c0,0,19.666-0.668,24.666-9.667c0,0,24.334-0.5,22.334-8.333c0,0,23.333,0.667,22.666-8
		c0,0,17.834,2.831,18.334-8.169c0,0,13.666,5.666,15.167-7.998c0,0,21.166,3.826,23.833-11.837c0,0,14.5,4.5,18.333-14.163
		c0,0,13.667-4.337,8.667-17.837c0,0,15-5,3.667-18.83c0,0,12.833-10.17,1.833-20.166c0,0,13.5-7.504,4.5-20.004c0,0,12-10,1-21
		c0,0,7-12-7-18.5c0,0,11.5-9.999-1-16.5c0,0,13.5-9.5-1.5-18.5c0,0,9-11.5-4-19.5c0,0,8-5.5-3.5-16.5c0,0,4.5-12.5-10-17.5
		c0,0,7.5-12-8.5-16c0,0,2.5-12.5-13-12.5c0,0-6-13.5-16.5-7c0,0-4.5-12-21-6.5c0,0-7.5-14-24.332-5.163
		c0,0-4.667-16.332-27.667-11.332c0,0-10.834-8.667-30.667-6.667c0,0,4.168-9-31.333-8
		C2114.501,1535.834,2114,1530.834,2085.834,1524.501z"/>
</g>
</svg>
