<?xml version="1.0" encoding="utf-8"?>
<!-- Generator: Adobe Illustrator 16.0.0, SVG Export Plug-In . SVG Version: 6.00 Build 0)  -->
<!DOCTYPE svg PUBLIC "-//W3C//DTD SVG 1.1//EN" "http://www.w3.org/Graphics/SVG/1.1/DTD/svg11.dtd">
<svg version="1.1" xmlns="http://www.w3.org/2000/svg" xmlns:xlink="http://www.w3.org/1999/xlink" x="0px" y="0px"
	 width="487.61px" height="340.71px" viewBox="1260.108 333.175 487.61 340.71"
	 enable-background="new 1260.108 333.175 487.61 340.71" xml:space="preserve">
<g id="Pickles">
</g>
<g id="Tomato">
</g>
<g id="Lettuce">
</g>
<g id="Tofu_Slice">
</g>
<g id="Swiss_Slice">
</g>
<g id="Cheddar_Slice">
</g>
<g id="Eggplant_Patty">
</g>
<g id="Halloumi_Patty">
</g>
<g id="Beef_Patty">
</g>
<g id="Sourdough_Bun">
	<g id="Top_Bun_Clipping">
		<defs>
			<path id="SVGID_9_" d="M1272.334,518.607c0,0-7.383-71.141,31.542-100.669c26.898-20.405,101.056-62.378,185.61-66.271
				c4.031-0.186,6.975,4.674,10.696,3.02c3.074-1.366,12.59-3.079,24.412,0.001c2.895,0.754,2.343-2.461,7.551-1.637
				c21.896,3.467,55.345,13.433,73.736,21.936c124.829,57.716,132.211,115.434,130.869,145.634S1295.152,552.164,1272.334,518.607z"
				/>
		</defs>
		<clipPath id="SVGID_2_">
			<use xlink:href="#SVGID_9_"  overflow="visible"/>
		</clipPath>
		<path id="Fill" clip-path="url(#SVGID_2_)" fill="#E2A476" d="M1723.499,460.893c-20.306-30.119-61.911-61.24-93.79-78.689
			c-54.195-29.665-130.673-45.493-234.725-12.164c-32.214,10.318-90.342,27.923-108.723,64.68
			c-15.356,30.712-16.106,48.824-16.861,82.548c-0.116,5.162,3.02,8.809,8.809,10.822c42.492,14.779,123.72,15.718,151.254,17.617
			c21.896,1.51,155.03,1.51,253.434-7.971c16.488-1.588,54.162-7.056,57.213-18.623
			C1744.136,503.845,1733.565,475.824,1723.499,460.893z"/>
		<path id="Middle_Highlight" clip-path="url(#SVGID_2_)" fill="#F2BC97" d="M1507.229,352.674
			c-6.939,0.992-19.127,6.04-25.167,15.604s-8.054,39.764-7.047,48.321c6.207,46.643,6.04,16.274,10.402,2.349
			c5.021-16.027,41.19-65.015,41.19-65.015S1512.559,351.911,1507.229,352.674z"/>
		<path id="Right_Highlight" clip-path="url(#SVGID_2_)" fill="#F2BC97" d="M1591.456,365.928
			c-11.08-4.924-13.591-5.536-21.644,13.087c-8.054,18.624-10.067,24.831-8.39,42.952c3.477,37.567-4.362,41.441,19.295-5.538
			c9.226-18.319,36.946-37.649,35.738-39.26C1608.906,367.103,1597.496,368.612,1591.456,365.928z"/>
		<path id="Left_Highlight" clip-path="url(#SVGID_2_)" fill="#F2BC97" d="M1413.944,358.881c0,0-24.497,15.437-28.188,28.188
			c-3.69,12.751-8.46,33.339-4.697,44.629c5.369,16.106,2.405,19.506,11.744-3.692c20.806-51.676,38.254-55.031,46.308-65.098
			s23.153-9.731,23.153-9.731L1413.944,358.881z"/>
		<path id="Shadow_1_L" clip-path="url(#SVGID_2_)" fill="#D38E5F" d="M1494.27,352.422c-4.749-2.098-13.088,3.398-18.499,9.061
			c-7.279,7.618-12.643,21.189-13.339,32.843c-0.503,8.431,1.133,15.604,1.762,19.631c0.63,4.026,1.511,17.239,3.146-0.63
			c1.636-17.868,11.199-46.559,31.081-57.884S1496.073,353.219,1494.27,352.422z"/>
		<path id="Shadow_1_R" clip-path="url(#SVGID_2_)" fill="#D38E5F" d="M1522.665,353.596c0,0,7.152-4.739,7.152-2.726
			c0,2.014-1.873,3.057-2.957,4.95c-1.153,2.013-5.202,10.696-12.332,22.524c-3.909,6.483-15.017,27.012-21.455,38.631
			c-5.102,9.207,12.898-33.934,16.421-39.806c3.523-5.872,12.755-17.495,14.262-20.889
			C1524.427,354.771,1522.665,353.596,1522.665,353.596z"/>
		<path id="Lower_Shadow_1" clip-path="url(#SVGID_2_)" fill="#D38E5F" d="M1281.229,407.035l1.174,9.228
			c0,0,0.336,13.591,4.363,21.979c4.026,8.389,16.183,35.516,33.557,34.396c31.207-2.014,83.891,22.817,119.963,22.482
			c14.255-0.133,57.214-8.39,85.401-3.692c30.948,5.158,68.454-24.83,83.89-25.502s55.702,3.69,66.44-1.007
			s14.765-10.066,18.792-16.442c4.026-6.375,4.866-5.704,9.229-10.738c4.361-5.033,11.241-7.382,12.583-19.462
			s9.229,42.783,13.591,52.18c4.361,9.396,11.241,22.315,9.563,47.817c-1.678,25.502-47.146,23.489-108.218,26.174
			c-61.073,2.685-249.658-0.84-234.558,0.503c15.1,1.344-78.521,4.027-125.836-22.65c-2.773-1.563-3.355-24.328-2.014-27.684
			s1.342-32.884,3.021-35.233C1273.847,457.033,1281.229,407.035,1281.229,407.035z"/>
		<path id="Shadow_2_Lower" clip-path="url(#SVGID_2_)" fill="#C47E4E" d="M1267.975,471.295c0,0,4.698,17.449,16.107,22.818
			c11.408,5.368,40.938,2.014,61.072,14.765s81.877,12.752,95.971,20.134s59.058,2.685,75.836-2.014s39.597-21.477,62.415-11.409
			c22.818,10.066,83.219,7.382,104.695,0s30.201-5.37,35.57-20.134c5.368-14.765,1.341-10.737,10.737-20.805
			c9.396-10.066,14.094,33.557,14.094,45.637s-44.294,26.173-59.059,27.516c-14.766,1.343-295.966,0.672-310.73-2.684
			c-14.766-3.356-97.313-11.409-105.367-16.107C1261.264,524.313,1267.975,471.295,1267.975,471.295z"/>
	</g>
	<g id="Bottom_Bun_Clipping">
		<defs>
			<path id="SVGID_11_" d="M1283.749,597.802c0,0-9.365,30.439-3.022,36.238c17.62,16.109,436.4,31.713,455.021,2.014
				c8.057-16.105-1.839-35.063-9.561-40.769C1689.111,569.28,1297.843,566.595,1283.749,597.802z"/>
		</defs>
		<clipPath id="SVGID_4_">
			<use xlink:href="#SVGID_11_"  overflow="visible"/>
		</clipPath>
		<path id="Fill_1_" clip-path="url(#SVGID_4_)" fill="#E2A476" d="M1280.125,595.195c0,0-9.488,33.739-3.061,40.165
			c17.849,17.855,442.128,35.148,460.993,2.232c8.161-17.851-1.864-38.863-9.686-45.186
			C1690.809,563.585,1294.404,560.608,1280.125,595.195z"/>
		<path id="Shadow_1" clip-path="url(#SVGID_4_)" fill="#D38E5F" d="M1280.729,598.808c0,0,7.381,10.738,12.751,14.765
			c5.369,4.026,73.152,19.462,85.232,15.436s84.563-6.039,93.287-2.684c8.724,3.355,65.099,8.054,72.48,7.382
			c7.383-0.672,27.516-2.014,44.965-2.014c17.45,0,55.704,4.697,61.073-0.671c5.368-5.369,33.556-8.053,39.596-8.725
			c6.04-0.671,35.57-2.013,40.938-6.711c5.369-4.698,8.726-8.055,14.094-2.685c5.369,5.369,6.711,11.408-8.054,28.187
			c-14.764,16.778-113.419,16.107-168.451,18.12c-55.032,2.014-261.738-10.065-271.806-11.408
			c-10.066-1.343-22.818-10.738-22.818-12.752S1280.729,598.808,1280.729,598.808z"/>
		<path id="Shadow_2" clip-path="url(#SVGID_4_)" fill="#C47E4E" d="M1273.347,614.914c0,0,6.04,2.684,12.751,10.067
			c6.712,7.383,10.738,7.383,16.779,8.725c6.039,1.342,36.91,4.362,38.924,3.021c2.014-1.343,14.766,3.691,18.792,3.691
			s14.765,4.026,22.147,2.013c7.382-2.013,14.765-7.383,18.791-3.356c4.027,4.027,28.858,6.712,32.885,6.712
			s24.832,0.672,32.886-1.342c8.053-2.014,18.791-2.685,22.146-0.672c3.355,2.014,24.161,4.027,24.161,4.027
			s12.751-0.671,14.765-1.342c2.014-0.672,18.792,0.67,22.147-0.672c3.354-1.342,8.053-1.342,11.408-1.342
			s16.106,2.684,19.463,2.684c3.355,0,22.147-2.012,25.503-2.684s12.08-0.672,15.436-0.672s22.146,3.355,27.516,2.014
			s17.45-6.71,19.463-7.382c2.014-0.672,10.066-2.014,12.751-2.014s23.49,6.712,26.846,4.027c3.355-2.686,6.71-3.356,9.395-5.37
			c2.686-2.014,8.054-6.712,10.067-8.054s4.699-1.342,7.383-3.354c2.684-2.014,4.697-6.041,7.382-6.041
			c2.686,0-4.026,20.134-4.026,20.134s-11.41,14.093-48.992,17.449c-37.583,3.356-299.992,0-304.02-2.014
			c-4.026-2.013-107.379-6.71-110.063-16.777C1273.347,626.324,1273.347,614.914,1273.347,614.914z"/>
		<path id="Highlight_1_L" clip-path="url(#SVGID_4_)" fill="#F2BC97" d="M1281.402,594.445c6.375,3.021,6.373,4.533,14.931,8.223
			c4.111,1.772,26.006,7.886,52.517,9.228c3.417,0.173,34.562,3.691,49.997,4.194c7.259,0.237,29.539,0.285,32.215,0.503
			c6.207,0.504,22.482,1.847-4.026,2.013c-12.417,0.078-50.696-0.273-61.241-1.005c-16.945-1.175-40.238-1.211-62.245-6.712
			c-8.054-2.014-17.114-7.719-18.792-8.725c-1.677-1.007-4.697-2.686-5.368-3.692
			C1278.717,597.466,1281.402,594.445,1281.402,594.445z"/>
		<path id="Highlight_1_R" clip-path="url(#SVGID_4_)" fill="#F2BC97" d="M1729.377,595.285c-1.343,1.845-0.338,7.382-11.579,9.898
			c-3.263,0.73-53.188,7.047-75.165,9.731c-21.359,2.609-46.716,3.12-69.294,4.195c-7.047,0.335-37.917,3.188-15.771,3.188
			c22.147,0,42.005,0.332,60.064-1.175c18.118-1.511,55.704-4.362,73.49-7.214c13.106-2.101,33.991-4.904,39.259-6.879
			C1737.093,604.513,1729.377,595.285,1729.377,595.285z"/>
	</g>
</g>
<g id="Rice_Bun">
</g>
<g id="Brioche_Bun">
</g>
</svg>
