<?xml version="1.0" encoding="utf-8"?>
<!-- Generator: Adobe Illustrator 16.0.0, SVG Export Plug-In . SVG Version: 6.00 Build 0)  -->
<!DOCTYPE svg PUBLIC "-//W3C//DTD SVG 1.1//EN" "http://www.w3.org/Graphics/SVG/1.1/DTD/svg11.dtd">
<svg version="1.1" xmlns="http://www.w3.org/2000/svg" xmlns:xlink="http://www.w3.org/1999/xlink" x="0px" y="0px"
	 width="487.61px" height="340.71px" viewBox="651.442 316.508 487.61 340.71"
	 enable-background="new 651.442 316.508 487.61 340.71" xml:space="preserve">
<g id="Layer_1">
</g>
<g id="Layer_2">
	<g id="Top_Bun_Clipping">
		<defs>
			<path id="SVGID_29_" d="M662.664,495.832c0,0-7.334-70.668,31.333-100c26.72-20.27,100.384-61.964,184.378-65.832
				c4.004-0.185,6.928,4.643,10.625,3c3.054-1.357,12.506-3.059,24.25,0.001c2.875,0.749,2.327-2.445,7.5-1.626
				c21.75,3.444,54.978,13.344,73.247,21.79c124,57.333,131.333,114.667,130,144.667S685.331,529.166,662.664,495.832z"/>
		</defs>
		<clipPath id="SVGID_2_">
			<use xlink:href="#SVGID_29_"  overflow="visible"/>
		</clipPath>
		<path id="Fill" clip-path="url(#SVGID_2_)" fill="#E2A476" d="M1110.833,438.5c-20.171-29.919-61.5-60.833-93.167-78.167
			C963.83,330.866,887.861,315.142,784.5,348.25c-32,10.25-89.742,27.737-108,64.25c-15.255,30.508-16,48.5-16.75,82
			c-0.115,5.128,3,8.75,8.75,10.75c42.21,14.682,122.898,15.613,150.25,17.5c21.75,1.5,154,1.5,251.75-7.917
			c16.379-1.578,53.803-7.009,56.833-18.5C1131.333,481.167,1120.833,453.333,1110.833,438.5z"/>
		<path id="Middle_Highlight" clip-path="url(#SVGID_2_)" fill="#F2BC97" d="M896,331c-6.894,0.986-19,6-25,15.5s-8,39.5-7,48
			c6.166,46.333,6,16.167,10.333,2.333c4.987-15.921,40.917-64.583,40.917-64.583S901.294,330.243,896,331z"/>
		<path id="Right_Highlight" clip-path="url(#SVGID_2_)" fill="#F2BC97" d="M979.667,344.167c-11.007-4.892-13.5-5.5-21.5,13
			s-10,24.667-8.334,42.667c3.454,37.317-4.333,41.166,19.167-5.5c9.164-18.198,36.701-37.4,35.501-39
			C997.001,345.333,985.667,346.833,979.667,344.167z"/>
		<path id="Left_Highlight" clip-path="url(#SVGID_2_)" fill="#F2BC97" d="M803.334,337.166c0,0-24.334,15.334-28,28
			s-8.404,33.118-4.666,44.333c5.333,15.999,2.389,19.376,11.666-3.668c20.667-51.333,38-54.666,46-64.666s23-9.667,23-9.667
			L803.334,337.166z"/>
		<path id="Shadow_1_L" clip-path="url(#SVGID_2_)" fill="#D38E5F" d="M883.126,330.75c-4.718-2.084-13.001,3.375-18.376,9
			c-7.231,7.568-12.559,21.048-13.25,32.625c-0.5,8.375,1.125,15.5,1.75,19.5s1.5,17.125,3.125-0.625S867.5,345,887.25,333.75
			S884.918,331.542,883.126,330.75z"/>
		<path id="Shadow_1_R" clip-path="url(#SVGID_2_)" fill="#D38E5F" d="M911.333,331.917c0,0,7.104-4.708,7.104-2.708
			s-1.86,3.037-2.938,4.917c-1.146,2-5.167,10.625-12.25,22.375c-3.883,6.44-14.917,26.833-21.313,38.375
			c-5.067,9.146,12.813-33.708,16.313-39.542s12.67-17.378,14.167-20.75C913.083,333.083,911.333,331.917,911.333,331.917z"/>
		<path id="Lower_Shadow_1" clip-path="url(#SVGID_2_)" fill="#D38E5F" d="M671.5,385l1.166,9.167c0,0,0.334,13.5,4.334,21.833
			s16.075,35.28,33.334,34.167c31-2,83.333,22.666,119.166,22.333c14.16-0.132,56.834-8.333,84.834-3.667
			c30.743,5.123,68-24.666,83.333-25.333s55.332,3.666,65.999-1s14.667-10,18.667-16.333s4.834-5.667,9.167-10.667
			s11.167-7.333,12.5-19.333s9.167,42.499,13.5,51.833s11.167,22.167,9.5,47.5s-46.833,23.333-107.5,26s-248-0.834-233,0.5
			s-78,4-125-22.5c-2.755-1.553-3.333-24.167-2-27.5s1.333-32.666,3-35S671.5,385,671.5,385z"/>
		<path id="Shadow_2_Lower" clip-path="url(#SVGID_2_)" fill="#C47E4E" d="M658.334,448.833c0,0,4.667,17.334,16,22.667
			s40.667,2.001,60.667,14.667s81.333,12.667,95.333,20s58.666,2.667,75.333-2s39.333-21.334,62-11.334s82.666,7.333,104,0
			s30.001-5.334,35.334-20s1.332-10.666,10.666-20.666s14,33.333,14,45.333s-43.999,25.999-58.666,27.333s-294,0.668-308.667-2.666
			s-96.667-11.333-104.667-16S658.334,448.833,658.334,448.833z"/>
	</g>
	<g id="Bottom_Bun_Clipping">
		<defs>
			<path id="SVGID_31_" d="M662,592.5c0,0-9.304,30.237-3.003,35.998c17.503,16.002,433.503,31.502,452,2
				c8.003-15.998-1.827-34.83-9.497-40.498C1064.67,564.168,676,561.5,662,592.5z"/>
		</defs>
		<clipPath id="SVGID_4_">
			<use xlink:href="#SVGID_31_"  overflow="visible"/>
		</clipPath>
		<path id="Fill_1_" clip-path="url(#SVGID_4_)" fill="#E2A476" d="M658.399,589.911c0,0-9.425,33.515-3.04,39.898
			c17.73,17.736,439.191,34.915,457.932,2.218c8.107-17.732-1.852-38.605-9.621-44.886
			C1066.356,558.511,672.584,555.554,658.399,589.911z"/>
		<path id="Shadow_1" clip-path="url(#SVGID_4_)" fill="#D38E5F" d="M659,593.499c0,0,7.332,10.667,12.666,14.667
			s72.667,19.333,84.667,15.333s84.001-5.999,92.667-2.666s64.667,8,72,7.333s27.332-2,44.666-2s55.334,4.666,60.667-0.667
			s33.333-7.999,39.333-8.666s35.334-2,40.667-6.667s8.667-8.001,14-2.667s6.666,11.333-8,28s-112.666,16-167.333,18
			s-260-9.999-270-11.333s-22.667-10.667-22.667-12.667S659,593.499,659,593.499z"/>
		<path id="Shadow_2" clip-path="url(#SVGID_4_)" fill="#C47E4E" d="M651.666,609.499c0,0,6,2.666,12.667,10
			S675,626.833,681,628.166s36.666,4.333,38.666,3s14.667,3.667,18.667,3.667s14.667,4,22,2S775,629.499,779,633.499
			s28.666,6.667,32.666,6.667s24.667,0.667,32.667-1.333s18.667-2.667,22-0.667s24,4,24,4S903,641.5,905,640.833
			s18.667,0.666,22-0.667s8-1.333,11.333-1.333s15.999,2.666,19.333,2.666s22.001-1.999,25.334-2.666s12-0.667,15.333-0.667
			s21.999,3.333,27.333,2S1043,633.5,1045,632.833s9.999-2,12.666-2s23.334,6.667,26.667,4s6.666-3.334,9.333-5.334s8-6.667,10-8
			s4.668-1.333,7.334-3.333s4.666-6,7.333-6s-4,20-4,20s-11.334,13.999-48.667,17.333s-298,0-302-2S657,640.833,654.333,630.833
			S651.666,609.499,651.666,609.499z"/>
		<path id="Highlight_1_L" clip-path="url(#SVGID_4_)" fill="#F2BC97" d="M659.668,589.166c6.333,3,6.331,4.503,14.832,8.168
			c4.084,1.761,25.833,7.833,52.168,9.166c3.395,0.172,34.332,3.667,49.665,4.167c7.21,0.235,29.343,0.283,32.001,0.499
			c6.166,0.501,22.333,1.835-4,2c-12.334,0.077-50.359-0.271-60.834-0.998c-16.833-1.167-39.972-1.203-61.832-6.668
			c-8-2-17.001-7.667-18.667-8.667s-4.666-2.667-5.333-3.667S659.668,589.166,659.668,589.166z"/>
		<path id="Highlight_1_R" clip-path="url(#SVGID_4_)" fill="#F2BC97" d="M1104.668,590c-1.334,1.833-0.335,7.333-11.502,9.833
			c-3.241,0.726-52.834,7-74.666,9.667c-21.218,2.592-46.405,3.1-68.834,4.167c-7,0.333-37.665,3.167-15.665,3.167
			s41.726,0.329,59.665-1.167c17.998-1.501,55.334-4.334,73.002-7.166c13.02-2.087,33.766-4.872,38.998-6.834
			C1112.333,599.167,1104.668,590,1104.668,590z"/>
	</g>
</g>
</svg>
