<?xml version="1.0" encoding="utf-8"?>
<!-- Generator: Adobe Illustrator 16.0.0, SVG Export Plug-In . SVG Version: 6.00 Build 0)  -->
<!DOCTYPE svg PUBLIC "-//W3C//DTD SVG 1.1//EN" "http://www.w3.org/Graphics/SVG/1.1/DTD/svg11.dtd">
<svg version="1.1" xmlns="http://www.w3.org/2000/svg" xmlns:xlink="http://www.w3.org/1999/xlink" x="0px" y="0px"
	 viewBox="0 0 372.762 225.155" enable-background="new 0 0 372.762 225.155"
	 xml:space="preserve">
<g id="Bottom_Bun">
	<g>
		<defs>
			<path id="Bottom_Bun_Clipping_Mask" d="M27.209,167.651c-3.074,1.193-2.347,1.297-3.199,4.109
				c-0.995,3.285-1.25,10.75-1.125,12.25s0.682,15.876,5.875,16.792c62.333,11,133.504,14.141,168.5,13.172
				c84.333-2.334,66.861-3.903,119.334-11.339c22.126-3.136,29.196-4.333,30.098-10.333s2.735-15.667,1.235-21
				s-0.625-7.709-6.667-7.833"/>
		</defs>
		<clipPath id="Bottom_Bun_Clipping_Mask_1_">
			<use xlink:href="#Bottom_Bun_Clipping_Mask"  overflow="visible"/>
		</clipPath>
		<path id="Bottom_Bun_base" clip-path="url(#Bottom_Bun_Clipping_Mask_1_)" fill="#FF9827" d="M22.856,204.636
			c15.404,3.5,288.904,47.5,332.904-5.25s-11.816-40.609-23.182-46.75s-248.257-7.447-286.788,1.151S-1.74,160.386,0.26,173.886
			S22.856,204.636,22.856,204.636z"/>
		<path id="Bottom_Bun_Shadow_1A" clip-path="url(#Bottom_Bun_Clipping_Mask_1_)" fill="#FF8429" d="M19.26,167.651
			c0.75,2.984,1.162,4.12,4.433,5.416s1.59,3.629,4.579,2.224s1.655-2.307,5.739,0.436s2.377,0.661,6.813,3.16
			s6.938,3.951,10.937,2.312s8.25-1.438,11.75,0s7,2.188,9,2.188s3.184,2.88,6,0s4.5-3.875,7-2.188s0.25,1.998,5,3.468
			s4.5,1.72,7.25,1.47s2-1.75,8-1.75s5.5-0.5,9.75,0.75s7.25,2.67,9.5,1.085s1.5-4.335,5.75-1.835s6.25,3.824,10.25,2.537
			s3-2.037,8.25-2.037s5.75,0,10.25,1s4.5,1.5,6.75,0s3.5-3,7.75-2s5.5,3.824,8.75,3.537s2.105,1.578,5.803,0.021
			s3.447-2.558,7.947-3.308s3.5-2.25,9.25,0s3.75,5.371,9.75,3.936s2.75-0.686,9.25-1.686s4-2,9.5,0s7,2.25,9.25,1
			s-0.75-2.5,4.75-1.5s3.25,3,8,1.5s6.25-3.75,10.25-3s5.5,1,6.75,0.25s-3-0.25,3-1s4.25,0.5,9.25,1.25s5.75,0.25,8-0.75
			s-3.741-4.007,6.5-2.938s8.769,4.188,15,1.938s8.564,0.534,13.5-1.938s8.159-1.251,9.75-3.155s3.074-2.487,4.912-3.697
			s3.631-5.085,3.52-6.694s-0.42-1.88,0.005-4.182s-30.937-4.834-34.437-4.834s-171.982,3.637-179.241,3.818
			s-91.25-2.275-95.124-1.127s-18.635,4.809-18.635,4.809"/>
		<path id="Bottom_Bun_Shadow_1B" clip-path="url(#Bottom_Bun_Clipping_Mask_1_)" fill="#FF8429" d="M23.056,208.636
			c-0.346-8.75-6.546-19.25-2.171-21s-11.365-14.936,0-6.5c12.125,9,22.657,13.313,27.375,13.75c6.559,0.606,36.5,6.5,50.75,6.75
			s2.25,0.25,26.5,0s68.75,5,87.75,3.25s87-10.5,94-10.75s15.5-2.5,21-4.75s13.074-5,14.912-6.5s3.588-4,5.838-6.5
			s11.5-6,11.25,4.75s-46.75,39.75-78.25,42s-254.5-5.996-254.25-8.996"/>
		<path id="Bottom_Bun_Shadow_1C" clip-path="url(#Bottom_Bun_Clipping_Mask_1_)" fill="#FF8429" d="M118.26,194.636
			c25,0,90.5,4.75,100.75,3s22.25-2.25,29.25-3s-58,0-62,0"/>
		<path id="Bottom_Bun_Shadow_2A" clip-path="url(#Bottom_Bun_Clipping_Mask_1_)" fill="#FF6D2C" d="M26.202,166.136
			c-0.641,2.25-0.962,2.728,0,4.333s-0.404,4.101,1.558,3.667s3.77-0.989,5.906-0.527s10.372,2.872,12.066,4.366
			s2.981,2.235,4.694,0.994s3.466-2.11,6.583-1.208s3.417,0.464,7.583,1.836s5.806,1.964,7.403,1.335s3.43-0.629,5.764-0.629
			s0.833-1.666,4.833-2s4.5,0.666,5.667,2.166s4.167,4.292,5.667,2.729s1.834-2.729,3.667-3.063s3.667-1.167,6.167-0.667
			s8.437,1.451,9.645,1.629s2.855,3.496,5.688,2.101s3.667-1.562,6.167-1.896s4.333-0.667,6,0.333s5.667,2.125,7.333,1.563
			s4.167-0.438,7.5,0s5,0.604,5.833-1.063s-0.548-2.786,2.699-3.133s3.301-0.367,5.968,0.8s2.5,1.666,6,1.333s3.167-1.667,8.5,0
			s4.834,4.501,8,3.334s3.604-0.043,5.469-1.271s1.462-1.948,5.531-2.229s3.746-0.313,6.873,0.51s6.293,0.822,6.793,0.156
			s2.667-1.5,4.667,0s4.666,1.791,5.833,1.563s1.667-0.604,3.667,0s2.333,0.063,5.333,0s3-1.771,5,0s5.5,1.654,6.5,1.546
			s-0.332-1.317,2.834-1.546s2.999-0.604,5.166,0s2.333,1.762,5,1.6s3.667,2.193,4.667,0.016s0.779-2.047,3.14-3.112
			s5.011-1.691,7.027-1.065s3.667,1.834,5,0.834s1.922-1.056,4.333-2s3.999,0.334,7.333,0s5.5-0.667,6.667,0.333s1.333,2,2.5,1
			s1.833-1.667,3.833-2.167s4.795-1.533,6.729-1.12s3.04,0.511,5.739,1.565s2.448,2.705,4.907,1.38s3.856-2.867,6.074-1.43
			s5.616,3.989,7.088,1.965s3.724-2.133,5.781-1.86s3.85-1.333,4.016-2s-0.334-1.666,1.333-2.833s3.786-0.716,3.727-2.691
			s1.155-2.833,1.326-4.304s2.564-0.888,0.947-2.505s-4.593-5.529-5.333-5.097s-7.501,4.096-8.334,5.263s3.501,7.666-12.166,6
			s-34.333-0.833-42.5,0.167s-18.333,1.834-37,2.834s-98.501-0.334-104.334-0.667s-74.667,0.834-76.667,0.5
			s-11.575-1.812-17.167-4.151s-4.836-8.005-8.168-5.844S26.202,166.136,26.202,166.136z"/>
		<path id="Bottom_Bun_2B" clip-path="url(#Bottom_Bun_Clipping_Mask_1_)" fill="#FF6D2C" d="M20.885,191.803
			c9.667,10,61.375,13.833,66.875,14.166s87.333,6.001,93,5.667s46.834-1.834,54.334-2.334s41.332-2.832,46.166-4.666
			s32.501-5.168,38.334-6.834s19.499-3.499,22.166-5.666s10.166-8.666,11.5-10.5s-1.5,13.666-6,16.333s-72.5,16.833-78.833,17.333
			s-97.333,4.5-108.333,4.167s-84.667-8-95-9.333s-35.45-3-38.892-7"/>
	</g>
</g>
<g id="Patty">
	<g>
		<defs>
			<path id="Patty_Clipping_Mask" d="M341.813,157.572c-0.382-0.882-2.67,0.02-1.902-1.31c0.767-1.328,1.515-1.438,0.892-2.32
				c-0.623-0.883-0.229-1.603-0.863-1.787c-0.635-0.186-0.443-0.738-0.508-1.441c-0.064-0.704-1.09-1.911-1.993-1.659
				c-0.904,0.253-1.247,2.706-2.742,2.265c-1.495-0.44-2.866,0.088-3.613-0.838c-0.748-0.926,0.373-0.375-1.371-1.367
				s-1.869-1.103-2.866-0.882s-3.346,0.247-4.599-0.732c-1.253-0.979-2.08-0.927-3.086-0.843c-1.007,0.084-1.653-0.217-2.658-0.96
				s0.422-1.709-1.095-1.579s-1.89,0.909-3.136,0.248s-3.364-1.323-4.486-0.992c-1.121,0.331-15.717-1.347-18.957-1.236
				c-3.239,0.11-6.186-0.594-9.793-0.132c-3.606,0.463-5.665,2.558-6.412,2.227c-0.748-0.331-1.246-0.771-2.617-0.771
				s-2.492-0.771-3.987-0.221c-1.496,0.552-2.717,0.288-3.24,0.683s-3.614,0.31-3.987,0.199c-0.374-0.11-0.873-0.551-1.994,0
				c-1.121,0.552-3.688-0.587-4.645-0.49c-0.957,0.096-0.714-0.061-3.455,0.38c-2.742,0.441-4.86,0.992-4.984,0.662
				c-0.125-0.331,0.747,0.11-1.745-0.331s-0.249-1.213-6.979-0.661c-6.729,0.551-5.731,0.551-9.72,1.103
				c-3.987,0.551-3.489,0.44-5.482-0.221c-1.994-0.662-0.748-1.984-3.863-0.992s-4.361,1.433-6.23,1.213
				c-1.869-0.221-1.555-0.142-2.964-0.613c-1.408-0.473-3.89-0.931-5.386-0.489c-1.495,0.44-4.859,0.661-5.731,0.22
				c-0.873-0.44-2.742-0.771-3.739,0c-0.996,0.772-3.077,0.624-3.81,0c-0.733-0.623-1.819-0.44-3.117-0.275
				c-1.297,0.166-2.37-0.275-3.329,0.166c-0.959,0.44-3.825,0.551-4.323,0.22c-0.499-0.33-1.247-1.103-2.617-0.33
				c-1.371,0.771-3.115,1.653-3.987,1.322c-0.873-0.33-1.568-0.11-3.863-0.992c-2.295-0.882-1.042-0.776-3.325-0.388
				c-2.283,0.388-2.034,1.27-5.149,0.388s-2.492-1.653-4.86-1.103c-2.368,0.552-1.796,0.552-3.515,1.048s-3.712,0.937-4.834,0.496
				c-1.122-0.441-1.122-0.771-2.991-0.771s-4.611,0.882-7.103,0.44c-2.492-0.44-2.991-0.221-5.607,0.221
				c-2.617,0.441-4.486,0.661-5.109,0.11c-0.623-0.552-0.374-0.552-2.368-0.771c-1.994-0.221-3.839-0.264-5.109,0.44
				c-1.27,0.705-4.756,0.794-5.486,0.129c-0.73-0.666-0.241-1.766-2.738-1.342s-2.822-0.106-4.215-0.053
				c-1.393,0.053-4.889,0.549-5.754-0.277c-0.865-0.827-1.994-1.103-3.614-0.992c-1.62,0.11-2.368,0.661-4.112,0.661
				s-2.42,0.6-3.329-0.031c-0.908-0.63-1.846-1.715-2.344-0.956c-0.498,0.758-1.306,1.098-2.676,0.767
				c-1.371-0.33-2.119-0.33-3.489-0.551s-1.495-0.661-3.115-0.11s-2.859,0.728-4.237,0.882c-1.378,0.154-2.434-0.146-3.645-0.063
				s-2.835,0.284-3.583,0.725c-0.748,0.441-2.742,1.213-3.365,0.883c-0.623-0.331-3.614-0.662-4.112-0.331s-0.872,0.661-3.489,1.323
				c-2.617,0.661-4.076,1.879-4.717,1.436s-0.567-1.027-2.349,0.367c-1.781,1.394-2.031,1.102-3.277,1.468
				c-1.246,0.367-1.294,1.223-2.276,1.659c-7.542,3.353-9.856,5.081-13.179,10.52c-3.323,5.439-0.333,3.677,0,5.146
				c0.333,1.47,1.662,0.615,0.333,2.807c-1.33,2.19-2.326,3.366,0.333,4.837c2.658,1.47,3.314,1.471,4.647,1.176
				c1.334-0.294,0.005-2.94,1.334-0.294c1.329,2.646,4.086,3.234,5.532,4.116c1.446,0.882,6.763-0.589,9.089,0
				c2.326,0.588,5.316-1.47,6.646-1.176c1.329,0.294-0.997,0.579,2.659,1.465c3.655,0.887,13.624,1.76,14.289,0
				s4.32,0.005,6.314-0.289c1.994-0.294,5.652-2.589,7.314-2c1.661,0.588,0.664,2.939,3.322,2.939s3.656,1.47,5.65,0
				c1.994-1.47,4.818-2.536,6.313-1.874c1.496,0.661,3.489,1.322,4.112,1.433s1.496,0.11,3.24,0.221s3.738,2.756,5.732,2.536
				c1.994-0.221,2.991,0,3.489-0.662c0.499-0.661,0.997-0.882,1.869-0.882c0.873,0,1.122,0.221,2.119,0.331
				c0.997,0.11,2.991,0.221,3.863-0.221c0.872-0.44,1.62-0.221,2.368-0.11s1.246,0.441,1.994,0.662
				c0.748,0.22,1.994,0.882,3.24,0.33c1.246-0.551,3.863-0.221,4.361-0.44c0.499-0.221,1.994-0.552,2.368,0.11
				c0.374,0.661,1.246,0.687,1.994,0.895c0.748,0.207,2.742,0.674,3.988,0c1.246-0.675,1.243-2.675,1.866-3.005
				c0.623-0.331,1.122-0.772,1.994-0.441s0.997,1.103,2.118,0.992c1.122-0.11,1.371,0.11,2.991,0.221
				c1.62,0.11,2.742-0.441,3.614-0.771c0.873-0.331,3.863-0.882,4.486-0.331s0.872,0.992,2.368,1.103
				c1.495,0.11,3.863,1.06,4.611,0.585c0.748-0.475,1.62,0.958,3.863,0.132c2.243-0.827,2.991-0.938,3.863-0.606
				c0.873,0.33-0.748,0.415,1.247,0.869c1.994,0.453,0.997,0.674,2.866,0.563s2.991,0.608,3.987,0.028
				c0.997-0.579,1.122-0.689,1.994-1.021c0.872-0.33,0.623-0.551,2.368-0.771c1.744-0.221,1.869,0,3.862,0.661
				c1.994,0.662,2.368-0.22,3.115,0.552c0.748,0.771,2.243,2.095,3.489,1.433c1.246-0.661,1.62-0.551,2.866-0.992
				c1.246-0.44,1.62-2.204,3.489-1.653c1.869,0.552,2.243,0.882,2.866,0.992s0.748,1.213,1.744,0.992
				c0.997-0.221,2.119-0.11,3.24-0.331c1.122-0.22,1.246-0.33,2.118,0.221c0.873,0.552,0.499,0.91,1.62,0.951
				c1.122,0.041,1.994,0.841,2.991,0s2.99-1.281,3.862-0.73c0.873,0.551,0.873,0.904,1.745,1.113c0.872,0.21,1.246-0.099,2.741,0
				c1.495,0.1,1.994,0.823,2.492,0.075c0.499-0.747,1.869-1.52,2.492-1.409s0.997,0.662,1.496,0.882
				c0.498,0.221,0.872,1.284,1.869,0.862c0.997-0.421,0.498-0.421,1.869-0.752c1.37-0.33,3.239-1.213,3.862-0.882
				s0.25-0.221,2.368,0.552c2.118,0.771,2.617-0.331,3.24,0.661s2.492,1.037,3.364,0.519s0.872-0.519,1.869-0.85
				c0.997-0.33,1.246-1.543,2.741-0.771s1.246,0.661,3.115,1.213c1.869,0.551,1.994,1.581,3.614,0.735s1.994-0.956,3.115-1.177
				s3.489-3,4.486-3.551c0.997-0.552,0.997-0.771,2.616-0.552c1.62,0.221,1.246,0.662,3.115,0.882
				c1.87,0.221,3.24,0.552,4.362,0.221c1.121-0.33,2.872-0.771,5.364-1.213c2.492-0.44,2.492-0.882,3.613,0
				c1.122,0.883-0.373,1.544,1.371,1.434c1.745-0.11,3.495-2.779,4.866-3.11s6.246,2.449,7.367,2.118
				c1.122-0.331,0.748-0.661,1.869,0c1.122,0.661,1.87,1.434,2.742,1.213s1.246,0.11,2.367-0.331
				c1.122-0.44,2.991,0.221,3.988-0.661c0.996-0.882,1.495-1.544,2.741-0.441s0.498,1.434,1.869,1.434s7.103,0.44,8.972-0.552
				s3.988,0.11,4.237-0.992s1.495-0.882,1.371-1.874c-0.125-0.992-1.229-0.992,0.009-1.984c1.237-0.992,1.86-0.882,2.607-1.433
				c0.748-0.552,1.881-0.772,1.938-1.434s0.403,0.034,0.46-0.737s0.109-0.57,0.54-1.231s0.68-0.661,1.178-1.434
				c0.499-0.771,1.745-1.433,1.246-2.095c-0.498-0.661-0.747-1.405-0.747-2.19"/>
		</defs>
		<clipPath id="Patty_Clipping_Mask_1_">
			<use xlink:href="#Patty_Clipping_Mask"  overflow="visible"/>
		</clipPath>
		<path id="Patty_Base" clip-path="url(#Patty_Clipping_Mask_1_)" fill="#6F4426" d="M26.202,175.469
			c-2.962-8.667-7.333-7.241-3.146-13.872s3.97-7.543,11.004-12.502s10.234-3.146,22.034-6.292s5.812-3.92,23.167-5.177
			s23.926-0.509,45.167,0s23.75-0.788,50.333,2.634s44.475-0.727,63,0.741s26.822,2.92,44.859,0.865s25.229-2.539,34.839-1.243
			s12.636-1.486,20.969,3.847s7.921,6.102,10.583,16.166s-3.099,16.834-16.432,19.834c-17.788,4.002-16.965,3.506-38.151,4.666
			c-24.333,1.333-92,2-124.333,0.667s-55,0.062-81-2.604s-40.333-0.729-51-2.729S26.202,175.469,26.202,175.469z"/>
		<path id="Patty_Shadow_1A" clip-path="url(#Patty_Clipping_Mask_1_)" fill="#5E361B" d="M21.323,169.793
			c3.75-2.141,6.219-3.462,7.469-2.712s1.297,0.715,1.172,1.965s-1.496,2.232,0.076,2.732s3.209,0.866,3.834-0.009
			s1.131-0.955,1.631,0.521s-0.372,1.973,1.753,3.098s7.626,1.624,9.501,0.749s7.25-3.375,8.625-3.375s3,0.249,2.625,2.124
			s-2.25,1.375-1,2.875s3.125,1.625,3.875,0s-1.125-2.25,1.375-2.875s0.625,0.5,3.125-0.375s1.875-0.875,3.875-3.25
			s1.875-4.125,5.375-2.5s3.125,1,3.875,3.25s-0.625,2.125,1.625,2.875s3,1.375,4.625,0.75s1.375-0.875,2.625-1.5
			s0.625-0.75,2.625,0.125s2.75,2.125,3.625,0.875s0.875-2.25,0.875-3.25s-0.5-1.625-0.75-2.75s0.125-2.438,0.75-2.344
			s2.75-1.354,2.625-0.005s-0.625,0.724-0.875,1.974s-0.875,1.875,0.125,2.5s2.5,1,3.125,0.5s1.75-1.25,2.125-0.125
			s0.125,1.75,0,2.5s-0.375,1.125,1.25,1.375s2.25-0.375,4,0s2.25,1.125,4.875-0.125s5.75-2.625,5.625-0.25
			s-2.375,2.469-0.875,3.797s1.125,0.797,3.5,0s1.875-2.047,3.5-0.797s2.625,1.375,3.875-0.5s-2.625-3.695,1.75-4.66
			s4.375-1.91,4.625,0s-1,2.535,0.625,3.16s3.25,0.875,4,0.625s1.75-1.375,2-1.75s0.625-2.5,2.875-1.125s2.375,2.625,3.75,2.125
			s1-0.375,2.375-1.25s1.75-2,2.125-3.125s1-2.219,2-1.984s4.375,0.609,5,1.359s1.875,1.18,3,1.965s2.375-1.59,3.125,1.035
			s-0.25,3.625,0.625,4.375s1.25,1,2.5,0.25s0.75-0.625,2.75-1.75s1.25-2.25,2.75-0.875s1,2.5,2.625,2.375s2.25-0.375,3.125-1.125
			s-0.375-1.25,1.75-1.375s1.875-0.25,2.5,1.5s0.25,3.711,2.125,2.355s2.105-0.355,3.178-2.105s0.197-2.125,2.322-2.375
			s1,1.25,3.375,0.375s2.5-2.119,3.75-2.435s1-1.94,3.5-0.815s3,1.375,2.75,2.75s-1.01,2.125,0.058,2.5s1.067,1.5,2.442,0.375
			s1.125-1.125,1.875-2s0.5-1.375,1.375-1.25s1.125,0.375,1.875,1.375s0.25,1.375,2,1.25s3.5-2,4.375,0s-1.125,2.615,1,2.808
			s2.375,1.058,3.25,0s-0.25-1.808,2.375-1.933s3.375,0,4.375,1.125s0.25,1.771,1.75,1.323s2.125-0.323,2.625-1.323
			s-0.938-1.5,0.938-1.875s3.188-0.375,3.188,0.875s0,2.75,0,2.75s0.75,0.25,1.5,0s0.5-0.625,1.5-1s-0.375-1,1.875-0.375
			s2.875,0.875,3,0.25s-1.625-1,0-2.125s-3.236-2.316,0.007-4.158s4.493-3.217,4.118-1.842s-1.5,0.934-2.125,1.842
			s-0.75,1.658-0.125,1.908s1.129,1.125,2.314,0.125s2.436-2.816,3.311-2.033s-0.875,1.783,1.5,1.408s2.875-0.375,3.125-0.875
			s-1-3.875,2.125-1.625s4.625,0.5,3.125,2.25s-1.875,1.375-2.25,2.5s-2.5,0.75-0.375,1.125s2.297,1,3.211,0s0.539-1.5,1.539-1.75
			s3.25,0.625,3.25-0.875s1.125-1.566-0.5-2.158s-2.25-0.467-2.25-1.092s0.5-1.75-0.5-1.75s-3.75,0.625-3.625-0.25
			s-0.75,0.5,0.125-0.875s1.125-2.125,2-1.875s2,0.25,2.375,1s-0.375,1.406,1.5,0.766s1.375-3.516,1.875-0.641
			s-0.875,3.5,0.625,3.875s2.625,0.875,3.375,0.25s0-0.75,1-1.625s1-2.5,1.75-1s0.375,2.684,0.75,3.217s-1.625-0.092,0.375,0.533
			s1.625-0.875,3,0.625s2.75,2.375,3.5,1.625s1.125-0.75,1.25-1.625s-1.375-2.125,1-1.875s3.5,0.75,3.25,2.5s0.5,1.625,1.25,1.375
			s1.375-0.25,1.875-1.125s0.125-2.816,1.5-2.033s0.25,2.033,1.625,1.408s2.25-1.408,2.25-1.408s0.75-2.217,1.75-1.217
			s-0.75,0.75,1.375,2s1.875,1.875,3.125,1.25s1-1.875,2.375-0.875s0.25,0.875,1.375,2s1.875,1.75,2.75,1.5s2.25-0.25,2.5-1
			s-0.125-0.75,1.25-1.375s1.625-1.816,1.625-2.283s-2-0.592,0-1.217s2.5-1.75,2.875-0.125s-1.125,1.75,0,2.5s2,1,2.5,1
			s-1-2.125,0.5,0s2.125,2.875,3.25,2.125s-0.375-1.5,3-0.875s4.637,0.5,4.568-0.375s-1.443-1.25-0.818-2s0.125-0.5,1.75-0.375
			s0.5,1.5,1.625,0.125s0.625-0.625,0.875-2.25s-2-0.75,0.25-1.625s2.75,0.125,3-1.625s0.25-1.229,0-2.802s-0.625-2.323,0.188-3.198
			s1.563-1.625,0.938-2.375s-2.375-0.75-2.875-1.875s-0.875-1.625-0.5-2.75s1.125-0.625,0.625-2.25s-1.779-3.429-2.246-3.563
			s-1.004-2.462,1.746-2.887s5.445-2.326,11.875,1.784s8.5,4.541,9.75,9.666s0.375,6.25-9.75,16s-14,15.5-32.125,16.625
			s-103.25,0.125-120.875-1.125s-106.625,0.5-118,0.375s-56.25-5-56.688-9.25"/>
		<path id="Patty_Shadow_1B" clip-path="url(#Patty_Clipping_Mask_1_)" fill="#5E361B" d="M23.056,160.017
			c4.184-3.712,9.704-4.881,9.454-3.131s-1.233,2,0.008,3.75s2.492,4.75,4.242,3.75s0.5-0.322,1.75-2.286s1.25-2.464,2.5-1.464
			s0,2.75,0,2.75s-1.25,2.75-2.5,3s-3.5,2.25-4.5,0s-0.5-2.75-3-3.25s-1.61-1.212-4.808-1.37s-5.241-1.679-4.193-1.714"/>
		<path id="Patty_Shadow_1C" clip-path="url(#Patty_Clipping_Mask_1_)" fill="#5E361B" d="M57.01,160.636
			c0.33-0.256,0.644-0.513,0.946-0.761c1.76-1.442,3.134-2.593,5.054-1.739c2.25,1,1.25,2,2.5,2.5s2.5,0.25,4.25,0
			s3.25-2.334,3.75-2.792s0.472-2.271,2.917-1.902s3.833-0.056,2.333,1.444s-3.75,2.25-3.75,3.25s0.75,2.25,1.75,2.5
			s0.992,2.25,2.621,0s1.129-3.25,2.879-2.5s2.25-1.072,2,1.464s-2.75,4.536-3.75,3.786s-1,0.318-6,0.159s-9.75,1.442-10.75,0.017
			s-1.75-1.926-2.75-2.426s-3-1.536-3-1.536s-2.75,0.464-3.5,0s-1.75-2.964-1.75-2.964s0-4.736,1-3.243s0.25,3.243,1,3.243"/>
		<path id="Patty_Shaodw_1D" clip-path="url(#Patty_Clipping_Mask_1_)" fill="#5E361B" d="M120.26,158.261
			c2.25-1.75,9-3.813,10.25-2.563s3.25,2.969,4.75,2.469s2.083-0.941,3.25-2.906s-0.5-2.918,2-2.893s4.776-0.815,5.763-2.105
			s-0.431-2.582,1.965-2.229s3.457,1.104,5.271,1.062s41.25,15.79,41.25,15.79v6.25c0,0-0.764,1.75-2.382,0s-2.013-3.5-3.815-3.5
			s-4.553,2.781-5.303,2.016s-1-1.516-2.5-2.266s-1.5-1-2.25-2.5s-2.75-2.822-4.25-2.786s-2.75,0.036-3-1.464s-3.75-3.5-5-3.25
			s-5.734,1.452-5.734,1.452s-5.266-0.202-5.766-1.202s-1.75-2-0.75-3s3.5-2.275,3.5-2.275l-3-1.725c0,0-1.25,0.949-2.75,1.725
			s-2.927,2.99-4.932,2.508s0.057-1.982-2.005-0.482s-4.063,3.25-5.063,3.75s-1.25,3.178-3.75,3.964s-4.25-2.214-6-1.464
			s-6.129,2.444-8.476,2.091s-2.524-0.474-4.274-2.782s-6-2.559-6.75-3.809s1.498,0.224,0-2.75s-1.076-2.979-0.158-2.966
			s2.658,4.216,5.158,5.216S120.26,158.261,120.26,158.261z"/>
		<path id="Patty_Shadow_1E" clip-path="url(#Patty_Clipping_Mask_1_)" fill="#5E361B" d="M352.142,145.739
			c-3.212,1.828-9.786,2.688-14.834,5.042s-8.327,4.159-10.063,2.507s-2.782-1.74-4.985-0.928s-5.75-0.775-8,0s-3.5-0.58-4-2.527
			s-0.5-5.665-2.75-4.094s-3.866,0.636-6.543,2.251s-3.191,2.22-5.707,1.654s-4-1.409-5-2.334s-4.013-1.822-4.75,0s-2,2.825-3,3.575
			s-7.938-0.053-8.469-1.241s-2.798-2.473-4.281-2.334s-1.548,0.144-4.776,0.308s-2.759-1.487-5.479-1.299s-5.742,2.028-6.245,2.775
			s1.518,1.519-3.363,1.281s-6.822-1.69-8.495-1.614s-2.142,1.124-2.642,2.124s-3.25,1.699-4,1.475s-2.797-2.186-4.072-1.707
			s-2.928,2.066-3.678,3.274s-3.25,0.458-5.5,3.458s-2.465,7.92-5.75,4.714s-4.5-3.214-5.25-1.464s-0.5,0.768-1.75,2.509
			s-3.25,4.491-4,5.491s-2.202,2.85-4.5,1.016s-3.538-1.646-3.538-1.646l5.288-14.12l9.5-4.791l58-14.025l55.765,4.991
			L352.142,145.739z"/>
		<path id="Patty_Shadow_1F" clip-path="url(#Patty_Clipping_Mask_1_)" fill="#5E361B" d="M20.885,147.311
			c6.132,4.592,8.901,4.718,12.204,7.583s4.608,4.625,6.515,2.184s4.944-2.441,4.944-2.441s2.462,0.5,4.462-0.75
			s4.756-3.201,5.5-1.114s1,4.364,3.5,3.864s4.156-2.259,4.334-2.812s-1.16-1.901,2.166-1.464s1.75-4.057,4.5-3.266
			s5.606,3.161,6.313,3.106s5.411,1.583,6.424-0.491s-3.424-3.433,0.665-3.613s3.178-3.055,6.097-0.258s2.471,3.163,5.25,3.018
			s3.298-4.203,6.025-1.587s0.243,4.065,2.727,2.616s1.336-0.028,3.499-2.229s-0.215-3.878,5.266-1.969s2.737,2.698,6.984,2.976
			s4.022-3.803,6.251-1.568s0.209,0.678,2.229,2.234s3.147,1.306,5.021,1.099s-3.736-1.321,2.509-2.431s5.454-1.83,7.002,0.154
			s3.727,4.273,5.239,2.209s-1.165-3.232,2.773-2.038s0.477,1.397,5.227,2.105s8.515-0.026,7.757-2.534s-7.257-13.258-11.257-13.258
			s-4.457,4.309-34.75,4.365s-79.578-2.67-82.789-1.018"/>
		<path id="Patty_Shadow_1G" clip-path="url(#Patty_Clipping_Mask_1_)" fill="#5E361B" d="M218.01,172.886
			c0.861-0.289,1.633-0.605,2.325-0.933c4.885-2.311,5.83-5.135,6.925-2.302c1.25,3.234,1.75,3.984,4,3.234s2.324-0.969,2.25-3.234
			s-0.454-2.208,2.235-2.612s1.765,0.847,6.765,1.347c0.752,0.075,1.387,0.058,1.929-0.027c3.061-0.477,3.124-3.096,4.276-3.269
			c1.356-0.204,0.045-2.026,2.795-2.99s0.25-2.714,5.5-3.214s8.648-0.428,7.75,1.75s-2.766-0.428-5.75,1.464s-3.75,3.05-4.5,3.793
			s-1.04,3.638-4,1.993s-5.855,0.5-9.053,3.25s-4.447,4.75-6.697,5s-6.75,0.75-8.75,0s1.639-0.961-2.75-2.25"/>
		<path id="Patty_Shadow_1H" clip-path="url(#Patty_Clipping_Mask_1_)" fill="#5E361B" d="M312.51,173.636
			c0.5-1.5,2.5-2.969,5.25-3.984s5,1.484,7.5-1.766s0.75,0,2.5-3.25s5.5-3.75,6.5-4s3.096,0.104,4.334-0.93s4.568-4.385,4.206,0
			s0.554,1.66,0.257,5.67s0.6,2.776-2.547,8.26s-1.17,7.104-9.46,7.177s-14.931,2.002-17.04,0s-6-5.177-3.75-6.177"/>
		<path id="Patty_Shadow_1I" clip-path="url(#Patty_Clipping_Mask_1_)" fill="#5E361B" d="M16.01,173.386
			c1.25-5,2.704-5.631,4.875-9.5s4.635-5.085,6.761-4.39s0.888-2.249,2.126,0.695s2.984,4.87,5.518,4.142s4.015-2.375,5.243-0.036
			s-1.022,2.089,1.478,3.589s2,3.281,3.75,1.766s3-3.516,6-1.766s-1.75-1.25,3,1.75s4.75,5.25,6,3.75s0.5-2.875,4.5-2.5
			s1.037-3.576,3.519,0.962s3.731,4.788,3.231,8.288s5.5,9.75-7.5,9.25"/>
		<path id="Patty_Highlight_1A" clip-path="url(#Patty_Clipping_Mask_1_)" fill="#915E3C" d="M89.373,157.889
			c1.388-1.003,4.388-1.003,5.388-1.753s2.346,0.618,2.25,1.753s-1.99,2.247,0.005,2.747s4.245,1.464,4.245,1.464
			s0.274-0.21,0.647-0.487c0.409-0.306,0.938-0.694,1.353-0.977c0.793-0.539,1,0.928,1.75,1.464s3.405,1.093,4.25,0
			s0.771-1.104,2.971-0.772s0.372-1.146,2.2,0.331s1.329-0.772,1.829,1.478s2,1.75,1.75,2.75s-2,3-2.75,1.25s1,0-0.75-1.75
			s-1-2.75-3.5-2s-7.305,0.5-7.305,0.5s-2.695,0.5-5.695-0.5s-1.75,1-3-1s-0.25-3.25-3-3.25s-3.25,2.75-4.25,1.5s-2.25-1.5-4-1.75
			s-3.104,2.608-4,0.5s0.554-2.859,2.021-2.639s1.479,0.639,3.479,0.889"/>
		<path id="Patty_Highlight_1B" clip-path="url(#Patty_Clipping_Mask_1_)" fill="#915E3C" d="M241.26,158.636
			c3.4,0,7.75-4.25,8.25-2.75s-2,0.512-2.75,1.131s-1.5,1.619-3.5,1.619s1.75,1.928-3,3.464s-5.359-0.058-8,0s-9.75-1.569-8-3.017
			s5.5-2.197,6.25-1.197s-1.25,2.25,1.25,2.75s3.25,0.25,3.75,0s-1.25-0.855,0.5-1.553S239.26,158.636,241.26,158.636z"/>
		<path id="Patty_Highlight_1C" clip-path="url(#Patty_Clipping_Mask_1_)" fill="#915E3C" d="M145.865,166.386
			c1.046,0.157,2.645-2.25,5.145-2.75s6,0.758,7,1.379s1.75,2.637,3.5,1.379c0.698-0.502,1.238-0.875,1.809-1.112
			c0.859-0.358,1.789-0.407,3.441-0.121c2.75,0.476,3-0.448,3.25,1.639s3.624,3.764,4.772,3.937
			c0.212,0.031,0.447-0.013,0.691-0.095c1.079-0.362,2.332-1.455,2.536,0.095c0.25,1.9-0.5,3.15-1.25,3.15s-3-4.5-4.25-3
			s-3.5,1.5-3.5,1.5s-3.5-2.219-4.25-2.734s1-1.04,1.5-2.766s-3.061-0.235-4.298,0.75s-2.952,0.119-5.702,1.067
			s-5.5,3.214-5.75,0.948s-1.25-4.016-2-3.266s-1.25,3.885-3.5,2.317s-6.448-3.416-9.663-3.899s-5.337,3.967-6.337,3.899
			s-0.5-1.817,0-2.567s4-1.194,5.5-2.615"/>
		<path id="Patty_Highlight_1D" clip-path="url(#Patty_Clipping_Mask_1_)" fill="#915E3C" d="M283.76,160.636
			c2.13-1.133,3.25-4,5.5-4.25s5-1.5,7.25-1.5s5,1.75,7.25,0s-0.25-2.5,2.25-1.75s2.531,2.963,3.962,2.748s0.595,2.839,4.038,0.857
			s2.094-3.65,4.422-2.128s5.328,2.733,6.578,2.128s3.109-1.616,4.531-1.22s4.033-0.675,4.251,1.22s3.218,2.395,0.218,1.895
			s-2.031-0.675-3.25-1.895s-3.5,1.145-3.5,1.145s-0.5,3.5-2,2.75s0.5,1-1.5-0.75s-4.5-2.75-5.5-1.75s-0.25,1-3.5,2.5
			s-6.25,2.928-6.75,1.464s-0.25,1.536-0.5-1.464s-0.25-1.5-0.25-3s1-3.25-1.75-1.5s-1.25,0.537-5.5,1.644s-7-0.894-8,1.356
			s-1.5,1.928-4.75,2.964s-7.846,1.577-8,0s-1.5-4.3-4.75-4.132s-4.75-2.082-4-2.332s0.5,0.5,2.25,0.75s2.5,0.25,3.5,0.25
			s-2.25-0.586,1.25,1.332S283.76,160.636,283.76,160.636z"/>
	</g>
</g>
<g id="Cheese">
	<g>
		<defs>
			<path id="Cheese_1_" d="M20.885,158.011c6.75-8.25,28.943-15.57,38.878-17.088s40.466-6.527,45.716-5.777
				s66.585,4.745,66.585,4.745l50.073-0.581l55.623-4.174h40l10,1.5c0,0,21.966,5.199,37.25,28.125
				c0.75,1.125-20.25-11.5-46.625-16.875s-63.107-4.11-74.25-1.375c-27.5,6.75-47.875,22.5-48.625,23.125
				s-24.75-18.082-48.875-20.541s-53.812-1.723-71.688-0.584C46.948,150.295,20.885,158.011,20.885,158.011z"/>
		</defs>
		<clipPath id="Cheese_2_">
			<use xlink:href="#Cheese_1_"  overflow="visible"/>
		</clipPath>
		<path id="Cheese_Base" clip-path="url(#Cheese_2_)" fill="#F2A844" d="M17.594,158.303c0.058-0.05,0.115-0.1,0.172-0.149
			c13.383-11.561,19.897-16.699,36.161-20.185c16.333-3.5,3.639-18.003,73.656-16.7s191.178-0.59,203.344,8.139
			s20.947,14.551,35.999,31.229c5.764,6.387,8.334,14-6.666,6.5c-32.951-16.476-76.963-22.829-115-16
			c-25.667,4.608-12,37.5-45.833,23c-45.972-19.702-66.5-26.333-112.333-22.833c-34.135,2.606-30.333,2.151-54.833,7.333
			C16.289,162.014,17.594,158.303,17.594,158.303z"/>
		<path id="Cheese_Shadow_1B" clip-path="url(#Cheese_2_)" fill="#DD8F31" d="M40.872,140.737c3.694-4.921-6.356-5.359,24.302-4.309
			s262.02-5.566,267.303-4.43s10.765,3.471,6.117,5.137s-2.5,2.369-23,3.602s-44.667,6.573-44.667,6.573s-71.834,3.826-95.667,3.492
			s-79.5-1.708-79.5-1.708"/>
		<path id="Cheese_Shadow_1A" clip-path="url(#Cheese_2_)" fill="#DD8F31" d="M16.76,161.136c6.91-5.835,11.5-6.333,15.5-7.833
			s39.166-9.936,50.167-7.834s67.335-2.595,72.667,0.667s8.833,4.167,14.667,7.667s23.584,12.499,25.668,15.166l14.333-10.666
			c0,0,16.886-9.723,30.833-12.5c7.247-1.443,40.759-5.542,59.333-2.5c19.334,3.166,48.333,5.848,68.667,24.666
			s-40.333-14.833-40.333-14.833l-135.304,20.333L61.095,153.636l-44.334,9.278"/>
		<path id="Cheese_Highlight_1A" clip-path="url(#Cheese_2_)" fill="#FFC988" d="M198.352,164.46
			c1.736-2.012,0.211-5.078,4.397-7.015c4.188-1.938,5.519-1.452,6.533-2.016c1.015-0.563,1.017-1.151,2.208-2.246
			c1.192-1.094,2.644-2.141,4.104-1.925c1.462,0.215,3.268-1.301,3.183-0.111s-1.152,1.371-2.235,2.056
			c-1.082,0.684-2.699,1.754-3.618,1.799c-0.919,0.044-1.178-0.004-2.512,1.278c-1.334,1.283-5.98,1.768-7.726,3.108
			c-1.746,1.341-0.897,0.802-2.02,2.39c-1.123,1.588-2.27,3.012-2.27,3.012"/>
		<path id="Cheese_Highlight_1B" clip-path="url(#Cheese_2_)" fill="#FFC988" d="M23.884,153.258
			c5.195-2.411,24.752-9.867,26.511-9.74c1.758,0.128,2.487,0.752,2.616,1.621c0.129,0.869,1.285,1.002-4.107,1.875
			c-5.393,0.873-9.439,2.027-12.769,3.372c-3.329,1.344-13.08,3.497-13.08,3.497"/>
	</g>
</g>
<g id="Tomato">
	<g>
		<defs>
			<path id="SVGID_1_" d="M45.78,117.213c-0.349,9.419-0.99,13.842-1.133,17.175c-0.159,3.694-1.008,4.021,7.458,5.123
				c7.009,0.911,36.832,8.465,84.786,9.316c47.952,0.85,119.558-0.066,161.266-6.611c34.224-5.372,33.57-2.937,34.21-8.856
				c0.669-6.191-0.404-22.47-1.046-21.112C330.678,113.607,45.78,117.213,45.78,117.213z"/>
		</defs>
		<clipPath id="SVGID_2_">
			<use xlink:href="#SVGID_1_"  overflow="visible"/>
		</clipPath>
		<path id="Tomato_Base" clip-path="url(#SVGID_2_)" fill="#F8000B" d="M42.51,143.636c5.561,3.705,132.785,10.25,142.268,9.25
			s111.732-2.9,120.482-5.575s20.387-4.675,27.318-7.925s15.006-6.933,16.432-11.5s2-4.5,0-10s0.658-6.893-8.296-8.821
			s-262.127,1.521-282.666,0.546s-25.066-0.952-29.052,6.537s-5.756,15.451-4.486,18.738S42.51,143.636,42.51,143.636z"/>
		<path id="Tomato_Shadow" clip-path="url(#SVGID_2_)" fill="#DB0010" d="M44.548,142.469c-1.622-5.5-5.122-2.5-3.122-9
			s0.907-11.398,3.122-13.833s1.879-7,7.045-6.333s12.837,1.849,19.833,2.667s65.334,6.667,85,7.167s160.52-8.256,165.51-10.378
			s6.512-5.804,10.642-1.955s6.158,6.21,5.67,13.438s-0.322,14.729-3.488,16.229s-17,2.166-21.333,2.666s-14.333-0.334-16.833-2.5
			s-2-2.166-7-2.666s-3.834,1.999-12.334,1.666s-13.5-2-18.333-2.5s-8.49-0.37-10.995-0.352c-2.5,0.019-2.672,2.852-5.005,4.352
			s-5.167,1.947-2.667,2.141s3.539,1.021,3.334,2.526s-1.334,3.751-5.334,3.292s-14.69-2.297-15.5-3.792
			c-2.166-4-0.667-4.499-0.5-6.833s-3.666-4.501-6.333-3.334s-1.5,3-3,4.667s-2.667,2.167-4.5,3.5s-1.667,4.683-4.667,4.008
			s-5.667,1.493-7-1.341s-0.499-3.668-2.666-5.334s-2.229-1.332-5.531-1.666s-3.969-0.167-6.469,1.333c-2.5,1.5-1.334,2.333-6,2.5
			s-4.5,2.166-8.667,0.333s-5.333-3.666-7-2.166s-4,1.666-6.833,1.166s-4.667,0.168-8-1.666s-4.333-1-9-1s-14-0.334-18,1.666
			s-8.167,2.5-12.167-1.5s-1.333-5.333-6.667-4.333s-1.833,1.667-6.167,3.667s-5.324,5.352-9.824,2.685s-6.14,1.034-9.64-3.133
			s-7.87-3.719-11.203-0.386c-2.984,2.983-4,3.334-6.5,5.167s-1.747-0.396-8.299,1.599S44.548,142.469,44.548,142.469z"/>
		<g id="Highlights_1" clip-path="url(#SVGID_2_)">
			<path id="Tomato_Highlight_1B" fill="#FF6680" d="M91.427,150.636c4.673-7.23,6.167-9.333,8.667-9.333s1.662,1.687,8.833,3
				s13.75,2.25,20.583,1.583s3.394-5.313,15.624-2.77c4.555,0.947,5.083,0.612,8.645,4.025s6.708,1.964,13.428,1.953
				s14.553-4.708,14.22,0c-0.333,4.708,16.5,8.874-10,9.041s-27.833,2-45.333,0S91.427,150.636,91.427,150.636z"/>
			<path id="Tomato_Highlight_1A_1_" fill="#FF6680" d="M229.927,159.063c0.781-0.19,1.498-0.386,2.156-0.584
				c8.889-2.676,7.158-6.023,11.344-8.625c4.496-2.794,1.166-2.218,6.833-3.718s6.238-1.498,10.334-3.5s2.833-2,9.333-1
				s10.574-1.688,12.833,0.333c3.898,3.488,7.858,2.885,1.667,5.342c-2.5,0.992,7.666-0.509-13.167,4.158"/>
		</g>
		<path id="Highlights_2" clip-path="url(#SVGID_2_)" fill="#FCACC1" d="M100.094,151.969c3-5.333,1.5-6.334,4.5-6.5
			s0.167,0.666,5.5,1s8.5,1.35,12.167,0.842s7.333,1.342,11,0s4.667-1.219,6.667-1.863s5-0.979,5.5,0.688s-1,0.999,1.833,2.833
			s4.334,3.333,7.667,3s11,1.594,13,0.047s66.001-1.047,69.167-1.547s19.666-0.06,21.666-1.696s3.668-3.638,5.334-4.804
			s2.166-1.666,4.166-1.166s4.501,1,6.334,0.5s4.666-2.053,5.666-0.693s2.001,2.527,0.834,3.193s-10,6.5-15.667,8
			s-17.666,3.666-28.833,4.166s-51.334,3.667-72.834,2.667s-34.667,1.501-48.667-2.333S100.094,151.969,100.094,151.969z"/>
	</g>
</g>
<g id="Lettuce">
	<g>
		<defs>
			<path id="SVGID_3_" d="M23.987,108.14c0.819-0.07,1.935,0.185,3.596,0.825c0.527,0.203,1.108,0.444,1.752,0.726
				c0.625,0.273,1.309,0.585,2.059,0.937c14.237,6.678,4.918-6.725,20.765-2.499c15.847,4.226,11.727,1.918,29.361,2.208
				s-4.707,0.979,23.677,4.089c28.383,3.11,8.376,2.209,45.429,4.963c37.053,2.753,27.763,5.055,59.457,2.177
				s37.158,1.727,61.202-1.151c24.044-2.878,11.036-2.345,37.705-5.325c26.669-2.979,24.866-1.067,31.215-7.802
				c6.349-6.736,11.306,3.211,12.556-8.377c1.25-11.589,3.25-0.791,6-1.581s4.25,2.897,2.25,3.424s-3.25-1.843-6.5,2.897
				s-8.229,23.504-14,18.173c-5.771-5.331-5.955-0.579-13.25,0s-6.75,15.54-21.5,13.958c-14.75-1.58-19.25,0.527-26.5,2.107
				s-3.25-1.844-12.25-2.107c-9-0.263-2.636-3.472-20,2.522c-16.166,5.581-1.25,2.745-2.5,5.116c-1.25,2.37-1.25,5.268-7.25,3.16
				s-14.5,0-11-5.004s1.751,1.976,4-3.424c2.509-6.023-4.5,1.054-11,0.526c-6.5-0.526-6.25,5.794-10,3.951
				c-3.75-1.844-3.5,6.848-9.25,2.106c-5.75-4.74,1-3.16,0.25-6.321c-0.75-3.16-4.75-2.634-8.25-1.053
				c-3.5,1.58-3.773,10.535-7.137,6.058s-8.363,0.526-10.113-3.161c-1.75-3.687-16.25,9.481-16.5,4.214
				c-0.25-5.267-9-2.896-14-7.374s-1.5,1.58-9.75,5.268s-5.5,2.106-11.5-2.107s-12.27-10.227-18.635-8.932
				c-6.365,1.294-3.865,6.825-9.865,6.825s-8.25,7.638-15.25-0.527c-7-8.164-7.25-12.905-13-11.588c-5.75,1.316-5.25,3.205-8.5,5.29
				c-3.25,2.084-6.5,1.558-6.75-1.076s-1.25-5.004-3.5-7.111c-2.25-2.107-0.75,0-1.5,4.214s-0.25,6.848-4.5,7.111
				s-18,8.691-15.75,1.316c2.25-7.374,7.25-6.584,6-9.744c-1.25-3.161,2.5-1.054-4-1.317s-12.25,2.37-13.5,0s-5.75,0.79-5.25-7.901
				s-4-14.749,1-14.222s7-1.317,4.25,3.688c-2.75,5.004-0.25,3.951,1.25,4.741s1.495,0.004,3.75-1.844s6.058-1.155,6.058-1.155"/>
		</defs>
		<clipPath id="SVGID_4_">
			<use xlink:href="#SVGID_3_"  overflow="visible"/>
		</clipPath>
		<path id="Lettuce_Base" clip-path="url(#SVGID_4_)" fill="#00AB00" d="M13.885,129.407c-7.333-10-10.375-6.271-10.458-19.605
			c-0.134-21.46,9.166-9.25,29.833-4.917s4.708,5.375,43.375,4.375s48.417,4.542,71.75,1.875s16.781,5.797,63.75,4.375
			c46.969-1.422,35.417-1.5,70.75-4.5c51.563-4.378,41.607-4.604,47.625-6.625c17-5.709,16.278-12.325,26.5-15.625
			s12.646-1.873,8.25,12c-4,12.625-16.208,5.417-14.875,18.75c1.333,13.334-7.417,1.5-19.75,5.5s-6.432,9.292-16.5,11.875
			c-32.166,8.252-16.27-1.562-50.25,3.875c-21.875,3.5-30.375,16.875-54.5,10.625c-26.139-6.771-14.084,3.684-58.75-3
			c-44.667-6.684-56.681-4.062-93-6.375C-1.24,138.261,12.885,133.074,13.885,129.407"/>
		<path id="Lettuce_Highlight" clip-path="url(#SVGID_4_)" fill="#1BCC1B" d="M5.742,98.616c13.519,3.687,13.019,3.52,11.852,6.353
			s-5.477,1.667-5.655,3.167s-2.345,6.5-1.012,6.5s2.352,1.649,4-0.833s1.651-2.765,3.725-4.101s1.367-2.048,4.404-2.807
			s7.538-1.758,9.204,0.908s1.192,3.407,7.763,3.87s-11.262-0.37,10.071,0.63s15,1.074,31,2.87s13.333,2.963,30.667,3.796
			s22,3,32.167,3s-23.333,0.667,24.333,1.167s126.166,1.334,143.833-5.5c17.667-6.833,30.503-12.636,32.516-15.484
			s-1.017,5.317,3.317-0.516s1.065-8.99,4.116-10.579s4.718-1.254,5.051,0.746s-1.834,1.5,2.333,3.333s9.334,2,6.167,4.167
			s-6.478,5.325-7,3.333s0.833-2.5,0-3.5s-1.666-1.667-2.833-0.833s-0.978,0.737-2.167,1.833s-3.063,2.099-3.162,3.005
			s-1.526-0.515-0.099,0.907s0.747,3.659,1.018,6.149s1.827,2.553-0.825,4.98s-0.765,1.625-4.932,1.125s-2.334,0.667-8.167,0.5
			s-4.332-1.167-10.666,0.833s-6.001,2-7.834,5.5s-1.982,1.727-1.666,5.167s0.166,2.5-1.667,3.333s-0.167,2.834-5.667,1.667
			s-3.999-1.167-6.666-3.167s1.833-5.001-5.667-3.167s-1.833,3.043-10.333,2.438s-0.5-4.438-12.5-1.604s-11.666,0.876-19.5,1.604
			s6.166-0.104-2.334,2.896s-12.333,5.499-15.333,3.333s4.167-0.166-3-2.166s-6.834-5-10.667-2.167s-3.832,3.501-13.166,1.667
			s-0.167-4.125-11.667-3.563s-8.833-0.771-18.333,2.896c-9.5,3.667-8.334,3.834-17.334,2.167s-1.833,3-1.5,4s-0.333,6.5-2,4
			s2.666-2.5-3.667-4.667s-2.166-2.167-5.333-3.667s3.167-5.5-1.5-3.833s-2.5,5.667-6.833,3.667s-6.333-1.167-8.5-2.167
			s0.667-0.001-4,1.333s-8,3.001-9.833-0.333s-0.833-1.834-8-4.167s-3.833-3.333-10.833-1.833s-7,1.833-10.333-0.5
			c-3.333-2.333-2.333,2.333-6.333,4.333s-7.333,0.667-8.333-2.833s1.5-5.5-2.833-6.167s-4.167-2-10.333-0.5s-6.333,6.5-9,4
			s-2.667-5-4.833-6.333s-1-1.667-4.833-0.667s-6.833,3.167-7.833,1s1.333-2.667-3.333-3.667s-4-1.167-8.667,0
			s-9.333,7.384-11.167,4.942s-1.332-0.183-3-3.827s-5.149-3.979-5.833-9.281S5.742,98.616,5.742,98.616z"/>
	</g>
</g>
<g id="Burger_Bun_Top">
	<g>
		<defs>
			<path id="Clipping_Path_1_" d="M23.094,103.136c-1.458-54,67.333-81.583,67.333-81.583s1.503-0.716,9.5-2.917
				c14.083-3.875,68.789-9.841,89.208-9.648c9.861,0.093,6.229,0.169,37.125,1.148c36.834,1.167,62.116,8.461,98.334,41.5
				c24.651,22.488,23.427,49.764,20.688,53.404c-9.354,12.43-59.772,21.605-88.021,23.299c-28.249,1.695-13.087,1.348-100-0.869
				c-49.791-1.271-78.676-7.147-117.667-12.167C21.469,112.969,23.094,103.136,23.094,103.136L23.094,103.136z"/>
		</defs>
		<clipPath id="Clipping_Path_2_">
			<use xlink:href="#Clipping_Path_1_"  overflow="visible"/>
		</clipPath>
		<path id="Burger_Bun" clip-path="url(#Clipping_Path_2_)" fill="#FF9827" d="M23.094,103.136
			c-1.458-54,67.333-81.583,67.333-81.583s1.503-0.716,9.5-2.917c14.083-3.875,68.789-9.841,89.208-9.648
			c9.861,0.093,6.229,0.169,37.125,1.148c36.834,1.167,62.116,8.461,98.334,41.5c24.651,22.488,23.427,49.764,20.688,53.404
			c-9.354,12.43-59.772,21.605-88.021,23.299c-28.249,1.695-13.087,1.348-100-0.869c-49.791-1.271-78.676-7.147-117.667-12.167
			C21.469,112.969,23.094,103.136,23.094,103.136L23.094,103.136z"/>
		<path id="Bun_Shadow" clip-path="url(#Clipping_Path_2_)" fill="#FF8429" d="M35.465,30.767
			c-2.841,51.591-2.923,54.188,11.932,56.282c3.073,0.433,22.881,3.649,25.554,0.304c2.591-3.243,4.976-14.55,7.143-18.158
			c2.023-3.369,7.033-7.455,6.167-6.059c-9,14.5-7.458,24.221-5.435,25.436c6.769,4.064,11.269,7.79,45.104,3.207
			c37.191-5.036,51.371,14.478,76.08,10.323c16.448-2.766,19.247,1.803,28.725-4.458c1.526-1.008-4.099-5.258-1.974-9.133
			c3.181-5.801,5.375-13.5-0.625-23.5c-0.625-1.041,3.625,4.125,6.125,9c5.235,10.209-11.125,18.875,2.125,22.875
			c4.746,1.433,13.979-1.167,22.429-1.959c17.979-1.687,28.95-0.001,34.1-4.957c9.181-8.834,5.68-16.606,5.681-18.834
			c0-1.111,3.445,6.64,1.406,15.248c-0.573,2.419,10.181-3.057,20.124-6.705c24.709-9.063,2.648-63.424,3.409-60.302
			c3.651,14.98,38.068,65.662,38.068,65.662l-25.943,26.127c0,0-21.567,14.603-28.784,15.611
			c-81.213,11.338-51.201,16.994-145.707,7.93c-94.506-9.063-128.365-9.38-141.611-30.907C6.485,82.557,35.419,31.613,35.465,30.767
			z"/>
		<path id="Burger_Darker_Shadow_1_" clip-path="url(#Clipping_Path_2_)" fill="#FF6D2C" d="M52.007,100.225
			c15.003-1.839,19.253,13.911,65.253,13.411c13.928-0.151,8.546-7.297,24.455-0.479s7.965,11.863,39.045,3.954
			c22.5-5.726,24.088-0.42,51.864-5.09c20.136-3.385,6.636,2.365,33.43,3.378c14.477,0.547,14.479,7.828,24.706-1.263
			s14.25-7.25,34.5-11.25c24.348-4.81,13.5-17,18.5-27.5c0,0,6.59,18.479,6.75,23.75c0.44,14.505-5.716,11.842-19.886,17.771
			c-29.874,12.5-37.864,17.979-97.364,19.229c-54.823,1.151-100.584-0.248-151.75-9.75c-17.5-3.25-57.273-3.873-61.25-19.25
			s2.796-23.524,2.796-23.524C27.51,104.386,32.76,95.636,52.007,100.225L52.007,100.225z"/>
		<path id="Bun_Highlight_2_" clip-path="url(#Clipping_Path_2_)" fill="#FFAB57" d="M113.838,11.23
			c18.128-19.197,91.122-5.662,109.498-6.229c21.247-0.657,88.125,34.301,55.634,28.506c-39.068-6.968-11.044,12.354-43.444,3.379
			c0,0-7.268-2.112-6.98,1.056c0.491,5.463-2.859,8.114-7.993,9.084c-13.334,2.518-38.695-6.316-39.957-6.708
			c-7.893-2.455-16.175-4.83-20.187,1.32c-3.249,4.981-10.295,10.697-19.977,8.657c-13.909-2.93-14.143-0.237-20.55-7.285
			c-7.323-8.054-18.545,8.657-28.547,3.167c-2.838-1.558-16.669,9.714-11.877-1.478c6.662-15.561-45.998,17.183-14.586-5.913
			C75.499,30.973,98.863,10.299,113.838,11.23"/>
		<path id="Bun_Secondary_Highlight" clip-path="url(#Clipping_Path_2_)" fill="#FFBA7B" d="M169.899,5.093
			c-20.086,3.748-18.756-0.641-29.493,6.503c-10.736,7.145-6.433-0.181-15.688,5.618c-14.689,9.204-3.359,9.975-8.809,12.322
			c-5.449,2.347-14.162,7.095,13.695-1.456c27.856-8.55-0.072,2.847,14.023,0.253c14.096-2.595,7.801,6.646,22.11,3.537
			c14.308-3.108,3.459-20.277,24.435-5.959c10.357,7.07,17.279-3.485,21.407-2.87c8.091,1.203,20.954,6.139,24.31,2.21
			c1.228-1.438-12.608-6.783-3.674-6.1c12.879,0.984-0.846-3.012-4.134-5.421c-4.337-3.179,12.513-0.095,2.013-5.761
			c-3.409-1.84,10.667-1.333-14.069-5.261c-13.857-2.2-15.988-4.007-27.304-1.475S169.899,5.093,169.899,5.093z"/>
		<path id="Top_Highlight_Bun" clip-path="url(#Clipping_Path_2_)" fill="#FFC599" d="M142.343,12.231
			c10.498-4.868-5.995-7.474,20.474-5.751c26.47,1.722,18.97-6.009,30.636-0.532c11.666,5.478,9.722-8.22,13.055,0.912
			c3.333,9.131,11.354-0.346,15.237,6.91c3.881,7.255,0.266,7.866-13.234,3.616c-14.15-4.455-10.081,3.632-18,0.25
			c-20.331-8.683-14.889,3.37-26,5.25c-11.111,1.88-12.25-3.25-24.5-3C132.619,20.037,142.343,12.231,142.343,12.231z"/>
		<g id="Sesames_1_" opacity="0.3" clip-path="url(#Clipping_Path_2_)">
			<path fill="#BC6E39" d="M156.219,18.859l-2.375-0.819c-1.105-0.246-1.965-0.737-3.685-0.368c0,0-1.524,0.413-0.614,2.006
				C149.709,19.965,151.56,20.122,156.219,18.859z"/>
			<path fill="#BC6E39" d="M88.159,27.672c0,0-1.524,0.413-0.614,2.006c0.164,0.287,2.015,0.444,6.673-0.819l-2.375-0.819
				C90.739,27.795,89.879,27.304,88.159,27.672z"/>
			<path fill="#BC6E39" d="M145.844,41.041c-1.105-0.246-1.965-0.737-3.685-0.368c0,0-1.524,0.413-0.614,2.006
				c0.164,0.287,2.015,0.444,6.673-0.819L145.844,41.041z"/>
			<path fill="#BC6E39" d="M129.159,56.672c0,0-1.524,0.413-0.614,2.006c0.164,0.287,2.015,0.444,6.673-0.819l-2.375-0.819
				C131.739,56.795,130.879,56.304,129.159,56.672z"/>
			<path fill="#BC6E39" d="M194.001,29.226c0,0-1.407,0.718-0.188,2.089c0.22,0.247,2.063,0.019,6.362-2.177l-2.492-0.312
				C196.549,28.814,195.607,28.511,194.001,29.226z"/>
			<path fill="#BC6E39" d="M215.558,30.985c0,0-1.579-0.036-1.157,1.75c0.076,0.322,1.807,0.997,6.633,1.105l-2.045-1.458
				C217.997,31.833,217.311,31.118,215.558,30.985z"/>
			<path fill="#BC6E39" d="M209.093,33.854c0,0-1.492,0.518-0.474,2.043c0.184,0.275,2.041,0.303,6.602-1.281l-2.426-0.652
				C211.674,33.797,210.783,33.367,209.093,33.854z"/>
			<path fill="#BC6E39" d="M186.969,54.472c0,0-1.338,0.84-0.001,2.098c0.24,0.227,2.057-0.165,6.143-2.736l-2.511-0.088
				C189.47,53.834,188.505,53.617,186.969,54.472z"/>
			<path fill="#BC6E39" d="M268.703,43.994l1.743,1.809c0.874,0.722,1.417,1.549,3.115,2.001c0,0,1.547,0.326,1.459-1.507
				C275.005,45.966,273.427,44.985,268.703,43.994z"/>
			<path fill="#BC6E39" d="M178.093,34.854c0,0-1.492,0.518-0.474,2.043c0.184,0.275,2.041,0.303,6.602-1.281l-2.426-0.652
				C180.674,34.797,179.783,34.367,178.093,34.854z"/>
			<path fill="#BC6E39" d="M190.093,49.854c0,0-1.492,0.518-0.474,2.043c0.184,0.275,2.041,0.303,6.602-1.281l-2.426-0.652
				C192.674,49.797,191.783,49.367,190.093,49.854z"/>
			<path fill="#BC6E39" d="M126.683,32.827c-1.134-0.012-2.076-0.315-3.682,0.399c0,0-1.407,0.718-0.188,2.089
				c0.22,0.247,2.063,0.019,6.362-2.177L126.683,32.827z"/>
			<path fill="#BC6E39" d="M108.963,54.565c0,0-1.309,0.885,0.069,2.097c0.248,0.218,2.05-0.234,6.047-2.94l-2.512-0.004
				C111.441,53.844,110.469,53.659,108.963,54.565z"/>
			<path fill="#BC6E39" d="M134.175,27.139l-2.492-0.312c-1.134-0.012-2.076-0.315-3.682,0.399c0,0-1.407,0.718-0.188,2.089
				C128.033,29.563,129.876,29.334,134.175,27.139z"/>
			<path fill="#BC6E39" d="M79.984,55.078c0,0-1.124,1.11,0.454,2.048c0.285,0.169,1.972-0.607,5.403-4.003l-2.47,0.458
				C82.287,53.913,81.297,53.91,79.984,55.078z"/>
			<path fill="#BC6E39" d="M217.704,18.611c0.699-1.854-0.869-2.128-0.869-2.128c-1.753-0.204-2.544,0.435-3.611,0.834l-2.253,1.175
				C215.76,19.333,217.579,18.945,217.704,18.611z"/>
			<path fill="#BC6E39" d="M203.834,23.483c-1.753-0.204-2.544,0.435-3.611,0.834l-2.253,1.175c4.79,0.841,6.608,0.453,6.733,0.119
				C205.403,23.758,203.834,23.483,203.834,23.483z"/>
			<path fill="#BC6E39" d="M237.704,16.611c0.699-1.854-0.869-2.128-0.869-2.128c-1.753-0.204-2.544,0.435-3.611,0.834l-2.253,1.175
				C235.76,17.333,237.579,16.945,237.704,16.611z"/>
			<path fill="#BC6E39" d="M241.834,29.483c-1.753-0.204-2.544,0.435-3.611,0.834l-2.253,1.175c4.79,0.841,6.608,0.453,6.733,0.119
				C243.403,29.758,241.834,29.483,241.834,29.483z"/>
			<path fill="#BC6E39" d="M254.222,49.728c-1.475-0.97-2.469-0.755-3.602-0.878l-2.54,0.037c3.9,2.904,5.699,3.375,5.961,3.133
				C255.5,50.677,254.222,49.728,254.222,49.728z"/>
			<path fill="#BC6E39" d="M188.395,23.475c1.174-1.596-0.263-2.284-0.263-2.284c-1.633-0.669-2.567-0.268-3.702-0.171l-2.486,0.523
				C186.33,23.646,188.185,23.763,188.395,23.475z"/>
			<path fill="#BC6E39" d="M173.704,16.611c0.699-1.854-0.869-2.128-0.869-2.128c-1.753-0.204-2.544,0.435-3.611,0.834l-2.253,1.175
				C171.76,17.333,173.579,16.945,173.704,16.611z"/>
			<path fill="#BC6E39" d="M136.704,17.611c0.699-1.854-0.869-2.128-0.869-2.128c-1.753-0.204-2.544,0.435-3.611,0.834l-2.253,1.175
				C134.76,18.333,136.579,17.945,136.704,17.611z"/>
			<path fill="#BC6E39" d="M160.834,18.483c-1.753-0.204-2.544,0.435-3.611,0.834l-2.253,1.175c4.79,0.841,6.608,0.453,6.733,0.119
				C162.403,18.758,160.834,18.483,160.834,18.483z"/>
			<path fill="#BC6E39" d="M175.834,22.483c-1.753-0.204-2.544,0.435-3.611,0.834l-2.253,1.175c4.79,0.841,6.608,0.453,6.733,0.119
				C177.403,22.758,175.834,22.483,175.834,22.483z"/>
			<path fill="#BC6E39" d="M142.704,31.611c0.699-1.854-0.869-2.128-0.869-2.128c-1.753-0.204-2.544,0.435-3.611,0.834l-2.253,1.175
				C140.76,32.333,142.579,31.945,142.704,31.611z"/>
			<path fill="#BC6E39" d="M153.834,44.483c-1.753-0.204-2.544,0.435-3.611,0.834l-2.253,1.175c4.79,0.841,6.608,0.453,6.733,0.119
				C155.403,44.758,153.834,44.483,153.834,44.483z"/>
		</g>
		<g id="Sesame_Shadow" clip-path="url(#Clipping_Path_2_)">
			<path fill="#FFDEC7" d="M156.219,17.859l-2.375-0.819c-1.105-0.246-1.965-0.737-3.685-0.368c0,0-1.524,0.413-0.614,2.006
				C149.709,18.965,151.56,19.122,156.219,17.859z"/>
			<path fill="#FFDEC7" d="M88.159,26.672c0,0-1.524,0.413-0.614,2.006c0.164,0.287,2.015,0.444,6.673-0.819l-2.375-0.819
				C90.739,26.795,89.879,26.304,88.159,26.672z"/>
			<path fill="#FFDEC7" d="M145.844,40.041c-1.105-0.246-1.965-0.737-3.685-0.368c0,0-1.524,0.413-0.614,2.006
				c0.164,0.287,2.015,0.444,6.673-0.819L145.844,40.041z"/>
			<path fill="#FFDEC7" d="M129.159,55.672c0,0-1.524,0.413-0.614,2.006c0.164,0.287,2.015,0.444,6.673-0.819l-2.375-0.819
				C131.739,55.795,130.879,55.304,129.159,55.672z"/>
			<path fill="#FFDEC7" d="M194.001,28.226c0,0-1.407,0.718-0.188,2.089c0.22,0.247,2.063,0.019,6.362-2.177l-2.492-0.312
				C196.549,27.814,195.607,27.511,194.001,28.226z"/>
			<path fill="#FFDEC7" d="M215.558,29.985c0,0-1.579-0.036-1.157,1.75c0.076,0.322,1.807,0.997,6.633,1.105l-2.045-1.458
				C217.997,30.833,217.311,30.118,215.558,29.985z"/>
			<path fill="#FFDEC7" d="M209.093,32.854c0,0-1.492,0.518-0.474,2.043c0.184,0.275,2.041,0.303,6.602-1.281l-2.426-0.652
				C211.674,32.797,210.783,32.367,209.093,32.854z"/>
			<path fill="#FFDEC7" d="M186.969,53.472c0,0-1.338,0.84-0.001,2.098c0.24,0.227,2.057-0.165,6.143-2.736l-2.511-0.088
				C189.47,52.834,188.505,52.617,186.969,53.472z"/>
			<path fill="#FFDEC7" d="M268.703,42.994l1.743,1.809c0.874,0.722,1.417,1.549,3.115,2.001c0,0,1.547,0.326,1.459-1.507
				C275.005,44.966,273.427,43.985,268.703,42.994z"/>
			<path fill="#FFDEC7" d="M178.093,33.854c0,0-1.492,0.518-0.474,2.043c0.184,0.275,2.041,0.303,6.602-1.281l-2.426-0.652
				C180.674,33.797,179.783,33.367,178.093,33.854z"/>
			<path fill="#FFDEC7" d="M190.093,48.854c0,0-1.492,0.518-0.474,2.043c0.184,0.275,2.041,0.303,6.602-1.281l-2.426-0.652
				C192.674,48.797,191.783,48.367,190.093,48.854z"/>
			<path fill="#FFDEC7" d="M126.683,31.827c-1.134-0.012-2.076-0.315-3.682,0.399c0,0-1.407,0.718-0.188,2.089
				c0.22,0.247,2.063,0.019,6.362-2.177L126.683,31.827z"/>
			<path fill="#FFDEC7" d="M108.963,53.565c0,0-1.309,0.885,0.069,2.097c0.248,0.218,2.05-0.234,6.047-2.94l-2.512-0.004
				C111.441,52.844,110.469,52.659,108.963,53.565z"/>
			<path fill="#FFDEC7" d="M134.175,26.139l-2.492-0.312c-1.134-0.012-2.076-0.315-3.682,0.399c0,0-1.407,0.718-0.188,2.089
				C128.033,28.563,129.876,28.334,134.175,26.139z"/>
			<path fill="#FFDEC7" d="M79.984,54.078c0,0-1.124,1.11,0.454,2.048c0.285,0.169,1.972-0.607,5.403-4.003l-2.47,0.458
				C82.287,52.913,81.297,52.91,79.984,54.078z"/>
			<path fill="#FFDEC7" d="M217.704,17.611c0.699-1.854-0.869-2.128-0.869-2.128c-1.753-0.204-2.544,0.435-3.611,0.834l-2.253,1.175
				C215.76,18.333,217.579,17.945,217.704,17.611z"/>
			<path fill="#FFDEC7" d="M203.834,22.483c-1.753-0.204-2.544,0.435-3.611,0.834l-2.253,1.175c4.79,0.841,6.608,0.453,6.733,0.119
				C205.403,22.758,203.834,22.483,203.834,22.483z"/>
			<path fill="#FFDEC7" d="M237.704,15.611c0.699-1.854-0.869-2.128-0.869-2.128c-1.753-0.204-2.544,0.435-3.611,0.834l-2.253,1.175
				C235.76,16.333,237.579,15.945,237.704,15.611z"/>
			<path fill="#FFDEC7" d="M241.834,28.483c-1.753-0.204-2.544,0.435-3.611,0.834l-2.253,1.175c4.79,0.841,6.608,0.453,6.733,0.119
				C243.403,28.758,241.834,28.483,241.834,28.483z"/>
			<path fill="#FFDEC7" d="M254.222,48.728c-1.475-0.97-2.469-0.755-3.602-0.878l-2.54,0.037c3.9,2.904,5.699,3.375,5.961,3.133
				C255.5,49.677,254.222,48.728,254.222,48.728z"/>
			<path fill="#FFDEC7" d="M188.395,22.475c1.174-1.596-0.263-2.284-0.263-2.284c-1.633-0.669-2.567-0.268-3.702-0.171l-2.486,0.523
				C186.33,22.646,188.185,22.763,188.395,22.475z"/>
			<path fill="#FFDEC7" d="M173.704,15.611c0.699-1.854-0.869-2.128-0.869-2.128c-1.753-0.204-2.544,0.435-3.611,0.834l-2.253,1.175
				C171.76,16.333,173.579,15.945,173.704,15.611z"/>
			<path fill="#FFDEC7" d="M136.704,16.611c0.699-1.854-0.869-2.128-0.869-2.128c-1.753-0.204-2.544,0.435-3.611,0.834l-2.253,1.175
				C134.76,17.333,136.579,16.945,136.704,16.611z"/>
			<path fill="#FFDEC7" d="M160.834,17.483c-1.753-0.204-2.544,0.435-3.611,0.834l-2.253,1.175c4.79,0.841,6.608,0.453,6.733,0.119
				C162.403,17.758,160.834,17.483,160.834,17.483z"/>
			<path fill="#FFDEC7" d="M175.834,21.483c-1.753-0.204-2.544,0.435-3.611,0.834l-2.253,1.175c4.79,0.841,6.608,0.453,6.733,0.119
				C177.403,21.758,175.834,21.483,175.834,21.483z"/>
			<path fill="#FFDEC7" d="M142.704,30.611c0.699-1.854-0.869-2.128-0.869-2.128c-1.753-0.204-2.544,0.435-3.611,0.834l-2.253,1.175
				C140.76,31.333,142.579,30.945,142.704,30.611z"/>
			<path fill="#FFDEC7" d="M153.834,43.483c-1.753-0.204-2.544,0.435-3.611,0.834l-2.253,1.175c4.79,0.841,6.608,0.453,6.733,0.119
				C155.403,43.758,153.834,43.483,153.834,43.483z"/>
		</g>
	</g>
	<path fill="#00AB00" d="M349.01,160.636"/>
</g>
</svg>