<?xml version="1.0" encoding="utf-8"?>
<!-- Generator: Adobe Illustrator 16.0.0, SVG Export Plug-In . SVG Version: 6.00 Build 0)  -->
<!DOCTYPE svg PUBLIC "-//W3C//DTD SVG 1.1//EN" "http://www.w3.org/Graphics/SVG/1.1/DTD/svg11.dtd">
<svg version="1.1" xmlns="http://www.w3.org/2000/svg" xmlns:xlink="http://www.w3.org/1999/xlink" x="0px" y="0px"
	 width="487.61px" height="340.711px" viewBox="7.719 1193.311 487.61 340.711"
	 enable-background="new 7.719 1193.311 487.61 340.711" xml:space="preserve">
<g id="Cheese_Slice">
	<g>
		<defs>
			<path id="SVGID_1_" d="M85.793,1420.24c-2.054-6.658,142.193-170.366,154.809-179.493s164.643,33.621,178.135,39.733
				c10.287,4.659,5.67,8.701,1.785,14.453c-5.829,8.628-136.281,191.593-137.854,193.725c-1.508,2.044-2.743,2.139-7.268,1.426
				C241.938,1484.811,87.736,1426.54,85.793,1420.24z"/>
		</defs>
		<clipPath id="SVGID_2_">
			<use xlink:href="#SVGID_1_"  overflow="visible"/>
		</clipPath>
		<path id="Fill_3_" clip-path="url(#SVGID_2_)" fill="#FCDA86" d="M75.373,1422.089c-2.188-6.969,151.535-178.334,164.979-187.888
			c13.444-9.555,175.458,35.193,189.837,41.591c10.963,4.878,6.043,9.108,1.902,15.13c-6.212,9.03-145.233,200.553-146.909,202.784
			c-1.608,2.14-2.923,2.239-7.746,1.493C241.775,1489.68,77.444,1428.684,75.373,1422.089z"/>
		<path clip-path="url(#SVGID_2_)" fill="#FFD066" d="M84,1413.5c0,0,101,18.5,208-56c68.87-47.952,131-75,140.5-79
			s-123,227-123,227S159.5,1483,158,1480s-83.5-49-83.5-49L84,1413.5z"/>
		<path id="Dark_2" clip-path="url(#SVGID_2_)" fill="#F7BF4F" d="M81.124,1422.373c0,0,3.771-10.424,7.199-7.053
			c3.75,3.688,174.778,73.014,185.338,67.293c18.045-9.775,135.414-183.158,141.729-190.226c5.25-5.875,7.449-11.812,8.046-10.702
			c0.768,1.428,6.32,4.867,6.813,6.063c0.875,2.125-87.861,188.111-149.445,206.895
			C229.132,1510.403,81.124,1422.373,81.124,1422.373z"/>
	</g>
	<path fill="#FFD066" d="M416,1432"/>
</g>
<g id="Eggplant_Patty">
</g>
<g id="Halloumi_Patty">
</g>
<g id="Beef_Patty">
</g>
<g id="Sourdough_Bun">
</g>
<g id="Rice_Bun">
</g>
<g id="Brioche_Bun">
</g>
</svg>
