<?xml version="1.0" encoding="utf-8"?>
<!-- Generator: Adobe Illustrator 16.0.0, SVG Export Plug-In . SVG Version: 6.00 Build 0)  -->
<!DOCTYPE svg PUBLIC "-//W3C//DTD SVG 1.1//EN" "http://www.w3.org/Graphics/SVG/1.1/DTD/svg11.dtd">
<svg version="1.1" xmlns="http://www.w3.org/2000/svg" xmlns:xlink="http://www.w3.org/1999/xlink" x="0px" y="0px"
	 width="487.61px" height="340.711px" viewBox="527.719 1195.311 487.61 340.711"
	 enable-background="new 527.719 1195.311 487.61 340.711" xml:space="preserve">
<g id="Tofu_Slice">
</g>
<g id="Swiss_Slice">
	<g>
		<defs>
			<path id="SVGID_3_" d="M586.344,1428.94C584.471,1424.341,651,1352,651,1352c9.75,3.75,16,1.75,20-3.25
				c5.963-7.454,1.25-12-3.5-15.5c0,0,72.405-75.02,74.348-76.637c0.875-0.729,25.094,1.053,25.094,1.053
				c0.056,2.338,1.059,4.216,4.25,4.5c2.037,0.182,5.5,0.163,5.917-3.416c0,0,178.007,20.615,178.558,28.891
				c0.119,1.799-11.084,25.862-14.499,32.692c-0.25,0.5-1.417-0.333-1.417-0.333c-0.678-8.849-27.556-13.771-36.5,3
				c-6,11.25,23.675,15.941,32,8.75c0,0,1.736,0.488,1.334,1.083c-16.167,23.917-96.373,159.987-103.901,162.645
				C819.974,1499.963,587.402,1431.543,586.344,1428.94z M739.613,1301.881c2.303,4.279,18.86,8.453,26.533-0.991
				c8.785-10.811,0.443-14.416-6.971-15.362c-7.257-0.927-12.313,0.684-15.87,4.187
				C741.256,1291.732,735.852,1294.888,739.613,1301.881z M749.026,1350.605c1.018,2.035,8.131,4.127,11.342-0.268
				c3.676-5.031,0.081-6.794-3.098-7.296c-3.11-0.492-5.262,0.229-6.756,1.854C749.652,1345.832,747.365,1347.279,749.026,1350.605z
				 M819.026,1368.605c1.018,2.035,8.131,4.127,11.342-0.268c3.676-5.031,0.081-6.794-3.098-7.296
				c-3.11-0.492-5.262,0.229-6.756,1.854C819.652,1363.832,817.365,1365.279,819.026,1368.605z M834.64,1387.006
				c-0.357-5.278-14.064-16.341-25.186-9.965c-12.729,7.299-6.454,14.393,0.07,18.413c6.383,3.938,11.779,4.4,16.566,2.328
				C828.852,1396.591,835.217,1395.633,834.64,1387.006z M864.25,1356c-4.228-2.978-18.597-2.961-17.077,8.428
				c1.077,8.072,5.395,12.447,14.233,11.189c6.094-0.867,8.539-5.362,9.031-9.897C870.725,1363.106,871.156,1360.871,864.25,1356z
				 M850.026,1323.605c1.018,2.035,8.131,4.127,11.342-0.268c3.676-5.031,0.081-6.794-3.098-7.296
				c-3.11-0.492-5.262,0.229-6.756,1.854C850.652,1318.832,848.365,1320.279,850.026,1323.605z M889.026,1337.605
				c1.018,2.035,8.131,4.127,11.342-0.268c3.676-5.031,0.081-6.794-3.098-7.296c-3.11-0.492-5.262,0.229-6.756,1.854
				C889.652,1332.832,887.365,1334.279,889.026,1337.605z M720.026,1453.605c1.018,2.035,8.131,4.127,11.342-0.268
				c3.676-5.031,0.081-6.794-3.098-7.296c-3.11-0.492-5.262,0.229-6.756,1.854C720.652,1448.832,718.365,1450.279,720.026,1453.605z
				 M809.026,1274.605c1.018,2.035,8.131,4.127,11.342-0.268c3.676-5.031,0.081-6.794-3.098-7.296
				c-3.11-0.492-5.262,0.229-6.756,1.854C809.652,1269.832,807.365,1271.279,809.026,1274.605z M849.026,1290.605
				c1.018,2.035,8.131,4.127,11.342-0.268c3.676-5.031,0.081-6.794-3.098-7.296c-3.11-0.492-5.262,0.229-6.756,1.854
				C849.652,1285.832,847.365,1287.279,849.026,1290.605z M649.026,1382.605c1.018,2.035,8.131,4.127,11.342-0.268
				c3.676-5.031,0.081-6.794-3.098-7.296c-3.11-0.492-5.262,0.229-6.756,1.854C649.652,1377.832,647.365,1379.279,649.026,1382.605z
				 M750.613,1373.881c2.303,4.279,18.86,8.453,26.533-0.991c8.785-10.811,0.443-14.416-6.971-15.362
				c-7.257-0.927-12.313,0.684-15.87,4.187C752.256,1363.732,746.852,1366.888,750.613,1373.881z M820.613,1306.881
				c2.303,4.279,18.86,8.453,26.533-0.991c8.785-10.811,0.443-14.416-6.971-15.362c-7.257-0.927-12.313,0.684-15.87,4.187
				C822.256,1296.732,816.852,1299.888,820.613,1306.881z M836.613,1444.881c2.303,4.279,18.86,8.453,26.533-0.991
				c8.785-10.811,0.443-14.416-6.971-15.362c-7.257-0.927-12.313,0.684-15.87,4.187
				C838.256,1434.732,832.852,1437.888,836.613,1444.881z M692.25,1382c-4.228-2.978-18.597-2.961-17.077,8.428
				c1.077,8.072,5.395,12.447,14.233,11.189c6.094-0.867,8.539-5.362,9.031-9.897C698.725,1389.106,699.156,1386.871,692.25,1382z
				 M822.25,1462c-4.228-2.978-18.597-2.961-17.077,8.428c1.077,8.072,5.395,12.447,14.233,11.189
				c6.094-0.867,8.539-5.362,9.031-9.897C828.725,1469.106,829.156,1466.871,822.25,1462z"/>
		</defs>
		<clipPath id="SVGID_2_">
			<use xlink:href="#SVGID_3_"  overflow="visible"/>
		</clipPath>
		<polygon id="Fill_4_" clip-path="url(#SVGID_2_)" fill="#FFE266" points="582.18,1419.172 742.672,1243.681 975.16,1279.679 
			841.667,1506.167 574.681,1438.671 		"/>
		<path clip-path="url(#SVGID_2_)" fill="#EFCF4B" d="M586.333,1422.167c0,0,2.668,3.334,5.334,4.667s236,62,236,62
			s4.667,1.333,6-2.667S951,1287.501,951,1287.501l-1.333-6.667l16.666,9.333L835,1505.501l-135.333-36L579,1430.834
			L586.333,1422.167z"/>
		<path clip-path="url(#SVGID_2_)" fill="#EFCF4B" d="M750,1374c0,0-8.75-6.25,1.75-15.25s22.25-3,24.25-1.5s3.25,3.75,3.25,3.75
			l-2.25,5L750,1374z"/>
		<path clip-path="url(#SVGID_2_)" fill="#EFCF4B" d="M820.75,1308.5c0,0-8.75-6.25,1.75-15.25s22.25-3,24.25-1.5
			s3.25,3.75,3.25,3.75l-2.25,5L820.75,1308.5z"/>
		<path clip-path="url(#SVGID_2_)" fill="#EFCF4B" d="M740.5,1303.5c0,0-8.75-6.25,1.75-15.25s22.25-3,24.25-1.5
			s3.25,3.75,3.25,3.75l-2.25,5L740.5,1303.5z"/>
		<path clip-path="url(#SVGID_2_)" fill="#EFCF4B" d="M837.75,1446.75c0,0-8.75-6.25,1.75-15.25s22.25-3,24.25-1.5
			s3.25,3.75,3.25,3.75l-2.25,5L837.75,1446.75z"/>
		<path clip-path="url(#SVGID_2_)" fill="#EFCF4B" d="M889.583,1338.751c-1.5-0.667-3.75-3.084-0.75-7.084s6.75-3.083,8.417-2.417
			c1.674,0.669,4.25,1.667,4,4.167s-4,5.583-4,5.583s-4.171,0.514-5.75,0.251C890,1339.001,889.984,1338.93,889.583,1338.751z"/>
		<path clip-path="url(#SVGID_2_)" fill="#EFCF4B" d="M851.166,1325.168c-1.5-0.667-3.75-3.084-0.75-7.084s6.75-3.083,8.417-2.417
			c1.674,0.669,4.25,1.667,4,4.167s-4,5.583-4,5.583s-4.171,0.514-5.75,0.251C851.583,1325.418,851.567,1325.347,851.166,1325.168z"
			/>
		<path clip-path="url(#SVGID_2_)" fill="#EFCF4B" d="M819.78,1369.349c-1.414-0.833-3.375-3.49,0.062-7.123
			c3.436-3.633,7.057-2.295,8.637-1.443c1.587,0.855,4.033,2.14,3.5,4.596c-0.533,2.455-4.609,5.091-4.609,5.091
			s-4.202,0.036-5.741-0.405C820.166,1369.645,820.158,1369.572,819.78,1369.349z"/>
		<path clip-path="url(#SVGID_2_)" fill="#EFCF4B" d="M849.78,1291.099c-1.414-0.833-3.883-4.05,0.062-7.123
			c3.658-2.851,7.057-2.295,8.637-1.443c1.587,0.855,4.033,2.14,3.5,4.596c-0.533,2.455-4.609,5.091-4.609,5.091
			s-4.202,0.036-5.741-0.405C850.166,1291.395,850.158,1291.322,849.78,1291.099z"/>
		<path clip-path="url(#SVGID_2_)" fill="#EFCF4B" d="M809.53,1275.599c-1.414-0.833-3.883-4.05,0.062-7.123
			c3.658-2.851,7.057-2.295,8.637-1.443c1.587,0.855,4.033,2.14,3.5,4.596c-0.533,2.455-4.609,5.091-4.609,5.091
			s-4.202,0.036-5.741-0.405C809.916,1275.895,809.908,1275.822,809.53,1275.599z"/>
		<path clip-path="url(#SVGID_2_)" fill="#EFCF4B" d="M749.78,1351.349c-1.414-0.833-3.883-4.05,0.062-7.123
			c3.658-2.851,7.057-2.295,8.637-1.443c1.587,0.855,4.033,2.14,3.5,4.596c-0.533,2.455-4.609,5.091-4.609,5.091
			s-4.202,0.036-5.741-0.405C750.166,1351.645,750.158,1351.572,749.78,1351.349z"/>
		<path clip-path="url(#SVGID_2_)" fill="#EFCF4B" d="M649.905,1383.099c-1.414-0.833-3.883-4.05,0.062-7.123
			c3.658-2.851,7.057-2.295,8.637-1.443c1.587,0.855,4.033,2.14,3.5,4.596c-0.533,2.455-4.609,5.091-4.609,5.091
			s-4.202,0.036-5.741-0.405C650.291,1383.395,650.283,1383.322,649.905,1383.099z"/>
		<path clip-path="url(#SVGID_2_)" fill="#EFCF4B" d="M720.572,1454.432c-1.414-0.833-3.883-4.05,0.062-7.123
			c3.658-2.851,7.057-2.295,8.637-1.443c1.587,0.855,4.033,2.14,3.5,4.596c-0.533,2.455-4.609,5.091-4.609,5.091
			s-4.202,0.036-5.741-0.405C720.958,1454.728,720.95,1454.655,720.572,1454.432z"/>
		<path clip-path="url(#SVGID_2_)" fill="#EFCF4B" d="M767.001,1257.251c0,0-0.833,1.416-0.5,2.083s1.834,3.167,4,3
			s3.666-0.083,4.583-1s-3.75-4.833-3.75-4.833L767.001,1257.251z"/>
		<path clip-path="url(#SVGID_2_)" fill="#EFCF4B" d="M667.667,1335.334l-0.583-2.5c0,0,1.417-0.25,1.75,0.25s2.834,2.5,3.167,3.25
			s3,5.001,1.833,6.667s-3,4.083-3,4.083L667.667,1335.334z"/>
		<path clip-path="url(#SVGID_2_)" fill="#EFCF4B" d="M679.417,1398.918c0,0-4.249-2.5-4.666-7.917s-0.084-11.167,11.75-11.333
			c6.27-0.088,11.334,6.75,11.75,8.833S679.417,1398.918,679.417,1398.918z"/>
		<path clip-path="url(#SVGID_2_)" fill="#EFCF4B" d="M806.583,1392.501c-4.457-5.54-9.298-9.175,1.765-17.17
			c5.861-4.233,17.464,0.949,19.319,3.003"/>
		<path clip-path="url(#SVGID_2_)" fill="#EFCF4B" d="M808.75,1478.251c0,0-4.249-2.5-4.666-7.917s-0.084-11.167,11.75-11.333
			c6.27-0.088,11.334,6.75,11.75,8.833S808.75,1478.251,808.75,1478.251z"/>
		<path clip-path="url(#SVGID_2_)" fill="#EFCF4B" d="M851.084,1371.918c0,0-4.249-2.5-4.666-7.917s-0.084-11.167,11.75-11.333
			c6.27-0.088,11.334,6.75,11.75,8.833S851.084,1371.918,851.084,1371.918z"/>
		<path clip-path="url(#SVGID_2_)" fill="#EFCF4B" d="M937.625,1315.25c0,0-5.5-5.25-15.75-4s-17.375,5.5-19.375,12.375
			s6.125,7.875,7,8.125S937.625,1315.25,937.625,1315.25z"/>
		<path clip-path="url(#SVGID_2_)" fill="#EFCF4B" d="M936.75,1327.75"/>
	</g>
</g>
<g id="Cheddar_Slice">
</g>
<g id="Eggplant_Patty">
</g>
<g id="Halloumi_Patty">
</g>
<g id="Beef_Patty">
</g>
<g id="Sourdough_Bun">
</g>
<g id="Rice_Bun">
</g>
<g id="Brioche_Bun">
</g>
</svg>
