<?xml version="1.0" encoding="utf-8"?>
<!-- Generator: Adobe Illustrator 16.0.0, SVG Export Plug-In . SVG Version: 6.00 Build 0)  -->
<!DOCTYPE svg PUBLIC "-//W3C//DTD SVG 1.1//EN" "http://www.w3.org/Graphics/SVG/1.1/DTD/svg11.dtd">
<svg version="1.1" xmlns="http://www.w3.org/2000/svg" xmlns:xlink="http://www.w3.org/1999/xlink" x="0px" y="0px"
	 width="487.61px" height="340.711px" viewBox="7.719 1193.311 487.61 340.711"
	 enable-background="new 7.719 1193.311 487.61 340.711" xml:space="preserve">
<g id="Pickles">
</g>
<g id="Tomato">
</g>
<g id="Lettuce">
</g>
<g id="Tofu_Slice">
</g>
<g id="Swiss_Slice">
</g>
<g id="Cheddar_Slice">
	<g>
		<defs>
			<path id="SVGID_5_" d="M41.256,1433.16c-2.542-8.239,175.955-210.816,191.565-222.11c15.611-11.294,203.734,41.604,220.43,49.166
				c12.729,5.767,7.017,10.768,2.21,17.885c-7.214,10.677-168.639,237.084-170.585,239.722c-1.866,2.529-3.394,2.646-8.993,1.765
				C234.474,1513.061,43.66,1440.955,41.256,1433.16z"/>
		</defs>
		<clipPath id="SVGID_2_">
			<use xlink:href="#SVGID_5_"  overflow="visible"/>
		</clipPath>
		<path id="Fill_3_" clip-path="url(#SVGID_2_)" fill="#FCDA86" d="M28.361,1435.447c-2.708-8.623,187.514-220.676,204.151-232.498
			c16.637-11.823,217.118,43.55,234.911,51.466c13.565,6.036,7.478,11.271,2.354,18.722
			c-7.687,11.176-179.716,248.171-181.79,250.932c-1.989,2.648-3.617,2.771-9.585,1.849
			C234.272,1519.086,30.924,1443.607,28.361,1435.447z"/>
		<path clip-path="url(#SVGID_2_)" fill="#FFD066" d="M39.037,1424.819c0,0,124.981,22.893,257.386-69.297
			c85.222-59.337,162.104-92.807,173.858-97.757c11.756-4.949-152.204,280.896-152.204,280.896s-185.614-27.841-187.47-31.553
			c-1.856-3.714-103.326-60.635-103.326-60.635L39.037,1424.819z"/>
		<path id="Dark_2" clip-path="url(#SVGID_2_)" fill="#F7BF4F" d="M35.478,1435.799c0,0,4.667-12.898,8.908-8.727
			c4.641,4.563,216.276,90.35,229.344,83.27c22.33-12.096,167.566-226.646,175.379-235.391c6.497-7.27,9.219-14.616,9.957-13.243
			c0.949,1.767,7.821,6.023,8.43,7.502c1.083,2.629-108.723,232.775-184.928,256.019
			C218.627,1544.73,35.478,1435.799,35.478,1435.799z"/>
	</g>
	<path fill="#FFD066" d="M416,1432"/>
</g>
<g id="Eggplant_Patty">
</g>
<g id="Halloumi_Patty">
</g>
<g id="Beef_Patty">
</g>
<g id="Sourdough_Bun">
</g>
<g id="Rice_Bun">
</g>
<g id="Brioche_Bun">
</g>
</svg>
