<?xml version="1.0" encoding="utf-8"?>
<!-- Generator: Adobe Illustrator 16.0.0, SVG Export Plug-In . SVG Version: 6.00 Build 0)  -->
<!DOCTYPE svg PUBLIC "-//W3C//DTD SVG 1.1//EN" "http://www.w3.org/Graphics/SVG/1.1/DTD/svg11.dtd">
<svg version="1.1" xmlns="http://www.w3.org/2000/svg" xmlns:xlink="http://www.w3.org/1999/xlink" x="0px" y="0px"
	 width="487.61px" height="340.711px" viewBox="1050.646 1196.398 487.61 340.711"
	 enable-background="new 1050.646 1196.398 487.61 340.711" xml:space="preserve">
<g id="Pickles">
</g>
<g id="Tomato">
</g>
<g id="Lettuce">
</g>
<g id="Tofu_Slice">
	<g>
		<defs>
			<path id="SVGID_1_" d="M1103.061,1463.848c0,0,184.355-247.927,190.712-256.402c6.357-8.475,194.95,25.429,194.95,25.429
				s2.777,32.427,2.777,35.959c0,3.53-142.688,251.469-149.045,257.825c-6.358,6.358-230.985-36.73-233.811-37.437
				S1101.717,1469.554,1103.061,1463.848z"/>
		</defs>
		<clipPath id="SVGID_2_">
			<use xlink:href="#SVGID_1_"  overflow="visible"/>
		</clipPath>
		<polygon id="Fill_5_" clip-path="url(#SVGID_2_)" fill="#E2DDC7" points="1084.627,1465.911 1288.771,1197.488 1431.458,1215.148 
			1492.912,1228.569 1497.857,1268.833 1345.28,1534.429 1105.819,1496.285 		"/>
		<path clip-path="url(#SVGID_2_)" fill="#CEC8AF" d="M1486.555,1217.974c0,0,1.412,14.834-0.705,19.778
			c-2.12,4.945-149.753,260.652-160.347,258.533c0,0-204.009-23.906-222.442-32.438l-7.132,7.008l12.716,26.135l235.223,42.384
			l154.695-271.248l-8.475-43.089L1486.555,1217.974z"/>
		<path clip-path="url(#SVGID_2_)" fill="#CEC8AF" d="M1277.469,1251.172c8.477-1.412,51.565,0,57.216-0.705
			c5.651-0.707,25.429,0,26.137,4.238c0.705,4.237-4.945,3.532-9.184,0.705c-4.237-2.825-4.945-5.65-9.183-6.355
			c-4.238-0.707-9.184,3.53-12.715,4.942c-3.532,1.413-14.128,2.12-14.128,2.12l-9.184-7.77l-24.723,9.89L1277.469,1251.172z"/>
		<path clip-path="url(#SVGID_2_)" fill="#CEC8AF" d="M1403.202,1287.198c0,0-16.246-4.944-20.483-1.413
			c-4.239,3.532-7.064,6.358-12.01,7.063c-0.743,0.107-1.678,0.086-2.73-0.027c-5.946-0.641-15.636-4.211-15.636-4.211
			l13.422-14.127c0,0,2.119-8.478-2.118-8.478c-4.238,0-10.596,2.12-7.771,2.827c2.825,0.705,5.65,3.53,5.65,3.53
			s4.945,4.239,2.826,7.064c-2.119,2.826-5.651,4.239-4.944,7.771c0.705,3.531,17.659,12.715,21.19,10.596
			c3.532-2.12,9.891-2.825,12.008-4.238c2.12-1.412-1.412-1.412,2.12-6.357c3.533-4.944,8.476-17.66,9.889-9.183
			C1406.03,1286.492,1403.202,1287.198,1403.202,1287.198z"/>
		<path clip-path="url(#SVGID_2_)" fill="#CEC8AF" d="M1251.332,1299.206c5.451-2.592,9.76,7.531,9.76,7.531
			s10.466,6.817,12.972,7.275s8.583,5.352,10.055,3.828c1.474-1.523,4.317-10.563,4.317-10.563l8.498,0.355
			c0,0-5.451,2.591-1.389,6.518c0.887,0.855,1.941,1.876,3.049,2.947c3.973,3.841,8.633,8.346,8.633,8.346s7.872-7.128,3.387-6.551
			c-4.486,0.573-11.901,5.196-15.456,1.759c-3.557-3.437,1.912-5.027,3.368-7.552c1.455-2.52,4.387-6.567,0.864-8.006
			c-3.521-1.438-5.333,9.581-8.363,7.635s-10.173-6.555-13.577-5.266c-2.733,1.034-4.859,8.074-10.918,4.18
			c-6.062-3.894-13.855-0.269-15.921-4.229C1248.546,1303.454,1251.332,1299.206,1251.332,1299.206z"/>
		<path clip-path="url(#SVGID_2_)" fill="#CEC8AF" d="M1227.157,1353.098c4.675-3.849,21.876-1.651,21.876-1.651
			s25.601,8.73,29.732,8.247c4.129-0.486,18.697,1.286,18.969-0.396c0.271-1.684-6.541-9.688-6.541-9.688l12.57-2.577
			c0,0-4.672,3.85,5.858,5.548c2.294,0.37,5.027,0.81,7.898,1.274c10.296,1.658,22.375,3.604,22.375,3.604s2.675-8.199-3.045-6.242
			c-5.717,1.955-10.751,8.049-19.964,6.563c-9.214-1.483-3.314-4.562-4.271-7.018c-0.955-2.459-1.639-6.595-8.399-6.532
			c-6.762,0.059,3.908,9.261-2.765,8.761c-6.672-0.501-21.34-6.41-25.396-1.513c-2.242,2.709,2.438,9.895-10.906,8.896
			c-13.345-1-22.559-2.486-30.273-4.88C1227.157,1353.098,1227.157,1353.098,1227.157,1353.098z"/>
		<path clip-path="url(#SVGID_2_)" fill="#CEC8AF" d="M1271.625,1273.687c3.997-4.523,12.829-1.904,12.829-1.904
			s11.177,10.323,13.661,9.76c2.483-0.563,9.994,1.551,10.751-0.429c0.756-1.98-0.177-11.412-0.177-11.412l7.955-3.008
			c0,0-3.996,4.522,1.283,6.538c1.15,0.438,2.52,0.964,3.958,1.512c5.163,1.974,11.218,4.288,11.218,4.288s4.443-9.645,0.541-7.354
			c-3.898,2.291-8.904,9.452-13.524,7.686c-4.619-1.762-0.214-5.373,0.136-8.264c0.348-2.895,1.453-7.765-2.351-7.705
			c-3.802,0.059-1.143,10.906-4.693,10.306c-3.55-0.601-19.076-3.51-19.076-3.51s3.225,13.332-3.88,12.129
			c-7.1-1.202-6.507-4.296-9.962-7.129C1276.84,1272.357,1271.625,1273.687,1271.625,1273.687z"/>
		<path clip-path="url(#SVGID_2_)" fill="#CEC8AF" d="M1314.199,1321.811c8.477-1.413,51.565,0,57.218-0.707
			c5.65-0.706,25.43,0,26.135,4.239c0.708,4.238-4.945,3.531-9.183,0.706c-4.238-2.826-4.944-5.651-9.184-6.357
			c-4.237-0.706-9.182,3.531-12.714,4.944s-14.129,2.12-14.129,2.12l-9.182-7.771l-24.724,9.889L1314.199,1321.811z"/>
		<path clip-path="url(#SVGID_2_)" fill="#CEC8AF" d="M1286.65,1380.439c3.603-7.802,51.566,0,57.217-0.706s25.43,0,26.137,4.238
			c0.705,4.237-4.945,3.532-9.183,0.706c-4.238-2.825-4.945-5.65-9.184-6.356c-4.237-0.706-9.183,3.531-12.714,4.944
			c-3.533,1.412-14.129,2.118-14.129,2.118l-9.183-7.769l-24.723,9.889C1290.89,1387.504,1285.787,1382.309,1286.65,1380.439z"/>
		<path clip-path="url(#SVGID_2_)" fill="#CEC8AF" d="M1194.116,1392.448c8.477-1.413,51.565,0,57.216-0.706
			c5.65-0.707,25.43,0,26.137,4.237c0.706,4.238-4.945,3.533-9.184,0.708c-4.237-2.827-4.945-5.652-9.183-6.358
			c-4.238-0.707-9.183,3.531-12.715,4.944c-3.531,1.414-14.128,2.119-14.128,2.119l-9.184-7.771l-24.723,9.891L1194.116,1392.448z"
			/>
		<path clip-path="url(#SVGID_2_)" fill="#CEC8AF" d="M1264.753,1412.227c8.477-1.413,51.566,0,57.217-0.706
			c5.65-0.707,25.431,0,26.136,4.238c0.707,4.237-4.944,3.531-9.182,0.706c-4.239-2.825-4.945-5.651-9.184-6.356
			c-4.237-0.708-9.183,3.531-12.716,4.943c-3.53,1.413-14.127,2.119-14.127,2.119l-9.183-7.771l-24.723,9.89L1264.753,1412.227z"/>
		<path clip-path="url(#SVGID_2_)" fill="#CEC8AF" d="M1180.695,1417.877c8.476-1.412,51.564,0,57.216-0.706s25.429,0,26.137,4.239
			c0.705,4.237-4.945,3.531-9.184,0.706c-4.238-2.826-4.944-5.651-9.183-6.357c-4.239-0.707-9.183,3.531-12.715,4.944
			s-14.128,2.119-14.128,2.119l-9.183-7.771l-24.724,9.89L1180.695,1417.877z"/>
		<path clip-path="url(#SVGID_2_)" fill="#CEC8AF" d="M1190.244,1445.341c4.676-3.851,21.875-1.653,21.875-1.653
			s25.602,8.731,29.732,8.247c4.129-0.485,18.699,1.288,18.971-0.394c0.27-1.683-6.542-9.688-6.542-9.688l12.57-2.578
			c0,0-4.673,3.851,5.857,5.55c2.295,0.37,5.028,0.81,7.899,1.272c10.295,1.658,22.375,3.605,22.375,3.605s2.675-8.199-3.045-6.243
			c-5.718,1.954-10.751,8.05-19.964,6.563c-9.214-1.482-3.316-4.563-4.271-7.018c-0.956-2.457-1.639-6.594-8.4-6.533
			c-6.762,0.06,3.907,9.262-2.764,8.761c-6.672-0.499-35.992-2.924-35.992-2.924s13.034,11.308-0.311,10.309
			c-13.344-1.001-22.558-2.486-30.273-4.88C1190.244,1445.341,1190.244,1445.341,1190.244,1445.341z"/>
		<path clip-path="url(#SVGID_2_)" fill="#CEC8AF" d="M1229.555,1331.427c3.368-2.618,11.48,0.503,11.48,0.503
			s10.645,8.896,12.858,8.855c2.212-0.041,9.107,2.533,9.685,1.243c0.578-1.289-0.771-8.079-0.771-8.079l7.023-0.98
			c0,0-3.366,2.616,1.506,4.799c1.063,0.479,2.329,1.045,3.658,1.64c4.767,2.136,10.357,4.64,10.357,4.64s3.494-6.169,0.096-5.114
			c-3.4,1.056-7.538,5.393-11.802,3.481s-0.48-3.824-0.319-5.816c0.159-1.99,0.899-5.271-2.533-5.778
			c-3.431-0.504-0.45,7.536-3.69,6.601c-3.236-0.936-17.409-5.222-17.409-5.222s3.622,9.873-2.856,8.004
			c-6.477-1.869-10.742-3.781-14.013-6.277C1229.555,1331.427,1229.555,1331.427,1229.555,1331.427z"/>
		<path clip-path="url(#SVGID_2_)" fill="#CEC8AF" d="M1401.085,1356.424c0,0-16.247-4.945-20.486-1.413
			c-4.238,3.53-7.063,6.356-12.009,7.063c-0.743,0.105-1.678,0.086-2.73-0.027c-5.947-0.643-15.634-4.211-15.634-4.211
			l13.421-14.128c0,0,2.118-8.476-2.12-8.476s-10.596,2.117-7.77,2.825c2.826,0.706,5.651,3.531,5.651,3.531
			s4.944,4.239,2.825,7.064c-2.12,2.825-5.65,4.237-4.945,7.771c0.708,3.53,17.66,12.714,21.191,10.596
			c3.531-2.12,9.89-2.825,12.01-4.238c2.117-1.414-1.414-1.414,2.117-6.357c3.533-4.945,8.479-17.66,9.891-9.184
			C1403.91,1355.716,1401.085,1356.424,1401.085,1356.424z"/>
		<path clip-path="url(#SVGID_2_)" fill="#CEC8AF" d="M1247.801,1376.907c0,0-16.246-4.944-20.485-1.412s-7.063,6.357-12.007,7.063
			c-0.746,0.106-1.68,0.086-2.732-0.027c-5.947-0.642-15.635-4.21-15.635-4.21l13.422-14.127c0,0,2.117-8.479-2.12-8.479
			s-10.596,2.12-7.771,2.825c2.825,0.708,5.652,3.533,5.652,3.533s4.943,4.237,2.826,7.063c-2.121,2.825-5.653,4.238-4.945,7.77
			c0.705,3.532,17.658,12.715,21.19,10.597c3.532-2.12,9.89-2.826,12.009-4.238c2.119-1.413-1.413-1.413,2.119-6.358
			c3.532-4.944,8.477-17.658,9.889-9.183C1250.626,1376.201,1247.801,1376.907,1247.801,1376.907z"/>
		<path clip-path="url(#SVGID_2_)" fill="#CEC8AF" d="M1371.58,1232.548c8.595-0.045,50.906,8.215,56.599,8.417
			c5.69,0.203,25.104,4.052,25.125,8.349c0.022,4.296-5.444,2.698-9.177-0.767c-3.734-3.463-3.981-6.367-8.053-7.738
			c-4.071-1.372-9.629,2.022-13.34,2.856c-3.713,0.831-14.284-0.161-14.284-0.161l-7.829-9.133l-25.982,5.824L1371.58,1232.548z"/>
		<path clip-path="url(#SVGID_2_)" fill="#CEC8AF" d="M1374.729,1247.729c8.56,0.783,49.882,13.078,55.527,13.827
			c5.645,0.751,24.598,6.451,24.205,10.73c-0.391,4.278-5.68,2.16-9.061-1.647c-3.384-3.808-3.351-6.72-7.271-8.478
			c-3.92-1.758-9.777,1.086-13.553,1.558c-3.773,0.471-14.204-1.534-14.204-1.534l-6.911-9.845l-26.424,3.294L1374.729,1247.729z"/>
	</g>
</g>
<g id="Swiss_Slice">
</g>
<g id="Cheddar_Slice">
</g>
<g id="Eggplant_Patty">
</g>
<g id="Halloumi_Patty">
</g>
<g id="Beef_Patty">
</g>
<g id="Sourdough_Bun">
</g>
<g id="Rice_Bun">
</g>
<g id="Brioche_Bun">
</g>
</svg>
