<?xml version="1.0" encoding="utf-8"?>
<!-- Generator: Adobe Illustrator 16.0.0, SVG Export Plug-In . SVG Version: 6.00 Build 0)  -->
<!DOCTYPE svg PUBLIC "-//W3C//DTD SVG 1.1//EN" "http://www.w3.org/Graphics/SVG/1.1/DTD/svg11.dtd">
<svg version="1.1" xmlns="http://www.w3.org/2000/svg" xmlns:xlink="http://www.w3.org/1999/xlink" x="0px" y="0px"
	 width="487.61px" height="340.711px" viewBox="527.719 1195.311 487.61 340.711"
	 enable-background="new 527.719 1195.311 487.61 340.711" xml:space="preserve">
<g id="Pickles">
</g>
<g id="Tomato">
</g>
<g id="Lettuce">
</g>
<g id="Tofu_Slice">
</g>
<g id="Swiss_Slice">
	<g>
		<defs>
			<path id="SVGID_3_" d="M538.354,1430.339c-2.366-5.813,81.707-97.23,81.707-97.23c12.321,4.739,20.219,2.212,25.274-4.107
				c7.535-9.419,1.579-15.163-4.423-19.587c0,0,91.498-94.803,93.952-96.846c1.106-0.921,31.712,1.33,31.712,1.33
				c0.07,2.954,1.338,5.328,5.37,5.686c2.574,0.23,6.951,0.207,7.479-4.315c0,0,224.948,26.051,225.644,36.508
				c0.15,2.274-14.007,32.684-18.323,41.314c-0.315,0.632-1.79-0.421-1.79-0.421c-0.855-11.182-34.822-17.402-46.125,3.791
				c-7.583,14.217,29.918,20.146,40.438,11.058c0,0,2.194,0.617,1.687,1.368c-20.432,30.225-121.788,202.177-131.302,205.535
				C833.594,1520.09,539.691,1433.627,538.354,1430.339z M732.041,1269.772c2.911,5.408,23.834,10.683,33.53-1.252
				c11.103-13.662,0.561-18.218-8.809-19.414c-9.17-1.171-15.561,0.864-20.055,5.29
				C734.117,1256.948,727.288,1260.936,732.041,1269.772z M743.938,1331.346c1.285,2.572,10.274,5.217,14.332-0.337
				c4.645-6.359,0.103-8.586-3.914-9.221c-3.931-0.622-6.649,0.29-8.538,2.344C744.728,1325.313,741.838,1327.144,743.938,1331.346z
				 M832.396,1354.094c1.285,2.571,10.274,5.215,14.332-0.339c4.646-6.357,0.103-8.586-3.914-9.22
				c-3.931-0.622-6.649,0.29-8.537,2.344C833.188,1348.062,830.297,1349.89,832.396,1354.094z M852.127,1377.346
				c-0.452-6.67-17.773-20.649-31.827-12.593c-16.087,9.223-8.156,18.188,0.088,23.269c8.067,4.978,14.887,5.561,20.936,2.942
				C844.812,1389.458,852.855,1388.247,852.127,1377.346z M889.546,1338.163c-5.343-3.763-23.501-3.741-21.581,10.65
				c1.361,10.201,6.817,15.729,17.986,14.141c7.701-1.097,10.792-6.777,11.413-12.508
				C897.729,1347.144,898.273,1344.318,889.546,1338.163z M871.571,1297.226c1.286,2.572,10.274,5.217,14.332-0.337
				c4.646-6.359,0.103-8.586-3.914-9.221c-3.931-0.622-6.649,0.29-8.538,2.344C872.361,1291.193,869.472,1293.023,871.571,1297.226z
				 M920.855,1314.918c1.285,2.571,10.275,5.216,14.332-0.338c4.646-6.358,0.104-8.585-3.914-9.22
				c-3.931-0.623-6.648,0.29-8.537,2.344C921.646,1308.886,918.757,1310.715,920.855,1314.918z M707.29,1461.508
				c1.285,2.572,10.274,5.215,14.332-0.338c4.646-6.357,0.103-8.586-3.914-9.221c-3.931-0.621-6.649,0.291-8.537,2.344
				C708.08,1455.477,705.19,1457.305,707.29,1461.508z M819.759,1235.305c1.287,2.572,10.275,5.215,14.333-0.338
				c4.646-6.358,0.103-8.586-3.915-9.221c-3.931-0.621-6.648,0.291-8.537,2.344C820.551,1229.272,817.66,1231.102,819.759,1235.305z
				 M870.308,1255.524c1.286,2.571,10.274,5.215,14.332-0.339c4.645-6.357,0.103-8.586-3.914-9.219
				c-3.931-0.623-6.649,0.289-8.538,2.343C871.098,1249.492,868.208,1251.32,870.308,1255.524z M617.566,1371.785
				c1.286,2.572,10.275,5.215,14.333-0.339c4.645-6.357,0.103-8.585-3.914-9.22c-3.931-0.621-6.65,0.291-8.538,2.344
				C618.357,1365.752,615.468,1367.581,617.566,1371.785z M745.942,1360.76c2.909,5.407,23.834,10.683,33.53-1.253
				c11.102-13.661,0.561-18.218-8.81-19.414c-9.17-1.171-15.56,0.864-20.055,5.292
				C748.019,1347.935,741.188,1351.922,745.942,1360.76z M834.401,1276.092c2.909,5.407,23.834,10.682,33.53-1.253
				c11.102-13.662,0.561-18.217-8.81-19.413c-9.169-1.172-15.56,0.864-20.055,5.29
				C836.478,1263.267,829.648,1267.254,834.401,1276.092z M854.621,1450.482c2.91,5.407,23.834,10.683,33.53-1.252
				c11.102-13.662,0.56-18.218-8.81-19.413c-9.17-1.173-15.561,0.863-20.055,5.29
				C856.697,1437.657,849.867,1441.645,854.621,1450.482z M672.188,1371.02c-5.342-3.763-23.5-3.742-21.58,10.65
				c1.361,10.201,6.817,15.729,17.987,14.141c7.7-1.097,10.79-6.777,11.413-12.508C680.37,1380,680.915,1377.175,672.188,1371.02z
				 M836.47,1472.116c-5.343-3.763-23.501-3.742-21.581,10.649c1.362,10.202,6.817,15.73,17.987,14.142
				c7.7-1.097,10.791-6.777,11.413-12.509C844.652,1481.097,845.197,1478.271,836.47,1472.116z"/>
		</defs>
		<clipPath id="SVGID_2_">
			<use xlink:href="#SVGID_3_"  overflow="visible"/>
		</clipPath>
		<polygon id="Fill_4_" clip-path="url(#SVGID_2_)" fill="#FFE266" points="533.092,1417.994 735.906,1196.226 1029.703,1241.716 
			861.008,1527.93 523.615,1442.636 		"/>
		<path clip-path="url(#SVGID_2_)" fill="#EFCF4B" d="M538.341,1421.778c0,0,3.371,4.214,6.741,5.897
			c3.367,1.686,298.233,78.351,298.233,78.351s5.897,1.685,7.582-3.37c1.686-5.055,148.274-251.056,148.274-251.056l-1.684-8.425
			l21.06,11.795l-165.965,272.118l-171.022-45.494l-152.486-48.863L538.341,1421.778z"/>
		<path clip-path="url(#SVGID_2_)" fill="#EFCF4B" d="M745.167,1360.91c0,0-11.058-7.898,2.212-19.271s28.117-3.791,30.645-1.896
			s4.107,4.739,4.107,4.739l-2.844,6.318L745.167,1360.91z"/>
		<path clip-path="url(#SVGID_2_)" fill="#EFCF4B" d="M834.574,1278.137c0,0-11.057-7.897,2.212-19.271
			c13.269-11.374,28.117-3.791,30.645-1.896c2.527,1.896,4.107,4.739,4.107,4.739l-2.844,6.319L834.574,1278.137z"/>
		<path clip-path="url(#SVGID_2_)" fill="#EFCF4B" d="M733.162,1271.819c0,0-11.058-7.898,2.211-19.271
			c13.27-11.374,28.118-3.792,30.646-1.896c2.527,1.896,4.107,4.738,4.107,4.738l-2.844,6.318L733.162,1271.819z"/>
		<path clip-path="url(#SVGID_2_)" fill="#EFCF4B" d="M856.057,1452.845c0,0-11.057-7.898,2.212-19.271
			c13.27-11.373,28.117-3.791,30.645-1.896c2.528,1.896,4.107,4.739,4.107,4.739l-2.843,6.318L856.057,1452.845z"/>
		<path clip-path="url(#SVGID_2_)" fill="#EFCF4B" d="M921.559,1316.366c-1.896-0.844-4.738-3.898-0.947-8.953
			c3.79-5.054,8.53-3.896,10.636-3.054c2.116,0.846,5.372,2.106,5.056,5.266c-0.316,3.16-5.056,7.056-5.056,7.056
			s-5.271,0.648-7.266,0.316C922.086,1316.682,922.066,1316.592,921.559,1316.366z"/>
		<path clip-path="url(#SVGID_2_)" fill="#EFCF4B" d="M873.012,1299.2c-1.896-0.842-4.739-3.896-0.948-8.951
			c3.791-5.056,8.529-3.896,10.637-3.055c2.115,0.846,5.371,2.106,5.055,5.267c-0.316,3.158-5.055,7.054-5.055,7.054
			s-5.271,0.65-7.267,0.318C873.538,1299.518,873.519,1299.427,873.012,1299.2z"/>
		<path clip-path="url(#SVGID_2_)" fill="#EFCF4B" d="M833.349,1355.032c-1.787-1.053-4.265-4.411,0.077-9.001
			c4.343-4.592,8.918-2.901,10.915-1.824c2.006,1.08,5.097,2.703,4.423,5.807c-0.673,3.104-5.825,6.435-5.825,6.435
			s-5.31,0.045-7.255-0.513C833.837,1355.406,833.827,1355.314,833.349,1355.032z"/>
		<path clip-path="url(#SVGID_2_)" fill="#EFCF4B" d="M871.26,1256.147c-1.787-1.053-4.906-5.118,0.078-9.001
			c4.622-3.604,8.918-2.901,10.914-1.824c2.006,1.081,5.098,2.703,4.424,5.807s-5.826,6.435-5.826,6.435s-5.31,0.046-7.255-0.513
			C871.748,1256.521,871.738,1256.43,871.26,1256.147z"/>
		<path clip-path="url(#SVGID_2_)" fill="#EFCF4B" d="M820.396,1236.56c-1.786-1.053-4.905-5.117,0.078-9.001
			c4.623-3.603,8.917-2.9,10.915-1.824c2.005,1.081,5.096,2.704,4.422,5.808c-0.673,3.103-5.824,6.434-5.824,6.434
			s-5.311,0.046-7.256-0.513C820.884,1236.934,820.874,1236.843,820.396,1236.56z"/>
		<path clip-path="url(#SVGID_2_)" fill="#EFCF4B" d="M744.89,1332.285c-1.787-1.053-4.907-5.118,0.077-9.002
			c4.623-3.602,8.918-2.899,10.915-1.823c2.005,1.081,5.097,2.704,4.422,5.808c-0.674,3.104-5.824,6.433-5.824,6.433
			s-5.31,0.046-7.255-0.512C745.378,1332.66,745.367,1332.568,744.89,1332.285z"/>
		<path clip-path="url(#SVGID_2_)" fill="#EFCF4B" d="M618.677,1372.408c-1.787-1.054-4.906-5.118,0.078-9.002
			c4.622-3.602,8.918-2.899,10.914-1.824c2.005,1.081,5.098,2.704,4.423,5.809c-0.674,3.103-5.825,6.433-5.825,6.433
			s-5.31,0.046-7.255-0.513C619.165,1372.782,619.155,1372.69,618.677,1372.408z"/>
		<path clip-path="url(#SVGID_2_)" fill="#EFCF4B" d="M707.979,1462.552c-1.786-1.053-4.905-5.117,0.079-9.001
			c4.622-3.603,8.917-2.899,10.914-1.824c2.005,1.081,5.097,2.704,4.423,5.807c-0.674,3.104-5.825,6.435-5.825,6.435
			s-5.311,0.046-7.255-0.513C708.467,1462.926,708.457,1462.835,707.979,1462.552z"/>
		<path clip-path="url(#SVGID_2_)" fill="#EFCF4B" d="M766.651,1213.373c0,0-1.053,1.79-0.632,2.634
			c0.422,0.842,2.317,4.001,5.055,3.79c2.737-0.21,4.633-0.104,5.791-1.263c1.159-1.159-4.738-6.107-4.738-6.107L766.651,1213.373z"
			/>
		<path clip-path="url(#SVGID_2_)" fill="#EFCF4B" d="M641.122,1312.048l-0.735-3.16c0,0,1.79-0.315,2.21,0.317
			c0.422,0.631,3.583,3.158,4.003,4.106c0.421,0.947,3.791,6.32,2.316,8.425c-1.476,2.105-3.791,5.16-3.791,5.16L641.122,1312.048z"
			/>
		<path clip-path="url(#SVGID_2_)" fill="#EFCF4B" d="M655.972,1392.398c0,0-5.37-3.158-5.896-10.004
			c-0.527-6.846-0.106-14.112,14.848-14.321c7.924-0.111,14.323,8.529,14.849,11.161
			C680.297,1381.867,655.972,1392.398,655.972,1392.398z"/>
		<path clip-path="url(#SVGID_2_)" fill="#EFCF4B" d="M816.672,1384.29c-5.633-7.001-11.75-11.594,2.229-21.697
			c7.407-5.351,22.069,1.199,24.414,3.794"/>
		<path clip-path="url(#SVGID_2_)" fill="#EFCF4B" d="M819.409,1492.652c0,0-5.369-3.159-5.896-10.005
			c-0.526-6.846-0.105-14.111,14.85-14.321c7.922-0.111,14.322,8.53,14.849,11.162
			C843.736,1482.121,819.409,1492.652,819.409,1492.652z"/>
		<path clip-path="url(#SVGID_2_)" fill="#EFCF4B" d="M872.908,1358.279c0,0-5.371-3.159-5.897-10.005s-0.105-14.112,14.85-14.321
			c7.922-0.111,14.322,8.529,14.848,11.161C897.234,1347.747,872.908,1358.279,872.908,1358.279z"/>
		<path clip-path="url(#SVGID_2_)" fill="#EFCF4B" d="M982.27,1286.668c0,0-6.95-6.635-19.903-5.056
			c-12.953,1.58-21.957,6.95-24.484,15.639c-2.526,8.688,7.74,9.952,8.846,10.268C947.834,1307.835,982.27,1286.668,982.27,1286.668
			z"/>
		<path clip-path="url(#SVGID_2_)" fill="#EFCF4B" d="M981.164,1302.464"/>
	</g>
</g>
<g id="Cheddar_Slice">
</g>
<g id="Eggplant_Patty">
</g>
<g id="Halloumi_Patty">
</g>
<g id="Beef_Patty">
</g>
<g id="Sourdough_Bun">
</g>
<g id="Rice_Bun">
</g>
<g id="Brioche_Bun">
</g>
</svg>
