<?xml version="1.0" encoding="utf-8"?>
<!-- Generator: Adobe Illustrator 16.0.0, SVG Export Plug-In . SVG Version: 6.00 Build 0)  -->
<!DOCTYPE svg PUBLIC "-//W3C//DTD SVG 1.1//EN" "http://www.w3.org/Graphics/SVG/1.1/DTD/svg11.dtd">
<svg version="1.1" xmlns="http://www.w3.org/2000/svg" xmlns:xlink="http://www.w3.org/1999/xlink" x="0px" y="0px"
	 width="487.61px" height="340.711px" viewBox="1050.646 1196.398 487.61 340.711"
	 enable-background="new 1050.646 1196.398 487.61 340.711" xml:space="preserve">
<g id="Tofu_Slice">
	<g>
		<defs>
			<path id="SVGID_1_" d="M1150.548,1424.539c0,0,130.493-175.492,134.993-181.491s137.993,17.999,137.993,17.999
				s1.966,22.953,1.966,25.453s-101,178-105.5,182.5s-163.5-26-165.5-26.5S1149.596,1428.578,1150.548,1424.539z"/>
		</defs>
		<clipPath id="SVGID_2_">
			<use xlink:href="#SVGID_1_"  overflow="visible"/>
		</clipPath>
		<polygon id="Fill_5_" clip-path="url(#SVGID_2_)" fill="#E2DDC7" points="1137.5,1426 1282,1236 1383,1248.5 1426.5,1258 
			1430,1286.5 1322,1474.5 1152.5,1447.5 		"/>
		<path clip-path="url(#SVGID_2_)" fill="#CEC8AF" d="M1422,1250.5c0,0,1,10.5-0.5,14s-106,184.5-113.5,183
			c0,0-144.404-16.922-157.452-22.961l-5.048,4.961l9,18.5l166.5,30l109.5-192l-6-30.5L1422,1250.5z"/>
		<path clip-path="url(#SVGID_2_)" fill="#CEC8AF" d="M1274,1274c6-1,36.5,0,40.5-0.5s18,0,18.5,3s-3.5,2.5-6.5,0.5s-3.5-4-6.5-4.5
			s-6.5,2.5-9,3.5s-10,1.5-10,1.5l-6.5-5.5l-17.5,7L1274,1274z"/>
		<path clip-path="url(#SVGID_2_)" fill="#CEC8AF" d="M1363,1299.5c0,0-11.5-3.5-14.5-1s-5,4.5-8.5,5
			c-0.526,0.075-1.188,0.061-1.934-0.02c-4.209-0.454-11.066-2.98-11.066-2.98l9.5-10c0,0,1.5-6-1.5-6s-7.5,1.5-5.5,2s4,2.5,4,2.5
			s3.5,3,2,5s-4,3-3.5,5.5s12.5,9,15,7.5s7-2,8.5-3s-1-1,1.5-4.5s6-12.5,7-6.5S1363,1299.5,1363,1299.5z"/>
		<path clip-path="url(#SVGID_2_)" fill="#CEC8AF" d="M1255.5,1308c3.859-1.834,6.907,5.331,6.907,5.331s7.409,4.826,9.183,5.149
			c1.773,0.324,6.075,3.787,7.117,2.709c1.043-1.078,3.057-7.477,3.057-7.477l6.016,0.252c0,0-3.859,1.833-0.983,4.613
			c0.627,0.605,1.374,1.327,2.157,2.085c2.813,2.72,6.111,5.908,6.111,5.908s5.572-5.045,2.396-4.638s-8.424,3.679-10.94,1.246
			s1.354-3.559,2.385-5.345c1.03-1.785,3.104-4.649,0.611-5.668c-2.492-1.019-3.774,6.782-5.92,5.404
			c-2.145-1.378-7.2-4.64-9.61-3.728c-1.935,0.732-3.439,5.716-7.729,2.959c-4.29-2.756-9.807-0.189-11.269-2.993
			S1255.5,1308,1255.5,1308z"/>
		<path clip-path="url(#SVGID_2_)" fill="#CEC8AF" d="M1238.388,1346.146c3.31-2.726,15.484-1.17,15.484-1.17
			s18.122,6.181,21.046,5.838c2.923-0.344,13.235,0.911,13.428-0.279c0.191-1.191-4.631-6.857-4.631-6.857l8.898-1.824
			c0,0-3.308,2.726,4.146,3.928c1.624,0.262,3.559,0.573,5.591,0.901c7.288,1.174,15.838,2.552,15.838,2.552
			s1.894-5.804-2.155-4.419c-4.047,1.384-7.61,5.697-14.132,4.646c-6.521-1.05-2.346-3.229-3.022-4.968
			c-0.677-1.739-1.16-4.668-5.946-4.624c-4.786,0.042,2.767,6.556-1.956,6.201c-4.723-0.354-15.105-4.537-17.977-1.07
			c-1.588,1.918,1.726,7.004-7.72,6.297c-9.445-0.708-15.968-1.76-21.429-3.454
			C1238.388,1346.146,1238.388,1346.146,1238.388,1346.146z"/>
		<path clip-path="url(#SVGID_2_)" fill="#CEC8AF" d="M1269.864,1289.937c2.829-3.202,9.08-1.349,9.08-1.349
			s7.912,7.307,9.671,6.908c1.758-0.398,7.074,1.098,7.609-0.304s-0.125-8.077-0.125-8.077l5.631-2.13c0,0-2.828,3.201,0.908,4.629
			c0.814,0.311,1.784,0.682,2.802,1.07c3.655,1.396,7.94,3.034,7.94,3.034s3.145-6.826,0.383-5.205
			c-2.76,1.621-6.303,6.69-9.572,5.44c-3.27-1.248-0.152-3.804,0.096-5.851c0.246-2.048,1.028-5.495-1.664-5.453
			c-2.691,0.042-0.809,7.72-3.322,7.294c-2.514-0.425-13.503-2.483-13.503-2.483s2.282,9.437-2.746,8.585
			c-5.026-0.851-4.606-3.041-7.052-5.046S1269.864,1289.937,1269.864,1289.937z"/>
		<path clip-path="url(#SVGID_2_)" fill="#CEC8AF" d="M1300,1324c6-1,36.5,0,40.5-0.5s18,0,18.5,3s-3.5,2.5-6.5,0.5s-3.5-4-6.5-4.5
			s-6.5,2.5-9,3.5s-10,1.5-10,1.5l-6.5-5.5l-17.5,7L1300,1324z"/>
		<path clip-path="url(#SVGID_2_)" fill="#CEC8AF" d="M1280.5,1365.5c2.55-5.522,36.5,0,40.5-0.5s18,0,18.5,3s-3.5,2.5-6.5,0.5
			s-3.5-4-6.5-4.5s-6.5,2.5-9,3.5s-10,1.5-10,1.5l-6.5-5.5l-17.5,7C1283.5,1370.5,1279.889,1366.823,1280.5,1365.5z"/>
		<path clip-path="url(#SVGID_2_)" fill="#CEC8AF" d="M1215,1374c6-1,36.5,0,40.5-0.5s18,0,18.5,3s-3.5,2.5-6.5,0.5s-3.5-4-6.5-4.5
			s-6.5,2.5-9,3.5s-10,1.5-10,1.5l-6.5-5.5l-17.5,7L1215,1374z"/>
		<path clip-path="url(#SVGID_2_)" fill="#CEC8AF" d="M1265,1388c6-1,36.5,0,40.5-0.5s18,0,18.5,3s-3.5,2.5-6.5,0.5s-3.5-4-6.5-4.5
			s-6.5,2.5-9,3.5s-10,1.5-10,1.5l-6.5-5.5l-17.5,7L1265,1388z"/>
		<path clip-path="url(#SVGID_2_)" fill="#CEC8AF" d="M1205.5,1392c6-1,36.5,0,40.5-0.5s18,0,18.5,3s-3.5,2.5-6.5,0.5
			s-3.5-4-6.5-4.5s-6.5,2.5-9,3.5s-10,1.5-10,1.5l-6.5-5.5l-17.5,7L1205.5,1392z"/>
		<path clip-path="url(#SVGID_2_)" fill="#CEC8AF" d="M1212.259,1411.439c3.31-2.726,15.484-1.17,15.484-1.17
			s18.122,6.181,21.046,5.838c2.923-0.344,13.235,0.911,13.428-0.279c0.191-1.191-4.631-6.857-4.631-6.857l8.898-1.824
			c0,0-3.308,2.726,4.146,3.928c1.624,0.262,3.559,0.573,5.591,0.901c7.288,1.174,15.838,2.552,15.838,2.552
			s1.894-5.804-2.155-4.419c-4.047,1.384-7.61,5.697-14.132,4.646c-6.521-1.05-2.346-3.229-3.022-4.968
			c-0.677-1.739-1.16-4.668-5.946-4.624c-4.786,0.042,2.767,6.556-1.956,6.201c-4.723-0.354-25.477-2.07-25.477-2.07
			s9.226,8.004-0.22,7.297c-9.445-0.708-15.968-1.76-21.429-3.454C1212.259,1411.439,1212.259,1411.439,1212.259,1411.439z"/>
		<path clip-path="url(#SVGID_2_)" fill="#CEC8AF" d="M1240.085,1330.807c2.384-1.853,8.126,0.355,8.126,0.355
			s7.535,6.298,9.102,6.269c1.566-0.028,6.447,1.793,6.855,0.881c0.409-0.913-0.545-5.72-0.545-5.72l4.972-0.693
			c0,0-2.384,1.852,1.065,3.397c0.753,0.338,1.648,0.738,2.589,1.16c3.374,1.511,7.331,3.284,7.331,3.284s2.474-4.367,0.068-3.62
			c-2.406,0.747-5.335,3.816-8.354,2.464s-0.34-2.707-0.227-4.117c0.113-1.409,0.637-3.731-1.793-4.09
			c-2.428-0.357-0.318,5.334-2.611,4.672c-2.292-0.662-12.323-3.696-12.323-3.696s2.563,6.989-2.022,5.666
			c-4.585-1.323-7.604-2.677-9.918-4.444C1240.085,1330.807,1240.085,1330.807,1240.085,1330.807z"/>
		<path clip-path="url(#SVGID_2_)" fill="#CEC8AF" d="M1361.5,1348.5c0,0-11.5-3.5-14.5-1s-5,4.5-8.5,5
			c-0.526,0.075-1.188,0.061-1.934-0.02c-4.209-0.454-11.066-2.98-11.066-2.98l9.5-10c0,0,1.5-6-1.5-6s-7.5,1.5-5.5,2s4,2.5,4,2.5
			s3.5,3,2,5s-4,3-3.5,5.5s12.5,9,15,7.5s7-2,8.5-3s-1-1,1.5-4.5s6-12.5,7-6.5S1361.5,1348.5,1361.5,1348.5z"/>
		<path clip-path="url(#SVGID_2_)" fill="#CEC8AF" d="M1253,1363c0,0-11.5-3.5-14.5-1s-5,4.5-8.5,5
			c-0.526,0.075-1.188,0.061-1.934-0.02c-4.209-0.454-11.066-2.98-11.066-2.98l9.5-10c0,0,1.5-6-1.5-6s-7.5,1.5-5.5,2s4,2.5,4,2.5
			s3.5,3,2,5s-4,3-3.5,5.5s12.5,9,15,7.5s7-2,8.5-3s-1-1,1.5-4.5s6-12.5,7-6.5S1253,1363,1253,1363z"/>
		<path clip-path="url(#SVGID_2_)" fill="#CEC8AF" d="M1340.616,1260.816c6.083-0.032,36.033,5.814,40.063,5.958
			c4.028,0.144,17.77,2.868,17.785,5.909s-3.854,1.91-6.496-0.542c-2.644-2.452-2.818-4.507-5.7-5.478
			c-2.882-0.972-6.815,1.432-9.442,2.021c-2.628,0.589-10.111-0.113-10.111-0.113l-5.541-6.465l-18.392,4.123L1340.616,1260.816z"/>
		<path clip-path="url(#SVGID_2_)" fill="#CEC8AF" d="M1342.846,1271.562c6.058,0.555,35.307,9.258,39.303,9.788
			c3.996,0.531,17.411,4.565,17.134,7.595c-0.277,3.028-4.02,1.53-6.414-1.165s-2.371-4.757-5.146-6.002
			c-2.774-1.244-6.921,0.77-9.593,1.104c-2.672,0.333-10.054-1.086-10.054-1.086l-4.893-6.969l-18.703,2.332L1342.846,1271.562z"/>
	</g>
</g>
<g id="Swiss_Slice">
</g>
<g id="Cheddar_Slice">
</g>
<g id="Eggplant_Patty">
</g>
<g id="Halloumi_Patty">
</g>
<g id="Beef_Patty">
</g>
<g id="Sourdough_Bun">
</g>
<g id="Rice_Bun">
</g>
<g id="Brioche_Bun">
</g>
</svg>
