<?xml version="1.0" encoding="utf-8"?>
<!-- Generator: Adobe Illustrator 16.0.0, SVG Export Plug-In . SVG Version: 6.00 Build 0)  -->
<!DOCTYPE svg PUBLIC "-//W3C//DTD SVG 1.1//EN" "http://www.w3.org/Graphics/SVG/1.1/DTD/svg11.dtd">
<svg version="1.1" xmlns="http://www.w3.org/2000/svg" xmlns:xlink="http://www.w3.org/1999/xlink" x="0px" y="0px"
	 width="487.61px" height="340.711px" viewBox="1097.276 1763.021 487.61 340.711"
	 enable-background="new 1097.276 1763.021 487.61 340.711" xml:space="preserve">
<g id="Pickles">
	<g>
		<defs>
			<path id="Pickle_Outline" d="M1293.386,1957.673c0,0,15.905-14,44.666-14c23.668,0,40,10,41,13s3.668,14-6,16
				c-4.881,1.01-15.579,4.148-27.384,5.494c-7.726,0.881-16.287,0.506-22.616,0.506c-16,0-34,0-35-7
				S1293.386,1957.673,1293.386,1957.673z"/>
		</defs>
		<clipPath id="Pickle_Outline_4_">
			<use xlink:href="#Pickle_Outline"  overflow="visible"/>
		</clipPath>
		<polygon id="Fill_7_" clip-path="url(#Pickle_Outline_4_)" fill="#AFAF33" points="1284.668,1973.167 1286.001,1964.5 
			1294.668,1953.5 1317.334,1943.5 1337.668,1941.5 1358.334,1944.167 1375.334,1950.167 1383.334,1958.167 1381.334,1970.167 
			1377.001,1973.5 1353.001,1979.167 1325.668,1980.833 1293.668,1979.5 		"/>
		<path clip-path="url(#Pickle_Outline_4_)" fill="#777400" d="M1281.334,1961.833c0,0,5.834,5.5,8.334,8.333
			c2.233,2.53,7.007,3.239,12,3.667c5.833,0.5,25.999,0.334,33.999,0.334s19-1.334,21-1.667s12.667-3,14.667-4
			s5.333-3.001,7.333-4.667s5.333-5.666,5-3.666s-0.999,2.666-2.666,7.333s-5.667,7-6.667,7s-22,4.333-22,4.333l-20.333,2.334
			l-32.667-0.334l-12-4.666L1281.334,1961.833z"/>
		<path clip-path="url(#Pickle_Outline_4_)" fill="#777400" d="M1277.834,1977.666l8.667-1.729l2.167-4.322
			c0,0,1.832,0.718,0.832-2.699c-0.414-1.416,0.313-4.448,1.25-5.771c1.167-1.646-0.083-2.853,8.75-8.558s12.583-5.965,12.583-5.965
			s11.583-3.457,13.833-3.457c2.501,0,10.377-1.211,18.417-0.604c5.667,0.432,13.583,2.42,13.583,2.42s9.25,3.113,9.917,3.544
			c0.667,0.432,8.5,4.462,9,4.808s1.937,2.68,2.083,3.317c0.5,2.183-0.916,5.744-1.083,6.35c-0.167,0.604-1.749,2.145-2.083,2.75
			s8.75-0.282,8.75-0.282s2.083-3.544,2.083-4.754c0-1.211-1.333-10.459-1.333-10.718c0-0.26-14.417-11.584-14.667-11.584
			s-44.167-4.494-44.167-4.494l-18.916,4.321c0,0-18.167,11.149-18.25,11.496s-8,11.15-8,11.41
			C1281.25,1963.404,1277.834,1977.666,1277.834,1977.666z"/>
		<path clip-path="url(#Pickle_Outline_4_)" fill="#9B982C" d="M1300.25,1963.25c-0.026-2.123,3.25-5.5,5.75-6.25s10-4.5,12.75-5.25
			s16-1.5,18-1.5s12,0,13.75,1s7.5,2.25,9,3c2.5,1.25,8.25,3,8,4.75s0,3.5-2.25,5c-0.883,0.588,2.25,2.25-9.75,3s-19.5,1.25-22.5,1
			s-8.75,0.25-14.5-0.25s-12.074-1.679-14-2C1301.5,1965.25,1300.266,1964.482,1300.25,1963.25z"/>
		<path clip-path="url(#Pickle_Outline_4_)" fill="#BFBB41" d="M1308.25,1955c0,0,4.75-2.25,5.5-2.25s2.75,2.25,3.5,2.5
			s5.75,1,6.5,1.25s8.25,0.75,9.5,0.75s11.25-2,11.25-2s7.25-1,8.5-2s2-2,2.75-2s5.25,1.5,5.25,1.5s0.5,2.75-0.75,2.75s-5,0-6,0
			s-8.25,2.5-8.25,2.5l-8.25,1.75c0,0-1,2.75-0.25,3.5s0.5,2,1.5,3s2.25,3.25,2.25,3.25s-8.25,1.5-9,0.5s1-0.5,0.75-2s-0.75-4-1-5
			s-1.75-1.75-3.75-2.25s-5.75-1.5-7.5-2s-8.5-1.75-9.5-1.75s-5.25,0-5.25,0L1308.25,1955z"/>
		<path clip-path="url(#Pickle_Outline_4_)" fill="#BFBB41" d="M1309.75,1960.916c1.366-2.049,6.427-0.928,5.834-0.249
			c-0.583,0.667,0.166,1.249-1.084,1.499s-1.5,0.25-3,0.25S1309.25,1961.666,1309.75,1960.916z"/>
		<path clip-path="url(#Pickle_Outline_4_)" fill="#BFBB41" d="M1319.167,1961.583c0,0-2.5,1.5-1.75,2.25s2.25,1.5,2.75,0.75
			s1.167-2.416,1.417-3.166C1322.031,1960.075,1319.167,1961.583,1319.167,1961.583z"/>
		<path clip-path="url(#Pickle_Outline_4_)" fill="#BFBB41" d="M1325.25,1963.25c-1.75,1-1.75,2-0.75,2.25s1.501,0.667,2.501,0.417
			s1.666-2.084,1.999-2.917C1329.622,1961.442,1325.25,1963.25,1325.25,1963.25z"/>
		<path clip-path="url(#Pickle_Outline_4_)" fill="#BFBB41" d="M1342.25,1962.75c0,0.75,1.25,2.25,2,2.25s1.251,0.75,2.25-0.25
			c0.774-0.775,0.334-0.667-0.75-1.5C1343.709,1961.682,1342.25,1962.75,1342.25,1962.75z"/>
		<path clip-path="url(#Pickle_Outline_4_)" fill="#BFBB41" d="M1346.75,1960.75c0,0.75,1.754,2.438,2.25,3
			c1.251,1.417,3.25,0.25,3.25,0.25s0.168-1.165,0-1.5c-0.351-0.7-2-1.5-2.75-1.5S1346.75,1960.75,1346.75,1960.75z"/>
		<path clip-path="url(#Pickle_Outline_4_)" fill="#BFBB41" d="M1354.5,1959.25c1,0.75,3,1.25,4,1.5s3.75-0.25,3.75-1.25s1-2-1-2
			s-2.75,0.75-4.25,1S1354.5,1959.25,1354.5,1959.25z"/>
		<path clip-path="url(#Pickle_Outline_4_)" fill="#BFBB41" d="M1325.75,1954.5c-0.75-0.5-1.317-1.39-0.999-2.083
			c0.236-0.514,0.249-0.667,1.499-0.667s2.5-0.75,2.5,0.5s0,1.25,0,1.25l-0.75,2.25L1325.75,1954.5z"/>
		<path clip-path="url(#Pickle_Outline_4_)" fill="#BFBB41" d="M1331.667,1954.583c-0.564-0.435-1.667-1.333-0.667-1.833
			s2.25-1.25,3.25-0.75s0.984,1.387,0.834,2.083c-0.157,0.729-0.82,1.757-1.5,1.917
			C1333.158,1956.101,1332.044,1954.873,1331.667,1954.583z"/>
		<path clip-path="url(#Pickle_Outline_4_)" fill="#BFBB41" d="M1340,1953.75c0,0,0.25-1.25,1-1.25s4.5-0.75,3.75,0
			s-1.5,1.25-2.5,1.5S1340,1953.75,1340,1953.75z"/>
	</g>
	<g>
		<defs>
			<path id="Pickle_Outline_1_" d="M1312.053,1946.506c0,0,15.905-14,44.666-14c23.668,0,40,10,41,13s3.668,14-6,16
				c-4.881,1.01-15.579,4.148-27.384,5.494c-7.726,0.881-16.287,0.506-22.616,0.506c-16,0-34,0-35-7
				S1312.053,1946.506,1312.053,1946.506z"/>
		</defs>
		<clipPath id="Pickle_Outline_5_">
			<use xlink:href="#Pickle_Outline_1_"  overflow="visible"/>
		</clipPath>
		<polygon id="Fill_8_" clip-path="url(#Pickle_Outline_5_)" fill="#AFAF33" points="1303.335,1962 1304.668,1953.333 
			1313.335,1942.333 1336.001,1932.333 1356.335,1930.333 1377.001,1933 1394.001,1939 1402.001,1947 1400.001,1959 
			1395.668,1962.333 1371.668,1968 1344.335,1969.666 1312.335,1968.333 		"/>
		<path clip-path="url(#Pickle_Outline_5_)" fill="#777400" d="M1300.001,1950.666c0,0,5.834,5.5,8.334,8.333
			c2.233,2.53,7.007,3.239,12,3.667c5.833,0.5,25.999,0.334,33.999,0.334s19-1.334,21-1.667s12.667-3,14.667-4
			s5.333-3.001,7.333-4.667s5.333-5.666,5-3.666s-0.999,2.666-2.666,7.333s-5.667,7-6.667,7s-22,4.333-22,4.333l-20.333,2.334
			l-32.667-0.334l-12-4.666L1300.001,1950.666z"/>
		<path clip-path="url(#Pickle_Outline_5_)" fill="#777400" d="M1296.501,1966.499l8.667-1.729l2.167-4.322
			c0,0,1.832,0.718,0.832-2.699c-0.414-1.416,0.313-4.448,1.25-5.771c1.167-1.646-0.083-2.853,8.75-8.558s12.583-5.965,12.583-5.965
			s11.583-3.457,13.833-3.457c2.501,0,10.377-1.211,18.417-0.604c5.667,0.432,13.583,2.42,13.583,2.42s9.25,3.113,9.917,3.544
			c0.667,0.432,8.5,4.462,9,4.808s1.937,2.68,2.083,3.317c0.5,2.183-0.916,5.744-1.083,6.35c-0.167,0.604-1.749,2.145-2.083,2.75
			s8.75-0.282,8.75-0.282s2.083-3.544,2.083-4.754c0-1.211-1.333-10.459-1.333-10.718c0-0.26-14.417-11.584-14.667-11.584
			s-44.167-4.494-44.167-4.494l-18.916,4.321c0,0-18.167,11.149-18.25,11.496s-8,11.15-8,11.41
			C1299.917,1952.237,1296.501,1966.499,1296.501,1966.499z"/>
		<path clip-path="url(#Pickle_Outline_5_)" fill="#9B982C" d="M1318.917,1952.083c-0.026-2.123,3.25-5.5,5.75-6.25
			s10-4.5,12.75-5.25s16-1.5,18-1.5s12,0,13.75,1s7.5,2.25,9,3c2.5,1.25,8.25,3,8,4.75s0,3.5-2.25,5c-0.883,0.588,2.25,2.25-9.75,3
			s-19.5,1.25-22.5,1s-8.75,0.25-14.5-0.25s-12.074-1.679-14-2C1320.167,1954.083,1318.933,1953.315,1318.917,1952.083z"/>
		<path clip-path="url(#Pickle_Outline_5_)" fill="#BFBB41" d="M1326.917,1943.833c0,0,4.75-2.25,5.5-2.25s2.75,2.25,3.5,2.5
			s5.75,1,6.5,1.25s8.25,0.75,9.5,0.75s11.25-2,11.25-2s7.25-1,8.5-2s2-2,2.75-2s5.25,1.5,5.25,1.5s0.5,2.75-0.75,2.75s-5,0-6,0
			s-8.25,2.5-8.25,2.5l-8.25,1.75c0,0-1,2.75-0.25,3.5s0.5,2,1.5,3s2.25,3.25,2.25,3.25s-8.25,1.5-9,0.5s1-0.5,0.75-2s-0.75-4-1-5
			s-1.75-1.75-3.75-2.25s-5.75-1.5-7.5-2s-8.5-1.75-9.5-1.75s-5.25,0-5.25,0L1326.917,1943.833z"/>
		<path clip-path="url(#Pickle_Outline_5_)" fill="#BFBB41" d="M1328.417,1949.749c1.366-2.049,6.427-0.928,5.834-0.249
			c-0.583,0.667,0.166,1.249-1.084,1.499s-1.5,0.25-3,0.25S1327.917,1950.499,1328.417,1949.749z"/>
		<path clip-path="url(#Pickle_Outline_5_)" fill="#BFBB41" d="M1337.834,1950.416c0,0-2.5,1.5-1.75,2.25s2.25,1.5,2.75,0.75
			s1.167-2.416,1.417-3.166C1340.698,1948.908,1337.834,1950.416,1337.834,1950.416z"/>
		<path clip-path="url(#Pickle_Outline_5_)" fill="#BFBB41" d="M1343.917,1952.083c-1.75,1-1.75,2-0.75,2.25
			s1.501,0.667,2.501,0.417s1.666-2.084,1.999-2.917C1348.289,1950.275,1343.917,1952.083,1343.917,1952.083z"/>
		<path clip-path="url(#Pickle_Outline_5_)" fill="#BFBB41" d="M1360.917,1951.583c0,0.75,1.25,2.25,2,2.25s1.251,0.75,2.25-0.25
			c0.774-0.775,0.334-0.667-0.75-1.5C1362.376,1950.515,1360.917,1951.583,1360.917,1951.583z"/>
		<path clip-path="url(#Pickle_Outline_5_)" fill="#BFBB41" d="M1365.417,1949.583c0,0.75,1.754,2.438,2.25,3
			c1.251,1.417,3.25,0.25,3.25,0.25s0.168-1.165,0-1.5c-0.351-0.7-2-1.5-2.75-1.5S1365.417,1949.583,1365.417,1949.583z"/>
		<path clip-path="url(#Pickle_Outline_5_)" fill="#BFBB41" d="M1373.167,1948.083c1,0.75,3,1.25,4,1.5s3.75-0.25,3.75-1.25s1-2-1-2
			s-2.75,0.75-4.25,1S1373.167,1948.083,1373.167,1948.083z"/>
		<path clip-path="url(#Pickle_Outline_5_)" fill="#BFBB41" d="M1344.417,1943.333c-0.75-0.5-1.317-1.39-0.999-2.083
			c0.236-0.514,0.249-0.667,1.499-0.667s2.5-0.75,2.5,0.5s0,1.25,0,1.25l-0.75,2.25L1344.417,1943.333z"/>
		<path clip-path="url(#Pickle_Outline_5_)" fill="#BFBB41" d="M1350.334,1943.416c-0.564-0.435-1.667-1.333-0.667-1.833
			s2.25-1.25,3.25-0.75s0.984,1.387,0.834,2.083c-0.157,0.729-0.82,1.757-1.5,1.917
			C1351.825,1944.934,1350.711,1943.706,1350.334,1943.416z"/>
		<path clip-path="url(#Pickle_Outline_5_)" fill="#BFBB41" d="M1358.667,1942.583c0,0,0.25-1.25,1-1.25s4.5-0.75,3.75,0
			s-1.5,1.25-2.5,1.5S1358.667,1942.583,1358.667,1942.583z"/>
	</g>
	<g>
		<defs>
			<path id="Pickle_Outline_2_" d="M1307.636,1934.423c0,0,15.905-14,44.666-14c23.668,0,40,10,41,13s3.668,14-6,16
				c-4.881,1.01-15.579,4.148-27.384,5.494c-7.726,0.881-16.287,0.506-22.616,0.506c-16,0-34,0-35-7
				S1307.636,1934.423,1307.636,1934.423z"/>
		</defs>
		<clipPath id="Pickle_Outline_6_">
			<use xlink:href="#Pickle_Outline_2_"  overflow="visible"/>
		</clipPath>
		<polygon id="Fill_9_" clip-path="url(#Pickle_Outline_6_)" fill="#AFAF33" points="1298.918,1949.917 1300.251,1941.25 
			1308.918,1930.25 1331.584,1920.25 1351.918,1918.25 1372.584,1920.917 1389.584,1926.917 1397.584,1934.917 1395.584,1946.917 
			1391.251,1950.25 1367.251,1955.917 1339.918,1957.583 1307.918,1956.25 		"/>
		<path clip-path="url(#Pickle_Outline_6_)" fill="#777400" d="M1295.584,1938.583c0,0,5.834,5.5,8.334,8.333
			c2.233,2.53,7.007,3.239,12,3.667c5.833,0.5,25.999,0.334,33.999,0.334s19-1.334,21-1.667s12.667-3,14.667-4
			s5.333-3.001,7.333-4.667s5.333-5.666,5-3.666s-0.999,2.666-2.666,7.333s-5.667,7-6.667,7s-22,4.333-22,4.333l-20.333,2.334
			l-32.667-0.334l-12-4.666L1295.584,1938.583z"/>
		<path clip-path="url(#Pickle_Outline_6_)" fill="#777400" d="M1292.084,1954.416l8.667-1.729l2.167-4.322
			c0,0,1.832,0.718,0.832-2.699c-0.414-1.416,0.313-4.448,1.25-5.771c1.167-1.646-0.083-2.853,8.75-8.558s12.583-5.965,12.583-5.965
			s11.583-3.457,13.833-3.457c2.501,0,10.377-1.211,18.417-0.604c5.667,0.432,13.583,2.42,13.583,2.42s9.25,3.113,9.917,3.544
			c0.667,0.432,8.5,4.462,9,4.808s1.937,2.68,2.083,3.317c0.5,2.183-0.916,5.744-1.083,6.35c-0.167,0.604-1.749,2.145-2.083,2.75
			s8.75-0.282,8.75-0.282s2.083-3.544,2.083-4.754c0-1.211-1.333-10.459-1.333-10.718c0-0.26-14.417-11.584-14.667-11.584
			s-44.167-4.494-44.167-4.494l-18.916,4.321c0,0-18.167,11.149-18.25,11.496s-8,11.15-8,11.41
			C1295.5,1940.154,1292.084,1954.416,1292.084,1954.416z"/>
		<path clip-path="url(#Pickle_Outline_6_)" fill="#9B982C" d="M1314.5,1940c-0.026-2.123,3.25-5.5,5.75-6.25s10-4.5,12.75-5.25
			s16-1.5,18-1.5s12,0,13.75,1s7.5,2.25,9,3c2.5,1.25,8.25,3,8,4.75s0,3.5-2.25,5c-0.883,0.588,2.25,2.25-9.75,3s-19.5,1.25-22.5,1
			s-8.75,0.25-14.5-0.25s-12.074-1.679-14-2C1315.75,1942,1314.516,1941.232,1314.5,1940z"/>
		<path clip-path="url(#Pickle_Outline_6_)" fill="#BFBB41" d="M1322.5,1931.75c0,0,4.75-2.25,5.5-2.25s2.75,2.25,3.5,2.5
			s5.75,1,6.5,1.25s8.25,0.75,9.5,0.75s11.25-2,11.25-2s7.25-1,8.5-2s2-2,2.75-2s5.25,1.5,5.25,1.5s0.5,2.75-0.75,2.75s-5,0-6,0
			s-8.25,2.5-8.25,2.5l-8.25,1.75c0,0-1,2.75-0.25,3.5s0.5,2,1.5,3s2.25,3.25,2.25,3.25s-8.25,1.5-9,0.5s1-0.5,0.75-2s-0.75-4-1-5
			s-1.75-1.75-3.75-2.25s-5.75-1.5-7.5-2s-8.5-1.75-9.5-1.75s-5.25,0-5.25,0L1322.5,1931.75z"/>
		<path clip-path="url(#Pickle_Outline_6_)" fill="#BFBB41" d="M1324,1937.666c1.366-2.049,6.427-0.928,5.834-0.249
			c-0.583,0.667,0.166,1.249-1.084,1.499s-1.5,0.25-3,0.25S1323.5,1938.416,1324,1937.666z"/>
		<path clip-path="url(#Pickle_Outline_6_)" fill="#BFBB41" d="M1333.417,1938.333c0,0-2.5,1.5-1.75,2.25s2.25,1.5,2.75,0.75
			s1.167-2.416,1.417-3.166C1336.281,1936.825,1333.417,1938.333,1333.417,1938.333z"/>
		<path clip-path="url(#Pickle_Outline_6_)" fill="#BFBB41" d="M1339.5,1940c-1.75,1-1.75,2-0.75,2.25s1.501,0.667,2.501,0.417
			s1.666-2.084,1.999-2.917C1343.872,1938.192,1339.5,1940,1339.5,1940z"/>
		<path clip-path="url(#Pickle_Outline_6_)" fill="#BFBB41" d="M1356.5,1939.5c0,0.75,1.25,2.25,2,2.25s1.251,0.75,2.25-0.25
			c0.774-0.775,0.334-0.667-0.75-1.5C1357.959,1938.432,1356.5,1939.5,1356.5,1939.5z"/>
		<path clip-path="url(#Pickle_Outline_6_)" fill="#BFBB41" d="M1361,1937.5c0,0.75,1.754,2.438,2.25,3
			c1.251,1.417,3.25,0.25,3.25,0.25s0.168-1.165,0-1.5c-0.351-0.7-2-1.5-2.75-1.5S1361,1937.5,1361,1937.5z"/>
		<path clip-path="url(#Pickle_Outline_6_)" fill="#BFBB41" d="M1368.75,1936c1,0.75,3,1.25,4,1.5s3.75-0.25,3.75-1.25s1-2-1-2
			s-2.75,0.75-4.25,1S1368.75,1936,1368.75,1936z"/>
		<path clip-path="url(#Pickle_Outline_6_)" fill="#BFBB41" d="M1340,1931.25c-0.75-0.5-1.317-1.39-0.999-2.083
			c0.236-0.514,0.249-0.667,1.499-0.667s2.5-0.75,2.5,0.5s0,1.25,0,1.25l-0.75,2.25L1340,1931.25z"/>
		<path clip-path="url(#Pickle_Outline_6_)" fill="#BFBB41" d="M1345.917,1931.333c-0.564-0.435-1.667-1.333-0.667-1.833
			s2.25-1.25,3.25-0.75s0.984,1.387,0.834,2.083c-0.157,0.729-0.82,1.757-1.5,1.917
			C1347.408,1932.851,1346.294,1931.623,1345.917,1931.333z"/>
		<path clip-path="url(#Pickle_Outline_6_)" fill="#BFBB41" d="M1354.25,1930.5c0,0,0.25-1.25,1-1.25s4.5-0.75,3.75,0
			s-1.5,1.25-2.5,1.5S1354.25,1930.5,1354.25,1930.5z"/>
	</g>
	<g>
		<defs>
			<path id="Pickle_Outline_3_" d="M1319.886,1922.59c0,0,15.905-14,44.666-14c23.668,0,40,10,41,13s3.668,14-6,16
				c-4.881,1.01-15.579,4.148-27.384,5.494c-7.726,0.881-16.287,0.506-22.616,0.506c-16,0-34,0-35-7
				S1319.886,1922.59,1319.886,1922.59z"/>
		</defs>
		<clipPath id="Pickle_Outline_7_">
			<use xlink:href="#Pickle_Outline_3_"  overflow="visible"/>
		</clipPath>
		<polygon id="Fill_10_" clip-path="url(#Pickle_Outline_7_)" fill="#AFAF33" points="1311.168,1938.084 1312.501,1929.417 
			1321.168,1918.417 1343.834,1908.417 1364.168,1906.417 1384.834,1909.084 1401.834,1915.084 1409.834,1923.084 
			1407.834,1935.084 1403.501,1938.417 1379.501,1944.084 1352.168,1945.75 1320.168,1944.417 		"/>
		<path clip-path="url(#Pickle_Outline_7_)" fill="#777400" d="M1307.834,1926.75c0,0,5.834,5.5,8.334,8.333
			c2.233,2.53,7.007,3.239,12,3.667c5.833,0.5,25.999,0.334,33.999,0.334s19-1.334,21-1.667s12.667-3,14.667-4
			s5.333-3.001,7.333-4.667s5.333-5.666,5-3.666s-0.999,2.666-2.666,7.333s-5.667,7-6.667,7s-22,4.333-22,4.333l-20.333,2.334
			l-32.667-0.334l-12-4.666L1307.834,1926.75z"/>
		<path clip-path="url(#Pickle_Outline_7_)" fill="#777400" d="M1304.334,1942.583l8.667-1.729l2.167-4.322
			c0,0,1.832,0.718,0.832-2.699c-0.414-1.416,0.313-4.448,1.25-5.771c1.167-1.646-0.083-2.853,8.75-8.558s12.583-5.965,12.583-5.965
			s11.583-3.457,13.833-3.457c2.501,0,10.377-1.211,18.417-0.604c5.667,0.432,13.583,2.42,13.583,2.42s9.25,3.113,9.917,3.544
			c0.667,0.432,8.5,4.462,9,4.808s1.937,2.68,2.083,3.317c0.5,2.183-0.916,5.744-1.083,6.35c-0.167,0.604-1.749,2.145-2.083,2.75
			s8.75-0.282,8.75-0.282s2.083-3.544,2.083-4.754c0-1.211-1.333-10.459-1.333-10.718c0-0.26-14.417-11.584-14.667-11.584
			s-44.167-4.494-44.167-4.494l-18.916,4.321c0,0-18.167,11.149-18.25,11.496s-8,11.15-8,11.41
			C1307.75,1928.321,1304.334,1942.583,1304.334,1942.583z"/>
		<path clip-path="url(#Pickle_Outline_7_)" fill="#9B982C" d="M1326.75,1928.167c-0.026-2.123,3.25-5.5,5.75-6.25
			s10-4.5,12.75-5.25s16-1.5,18-1.5s12,0,13.75,1s7.5,2.25,9,3c2.5,1.25,8.25,3,8,4.75s0,3.5-2.25,5c-0.883,0.588,2.25,2.25-9.75,3
			s-19.5,1.25-22.5,1s-8.75,0.25-14.5-0.25s-12.074-1.679-14-2C1328,1930.167,1326.766,1929.399,1326.75,1928.167z"/>
		<path clip-path="url(#Pickle_Outline_7_)" fill="#BFBB41" d="M1334.75,1919.917c0,0,4.75-2.25,5.5-2.25s2.75,2.25,3.5,2.5
			s5.75,1,6.5,1.25s8.25,0.75,9.5,0.75s11.25-2,11.25-2s7.25-1,8.5-2s2-2,2.75-2s5.25,1.5,5.25,1.5s0.5,2.75-0.75,2.75s-5,0-6,0
			s-8.25,2.5-8.25,2.5l-8.25,1.75c0,0-1,2.75-0.25,3.5s0.5,2,1.5,3s2.25,3.25,2.25,3.25s-8.25,1.5-9,0.5s1-0.5,0.75-2s-0.75-4-1-5
			s-1.75-1.75-3.75-2.25s-5.75-1.5-7.5-2s-8.5-1.75-9.5-1.75s-5.25,0-5.25,0L1334.75,1919.917z"/>
		<path clip-path="url(#Pickle_Outline_7_)" fill="#BFBB41" d="M1336.25,1925.833c1.366-2.049,6.427-0.928,5.834-0.249
			c-0.583,0.667,0.166,1.249-1.084,1.499s-1.5,0.25-3,0.25S1335.75,1926.583,1336.25,1925.833z"/>
		<path clip-path="url(#Pickle_Outline_7_)" fill="#BFBB41" d="M1345.667,1926.5c0,0-2.5,1.5-1.75,2.25s2.25,1.5,2.75,0.75
			s1.167-2.416,1.417-3.166C1348.531,1924.992,1345.667,1926.5,1345.667,1926.5z"/>
		<path clip-path="url(#Pickle_Outline_7_)" fill="#BFBB41" d="M1351.75,1928.167c-1.75,1-1.75,2-0.75,2.25s1.501,0.667,2.501,0.417
			s1.666-2.084,1.999-2.917C1356.122,1926.359,1351.75,1928.167,1351.75,1928.167z"/>
		<path clip-path="url(#Pickle_Outline_7_)" fill="#BFBB41" d="M1368.75,1927.667c0,0.75,1.25,2.25,2,2.25s1.251,0.75,2.25-0.25
			c0.774-0.775,0.334-0.667-0.75-1.5C1370.209,1926.599,1368.75,1927.667,1368.75,1927.667z"/>
		<path clip-path="url(#Pickle_Outline_7_)" fill="#BFBB41" d="M1373.25,1925.667c0,0.75,1.754,2.438,2.25,3
			c1.251,1.417,3.25,0.25,3.25,0.25s0.168-1.165,0-1.5c-0.351-0.7-2-1.5-2.75-1.5S1373.25,1925.667,1373.25,1925.667z"/>
		<path clip-path="url(#Pickle_Outline_7_)" fill="#BFBB41" d="M1381,1924.167c1,0.75,3,1.25,4,1.5s3.75-0.25,3.75-1.25s1-2-1-2
			s-2.75,0.75-4.25,1S1381,1924.167,1381,1924.167z"/>
		<path clip-path="url(#Pickle_Outline_7_)" fill="#BFBB41" d="M1352.25,1919.417c-0.75-0.5-1.317-1.39-0.999-2.083
			c0.236-0.514,0.249-0.667,1.499-0.667s2.5-0.75,2.5,0.5s0,1.25,0,1.25l-0.75,2.25L1352.25,1919.417z"/>
		<path clip-path="url(#Pickle_Outline_7_)" fill="#BFBB41" d="M1358.167,1919.5c-0.564-0.435-1.667-1.333-0.667-1.833
			s2.25-1.25,3.25-0.75s0.984,1.387,0.834,2.083c-0.157,0.729-0.82,1.757-1.5,1.917
			C1359.658,1921.018,1358.544,1919.79,1358.167,1919.5z"/>
		<path clip-path="url(#Pickle_Outline_7_)" fill="#BFBB41" d="M1366.5,1918.667c0,0,0.25-1.25,1-1.25s4.5-0.75,3.75,0
			s-1.5,1.25-2.5,1.5S1366.5,1918.667,1366.5,1918.667z"/>
	</g>
</g>
<g id="Tomato">
</g>
<g id="Lettuce">
</g>
<g id="Tofu_Slice">
</g>
<g id="Swiss_Slice">
</g>
<g id="Cheddar_Slice">
</g>
<g id="Eggplant_Patty">
</g>
<g id="Halloumi_Patty">
</g>
<g id="Beef_Patty">
</g>
<g id="Sourdough_Bun">
</g>
<g id="Rice_Bun">
</g>
<g id="Brioche_Bun">
</g>
</svg>
