<?xml version="1.0" encoding="utf-8"?>
<!-- Generator: Adobe Illustrator 16.0.0, SVG Export Plug-In . SVG Version: 6.00 Build 0)  -->
<!DOCTYPE svg PUBLIC "-//W3C//DTD SVG 1.1//EN" "http://www.w3.org/Graphics/SVG/1.1/DTD/svg11.dtd">
<svg version="1.1" xmlns="http://www.w3.org/2000/svg" xmlns:xlink="http://www.w3.org/1999/xlink" x="0px" y="0px"
	 width="487.61px" height="340.711px" viewBox="10.07 1763.021 487.61 340.711"
	 enable-background="new 10.07 1763.021 487.61 340.711" xml:space="preserve">
<g id="Pickles">
</g>
<g id="Tomato">
</g>
<g id="Lettuce">
	<g>
		<defs>
			<path id="Lettuce_1_" d="M86.334,1934.836c0,0-4.666-16.001,2.667-13.334s10,11.333,14,12s8.666,6.001,13.333,1.334
				s8.667-6.001,10.667-3.334s24.666,16.667,29.333,18.667s9.333-3.334,11.333-4.667s-1.333-10.667,2.667-16s27.333-10.667,31.333-6
				s16,13.334,21.333,17.334s9.333,6,13.333,3.333s6.667-8.667,11.333-8s8,2.667,9.333,8.667s8.666,17.333,15.333,13.333
				s2.667-10-0.667-12s-5.333-9.333-1.333-12s22.001-6,25.334-2s6.667,20.666,14,17.333s17.332-1.333,18.666-7.333
				s4-17.999,6-19.333s5.334-6.667,8.667-10.667s12.001-2.001,12.667,1.333s-10.667,11.333-6.667,14s11.999,6.001,15.333,1.334
				s10-5.334,10-1.334s-2.666,15.333,4.667,18s13.333,4.668,13.333,7.334s5.334,3.999,9.334,4.666s9.332,0.001,12.666-6.666
				s6.667-14.667,10.667-16.667s15.333-2.666,16,0.667s-3.333,12.666-6,11.333s-2.666-9.333-5.333-8s-4.666,5.333-4,12
				s9.333,23.333-2.667,28s-21.999,13.333-27.333,6s-2-15.333-6.667-20s-15.999-6.667-17.333-2s-6.668,6.667-15.334,8.667
				s-10.666-2.666-17.333-6s-18,0-26,4s-30,8.667-33.333,4s-12.667-10.667-16-10.667s-5.333,8.667-17.333,8
				s-21.333-2.666-25.333-7.333s-6-12-15.333-12s-4.667,2-18.667,5.333s-17.334,8.666-26.667,9.333s-11.333-7.333-21.333-5.333
				s-11.333,6.667-21.333,8s-20,4.667-25.333-3.333s-5.333-8.666-4.667-16s-1.333-4.666-4.667-8s-8.667-8.667-8-10.667
				s6-3.333,6.667,0.667s4.667,11.332,5.333,8.666S86.334,1934.836,86.334,1934.836z"/>
		</defs>
		<clipPath id="Lettuce_2_">
			<use xlink:href="#Lettuce_1_"  overflow="visible"/>
		</clipPath>
		<path clip-path="url(#Lettuce_2_)" fill="#1BCC1B" d="M78.334,1919.503l250-12l124.667,4l-32,88.667l-64-24.667
			c0,0-250.631,12.271-252,10.667l-36.667-49.333L78.334,1919.503z"/>
		<path clip-path="url(#Lettuce_2_)" fill="#00AB00" d="M72.333,1932.5c0,0,3-3.333,4.333-2s1.333,2.667,3.333,4.667
			s4.667,6.334,6.667,7s6.334-0.666,5.667,2s-4.667,8.666-2.333,11.666s8.333,11.334,12.333,9.667s6-10,9-12s9.333-4.333,10-1.333
			s1.667,6,4.667,6s4-2,7.333-3.667s5.333-3.333,8-0.333S154,1963.5,159,1961.5s6-2,8.333-7s3.333-8,5.333-11s1-3.333,8.667-3
			s11.667,3.333,14-1s0.667-7.334,4.333-6.667s12,5.667,11.333,10.667s4,3,7.333,6s3.667,7.667,10,8s13.333-3.334,16,2.333
			s7,6.334,10.333,4.667s3.333-4.001,6.333-4.667s3.5-1.333,8,0.334c5.313,1.969,9.333,10.667,15.333,11s9.667,5.999,14.333-1.334
			s-0.333-7.333,7-9.333s6.666,1,15.333-1s10.667,0.667,13.667-5s0.667-9,9-11s13.999-4.667,15.666,1.333s-4.666,7.666,3.334,9
			s3.667,2.668,13,1.334s8.666-5,13.333,0.333s11.667-1.667,11,11s-5.333,15.334,2.667,15.667s12-9.668,16-12.334
			s10.334-7,6.667-13.333s-7-8.334-5-11.667s3.334-6.666,6-6.666s3.667-2.666,6-3s5.333-0.668,5.333,1.666s-0.667,3,1.333,4s6-1,3,3
			s-5.999,4.334-7.666,4.667s-2,19-2,22s-0.334,7.999-4.667,9.333S404,1992.167,399,1991.167s-10.667-4.666-12-11
			s-12.667-17.001-15-14.334s-7,12.667-20,9.667s-18.666-9.001-26.666-5.667s-24,8.668-35,7.334c-11-1.334-19-0.666-22-4
			s-1-0.333-12.333,1s-26,4.332-35-1.334s-9.333-10.332-18.667-12.666S177,1964.499,170,1968.166s-26,1.667-29.333-0.333
			s-0.667,2.333-13,5.333s-33.333,7.667-38,3.667s-10-8.667-9-14.667s2.667-11.666-3.333-15.333S65,1938.167,69.667,1935.5
			S72.333,1932.5,72.333,1932.5z"/>
		<path clip-path="url(#Lettuce_2_)" fill="#00AB00" d="M265.5,1934.5c0,0,3.25,4.75,6.25,5.25s7.75-1.25,9.75,0s7.5,0.75,5.5,4.5
			s-2.25,6.25-5.75,7.5s-2,5.5-5.75,4.75s-3.5,0.5-6.25-3.5s-7.5-8.25-7-12.25S265.5,1934.5,265.5,1934.5z"/>
		<path clip-path="url(#Lettuce_2_)" fill="#00AB00" d="M360.75,1914.75c0,0-4.5-1.75-8.5,0.5s-5.5,1.75-6.75,4.25s-3.5,4.25-1,5.75
			s4,2.5,5,4.5s1.75,5.75,5.25,3s1.5-4,5.5-6s2.5,1,3.5,2.5s3,4.25,4,2s-0.25-1.75,0-4.25s1.25-1.75,1.75-5.25s0.25-5.5-2.5-5.5
			S360.75,1914.75,360.75,1914.75z"/>
	</g>
</g>
<g id="Tofu_Slice">
</g>
<g id="Swiss_Slice">
</g>
<g id="Cheddar_Slice">
</g>
<g id="Eggplant_Patty">
</g>
<g id="Halloumi_Patty">
</g>
<g id="Beef_Patty">
</g>
<g id="Sourdough_Bun">
</g>
<g id="Rice_Bun">
</g>
<g id="Brioche_Bun">
</g>
</svg>
