<?xml version="1.0" encoding="utf-8"?>
<!-- Generator: Adobe Illustrator 16.0.0, SVG Export Plug-In . SVG Version: 6.00 Build 0)  -->
<!DOCTYPE svg PUBLIC "-//W3C//DTD SVG 1.1//EN" "http://www.w3.org/Graphics/SVG/1.1/DTD/svg11.dtd">
<svg version="1.1" xmlns="http://www.w3.org/2000/svg" xmlns:xlink="http://www.w3.org/1999/xlink" x="0px" y="0px"
	 width="487.61px" height="340.71px" viewBox="565.671 1757.023 487.61 340.71"
	 enable-background="new 565.671 1757.023 487.61 340.71" xml:space="preserve">
<g id="Pickles">
</g>
<g id="Tomato">
	<g>
		<defs>
			<path id="Tomato_Outline" d="M634.998,1948.166c4.666,6.667,42.752,23.834,78.666,26.667
				c28.443,2.244,154.616,0.854,164.336-0.833c32.407-5.622,65.664-27.168,67.664-33.834s1.92-15.832,0.586-19.166
				s-56.586-10.168-66.586-10.834s-102-3.332-120-2.666s-91.333,10.667-95.333,12s-18.837,4.332-22.331,5.75
				c-3.081,1.25-6.25,1.25-7.25,4.75s-2.748,15.334-1.25,16.75S634.998,1948.166,634.998,1948.166z"/>
		</defs>
		<clipPath id="Tomato_Outline_1_">
			<use xlink:href="#Tomato_Outline"  overflow="visible"/>
		</clipPath>
		<path id="Fill_6_" clip-path="url(#Tomato_Outline_1_)" fill="#F8000B" d="M621,1948.834c0,0,3.333-26,10-28
			s22.666-7.334,39.333-7.334s85.334-9.333,89.334-9.333s46,0,46,0l72.666,2.667l51.334,4.666l19.333,7.334l2,8v10.666l-8.667,12
			L895,1976.167l-95.333,2.667L681,1974.167l-44.667-14.667L621,1948.834z"/>
		<path clip-path="url(#Tomato_Outline_1_)" fill="#EF5A0F" d="M643.667,1929.5c0,0,5.334,4,10,4.667s17.999,0.001,20.666,2.667
			s20.001,4,23.334,4s20,1.334,22,2s10,2.666,13.333,0.666s16.001-2.666,20.667-1.333s29.334,6.666,34,5.333
			s25.999-5.332,30.666-2.666s23.333,4.666,28,3.333s30.668-1.333,35.334-1.333s14.666-2.666,18.666-6s10.667-4.666,16.667-6
			s13.333-4.668,16-7.334s10-4,10-4s-5.334-1.999-8.667-2.666s-14.666-1.334-17.333-2.667s-11.333-2.667-15.333-2.667
			s-27.334-0.666-27.334-0.666s-6-2-12-2s-15.332,1.333-18.666-0.667s-9.334,0-14.667,0s-20.001,0.666-22.667-0.667s-14-2-18-2
			s-24,0-24,0s-4.666,0.666-9.333,2s-11.333,2.001-13.333,1.334s-11.333-1.333-14,0s-12,4-14,4s-12.666-2-14,0
			s-10.668,2.666-15.334,2.666s-11.334-0.666-14,1.334s-10.666,2.667-13.333,2s-7.333,1.332-9.333,2.666
			S643.667,1929.5,643.667,1929.5z"/>
		<path clip-path="url(#Tomato_Outline_1_)" fill="#F27711" d="M694.333,1932.834c0,0-16.666-2-13.333-4s13.333-4.001,17.333-5.334
			s10-2,12.667,0s17.333,4.667,20,4.667s19.333,1.334,21.333,0.667s10.668-1.334,13.334-1.334s3.333-3.333,3.333-5.333
			s-6.666-3.333-9.333-4s-0.001-4.001,2.666-4.667s10.666,0.001,14-0.666s18.667,2,22.667,2s17.333,1.333,20,1.333s12-0.667,14,0
			s-1.333,3.999-4,5.333s-8,4.667-6,6.667s10.667,2.666,14.667,1.333s5.334-2.666,28-3.333s21.332-0.001,26.666-0.667
			s19.334-0.667,18.667,2s-14.667,7.334-18,9.334s-16,5.332-18,4.666s-16.667,0.666-24.667-2s-23.334,0.001-28-2.666
			s-14.667-1.334-22-1.334s-20.666,0.667-25.333,2.667s-24-1.333-32-1.333s-22,0.667-28,0S694.333,1932.834,694.333,1932.834z"/>
	</g>
	<path fill="#EF9B14" d="M835.5,1920.75c1.25-1,1.5-2.25,3.25-2.25s3.5,1.5,3.5,1.5s-2,1-3,1S835.5,1920.75,835.5,1920.75z"/>
	<path fill="#EF9B14" d="M848.5,1920.25c1.75-1,5.25-1.75,5.5-1s-1.5,2.5-2.25,2.5S848,1922,848,1922L848.5,1920.25z"/>
	<path fill="#EF9B14" d="M857.813,1920.5c1.75-1,5.25-1.75,5.5-1s-1.5,2.5-2.25,2.5s-3.75,0.25-3.75,0.25L857.813,1920.5z"/>
	<path fill="#EF9B14" d="M865.344,1921.018c1.836-0.833,5.391-1.254,5.569-0.484c0.18,0.771-1.726,2.35-2.473,2.28
		c-0.747-0.07-3.757-0.101-3.757-0.101L865.344,1921.018z"/>
	<path fill="#EF9B14" d="M872.594,1922.268c1.836-0.833,5.391-1.254,5.569-0.484c0.18,0.771-1.726,2.35-2.473,2.28
		c-0.747-0.07-3.757-0.101-3.757-0.101L872.594,1922.268z"/>
	<path fill="#EF9B14" d="M880.837,1922.716c1.953-0.499,5.526-0.292,5.567,0.497c0.043,0.79-2.109,2.012-2.833,1.813
		c-0.724-0.2-3.682-0.756-3.682-0.756L880.837,1922.716z"/>
	<path fill="#EF9B14" d="M827.787,1939.639c0.669,1.542,0.182,2.112-1.482,2.278c-1.334,0.133-2.578-1.349-2.236-1.715
		c0.349-0.367,1.403-1.368,1.403-1.368L827.787,1939.639z"/>
	<path fill="#EF9B14" d="M812.808,1939.973c0.669,1.542,0.182,2.112-1.484,2.278c-1.333,0.133-2.577-1.349-2.234-1.715
		c0.349-0.367,1.403-1.368,1.403-1.368L812.808,1939.973z"/>
	<path fill="#EF9B14" d="M800.338,1940.808c-0.239,1.603-1.004,1.995-2.631,1.694c-1.302-0.241-1.626-1.945-1.106-2.189
		c0.523-0.243,2.05-0.878,2.05-0.878L800.338,1940.808z"/>
	<path fill="#EF9B14" d="M776.73,1940.308c-0.513,1.571-1.338,1.896-2.903,1.461c-1.25-0.35-1.279-2.068-0.723-2.268
		c0.563-0.197,2.188-0.698,2.188-0.698L776.73,1940.308z"/>
	<path fill="#EF9B14" d="M788.33,1939.89c-0.24,1.603-1.005,1.995-2.633,1.694c-1.3-0.241-1.626-1.945-1.105-2.189
		c0.523-0.243,2.051-0.878,2.051-0.878L788.33,1939.89z"/>
	<path fill="#EF9B14" d="M710.832,1921.234c1.086,1.102,1.304,2.479,2.824,2.479c1.521,0,3.042-1.652,3.042-1.652
		s-1.738-1.102-2.607-1.102S710.832,1921.234,710.832,1921.234z"/>
	<path fill="#EF9B14" d="M722.13,1921.785c1.521,1.102,4.563,1.928,4.779,1.102c0.218-0.826-1.304-2.754-1.955-2.754
		s-3.259-0.275-3.259-0.275L722.13,1921.785z"/>
	<path fill="#EF9B14" d="M730.223,1921.51c1.521,1.102,4.563,1.928,4.779,1.102c0.218-0.826-1.303-2.754-1.955-2.754
		c-0.651,0-3.259-0.276-3.259-0.276L730.223,1921.51z"/>
	<path fill="#EF9B14" d="M736.768,1920.939c1.596,0.918,4.685,1.381,4.84,0.533c0.156-0.849-1.499-2.588-2.148-2.512
		c-0.649,0.077-3.265,0.11-3.265,0.11L736.768,1920.939z"/>
	<path fill="#EF9B14" d="M743.068,1919.563c1.596,0.917,4.685,1.381,4.84,0.533c0.156-0.849-1.499-2.589-2.148-2.512
		s-3.266,0.11-3.266,0.11L743.068,1919.563z"/>
	<path fill="#EF9B14" d="M750.232,1919.068c1.697,0.55,4.803,0.321,4.838-0.548c0.037-0.87-1.833-2.216-2.462-1.997
		c-0.629,0.221-3.199,0.833-3.199,0.833L750.232,1919.068z"/>
	<path fill="#EF9B14" d="M820.483,1939.887c0.669,1.542,0.182,2.112-1.482,2.278c-1.334,0.133-2.578-1.349-2.236-1.715
		c0.349-0.367,1.403-1.368,1.403-1.368L820.483,1939.887z"/>
</g>
<g id="Lettuce">
</g>
<g id="Tofu_Slice">
</g>
<g id="Swiss_Slice">
</g>
<g id="Cheddar_Slice">
</g>
<g id="Eggplant_Patty">
</g>
<g id="Halloumi_Patty">
</g>
<g id="Beef_Patty">
</g>
<g id="Sourdough_Bun">
</g>
<g id="Rice_Bun">
</g>
<g id="Brioche_Bun">
</g>
</svg>
