<?xml version="1.0" encoding="utf-8"?>
<!-- Generator: Adobe Illustrator 16.0.0, SVG Export Plug-In . SVG Version: 6.00 Build 0)  -->
<!DOCTYPE svg PUBLIC "-//W3C//DTD SVG 1.1//EN" "http://www.w3.org/Graphics/SVG/1.1/DTD/svg11.dtd">
<svg version="1.1" xmlns="http://www.w3.org/2000/svg" xmlns:xlink="http://www.w3.org/1999/xlink" x="0px" y="0px"
	 width="487.61px" height="340.711px" viewBox="641.053 815 487.61 340.711" enable-background="new 641.053 815 487.61 340.711"
	 xml:space="preserve">
<g id="Pickles">
</g>
<g id="Tomato">
</g>
<g id="Lettuce">
</g>
<g id="Tofu_Slice">
</g>
<g id="Swiss_Slice">
</g>
<g id="Cheddar_Slice">
</g>
<g id="Eggplant_Patty">
</g>
<g id="Halloumi_Patty">
	<g>
		<defs>
			<path id="SVGID_7_" d="M671.313,1032.718c-7.142,6.119-12.243,12.241-9.183,18.363c3.062,6.121,13.266,11.223,14.283,17.345
				c1.021,6.12,7.142,31.623,7.142,37.746c0,6.119,3.061,13.263,6.121,20.404c3.061,7.14,19.385,7.14,26.525,7.14
				s17.341,2.041,22.443,6.121c5.102,4.081,35.705,7.144,39.788,5.102c4.08-2.042,117.321-30.605,129.563-31.627
				c12.243-1.021,158.131-102.017,175.474-121.401c17.343-19.384,31.625-45.908,31.625-49.99c0-4.081-18.36-38.768-22.443-42.847
				c-4.082-4.08-23.466-14.282-26.526-17.344c-3.059-3.061,13.265-26.523,7.143-32.646c-6.121-6.121-25.504-13.261-34.687-18.361
				c-9.182-5.102-62.231-10.203-75.494-5.102s-108.14,62.23-116.301,66.312c-8.162,4.08-114.262,70.393-119.362,73.453
				s-29.585,26.524-29.585,33.666S671.313,1032.718,671.313,1032.718z"/>
		</defs>
		<clipPath id="SVGID_2_">
			<use xlink:href="#SVGID_7_"  overflow="visible"/>
		</clipPath>
		<path id="Fill_2_" clip-path="url(#SVGID_2_)" fill="#FCDFB6" d="M662.761,1034.618c-7.412,6.414-12.704,12.827-9.528,19.242
			c3.175,6.414,13.762,11.761,14.819,18.176c1.057,6.415,7.408,33.139,7.408,39.554s3.178,13.898,6.353,21.382
			s20.113,7.483,27.522,7.483c7.407,0,17.993,2.138,23.286,6.414c5.293,4.275,37.047,7.485,41.282,5.346
			c4.234-2.139,121.729-32.071,134.433-33.143c12.701-1.067,164.073-106.903,182.065-127.216
			c17.994-20.313,32.813-48.107,32.813-52.385c0-4.276-19.051-40.624-23.289-44.9c-4.23-4.276-24.345-14.968-27.519-18.175
			c-3.176-3.207,13.761-27.794,7.409-34.21c-6.352-6.414-26.462-13.896-35.99-19.242c-9.525-5.345-64.57-10.691-78.33-5.345
			c-13.762,5.345-112.202,65.213-120.672,69.488c-8.468,4.275-118.555,73.764-123.846,76.971
			c-5.293,3.207-30.697,27.796-30.697,35.28C690.281,1006.821,662.761,1034.618,662.761,1034.618z"/>
		<path id="Shadow_1_1_" clip-path="url(#SVGID_2_)" fill="#EFCEA8" d="M1070.021,837.775c-6.089,9.745-12.181,12.182-17.052,18.272
			c-4.873,6.09-4.873,17.055,0,18.272c4.871,1.218,18.271,4.872,18.271,4.872s18.271,6.091,23.145,9.746
			c4.873,3.654,3.655,8.526,2.437,15.834c-1.218,7.309-9.745,18.272-14.617,26.799c-4.872,8.528-24.363,40.2-40.199,48.728
			c-15.835,8.526-143.74,103.542-180.284,113.285c-36.545,9.746-99.888,14.618-110.852,15.836
			c-10.963,1.219-24.362-2.437-26.799,2.437s8.527,9.746,8.527,18.272c0,8.527-1.218,25.582,9.745,25.582s69.434-1.219,77.961-7.31
			c8.527-6.09,97.451-18.272,109.632-25.581c12.183-7.309,170.541-137.649,174.195-143.74c3.653-6.091,24.362-28.018,24.362-34.107
			c0-6.092-6.09-34.108-8.526-37.764C1117.53,903.556,1070.021,837.775,1070.021,837.775z"/>
		<path id="Highlight_1" clip-path="url(#SVGID_2_)" fill="#FFF1E1" d="M653.419,1043.642c13.399,3.654,19.49-1.219,24.363,6.091
			c4.872,7.309,3.653,17.054,9.744,23.144c6.092,6.092,23.146,1.219,25.581,8.528c2.436,7.309,7.309,10.962,7.309,17.053
			s0,9.745,3.654,13.399c3.655,3.655,12.182,14.618,8.527,18.272s1.218,9.746-4.872,14.617c-6.092,4.873-20.708,4.873-30.454-1.218
			c-9.745-6.09-26.799-9.745-28.017-18.272C668.036,1116.729,653.419,1043.642,653.419,1043.642z"/>
		<path clip-path="url(#SVGID_2_)" fill="#D89B52" d="M678.999,1038.769c4.873-8.526,7.31-10.963,12.183-10.963
			s14.617-1.219,25.579-1.219c10.965,0,40.2,1.219,49.945,1.219s21.926-1.219,24.362,3.654c2.437,4.872,12.182,2.437,19.49,1.218
			c7.309-1.218,18.272-3.654,24.363-3.654c6.09,0,21.926-2.437,30.453-2.437c8.528,0,45.071-1.218,54.816-2.437
			c9.744-1.218,26.799,1.219,26.799,1.219s3.249,1.623,1.218,4.873c-2.03,3.248-10.559,5.685-12.587,6.902
			c-2.03,1.219-14.212,3.656-16.242,3.249s-13.806-3.249-24.77-3.249c-10.962,0-14.616,1.218-23.143,1.624
			c-8.528,0.407-32.893-2.029-40.605-1.624c-7.715,0.405-17.866,4.062-25.176,4.468c-7.308,0.405-10.962-0.812-12.993-2.437
			c-2.03-1.626-25.175,3.248-31.266,1.218s-36.95-3.25-49.132-2.844c-12.181,0.407-32.483,5.28-32.89,3.25
			C678.999,1038.769,678.999,1038.769,678.999,1038.769z"/>
		<path clip-path="url(#SVGID_2_)" fill="#D89B52" d="M708.235,993.698c1.624-2.843,2.843-7.717,6.091-9.34
			c3.247-1.623,10.963-2.844,11.368-1.219s10.962,1.22,13.806,1.625c2.843,0.406,14.619-3.655,17.461-3.655
			c2.841,0,28.018-3.653,35.731-2.029s53.597-5.686,56.44-5.686c2.843,0,52.38-2.437,59.283-2.437
			c6.902,0,43.853-3.652,47.507-4.466c3.654-0.813,30.859-1.624,35.732-1.624c4.872,0,28.423-0.404,31.266-2.029
			c2.843-1.626,17.865-6.091,18.679-3.249c0.811,2.842-1.219,3.246-3.656,4.06c-2.436,0.813-7.715,7.309-9.743,9.34
			c-2.03,2.03-12.994,9.339-15.43,8.527c-2.437-0.813-19.897-4.061-21.928-4.061s-19.082,0.812-24.362,1.624
			c-5.279,0.812-34.514-0.813-39.387-1.218c-4.873-0.406-105.572,12.993-115.317,10.557c-9.743-2.437-41.821,3.248-45.07,3.248
			s-41.012,2.843-45.884,3.248c-4.872,0.406-14.619,5.279-14.212,1.625C707.018,992.885,708.235,993.698,708.235,993.698z"/>
		<path clip-path="url(#SVGID_2_)" fill="#D89B52" d="M769.954,951.875c0.406-2.031,6.091-8.12,8.12-8.527
			c2.031-0.407,12.589-8.935,14.213-10.151c1.623-1.219,8.525-1.625,14.21-1.625c5.686,0,88.926,2.438,94.204,0.813
			s79.585-5.279,85.676-6.497s26.394-7.717,30.048-8.527c3.653-0.812,27.204-6.496,30.858-6.496s14.213-0.406,16.649-0.406
			s11.368-1.219,15.022-1.219s4.467,3.655,2.437,5.278c-2.03,1.625-7.31,7.716-8.121,8.934c-0.812,1.219-9.745,6.092-10.963,5.279
			c-1.219-0.813-21.927-0.001-28.018,0.812c-6.09,0.812-71.057,8.934-73.899,8.934c-2.845,0-42.636,7.715-51.162,7.715
			c-8.527,0-28.018-1.625-36.139-2.031c-8.121-0.405-36.951-0.406-44.665,1.218c-7.715,1.626-31.265,1.626-39.387,3.249
			c-8.122,1.624-19.896,8.933-19.49,6.091S769.954,951.875,769.954,951.875z"/>
		<path clip-path="url(#SVGID_2_)" fill="#D89B52" d="M852.787,895.84c2.03-1.624,12.182-7.31,14.616-9.338
			c2.437-2.03,7.31-2.437,8.527-1.626c1.219,0.813,28.018-2.84,32.891-3.247s29.642-2.844,34.108-2.844s63.749-4.059,67.809-4.465
			c4.062-0.408,18.271-4.467,21.115-4.467c2.843,0,12.993,1.217,14.212,4.059c1.218,2.844,6.091,5.28,7.31,5.688
			c1.218,0.403,6.091,1.217,4.466,2.84c-1.625,1.626-4.871,1.22-7.308,0.813s-15.025,2.03-24.77,2.842
			c-9.746,0.813-67.81,2.031-72.277,1.625c-4.466-0.408-20.71,3.248-27.611,3.654c-6.902,0.405-32.89-0.407-41.822,1.624
			c-8.933,2.03-30.858,7.311-31.672,5.278C851.568,896.246,852.787,895.84,852.787,895.84z"/>
		<path clip-path="url(#SVGID_2_)" fill="#D89B52" d="M939.682,845.491c1.219-0.813,10.558-8.122,12.182-8.526
			c1.623-0.407,8.933-2.844,10.15-2.844c1.219,0,22.738,1.218,25.987,1.218c3.248,0,23.958,0,25.987,0s15.835-0.811,17.865-0.811
			s12.589,1.622,12.589,1.622s9.744,4.873,10.963,5.279c1.218,0.408,0.811,5.279-0.813,5.279s-23.146,1.218-28.019,1.218
			c-4.871,0-33.701,1.217-36.949,0.406c-3.248-0.813-13.805-1.624-18.271-0.813c-4.467,0.813-21.115,1.218-25.176,1.218
			c-4.06,0-12.993,3.248-9.745,0C939.682,845.491,939.682,845.491,939.682,845.491z"/>
		<path clip-path="url(#SVGID_2_)" fill="#D89B52" d="M722.854,1085.465c-1.219-5.279-8.121-8.121-7.309-10.558
			s8.526-4.06,10.963-4.06s22.738,2.84,27.205,2.028c4.467-0.811,42.23,0.813,44.26,2.031c2.029,1.218,22.333,0.405,25.581,0
			s34.108-1.624,36.949-1.624c2.843,0,23.551-1.218,22.333,1.219c-1.219,2.437-8.931,6.09-11.775,7.309
			c-2.843,1.218-21.925,8.119-24.361,8.119s-19.897-4.06-23.958-5.278c-4.061-1.217-25.581,3.25-33.702,1.219
			c-8.12-2.029-32.89,0.813-39.386,0.813s-27.61,3.247-27.205,0.405S722.854,1085.465,722.854,1085.465z"/>
	</g>
</g>
<g id="Beef_Patty">
</g>
<g id="Sourdough_Bun">
</g>
<g id="Rice_Bun">
</g>
<g id="Brioche_Bun">
</g>
</svg>
