<?xml version="1.0" encoding="utf-8"?>
<!-- Generator: Adobe Illustrator 16.0.0, SVG Export Plug-In . SVG Version: 6.00 Build 0)  -->
<!DOCTYPE svg PUBLIC "-//W3C//DTD SVG 1.1//EN" "http://www.w3.org/Graphics/SVG/1.1/DTD/svg11.dtd">
<svg version="1.1" xmlns="http://www.w3.org/2000/svg" xmlns:xlink="http://www.w3.org/1999/xlink" x="0px" y="0px"
	 width="487.61px" height="340.711px" viewBox="1765.053 315 487.61 340.711" enable-background="new 1765.053 315 487.61 340.711"
	 xml:space="preserve">
<g id="Halloumi_Patty">
	<g>
		<defs>
			<path id="SVGID_1_" d="M1829.689,524.532c-5.862,5.024-10.051,10.05-7.538,15.075c2.513,5.024,10.89,9.213,11.726,14.238
				c0.837,5.024,5.862,25.961,5.862,30.986c0,5.024,2.513,10.889,5.024,16.751c2.513,5.861,15.914,5.861,21.776,5.861
				c5.861,0,14.235,1.675,18.424,5.025c4.188,3.35,29.312,5.863,32.662,4.188s96.313-25.125,106.362-25.963
				s129.813-83.748,144.05-99.661c14.237-15.913,25.962-37.688,25.962-41.038s-15.073-31.825-18.425-35.175
				c-3.35-3.35-19.263-11.725-21.775-14.237c-2.512-2.513,10.889-21.774,5.863-26.8c-5.025-5.025-20.938-10.887-28.476-15.075
				c-7.537-4.188-51.087-8.375-61.974-4.188c-10.889,4.188-88.775,51.087-95.475,54.437c-6.7,3.35-93.801,57.787-97.987,60.3
				c-4.188,2.512-24.287,21.774-24.287,27.637C1851.465,502.758,1829.689,524.532,1829.689,524.532z"/>
		</defs>
		<clipPath id="SVGID_2_">
			<use xlink:href="#SVGID_1_"  overflow="visible"/>
		</clipPath>
		<path id="Fill_2_" clip-path="url(#SVGID_2_)" fill="#FCDFB6" d="M1822.669,526.093c-6.084,5.265-10.43,10.53-7.822,15.797
			c2.606,5.266,11.298,9.654,12.166,14.921c0.868,5.266,6.082,27.204,6.082,32.471c0,5.266,2.608,11.409,5.214,17.553
			c2.606,6.143,16.512,6.143,22.595,6.143c6.081,0,14.771,1.755,19.115,5.267c4.347,3.51,30.413,6.145,33.89,4.388
			c3.477-1.756,99.932-26.328,110.359-27.207c10.427-0.877,134.691-87.76,149.462-104.436
			c14.771-16.676,26.938-39.492,26.938-43.004c0-3.511-15.64-33.35-19.118-36.859c-3.474-3.511-19.986-12.287-22.592-14.919
			c-2.606-2.633,11.297-22.818,6.083-28.084c-5.215-5.266-21.724-11.409-29.545-15.797c-7.82-4.387-53.008-8.776-64.304-4.387
			c-11.297,4.387-92.109,53.535-99.062,57.044s-97.325,60.555-101.669,63.188c-4.345,2.633-25.199,22.818-25.199,28.962
			S1822.669,526.093,1822.669,526.093z"/>
		<path id="Shadow_1_1_" clip-path="url(#SVGID_2_)" fill="#EFCEA8" d="M2157,364.5c-5,8-10,10-14,15s-4,14,0,15s15,4,15,4
			s15,5,19,8s3,7,2,13s-8,15-12,22s-20,33-33,40s-118,85-148,93s-82,12-91,13s-20-2-22,2s7,8,7,15s-1,21,8,21s57-1,64-6s80-15,90-21
			s140-113,143-118s20-23,20-28s-5-28-7-31S2157,364.5,2157,364.5z"/>
		<path id="Highlight_1" clip-path="url(#SVGID_2_)" fill="#FFF1E1" d="M1815,533.5c11,3,16-1,20,5s3,14,8,19s19,1,21,7s6,9,6,14
			s0,8,3,11s10,12,7,15s1,8-4,12s-17,4-25-1s-22-8-23-15S1815,533.5,1815,533.5z"/>
	</g>
	<path fill="#D89B52" d="M1836,529.5c4-7,6-9,10-9s12-1,21-1s33,1,41,1s18-1,20,3s10,2,16,1s15-3,20-3s18-2,25-2s37-1,45-2
		s22,1,22,1s2.667,1.333,1,4s-8.668,4.667-10.334,5.667s-11.666,3.001-13.333,2.667S2022,528.167,2013,528.167s-12,0.999-19,1.333
		s-27.001-1.666-33.334-1.333S1946,531.501,1940,531.834s-9-0.666-10.667-2s-20.667,2.667-25.667,1s-30.333-2.668-40.333-2.334
		s-26.667,4.334-27,2.667S1836,529.5,1836,529.5z"/>
	<path fill="#D89B52" d="M1860,492.5c1.333-2.333,2.334-6.334,5-7.667s9-2.334,9.333-1s8.999,1.001,11.333,1.334s12.001-3,14.334-3
		s23-3,29.333-1.667s43.999-4.667,46.333-4.667s43-2,48.667-2s36-2.999,39-3.666s25.333-1.334,29.333-1.334
		s23.334-0.332,25.667-1.666s14.666-5,15.333-2.667s-1,2.666-3,3.333s-6.334,6-8,7.667s-10.666,7.667-12.666,7
		s-16.333-3.333-18-3.333s-15.666,0.666-20,1.333s-28.334-0.667-32.334-1S1953,490.167,1945,488.167s-34.333,2.666-37,2.666
		s-33.667,2.334-37.667,2.667s-12.001,4.333-11.667,1.333S1860,492.5,1860,492.5z"/>
	<path fill="#D89B52" d="M1910.666,458.167c0.334-1.667,5-6.666,6.667-7s10.334-7.334,11.667-8.334s6.999-1.333,11.666-1.333
		s73.001,2.001,77.334,0.667s65.333-4.334,70.333-5.334s21.667-6.334,24.667-7s22.333-5.333,25.333-5.333s11.667-0.333,13.667-0.333
		s9.333-1,12.333-1s3.667,3,2,4.333s-6.001,6.333-6.667,7.333s-8,5.001-9,4.334s-18-0.001-23,0.666s-58.332,7.334-60.666,7.334
		s-35,6.333-42,6.333s-23-1.334-29.667-1.667s-30.334-0.334-36.667,1s-25.666,1.334-32.333,2.667s-16.333,7.333-16,5
		S1910.666,458.167,1910.666,458.167z"/>
	<path fill="#D89B52" d="M1978.666,412.167c1.667-1.334,10-6.001,12-7.667c2-1.667,6-2,7-1.333s23-2.333,27-2.667
		s24.333-2.333,28-2.333s52.334-3.333,55.667-3.667s14.999-3.667,17.333-3.667s10.667,1,11.667,3.333s5,4.334,6,4.667
		s5.001,1,3.667,2.333s-4,1-6,0.667s-12.334,1.666-20.334,2.333s-55.666,1.667-59.333,1.333c-3.667-0.333-17.001,2.667-22.667,3
		s-27-0.334-34.333,1.333s-25.333,6.001-26,4.334S1978.666,412.167,1978.666,412.167z"/>
	<path fill="#D89B52" d="M2050,370.833c1-0.667,8.667-6.667,10-7s7.333-2.333,8.333-2.333s18.666,1,21.333,1s19.668,0,21.334,0
		s12.999-0.667,14.666-0.667s10.334,1.333,10.334,1.333s8,4,9,4.333s0.666,4.333-0.667,4.333s-19,1-23,1s-27.666,1-30.333,0.333
		s-11.333-1.333-15-0.667s-17.334,1-20.667,1s-10.667,2.667-8,0S2050,370.833,2050,370.833z"/>
	<path fill="#D89B52" d="M1872.001,567.834c-1-4.334-6.667-6.667-6-8.667s7-3.333,9-3.333s18.666,2.332,22.333,1.666
		s34.668,0.667,36.334,1.667s18.334,0.333,21,0s28-1.333,30.333-1.333s19.333-1,18.333,1s-7.332,5-9.666,6s-18,6.666-20,6.666
		s-16.334-3.333-19.667-4.333s-21.001,2.667-27.667,1s-27,0.667-32.333,0.667s-22.666,2.666-22.333,0.333
		S1872.001,567.834,1872.001,567.834z"/>
</g>
<g id="Beef_Patty">
</g>
<g id="Sourdough_Bun">
</g>
<g id="Brioche_Bun">
</g>
</svg>
