<?xml version="1.0" encoding="utf-8"?>
<!-- Generator: Adobe Illustrator 16.0.0, SVG Export Plug-In . SVG Version: 6.00 Build 0)  -->
<!DOCTYPE svg PUBLIC "-//W3C//DTD SVG 1.1//EN" "http://www.w3.org/Graphics/SVG/1.1/DTD/svg11.dtd">
<svg version="1.1" xmlns="http://www.w3.org/2000/svg" xmlns:xlink="http://www.w3.org/1999/xlink" x="0px" y="0px" width="589px"
	 height="337.483px" viewBox="1159.053 317.595 589 337.483" enable-background="new 1159.053 317.595 589 337.483"
	 xml:space="preserve">
<g id="Beef_Patty">
	<g id="Patty_Clipping_Mask">
		<defs>
			<path id="Patty_1_" d="M1286.281,500.239c-2.271-6.245,11.194-21.498,15.399-19.507c6.502,3.081,3.422-5.816,13.688-6.159
				c4.078-0.136,1.458-8.885,4.106-9.581c6.502-1.712,13.119-10.38,14.031-14.943c0.911-4.562,6.387-12.774,11.861-13.688
				c5.477-0.913,11.864-6.387,14.601-10.038c2.738-3.649,5.475-9.126,10.038-9.126c4.564,0,7.3,3.651,10.951-1.824
				c3.65-5.475,9.125-9.125,14.601-10.95c5.476-1.826,17.339-0.911,20.076-5.476c2.738-4.563,5.476-10.95,10.038-10.95
				c4.562,0,10.038-2.737,13.688-6.388c3.651-3.65,11.862-9.125,15.513-7.301c3.651,1.825,10.039,6.387,14.602,0.912
				s10.95-10.949,16.426-9.125c5.475,1.825,8.214,11.863,17.339,3.65s16.425-9.127,17.338-5.477
				c0.913,3.651,12.775,7.302,20.075,4.564c7.3-2.738,10.952-4.564,11.864-0.913c0.911,3.65,10.039,10.038,13.688,10.95
				c3.649,0.913,3.649,1.824,3.649,5.475c0,3.651,5.475,6.389,8.213,8.213c2.738,1.826,9.127,4.563,10.039,7.301
				c0.912,2.737-2.738,10.95,1.825,11.863c4.562,0.913,20.074,10.038,20.987,13.688c0.913,3.651-0.913,3.651-2.737,8.213
				c-1.824,4.563,3.65,6.388,3.65,10.038c0,3.651-8.213,5.478-8.213,12.777c0,7.299,4.563,13.686-0.913,17.337
				c-5.475,3.65-10.951,1.824-10.038,13.688c0.913,11.864-4.563,21.901-9.126,21.901c-4.562,0-10.949,5.476-10.949,10.95
				c0,5.476-10.951,12.777-13.688,12.777c-2.738,0-8.213,11.861-8.213,11.861s-5.476,6.389-10.038,6.389
				c-4.562,0-15.513,1.824-15.513,5.475c0,3.651-12.775,11.864-20.076,11.864c-7.3,0-12.775,2.737-16.426,8.213
				c-3.65,5.475-25.552,14.6-28.289,10.038c-2.737-4.563-10.95-1.826-16.425,1.823c-5.477,3.651-20.076,12.777-26.464,12.777
				c-6.389,0-23.727,4.562-26.464,10.037s-10.038,8.213-14.601,5.476c-4.563-2.738-16.424-5.477-20.988-0.913
				c-4.563,4.563-16.426-4.563-16.426-4.563s-0.001-10.039-4.563-9.126s-16.425-1.826-17.337-5.476
				c-0.914-3.648-5.476-13.687-11.864-11.861c-6.388,1.825-14.601-0.914-14.601-4.564c0-3.648,3.648-16.424,0-17.337
				c-3.649-0.913-16.424-6.389-14.601-11.863c1.825-5.476,6.39-12.775,2.738-15.514c-3.651-2.736-6.502-3.651-6.502-8.214
				c0-4.562,5.817-6.159,2.738-12.319C1273.14,511.597,1287.65,504.003,1286.281,500.239z"/>
		</defs>
		<clipPath id="Patty_2_">
			<use xlink:href="#Patty_1_"  overflow="visible"/>
		</clipPath>
		<path id="Patty_Fill" clip-path="url(#Patty_2_)" fill="#7F3909" d="M1273.46,501.476c-2.462-6.759,12.134-23.271,16.69-21.114
			c7.049,3.333,3.709-6.298,14.837-6.668c4.421-0.146,1.581-9.618,4.45-10.37c7.049-1.854,14.221-11.236,15.21-16.178
			c0.988-4.938,6.923-13.827,12.856-14.815c5.936-0.988,12.859-6.913,15.826-10.866c2.967-3.952,5.934-9.878,10.88-9.878
			c4.948,0,7.913,3.952,11.872-1.976c3.956-5.927,9.89-9.877,15.824-11.853c5.935-1.978,18.793-0.988,21.762-5.928
			c2.967-4.938,5.934-11.853,10.879-11.853s10.882-2.963,14.837-6.915c3.958-3.952,12.857-9.878,16.815-7.903
			c3.958,1.976,10.881,6.914,15.826,0.988c4.944-5.926,11.869-11.853,17.805-9.878c5.934,1.976,8.902,12.841,18.794,3.952
			c9.89-8.89,17.804-9.88,18.792-5.929c0.99,3.953,13.848,7.904,21.761,4.941c7.912-2.964,11.872-4.941,12.86-0.989
			c0.987,3.952,10.88,10.866,14.836,11.854c3.954,0.988,3.954,1.975,3.954,5.926c0,3.953,5.935,6.916,8.903,8.89
			c2.968,1.977,9.892,4.938,10.882,7.904c0.987,2.962-2.97,11.854,1.978,12.84c4.943,0.99,21.759,10.867,22.749,14.817
			c0.989,3.951-0.99,3.951-2.968,8.891c-1.977,4.939,3.957,6.915,3.957,10.864c0,3.953-8.9,5.931-8.9,13.832
			s4.943,14.814-0.991,18.769c-5.934,3.949-11.87,1.974-10.881,14.815c0.99,12.843-4.944,23.708-9.891,23.708
			c-4.944,0-11.869,5.927-11.869,11.854c0,5.926-11.87,13.831-14.836,13.831c-2.97,0-8.903,12.838-8.903,12.838
			s-5.935,6.916-10.88,6.916c-4.944,0-16.814,1.975-16.814,5.927c0,3.953-13.849,12.844-21.761,12.844s-13.848,2.962-17.805,8.89
			c-3.956,5.926-27.696,15.805-30.663,10.865c-2.968-4.939-11.868-1.977-17.804,1.974c-5.937,3.953-21.762,13.831-28.684,13.831
			c-6.926,0-25.719,4.938-28.686,10.865c-2.967,5.929-10.879,8.891-15.826,5.929c-4.943-2.966-17.802-5.93-22.75-0.99
			c-4.945,4.939-17.804-4.938-17.804-4.938s-0.001-10.867-4.945-9.878c-4.946,0.987-17.804-1.978-18.793-5.928
			c-0.99-3.95-5.935-14.814-12.86-12.838c-6.923,1.974-15.824-0.991-15.824-4.942c0-3.949,3.953-17.777,0-18.768
			c-3.957-0.986-17.803-6.915-15.827-12.842c1.979-5.927,6.926-13.829,2.97-16.792c-3.959-2.962-7.049-3.954-7.049-8.893
			c0-4.937,6.305-6.666,2.969-13.335C1259.215,513.771,1274.944,505.551,1273.46,501.476z"/>
		<path id="Bottom_Shadow_1" clip-path="url(#Patty_2_)" fill="#632B05" d="M1594,394.167c-1.667,1.667-9.667,4.333-9.667,7
			s-2,8.001-0.333,8.667s7.333-0.667,10-0.667s21.333,10.667,21.333,11.667S1613,426.5,1611,427.5s-7.333,2.001-7.333,4.334
			s0.333,4.999,1.333,5.666s1.667,0.668,4,1.334s6.333,2.333,5.333,5.333s-5.666,4-6.666,4s-6.666,1.333-7,3s0,8.333,1,9.333
			s-2.667,9.334-6.667,10.667s-10.333,4-10.333,6s1.583,6.75,1.583,9.083s1.041,13.667-6.625,15s-7.709,0.75-10.375,3.75
			s-3.583,4.166-2.583,6.5s0.499,2.708-0.167,4.375s-3.458,6.959-7.125,7.625s-6.376-0.332-9.042,1.334s-1.852,2.929-2.666,5.333
			c-0.917,2.708-1.668,1.334-2.334,4.667s-3.666,2-7.666,4s-9.333,2.666-13,3.666s-7,1.666-8.667,5s-4.333,5.666-7.333,6
			s-10.334,0-12.334,3s-8.332,1.334-13.666,5.334s-13.668,13.333-18.334,13.333s-24.666,0.001-25.666,3.667S1433,586.5,1430,589.167
			s-11.667,7.667-14.667,8s-9.666-1.333-12.666-1s-8.334-0.667-11.334,2.333s-6.667,16.666-16,7s-9.999-6.666-11.666-5.333
			s-3.333,9.333-5,11s-7.668,1.666-9.334,0.333s-5.666-3.999-6.333-5.666s-2.999-3.001-2.333-5.334s1.333-9,0.333-10
			s-2.667-0.333-4.667,1.667s-3.333,5.001-5.333,5.667s-2.001,2.332-6.667,0.666s-6.666-1.334-9.333-3s-2.333-5.334-2-8
			s3.334-7-1.333-8.333s-5.666,0.333-8,1.333s-4.334,1.667-8.667,1.667s-7-3-7-5s5.334-9,6.667-13s7-12.667,5-13.667
			s-7.334,1.668-9.667,2.334s-8.667,2-11,1s-3.667-2-4-5s5.667-8.667,7.667-11.667s3.666-6-0.334-7s-4.667,1.334-8-0.333
			s-4.666-3.334-4.666-5.334s4.333-3.666,6.333-5.333s4.001-3.999,1.667-4.333s-4.334-1.001-6.667-0.334s-7.999,11-8.333,13.667
			s0.667,20.001,2,24.667s9.332,9.666,11.666,15.666s9.334,14.668,10.667,16.334s11.334,11.999,17.667,14.666s23.667,10,26,11
			s4.332,9.001,8.666,9.334s17.334,2.334,20.334,2s20.666,1.332,23.666,1.666s12-5.332,13.667-7.666s17.667-6.333,21.667-6
			s19.332-3,21.666-6s13.334-13,15.334-11s25.332,0.332,29.666-2.334s14.001-9.666,16.334-11.666s9,0,17.333-4.667
			s11.667-11.333,12.667-13.333s16.333-4,20.333-6.667s9-9.999,12-13.333s4.667-2.334,10-7.334s6.666-10.666,7.333-12.333
			s11.666-11.333,13-13.333s6.001-17,7.334-19.667s7.667-16.667,10-20s-3.334-6.001-1.667-10.667s9-15.333,8-19.333
			s-1.999-7-1.333-10s5.334-10.666,4-12.333s-3.333-6.001-9-6.334s-8.334-0.666-9.667-4.667
			C1600.667,400.833,1594,394.167,1594,394.167z"/>
		<path id="Grill_5" clip-path="url(#Patty_2_)" fill="#632B05" d="M1307.475,514.044c0,1.159,12.355,6.178,14.672,6.178
			s15.058-3.86,18.146-1.544s42.856,5.02,45.174,5.02s23.938-1.544,25.869,0s32.433,2.315,34.749,1.93s36.68,0.772,38.996,1.545
			s18.147,1.158,19.691,1.158s6.563-3.089,9.652-3.089s11.196-1.157,11.969-2.702s-2.316-2.317-6.563-2.317
			s-15.831-2.315-19.691-1.93s-4.247,0.772-9.652,2.316s-17.374,1.931-21.621,1.158s-13.899-3.861-18.919-3.861
			s-19.305,1.159-23.166,1.545s-23.552,1.93-25.097,1.544s-18.533-6.95-21.622-6.95s-5.792,0.387-17.761-0.771
			s-18.919,2.317-22.394,1.931s-16.216-4.247-21.235-3.861S1307.475,514.044,1307.475,514.044z"/>
		<path id="Grill_4" clip-path="url(#Patty_2_)" fill="#632B05" d="M1333.001,556.834c-1-2.334,2.666-4.667,4.333-4.667
			s20.001,1.333,22.667,1.333s12.333,0.001,14.333,2.334s12.667,3.333,15,3.333s11.667-1.667,13.667-2s16.666-0.333,19.666,0
			s10.668,2,13.334,1s10-1.333,10.333,0s-0.333,4.667-2.333,4.667s-15,0-15,0s-39.333,0.666-41-0.334s-17,0.334-19,0.667
			s-16-0.001-22-1.667S1333.001,556.834,1333.001,556.834z"/>
		<path id="Grill_3" clip-path="url(#Patty_2_)" fill="#632B05" d="M1344.001,481.167c0.333-1,4.334-4.667,6-4.667s7-0.666,9,0.334
			s29,4.666,31.333,4.666s17.667-0.333,19.667-0.333s9.334,0.666,11,1.333s24.333-1.332,27.333-1.666s11.333-1,14.333-1
			s15.001,0.667,16.334,2s13.667,0.666,15,0.333s9.666-1.667,11.333-1.667s7.667-0.666,9.667,0.334s9.666,0,9.666,0s5,2,4,3.333
			s-36,3-38,3s-8.666-1-14.666-1s-54.668,0.666-56.334-0.667s-26.332,0.333-29.666,1s-32-3.334-34-4s-13,2.334-13,0.667
			S1344.001,481.167,1344.001,481.167z"/>
		<path id="Grill_2" clip-path="url(#Patty_2_)" fill="#632B05" d="M1381.334,444.5c0.667-2.333,3.001-5.001,5.334-5.667
			s11.332-3.332,13.666-2.666s15.668,3.666,18.334,2.333s23.667-2.333,26-1.333s11.334-0.333,13,1s10.334,3.666,13,3.666
			s13.334-2.666,15-3.333s9.666-4,11.666-3s12,5,15,5s12.334-1.999,14.667-1.333s14.666,3.333,17.333,1.333s14-4.334,16-3.667
			s8.667,0.666,10.667,2s4.667,4.001,3.667,4.334s-6-0.334-6-0.334s-4.001-3.333-6.334-3.333s-7.333,0.667-8.333,1.667
			s-10.666,8-13.333,6s-8.334-4-9.667-4s-25.667,2.333-25.667,2.333s-7-3.667-8.333-3.667s-20.667,1.668-21.667,1.334
			s-30.334,0-35-1s-11.666,1.667-18.333,2s-22-1-26-1.667s-13.999,6-14.333,4S1381.334,444.5,1381.334,444.5z"/>
		<path id="Grill_1" clip-path="url(#Patty_2_)" fill="#632B05" d="M1433.334,408.5l5.667-2.667c0,0,4.667-2.333,7-1
			s15.667,3.667,18.667,3.667s15.666-1.333,17.333-1.333s12.667,2,14.667,1s11.999-1.334,14.666-1.334s13.334-0.667,15.667,1
			s15.333,4,18.333,2.667s8.334-1.334,10.334-1.667s7.666-0.333,8.333,0.667s-1,4.667-1,4.667s-4.999,0.332-6.333-0.334
			s-12.333,0.667-15,0.667s-40-0.999-45-2.333s-12.334-0.666-17.667,0s-26.333-1.334-29.333-2.667s-14.001,2.999-15.334,2.333
			S1433.334,408.5,1433.334,408.5z"/>
		<path clip-path="url(#Patty_2_)" fill="#AD5C2F" d="M1535.659,491.265c0.387-3.089,2.703-4.633,3.861-3.475
			s6.563-0.386,6.563-0.386s5.792,0,6.178-1.931s0-3.86,0-5.405s1.158-5.792,1.158-5.792s3.089-1.931,4.247-1.931
			s4.634-1.544,4.634-1.544s3.088-4.247,3.86-5.405s0.386-6.178,1.931-6.178s5.793-0.001,7.723,0.386s5.405-0.387,7.722-1.931
			s8.494-3.475,8.494-3.475s-2.703-3.475-2.703-5.405s2.317-5.02,2.317-5.02s-0.001-5.792-1.159-6.178s-6.949-0.386-6.949-0.386
			s-2.703-0.772-2.703-1.931s3.476-3.089,3.476-3.089l3.475-1.544l2.316-2.703l-4.633-3.86l0.771-2.703l2.703-3.089
			c0,0,3.089,0.386,2.316,2.316s-1.158,5.02-1.158,5.02c2.003,3.081,2.837,4.414,2.17,5.081s-2.667,3-2.167,3.667
			s0.667,2.666,1.167,2.833s3.499,3.5,2.333,5s-4.167,4.334-3.5,5.667s4.167,4.667,3.167,5.667s-13,2-12.5,3.333
			s-1.167,3.667-2.167,4.5s-7.999,4.334-9.166,1.667s-1.834-0.501-1.834,0.166s0.334,4.501-0.166,5.334s-2.333,2.334-3,2.5
			s-4.668,2.833-4.834,4.333s-2.834,1.5-4.5,1.5s-2.334-0.5-2,2s2.333,7.167,0,7.667s-3.667-1.334-5-0.334s-0.334,2.834-2,3.667
			s-3.834,1.333-5,0.833s-2.334-0.5-4,0.667S1535.659,491.265,1535.659,491.265z"/>
		<path clip-path="url(#Patty_2_)" fill="#AD5C2F" d="M1564.334,479.167c0,0,1.667-2.666,3.667-3.333s3.333,0.666,3.333,0.666
			l-0.667,3.334c0,0-0.333,1.667-3.333,1s-6.333,2-6.333,1S1564.334,479.167,1564.334,479.167z"/>
		<path clip-path="url(#Patty_2_)" fill="#AD5C2F" d="M1579.001,469.167c0,1.333,0.333,3,1.333,3s2.334-1.334,1.667-2.667
			S1579.001,469.167,1579.001,469.167z"/>
		<path clip-path="url(#Patty_2_)" fill="#AD5C2F" d="M1552.001,491.834c-0.667,2-6.333,1.999-6,3.666s1.334,4,2,2.667s3-2,3-2
			s1.332-1,1.666-2S1552.001,491.834,1552.001,491.834z"/>
		<path clip-path="url(#Patty_2_)" fill="#AD5C2F" d="M1501.667,471.5c1.334-2,3.334-3,4.334-2.333s3,1.667,5.333,1
			s10.001-2.667,9.667-0.667s-2.666,1.334-4,1.334s-3.667,0.666-4.667,1.333s-4,0.334-5-0.333S1501.667,471.5,1501.667,471.5z"/>
		<path clip-path="url(#Patty_2_)" fill="#AD5C2F" d="M1559.334,495.167c-1,1-1.667,5-3,5s-2-2.667-2-2.667l3.667-4.333l1-4
			l3.207-0.494l1.126-0.173c0,0,3-1.667,5-2s2.001,2.668-0.333,2.334s-4.334,1.332-5.667,1.666S1559.334,495.167,1559.334,495.167z"
			/>
		<path clip-path="url(#Patty_2_)" fill="#AD5C2F" d="M1466.334,559.834c0,0,3.333-2.334,5-3.667s2.999-4.667,4.333-6s4-2,4-2
			s1.334,2.667-0.333,3s-3,1.999-4,2.333s-1.667,2-1.667,3s-0.667,3.334-4,3.334"/>
		<path clip-path="url(#Patty_2_)" fill="#AD5C2F" d="M1367.001,583.834c0-2.667,2.333-3.333,3.333-3s3.999-0.333,5.333-1
			s1.667,1.333,1.667,1.333s-3,2.334-4,1.667s-2.667,0-4,1S1367.001,583.834,1367.001,583.834z"/>
		<path clip-path="url(#Patty_2_)" fill="#AD5C2F" d="M1371.667,586.167c0.453-0.453,0.906-0.7,1.359-0.866
			c0.547-0.201,1.094-0.284,1.641-0.467c1-0.334,3.667-1.667,3.667-1.667l2.667-1.667v2.334l-1,2.666c0,0-2.334,2.001-3.667,1.334
			S1371.667,586.167,1371.667,586.167z"/>
		<path clip-path="url(#Patty_2_)" fill="#AD5C2F" d="M1382.825,584.917c0.172-1.035-0.69-2.76,0-3.104
			c0.235-0.119,0.512-0.356,0.827-0.605c0.609-0.481,1.369-1.003,2.277-0.774c1.38,0.345,1.38,1.38,0.345,1.38
			c-1.034,0-1.897,0.689-1.897,0.689L1382.825,584.917z"/>
		<path clip-path="url(#Patty_2_)" fill="#AD5C2F" d="M1383.292,586.764l1.023-2.046c0,0,1.193-1.534,2.045-1.022
			c0.853,0.511,2.047,1.875,0.683,2.046c-1.364,0.17-2.728,0.341-2.728,0.341L1383.292,586.764z"/>
	</g>
</g>
<g id="Sourdough_Bun">
</g>
<g id="Brioche_Bun">
</g>
</svg>
