<?xml version="1.0" encoding="utf-8"?>
<!-- Generator: Adobe Illustrator 16.0.0, SVG Export Plug-In . SVG Version: 6.00 Build 0)  -->
<!DOCTYPE svg PUBLIC "-//W3C//DTD SVG 1.1//EN" "http://www.w3.org/Graphics/SVG/1.1/DTD/svg11.dtd">
<svg version="1.1" xmlns="http://www.w3.org/2000/svg" xmlns:xlink="http://www.w3.org/1999/xlink" x="0px" y="0px"
	 width="487.61px" height="340.711px" viewBox="1163.719 817.311 487.61 340.711"
	 enable-background="new 1163.719 817.311 487.61 340.711" xml:space="preserve">
<g id="Pickles">
</g>
<g id="Tomato">
</g>
<g id="Lettuce">
</g>
<g id="Tofu_Slice">
</g>
<g id="Swiss_Slice">
</g>
<g id="Cheddar_Slice">
</g>
<g id="Eggplant_Patty">
	<g>
		<defs>
			<path id="Eggplant_Clipping_Mask" d="M1276.163,1117.337c-26.721-11.321-63.896-33.904-53.465-103.02
				c10.431-69.113,208.041-179.132,243.857-181.265c4.468-0.266,77.027-8.635,111.261,13.17
				c27.576,17.563,21.678,24.484,13.927,48.123c-26.083,79.546-113.556,261.064-188.265,252.029
				C1369.414,1142.253,1306.906,1130.362,1276.163,1117.337z"/>
		</defs>
		<clipPath id="Eggplant_Clipping_Mask_1_">
			<use xlink:href="#Eggplant_Clipping_Mask"  overflow="visible"/>
		</clipPath>
		<path clip-path="url(#Eggplant_Clipping_Mask_1_)" fill="#F7ECAD" d="M1273.149,1123.101
			c-27.352-11.732-65.409-35.137-54.731-106.758c10.678-71.62,212.971-185.629,249.635-187.84
			c4.574-0.274,78.853-8.949,113.896,13.647c28.231,18.2,22.193,25.373,14.256,49.867
			c-26.699,82.432-116.244,270.537-192.723,261.174C1368.609,1148.921,1304.621,1136.599,1273.149,1123.101z"/>
		<path id="Highlight_1_1_" clip-path="url(#Eggplant_Clipping_Mask_1_)" fill="#FCF2C3" d="M1239.478,1015.504
			c5.124-8.539,13.269-19.038,15.577-26.538c2.308-7.501,26.539-26.539,34.039-30c7.5-3.463,10.962-18.463,16.731-22.501
			c5.769-4.039,46.154-19.615,54.231-25.962s14.424-17.886,24.809-23.655c10.385-5.769,61.156-25.385,71.54-36.924
			c10.385-11.538,47.923-10.869,60.578-5.192c5.577,2.502,18.159-1.604,24.038,4.04c9.616,9.231,2.694,15.193-1.538,26.924
			c-7.066,19.592-24.809,22.958-26.538,39.616c-1.539,14.81-10.386,26.923-18.463,34.422c-8.076,7.501-36.923,60.579-47.308,80.195
			c-10.386,19.615-30.001,52.308-60.002,66.924c-17.147,8.354-51.347,9.039-73.848,6.154c-22.5-2.886-63.751-17.404-64.904-39.328
			C1247.266,1041.755,1232.554,1027.044,1239.478,1015.504z"/>
		<path id="Dark_1" clip-path="url(#Eggplant_Clipping_Mask_1_)" fill="#3D315B" d="M1545.831,826.271
			c0,0,21.346,13.27,23.653,21.924c2.309,8.653-2.885,23.653-6.924,35.769c-4.038,12.116-61.348,136.734-75.578,154.042
			c-14.804,18.006-45.813,67.094-73.464,81.732c-19.615,10.385-39.477,20.268-58.654,20.386
			c-31.154,0.192,36.347,9.231,36.347,9.231s38.655,6.923,53.079-5.192c14.423-12.117,80.193-79.041,107.31-141.35
			c27.116-62.31,42.116-104.426,42.116-104.426s10.962-28.847,9.231-34.616c-1.731-5.77-12.693-16.154-15.578-16.731
			c-2.885-0.576-21.346-10.962-21.346-10.962L1545.831,826.271z"/>
		<path clip-path="url(#Eggplant_Clipping_Mask_1_)" fill="#4C4368" d="M1475.302,1053.295c6.73-8.269,30.124-47.368,38.366-64.137
			c3.556-7.236,14.529-29.273,14.529-29.273c0.385,7.765,8.115,3.169,6.433,9.272c-0.646,2.345,1.298,6.373,5.144,3.296
			c3.847-3.076,8.188-21.082,14.039-15.218c1.105,1.107-0.482,5.05-1.251,8.126c-0.768,3.078-1.775,13.148,3.607,9.949
			c4.567-2.714,7.908-5.431,6.37-2.354c-1.538,3.078-49.449,103.125-53.294,106.202c-3.847,3.077-16.925,23.848-19.232,14.616
			c-2.307-9.231,3.076-11.539-2.307-16.153c-5.385-4.616-9.462,3.637-14.136,10.348c-4.087,5.866-9.424,3.316-6.635-1.117
			c5.689-9.046,1.777-7.98,1.539-12.309c-0.217-3.94-9.87,1.089-9.87,1.089s2.328-3.02,2.362-3.065
			C1468.936,1061.821,1471.075,1058.485,1475.302,1053.295z"/>
		<g id="Seeds" clip-path="url(#Eggplant_Clipping_Mask_1_)">
			<path fill="#F4D4AE" d="M1399.616,968.78c-0.631-4.416,5.047-10.092,6.938-7.569c1.893,2.522-3.364,6.097-3.364,6.097
				L1399.616,968.78z"/>
			<path fill="#F4D4AE" d="M1391.734,1020.277c-0.631-4.414,5.046-10.091,6.938-7.568c1.893,2.523-3.364,6.098-3.364,6.098
				L1391.734,1020.277z"/>
			<path fill="#F4D4AE" d="M1320.275,1012.283c-0.63-4.415,5.047-10.092,6.939-7.568c1.892,2.522-3.365,6.096-3.365,6.096
				L1320.275,1012.283z"/>
			<path fill="#F4D4AE" d="M1383.041,992.028c-0.631-4.414,5.046-10.092,6.938-7.569c1.892,2.523-3.364,6.099-3.364,6.099
				L1383.041,992.028z"/>
			<path fill="#F4D4AE" d="M1450.82,938.554c-0.631-4.414,5.047-10.092,6.939-7.569c1.892,2.523-3.364,6.098-3.364,6.098
				L1450.82,938.554z"/>
			<path fill="#F4D4AE" d="M1425.979,961.129c-0.63-4.415,5.046-10.093,6.939-7.568c1.892,2.522-3.365,6.096-3.365,6.096
				L1425.979,961.129z"/>
			<path fill="#F4D4AE" d="M1415.913,998.145c-0.631-4.416,5.047-10.093,6.938-7.569c1.893,2.522-3.363,6.097-3.363,6.097
				L1415.913,998.145z"/>
			<path fill="#F4D4AE" d="M1430.159,978.997c-0.631-4.415,5.046-10.093,6.938-7.568c1.893,2.522-3.364,6.097-3.364,6.097
				L1430.159,978.997z"/>
			<path fill="#F4D4AE" d="M1391.847,941.625c-0.63-4.414,5.045-10.091,6.938-7.568c1.893,2.523-3.363,6.097-3.363,6.097
				L1391.847,941.625z"/>
			<path fill="#F4D4AE" d="M1364.384,949.395c-0.63-4.414,5.048-10.092,6.939-7.568s-3.365,6.098-3.365,6.098L1364.384,949.395z"/>
			<path fill="#F4D4AE" d="M1407.83,920.054c-0.631-4.415,5.045-10.092,6.939-7.569c1.892,2.523-3.365,6.098-3.365,6.098
				L1407.83,920.054z"/>
			<path fill="#F4D4AE" d="M1434.808,920.13c-0.631-4.414,5.046-10.092,6.938-7.568c1.893,2.523-3.363,6.096-3.363,6.096
				L1434.808,920.13z"/>
			<path fill="#F4D4AE" d="M1308.395,985.338c-0.631-4.415,5.046-10.093,6.938-7.57c1.892,2.524-3.363,6.099-3.363,6.099
				L1308.395,985.338z"/>
			<path fill="#F4D4AE" d="M1341.875,1034.721c-0.631-4.415,5.045-10.092,6.938-7.569c1.892,2.522-3.363,6.097-3.363,6.097
				L1341.875,1034.721z"/>
			<path fill="#F4D4AE" d="M1361.049,979.034c-0.631-4.415,5.045-10.092,6.939-7.569c1.892,2.522-3.365,6.098-3.365,6.098
				L1361.049,979.034z"/>
			<path fill="#F4D4AE" d="M1311.267,1035.778c-0.631-4.415,5.046-10.091,6.938-7.568c1.893,2.522-3.363,6.097-3.363,6.097
				L1311.267,1035.778z"/>
			<path fill="#F4D4AE" d="M1356.446,1003.29c-0.631-4.415,5.047-10.092,6.939-7.568c1.892,2.522-3.364,6.097-3.364,6.097
				L1356.446,1003.29z"/>
			<path fill="#F4D4AE" d="M1367.89,1047.971c-0.631-4.414,5.046-10.092,6.938-7.568c1.894,2.523-3.363,6.097-3.363,6.097
				L1367.89,1047.971z"/>
			<path fill="#F4D4AE" d="M1341.259,967.265c-0.631-4.414,5.045-10.091,6.938-7.568c1.893,2.523-3.365,6.096-3.365,6.096
				L1341.259,967.265z"/>
		</g>
	</g>
</g>
<g id="Halloumi_Patty">
</g>
<g id="Beef_Patty">
</g>
<g id="Sourdough_Bun">
</g>
<g id="Rice_Bun">
</g>
<g id="Brioche_Bun">
</g>
</svg>
