<?xml version="1.0" encoding="utf-8"?>
<!-- Generator: Adobe Illustrator 16.0.0, SVG Export Plug-In . SVG Version: 6.00 Build 0)  -->
<!DOCTYPE svg PUBLIC "-//W3C//DTD SVG 1.1//EN" "http://www.w3.org/Graphics/SVG/1.1/DTD/svg11.dtd">
<svg version="1.1" xmlns="http://www.w3.org/2000/svg" xmlns:xlink="http://www.w3.org/1999/xlink" x="0px" y="0px"
	 width="487.61px" height="340.71px" viewBox="49.081 816.647 487.61 340.71" enable-background="new 49.081 816.647 487.61 340.71"
	 xml:space="preserve">
<g id="Pickles">
</g>
<g id="Tomato">
</g>
<g id="Lettuce">
</g>
<g id="Tofu_Slice">
</g>
<g id="Swiss_Slice">
</g>
<g id="Cheddar_Slice">
</g>
<g id="Eggplant_Patty">
</g>
<g id="Halloumi_Patty">
</g>
<g id="Beef_Patty">
	<g id="Patty_Clipping_Mask">
		<defs>
			<path id="Patty_1_" d="M100.239,1000.416c-2.858-7.858,14.086-27.053,19.378-24.547c8.181,3.877,4.306-7.318,17.224-7.75
				c5.131-0.171,1.835-11.181,5.167-12.057c8.182-2.154,16.509-13.062,17.657-18.805c1.146-5.74,8.036-16.074,14.926-17.225
				c6.892-1.148,14.93-8.036,18.373-12.631c3.445-4.592,6.889-11.483,12.631-11.483c5.744,0,9.186,4.595,13.78-2.296
				c4.594-6.889,11.482-11.482,18.373-13.78c6.891-2.297,21.818-1.146,25.264-6.89c3.445-5.741,6.89-13.779,12.631-13.779
				c5.74,0,12.631-3.444,17.224-8.038c4.595-4.593,14.927-11.481,19.521-9.187c4.595,2.297,12.633,8.037,18.374,1.147
				s13.779-13.778,20.669-11.482c6.889,2.296,10.337,14.929,21.819,4.593c11.482-10.334,20.668-11.484,21.817-6.891
				c1.148,4.594,16.076,9.188,25.263,5.743c9.186-3.445,13.78-5.743,14.929-1.149c1.146,4.594,12.633,12.633,17.224,13.78
				c4.593,1.148,4.593,2.296,4.593,6.889c0,4.595,6.89,8.04,10.335,10.336c3.445,2.297,11.485,5.74,12.633,9.186
				c1.148,3.445-3.446,13.78,2.297,14.929c5.74,1.149,25.261,12.633,26.409,17.225c1.149,4.595-1.148,4.595-3.444,10.334
				c-2.295,5.743,4.594,8.039,4.594,12.632c0,4.595-10.335,6.893-10.335,16.079c0,9.185,5.741,17.221-1.149,21.816
				c-6.889,4.593-13.779,2.295-12.631,17.224c1.149,14.929-5.741,27.56-11.484,27.56c-5.739,0-13.777,6.891-13.777,13.78
				s-13.781,16.078-17.226,16.078c-3.446,0-10.335,14.926-10.335,14.926s-6.89,8.04-12.631,8.04s-19.521,2.295-19.521,6.889
				s-16.077,14.93-25.265,14.93c-9.186,0-16.075,3.444-20.67,10.334c-4.593,6.89-32.152,18.372-35.597,12.632
				c-3.445-5.742-13.779-2.298-20.668,2.295c-6.893,4.594-25.264,16.078-33.302,16.078c-8.04,0-29.857,5.74-33.301,12.63
				c-3.445,6.891-12.632,10.336-18.373,6.891c-5.741-3.446-20.667-6.892-26.411-1.148c-5.741,5.742-20.669-5.742-20.669-5.742
				s-0.001-12.632-5.742-11.483c-5.742,1.149-20.668-2.299-21.816-6.891c-1.15-4.591-6.89-17.222-14.93-14.925
				c-8.038,2.296-18.373-1.15-18.373-5.745c0-4.591,4.591-20.667,0-21.816c-4.592-1.148-20.667-8.038-18.373-14.927
				c2.297-6.892,8.041-16.077,3.446-19.522c-4.595-3.443-8.182-4.596-8.182-10.336s7.321-7.751,3.445-15.503
				C83.703,1014.707,101.962,1005.152,100.239,1000.416z"/>
		</defs>
		<clipPath id="Patty_2_">
			<use xlink:href="#Patty_1_"  overflow="visible"/>
		</clipPath>
		<path id="Patty_Fill" clip-path="url(#Patty_2_)" fill="#7F3909" d="M84.105,1001.972c-3.098-8.504,15.269-29.283,21.003-26.569
			c8.87,4.194,4.667-7.925,18.67-8.391c5.563-0.183,1.99-12.104,5.6-13.05c8.87-2.333,17.895-14.139,19.14-20.357
			c1.244-6.213,8.711-17.399,16.178-18.644c7.47-1.243,16.182-8.699,19.916-13.673s7.467-12.431,13.691-12.431
			c6.227,0,9.957,4.974,14.939-2.486c4.978-7.458,12.445-12.429,19.912-14.915c7.468-2.487,23.649-1.243,27.385-7.459
			c3.733-6.214,7.467-14.915,13.69-14.915c6.223,0,13.693-3.729,18.67-8.701c4.981-4.974,16.18-12.432,21.16-9.945
			c4.98,2.485,13.691,8.699,19.915,1.242c6.223-7.457,14.937-14.915,22.404-12.429c7.467,2.484,11.203,16.158,23.65,4.972
			c12.444-11.188,22.403-12.432,23.646-7.46c1.247,4.973,17.427,9.946,27.384,6.218c9.957-3.729,14.939-6.218,16.183-1.245
			c1.242,4.974,13.691,13.674,18.67,14.916c4.975,1.245,4.975,2.485,4.975,7.458c0,4.975,7.469,8.702,11.204,11.188
			c3.734,2.488,12.447,6.215,13.694,9.946c1.241,3.728-3.738,14.916,2.487,16.157c6.221,1.246,27.381,13.675,28.627,18.646
			c1.245,4.972-1.246,4.972-3.734,11.187c-2.488,6.216,4.979,8.702,4.979,13.672c0,4.974-11.2,7.463-11.2,17.406
			c0,9.942,6.221,18.641-1.247,23.617c-7.467,4.97-14.938,2.483-13.692,18.643c1.246,16.162-6.223,29.834-12.446,29.834
			c-6.222,0-14.936,7.458-14.936,14.916c0,7.457-14.938,17.404-18.669,17.404c-3.736,0-11.204,16.154-11.204,16.154
			s-7.468,8.704-13.69,8.704c-6.222,0-21.158,2.484-21.158,7.458s-17.428,16.162-27.384,16.162c-9.957,0-17.425,3.727-22.404,11.187
			c-4.979,7.457-34.853,19.888-38.586,13.672c-3.734-6.215-14.935-2.487-22.403,2.484c-7.471,4.974-27.385,17.403-36.095,17.403
			c-8.715,0-32.363,6.214-36.097,13.673c-3.733,7.461-13.689,11.188-19.915,7.461c-6.22-3.732-22.401-7.462-28.628-1.247
			c-6.223,6.217-22.404-6.214-22.404-6.214s-0.001-13.675-6.223-12.43c-6.225,1.242-22.404-2.488-23.648-7.459
			c-1.246-4.972-7.468-18.643-16.183-16.155c-8.711,2.483-19.913-1.247-19.913-6.22c0-4.969,4.975-22.371,0-23.616
			c-4.98-1.241-22.403-8.701-19.916-16.159c2.489-7.458,8.715-17.403,3.737-21.132c-4.982-3.727-8.871-4.975-8.871-11.189
			c0-6.212,7.934-8.388,3.736-16.78C66.18,1017.443,85.973,1007.1,84.105,1001.972z"/>
		<path id="Bottom_Shadow_1" clip-path="url(#Patty_2_)" fill="#632B05" d="M487.462,866.938
			c-2.097,2.098-12.163,5.452-12.163,8.808c0,3.357-2.518,10.068-0.419,10.907c2.097,0.838,9.227-0.84,12.582-0.84
			c3.356,0,26.846,13.424,26.846,14.682c0,1.259-2.936,7.13-5.453,8.388c-2.517,1.259-9.228,2.518-9.228,5.455
			c0,2.936,0.419,6.29,1.678,7.129c1.258,0.84,2.098,0.841,5.033,1.679s7.97,2.936,6.712,6.711c-1.259,3.775-7.131,5.034-8.39,5.034
			c-1.258,0-8.388,1.677-8.808,3.774s0,10.485,1.258,11.745c1.259,1.258-3.355,11.744-8.39,13.422
			c-5.033,1.678-13.002,5.034-13.002,7.551s1.992,8.493,1.992,11.43s1.31,17.197-8.338,18.875c-9.646,1.679-9.701,0.943-13.056,4.72
			c-3.354,3.774-4.509,5.242-3.25,8.179c1.258,2.938,0.628,3.407-0.21,5.506c-0.838,2.098-4.352,8.757-8.966,9.595
			c-4.615,0.838-8.023-0.418-11.378,1.679c-3.354,2.096-2.33,3.686-3.354,6.711c-1.154,3.408-2.099,1.679-2.938,5.873
			c-0.838,4.193-4.612,2.517-9.646,5.033c-5.033,2.518-11.744,3.354-16.359,4.612c-4.614,1.26-8.808,2.097-10.905,6.293
			c-2.099,4.195-5.453,7.13-9.229,7.55c-3.774,0.42-13.004,0-15.521,3.774c-2.517,3.776-10.484,1.68-17.197,6.713
			c-6.711,5.033-17.199,16.778-23.07,16.778c-5.872,0-31.039,0.001-32.297,4.613c-1.258,4.613-7.131,9.647-10.907,13.004
			c-3.775,3.355-14.681,9.646-18.456,10.067c-3.775,0.419-12.164-1.679-15.938-1.26c-3.775,0.419-10.487-0.839-14.262,2.937
			c-3.775,3.775-8.39,20.972-20.134,8.809c-11.745-12.164-12.583-8.389-14.68-6.711c-2.098,1.678-4.194,11.744-6.292,13.841
			c-2.098,2.099-9.649,2.097-11.746,0.421c-2.096-1.679-7.13-5.033-7.969-7.131s-3.774-3.776-2.936-6.712
			c0.838-2.936,1.677-11.325,0.419-12.584c-1.259-1.258-3.356-0.419-5.873,2.098s-4.194,6.294-6.711,7.132s-2.518,2.935-8.39,0.838
			c-5.871-2.098-8.388-1.68-11.744-3.775c-3.356-2.097-2.936-6.712-2.517-10.066c0.418-3.355,4.195-8.81-1.678-10.486
			c-5.873-1.678-7.13,0.419-10.067,1.677c-2.937,1.259-5.453,2.098-10.906,2.098c-5.453,0-8.809-3.774-8.809-6.291
			s6.712-11.326,8.39-16.359s8.809-15.939,6.292-17.198c-2.517-1.258-9.229,2.099-12.165,2.938
			c-2.936,0.838-10.906,2.518-13.842,1.258c-2.936-1.258-4.614-2.517-5.033-6.291c-0.419-3.775,7.131-10.907,9.647-14.682
			c2.517-3.775,4.614-7.55-0.42-8.809c-5.034-1.258-5.873,1.679-10.067-0.419c-4.194-2.099-5.872-4.196-5.872-6.713
			s5.453-4.612,7.97-6.71c2.517-2.098,5.035-5.032,2.098-5.452s-5.454-1.261-8.389-0.42c-2.937,0.839-10.066,13.841-10.487,17.196
			c-0.42,3.357,0.84,25.169,2.517,31.041c1.678,5.872,11.743,12.163,14.68,19.713c2.937,7.551,11.746,18.459,13.423,20.555
			c1.678,2.097,14.263,15.099,22.231,18.456c7.969,3.355,29.782,12.583,32.718,13.841c2.936,1.26,5.451,11.327,10.905,11.746
			c5.454,0.419,21.813,2.938,25.588,2.517c3.775-0.42,26.005,1.676,29.78,2.097c3.775,0.421,15.1-6.71,17.198-9.646
			c2.097-2.937,22.231-7.969,27.265-7.551c5.034,0.419,24.327-3.775,27.264-7.55c2.937-3.775,16.779-16.359,19.296-13.843
			c2.518,2.517,31.877,0.418,37.331-2.937s17.618-12.164,20.555-14.681c2.936-2.517,11.324,0,21.811-5.872
			c10.485-5.873,14.682-14.261,15.94-16.777c1.258-2.517,20.553-5.033,25.586-8.391c5.033-3.355,11.325-12.582,15.101-16.776
			c3.774-4.196,5.872-2.938,12.584-9.229c6.71-6.293,8.388-13.422,9.227-15.52c0.84-2.098,14.681-14.262,16.359-16.778
			c1.678-2.517,7.552-21.392,9.229-24.748c1.678-3.356,9.647-20.974,12.583-25.167c2.937-4.194-4.194-7.553-2.098-13.424
			c2.098-5.871,11.326-19.294,10.067-24.327c-1.258-5.033-2.516-8.81-1.677-12.584c0.838-3.775,6.711-13.422,5.033-15.52
			c-1.679-2.098-4.194-7.551-11.326-7.971c-7.131-0.419-10.486-0.838-12.164-5.871C495.853,875.327,487.462,866.938,487.462,866.938
			z"/>
		<path id="Grill_5" clip-path="url(#Patty_2_)" fill="#632B05" d="M126.908,1017.787c0,1.459,15.547,7.774,18.462,7.774
			s18.948-4.858,22.835-1.942c3.887,2.914,53.929,6.315,56.845,6.315c2.916,0,30.124-1.942,32.553,0
			c2.43,1.943,40.812,2.913,43.726,2.429c2.916-0.485,46.158,0.972,49.072,1.943c2.915,0.973,22.836,1.458,24.778,1.458
			c1.943,0,8.261-3.887,12.147-3.887s14.089-1.457,15.061-3.4c0.972-1.944-2.915-2.916-8.26-2.916
			c-5.344,0-19.92-2.914-24.778-2.429c-4.857,0.486-5.345,0.973-12.146,2.915c-6.802,1.943-21.863,2.43-27.208,1.458
			c-5.343-0.973-17.49-4.859-23.806-4.859c-6.316,0-24.293,1.459-29.152,1.943c-4.859,0.485-29.636,2.429-31.581,1.943
			c-1.944-0.485-23.321-8.746-27.208-8.746c-3.887,0-7.289,0.487-22.35-0.971s-23.807,2.917-28.18,2.43
			c-4.372-0.486-20.405-5.344-26.722-4.858C134.682,1014.873,126.908,1017.787,126.908,1017.787z"/>
		<path id="Grill_4" clip-path="url(#Patty_2_)" fill="#632B05" d="M159.03,1071.634c-1.258-2.938,3.355-5.874,5.452-5.874
			c2.098,0,25.169,1.678,28.524,1.678c3.355,0,15.519,0.001,18.036,2.938c2.517,2.936,15.94,4.194,18.875,4.194
			s14.682-2.098,17.198-2.517s20.972-0.419,24.747,0c3.775,0.419,13.424,2.517,16.779,1.258c3.355-1.258,12.583-1.677,13.003,0
			c0.418,1.678-0.42,5.873-2.936,5.873c-2.518,0-18.875,0-18.875,0s-49.496,0.838-51.593-0.421
			c-2.098-1.258-21.393,0.421-23.909,0.84s-20.134-0.001-27.684-2.098S159.03,1071.634,159.03,1071.634z"/>
		<path id="Grill_3" clip-path="url(#Patty_2_)" fill="#632B05" d="M172.872,976.416c0.419-1.258,5.454-5.872,7.55-5.872
			c2.097,0,8.809-0.839,11.326,0.42c2.517,1.258,36.493,5.871,39.428,5.871s22.232-0.419,24.749-0.419s11.746,0.838,13.842,1.678
			c2.096,0.839,30.62-1.677,34.394-2.097c3.776-0.42,14.262-1.259,18.037-1.259s18.877,0.84,20.555,2.517
			c1.677,1.678,17.197,0.839,18.875,0.419c1.678-0.419,12.164-2.097,14.262-2.097c2.097,0,9.646-0.839,12.164,0.42
			c2.517,1.258,12.163,0,12.163,0s6.293,2.517,5.034,4.194c-1.258,1.677-45.302,3.775-47.818,3.775s-10.905-1.26-18.455-1.26
			c-7.551,0-68.792,0.839-70.889-0.839c-2.096-1.677-33.135,0.419-37.331,1.259c-4.196,0.84-40.268-4.195-42.785-5.033
			c-2.517-0.839-16.359,2.937-16.359,0.839S172.872,976.416,172.872,976.416z"/>
		<path id="Grill_2" clip-path="url(#Patty_2_)" fill="#632B05" d="M219.851,930.275c0.839-2.936,3.776-6.293,6.712-7.131
			c2.936-0.838,14.26-4.193,17.197-3.354c2.937,0.838,19.716,4.612,23.07,2.936c3.355-1.678,29.781-2.936,32.719-1.678
			c2.936,1.259,14.262-0.419,16.357,1.259c2.098,1.677,13.004,4.612,16.358,4.612c3.356,0,16.78-3.354,18.877-4.193
			c2.097-0.84,12.163-5.033,14.68-3.775c2.517,1.259,15.101,6.292,18.875,6.292c3.776,0,15.521-2.516,18.456-1.678
			c2.937,0.838,18.457,4.194,21.813,1.678s17.617-5.453,20.134-4.614s10.905,0.838,13.423,2.517
			c2.517,1.679,5.873,5.034,4.614,5.453c-1.258,0.419-7.55-0.42-7.55-0.42s-5.035-4.194-7.971-4.194s-9.229,0.84-10.486,2.098
			c-1.259,1.259-13.422,10.067-16.777,7.551c-3.356-2.518-10.487-5.034-12.165-5.034c-1.677,0-32.298,2.936-32.298,2.936
			s-8.81-4.614-10.487-4.614c-1.677,0-26.006,2.099-27.264,1.679c-1.259-0.42-38.171,0-44.044-1.258
			c-5.871-1.259-14.68,2.099-23.069,2.517c-8.39,0.419-27.684-1.259-32.718-2.098c-5.034-0.84-17.616,7.551-18.036,5.034
			C219.851,930.275,219.851,930.275,219.851,930.275z"/>
		<path id="Grill_1" clip-path="url(#Patty_2_)" fill="#632B05" d="M285.286,884.975l7.131-3.355c0,0,5.873-2.938,8.808-1.258
			c2.936,1.678,19.716,4.613,23.49,4.613c3.775,0,19.714-1.678,21.812-1.678s15.939,2.517,18.456,1.259
			c2.517-1.259,15.1-1.679,18.456-1.679s16.778-0.839,19.714,1.259c2.937,2.097,19.296,5.033,23.07,3.355
			c3.775-1.678,10.488-1.679,13.005-2.098s9.646-0.419,10.485,0.839c0.839,1.259-1.259,5.873-1.259,5.873s-6.29,0.418-7.969-0.42
			c-1.68-0.839-15.52,0.839-18.875,0.839c-3.357,0-50.335-1.258-56.628-2.936c-6.291-1.679-15.521-0.838-22.23,0
			c-6.711,0.838-33.138-1.679-36.912-3.356c-3.774-1.677-17.618,3.774-19.296,2.937C284.866,888.33,285.286,884.975,285.286,884.975
			z"/>
		<path clip-path="url(#Patty_2_)" fill="#AD5C2F" d="M414.049,989.122c0.486-3.887,3.401-5.829,4.858-4.372
			c1.457,1.458,8.26-0.485,8.26-0.485s7.288,0,7.773-2.429c0.485-2.431,0-4.858,0-6.803c0-1.943,1.458-7.288,1.458-7.288
			s3.887-2.429,5.345-2.429c1.456,0,5.831-1.943,5.831-1.943s3.885-5.345,4.856-6.803c0.973-1.457,0.485-7.773,2.43-7.773
			s7.289-0.001,9.719,0.485c2.428,0.487,6.801-0.486,9.717-2.429c2.914-1.943,10.688-4.372,10.688-4.372s-3.4-4.373-3.4-6.803
			c0-2.429,2.915-6.316,2.915-6.316s-0.001-7.288-1.459-7.773c-1.456-0.486-8.743-0.486-8.743-0.486s-3.402-0.972-3.402-2.429
			c0-1.458,4.373-3.887,4.373-3.887l4.373-1.943l2.915-3.401l-5.83-4.857l0.972-3.401l3.4-3.887c0,0,3.887,0.484,2.915,2.914
			c-0.973,2.43-1.457,6.317-1.457,6.317c2.52,3.876,3.57,5.554,2.73,6.393c-0.84,0.84-3.356,3.776-2.728,4.615
			c0.63,0.839,0.84,3.354,1.469,3.564s4.403,4.404,2.936,6.292c-1.466,1.887-5.243,5.454-4.404,7.132
			c0.84,1.677,5.243,5.872,3.985,7.13c-1.258,1.259-16.357,2.517-15.729,4.194c0.629,1.679-1.47,4.615-2.728,5.663
			c-1.259,1.049-10.065,5.453-11.534,2.098c-1.468-3.355-2.309-0.63-2.309,0.209c0,0.84,0.421,5.663-0.208,6.712
			c-0.629,1.048-2.937,2.938-3.775,3.146c-0.84,0.209-5.874,3.565-6.083,5.453s-3.565,1.888-5.662,1.888s-2.938-0.629-2.518,2.517
			c0.421,3.146,2.937,9.02,0,9.648c-2.936,0.629-4.614-1.68-6.291-0.42c-1.678,1.258-0.421,3.565-2.517,4.613
			c-2.097,1.049-4.824,1.678-6.292,1.049c-1.467-0.629-2.938-0.629-5.034,0.839C413.768,990.731,414.049,989.122,414.049,989.122z"
			/>
		<path clip-path="url(#Patty_2_)" fill="#AD5C2F" d="M450.132,973.899c0,0,2.098-3.354,4.614-4.194
			c2.518-0.839,4.194,0.839,4.194,0.839l-0.839,4.194c0,0-0.419,2.098-4.195,1.259c-3.774-0.839-7.969,2.517-7.969,1.258
			C445.938,975.997,450.132,973.899,450.132,973.899z"/>
		<path clip-path="url(#Patty_2_)" fill="#AD5C2F" d="M468.588,961.315c0,1.678,0.419,3.776,1.678,3.776
			c1.258,0,2.938-1.68,2.099-3.357C471.523,960.058,468.588,961.315,468.588,961.315z"/>
		<path clip-path="url(#Patty_2_)" fill="#AD5C2F" d="M434.612,989.839c-0.84,2.517-7.969,2.516-7.55,4.613s1.678,5.033,2.517,3.355
			c0.838-1.677,3.774-2.517,3.774-2.517s1.677-1.258,2.097-2.517C435.87,991.517,434.612,989.839,434.612,989.839z"/>
		<path clip-path="url(#Patty_2_)" fill="#AD5C2F" d="M371.274,964.251c1.678-2.517,4.194-3.774,5.453-2.936
			c1.258,0.839,3.774,2.098,6.711,1.259c2.937-0.84,12.585-3.356,12.164-0.84c-0.42,2.517-3.354,1.679-5.033,1.679
			c-1.678,0-4.614,0.838-5.873,1.679c-1.258,0.839-5.033,0.42-6.291-0.421C377.146,963.832,371.274,964.251,371.274,964.251z"/>
		<path clip-path="url(#Patty_2_)" fill="#AD5C2F" d="M443.84,994.033c-1.258,1.258-2.097,6.291-3.774,6.291
			c-1.679,0-2.518-3.355-2.518-3.355l4.615-5.452l1.258-5.033l4.036-0.622l1.416-0.217c0,0,3.775-2.099,6.293-2.518
			c2.517-0.42,2.518,3.357-0.42,2.938s-5.454,1.676-7.131,2.097C445.938,988.581,443.84,994.033,443.84,994.033z"/>
		<path clip-path="url(#Patty_2_)" fill="#AD5C2F" d="M326.812,1075.408c0,0,4.194-2.937,6.292-4.615
			c2.099-1.676,3.773-5.872,5.453-7.55c1.679-1.677,5.033-2.517,5.033-2.517s1.679,3.356-0.419,3.775s-3.775,2.516-5.033,2.936
			c-1.259,0.42-2.098,2.517-2.098,3.774c0,1.26-0.841,4.196-5.034,4.196"/>
		<path clip-path="url(#Patty_2_)" fill="#AD5C2F" d="M201.814,1105.609c0-3.356,2.936-4.195,4.194-3.776
			c1.258,0.42,5.032-0.419,6.711-1.258s2.098,1.678,2.098,1.678s-3.775,2.938-5.033,2.097c-1.259-0.839-3.356,0-5.034,1.26
			C203.073,1106.867,201.814,1105.609,201.814,1105.609z"/>
		<path clip-path="url(#Patty_2_)" fill="#AD5C2F" d="M207.686,1108.545c0.571-0.57,1.141-0.881,1.711-1.09
			c0.688-0.254,1.376-0.358,2.064-0.588c1.258-0.42,4.614-2.097,4.614-2.097l3.356-2.099v2.938l-1.258,3.354
			c0,0-2.938,2.518-4.615,1.679S207.686,1108.545,207.686,1108.545z"/>
		<path clip-path="url(#Patty_2_)" fill="#AD5C2F" d="M221.727,1106.972c0.216-1.302-0.869-3.473,0-3.906
			c0.296-0.15,0.644-0.448,1.041-0.763c0.767-0.605,1.723-1.261,2.866-0.974c1.736,0.434,1.736,1.736,0.434,1.736
			c-1.301,0-2.388,0.867-2.388,0.867L221.727,1106.972z"/>
		<path clip-path="url(#Patty_2_)" fill="#AD5C2F" d="M222.314,1109.296l1.288-2.575c0,0,1.501-1.931,2.573-1.286
			c1.073,0.643,2.576,2.36,0.859,2.574c-1.717,0.214-3.432,0.429-3.432,0.429L222.314,1109.296z"/>
	</g>
</g>
<g id="Sourdough_Bun">
</g>
<g id="Rice_Bun">
</g>
<g id="Brioche_Bun">
</g>
</svg>
