<?xml version="1.0" encoding="utf-8"?>
<!-- Generator: Adobe Illustrator 16.0.0, SVG Export Plug-In . SVG Version: 6.00 Build 0)  -->
<!DOCTYPE svg PUBLIC "-//W3C//DTD SVG 1.1//EN" "http://www.w3.org/Graphics/SVG/1.1/DTD/svg11.dtd">
<svg version="1.1" xmlns="http://www.w3.org/2000/svg" xmlns:xlink="http://www.w3.org/1999/xlink" x="0px" y="0px"
	 width="487.61px" height="340.711px" viewBox="1163.719 817.311 487.61 340.711"
	 enable-background="new 1163.719 817.311 487.61 340.711" xml:space="preserve">
<g id="Eggplant_Patty">
	<g>
		<defs>
			<path id="Eggplant_Clipping_Mask" d="M1292.793,1099.253c-23.156-9.812-55.375-29.384-46.335-89.282
				c9.04-59.896,180.299-155.244,211.339-157.092c3.872-0.23,66.756-7.484,96.424,11.413c23.899,15.222,18.787,21.22,12.069,41.705
				c-22.604,68.938-98.413,226.252-163.158,218.421C1373.609,1120.847,1319.438,1110.541,1292.793,1099.253z"/>
		</defs>
		<clipPath id="Eggplant_Clipping_Mask_1_">
			<use xlink:href="#Eggplant_Clipping_Mask"  overflow="visible"/>
		</clipPath>
		<path clip-path="url(#Eggplant_Clipping_Mask_1_)" fill="#F7ECAD" d="M1290.182,1104.247
			c-23.704-10.168-56.687-30.45-47.433-92.521c9.254-62.069,184.57-160.875,216.346-162.791c3.964-0.238,68.337-7.756,98.707,11.827
			c24.467,15.773,19.233,21.989,12.354,43.218c-23.139,71.439-100.742,234.46-167.022,226.345
			C1372.912,1126.624,1317.457,1115.945,1290.182,1104.247z"/>
		<path id="Highlight_1_1_" clip-path="url(#Eggplant_Clipping_Mask_1_)" fill="#FCF2C3" d="M1261,1011
			c4.44-7.401,11.5-16.5,13.5-23s23-23,29.5-26s9.5-16,14.5-19.5s40-17,47-22.5s12.5-15.5,21.5-20.5s53-22,62-32
			s41.532-9.42,52.5-4.5c4.833,2.168,15.738-1.391,20.833,3.501c8.333,8,2.334,13.167-1.333,23.333
			c-6.125,16.979-21.501,19.897-23,34.334c-1.333,12.834-9,23.332-16,29.832s-32,52.5-41,69.5s-26,45.333-52,58
			c-14.86,7.24-44.5,7.833-64,5.333s-55.25-15.083-56.25-34.083S1255,1021,1261,1011z"/>
		<path id="Dark_1" clip-path="url(#Eggplant_Clipping_Mask_1_)" fill="#3D315B" d="M1526.5,847c0,0,18.5,11.5,20.5,19
			s-2.5,20.5-6,31s-53.167,118.5-65.5,133.5c-12.83,15.604-39.703,58.146-63.667,70.833c-17,9-34.213,17.564-50.833,17.667
			c-27,0.167,31.5,8,31.5,8s33.5,6,46-4.5s69.5-68.5,93-122.5s36.5-90.5,36.5-90.5s9.5-25,8-30s-11-14-13.5-14.5s-18.5-9.5-18.5-9.5
			L1526.5,847z"/>
		<path clip-path="url(#Eggplant_Clipping_Mask_1_)" fill="#4C4368" d="M1465.376,1043.751c5.834-7.166,26.107-41.052,33.25-55.584
			c3.082-6.271,12.593-25.37,12.593-25.37c0.333,6.729,7.032,2.746,5.574,8.036c-0.561,2.032,1.125,5.522,4.458,2.856
			s7.096-18.271,12.167-13.188c0.958,0.96-0.418,4.376-1.084,7.043s-1.539,11.395,3.126,8.622c3.958-2.353,6.854-4.707,5.521-2.04
			s-42.854,89.373-46.188,92.04s-14.667,20.667-16.667,12.667s2.666-10-2-14s-8.199,3.153-12.25,8.968
			c-3.542,5.084-8.167,2.875-5.75-0.968c4.931-7.84,1.541-6.916,1.334-10.667c-0.188-3.414-8.554,0.943-8.554,0.943
			s2.018-2.616,2.047-2.656C1459.859,1051.141,1461.714,1048.249,1465.376,1043.751z"/>
	</g>
	<g id="Seeds">
		<path fill="#F4D4AE" d="M1399.784,970.506c-0.547-3.826,4.373-8.746,6.013-6.56c1.641,2.187-2.916,5.284-2.916,5.284
			L1399.784,970.506z"/>
		<path fill="#F4D4AE" d="M1392.953,1015.137c-0.547-3.826,4.373-8.746,6.013-6.56s-2.916,5.284-2.916,5.284L1392.953,1015.137z"/>
		<path fill="#F4D4AE" d="M1331.023,1008.208c-0.546-3.826,4.373-8.746,6.014-6.56c1.64,2.187-2.916,5.283-2.916,5.283
			L1331.023,1008.208z"/>
		<path fill="#F4D4AE" d="M1385.419,990.654c-0.547-3.826,4.373-8.746,6.013-6.56s-2.916,5.284-2.916,5.284L1385.419,990.654z"/>
		<path fill="#F4D4AE" d="M1444.16,944.311c-0.547-3.826,4.373-8.746,6.014-6.56c1.64,2.187-2.916,5.284-2.916,5.284
			L1444.16,944.311z"/>
		<path fill="#F4D4AE" d="M1422.631,963.875c-0.546-3.826,4.373-8.746,6.014-6.56c1.64,2.187-2.916,5.283-2.916,5.283
			L1422.631,963.875z"/>
		<path fill="#F4D4AE" d="M1413.908,995.954c-0.547-3.826,4.373-8.746,6.013-6.56s-2.915,5.284-2.915,5.284L1413.908,995.954z"/>
		<path fill="#F4D4AE" d="M1426.254,979.36c-0.547-3.826,4.373-8.746,6.014-6.56c1.64,2.187-2.916,5.284-2.916,5.284
			L1426.254,979.36z"/>
		<path fill="#F4D4AE" d="M1393.05,946.973c-0.546-3.826,4.373-8.746,6.013-6.56c1.641,2.187-2.915,5.284-2.915,5.284
			L1393.05,946.973z"/>
		<path fill="#F4D4AE" d="M1369.25,953.706c-0.546-3.826,4.374-8.746,6.014-6.56s-2.916,5.284-2.916,5.284L1369.25,953.706z"/>
		<path fill="#F4D4AE" d="M1406.902,928.277c-0.547-3.826,4.373-8.746,6.014-6.56c1.64,2.187-2.916,5.284-2.916,5.284
			L1406.902,928.277z"/>
		<path fill="#F4D4AE" d="M1430.282,928.344c-0.547-3.826,4.373-8.746,6.013-6.56c1.641,2.187-2.915,5.283-2.915,5.283
			L1430.282,928.344z"/>
		<path fill="#F4D4AE" d="M1320.727,984.855c-0.547-3.826,4.373-8.746,6.013-6.56s-2.915,5.284-2.915,5.284L1320.727,984.855z"/>
		<path fill="#F4D4AE" d="M1349.742,1027.653c-0.547-3.826,4.373-8.746,6.013-6.56s-2.915,5.283-2.915,5.283L1349.742,1027.653z"/>
		<path fill="#F4D4AE" d="M1366.359,979.393c-0.547-3.826,4.373-8.746,6.014-6.56c1.64,2.187-2.916,5.284-2.916,5.284
			L1366.359,979.393z"/>
		<path fill="#F4D4AE" d="M1323.216,1028.57c-0.547-3.826,4.373-8.746,6.013-6.56c1.641,2.187-2.915,5.284-2.915,5.284
			L1323.216,1028.57z"/>
		<path fill="#F4D4AE" d="M1362.371,1000.414c-0.547-3.826,4.373-8.746,6.014-6.56c1.64,2.187-2.916,5.284-2.916,5.284
			L1362.371,1000.414z"/>
		<path fill="#F4D4AE" d="M1372.288,1039.137c-0.547-3.826,4.373-8.746,6.013-6.56c1.641,2.187-2.915,5.284-2.915,5.284
			L1372.288,1039.137z"/>
		<path fill="#F4D4AE" d="M1349.208,969.193c-0.547-3.826,4.373-8.746,6.013-6.56c1.641,2.187-2.916,5.283-2.916,5.283
			L1349.208,969.193z"/>
	</g>
</g>
<g id="Halloumi_Patty">
</g>
<g id="Beef_Patty">
</g>
<g id="Sourdough_Bun">
</g>
<g id="Rice_Bun">
</g>
<g id="Brioche_Bun">
</g>
</svg>
